<svg xmlns="http://www.w3.org/2000/svg" xmlns:xlink="http://www.w3.org/1999/xlink" contentStyleType="text/css" data-diagram-type="DESCRIPTION" height="2205px" preserveAspectRatio="xMidYMid meet" style="width:100%;height:100%;background:#F7F9FC;" version="1.1" viewBox="0 0 2403 2205" width="2403.75px" zoomAndPan="magnify"><title>Heat Exchanger Portal &#8212; Architecture (Diagram 1)</title><defs><linearGradient id="guh74wfjtgqem0" x1="50%" x2="50%" y1="0%" y2="100%"><stop offset="0%" stop-color="#EEF2FF"/><stop offset="100%" stop-color="#E2E8F0"/></linearGradient><filter height="300%" id="fuh74wfjtgqem" width="300%" x="-1" y="-1"><feGaussianBlur result="blurOut" stdDeviation="2.5"/><feColorMatrix in="blurOut" result="blurOut2" type="matrix" values="0 0 0 0 0 0 0 0 0 0 0 0 0 0 0 0 0 0 .4 0"/><feOffset dx="5" dy="5" in="blurOut2" result="blurOut3"/><feBlend in="SourceGraphic" in2="blurOut3" mode="normal"/></filter><linearGradient id="guh74wfjtgqem1" x1="50%" x2="50%" y1="0%" y2="100%"><stop offset="0%" stop-color="#1F2937"/><stop offset="100%" stop-color="#0F172A"/></linearGradient></defs><g><rect fill="#F7F9FC" height="2205" style="stroke:none;stroke-width:1.25;" width="2403.75" x="0" y="0"/><text fill="#111827" font-family="sans-serif" font-size="25" font-weight="bold" lengthAdjust="spacing" textLength="712.0117" x="837.4948" y="35.7056">Heat Exchanger Portal &#8212; Architecture (Diagram 1)</text><!--cluster portal--><g class="cluster" data-entity="portal" data-source-line="121" data-uid="ent0005" id="cluster_portal"><rect fill="url(#guh74wfjtgqem0)" filter="url(#fuh74wfjtgqem)" height="1871.4125" rx="11.25" ry="11.25" style="stroke:#94A3B8;stroke-width:1.25;" width="1647.5" x="311.9375" y="64.1016"/><path d="M546.332,64.1016 L546.332,75.7227 L533.832,88.2227 L311.9375,88.2227" fill="none" style="stroke:#94A3B8;stroke-width:1.25;"/><text fill="#111827" font-family="sans-serif" font-size="17.5" font-weight="bold" lengthAdjust="spacing" textLength="221.8945" x="315.6875" y="81.5955">Heat Exchanger Portal</text></g><!--cluster pkg_front--><g class="cluster" data-entity="pkg_front" data-source-line="124" data-uid="ent0006" id="cluster_pkg_front"><path d="M353.1875,447.0266 L428.4731,447.0266 A16.875,16.875 0 0 1 439.7231,458.2766 L448.4731,474.8977 L615.6875,474.8977 A11.25,11.25 0 0 1 626.9375,486.1477 L626.9375,927.3141 A11.25,11.25 0 0 1 615.6875,938.5641 L353.1875,938.5641 A11.25,11.25 0 0 1 341.9375,927.3141 L341.9375,458.2766 A11.25,11.25 0 0 1 353.1875,447.0266" fill="url(#guh74wfjtgqem0)" filter="url(#fuh74wfjtgqem)" style="stroke:#94A3B8;stroke-width:1.875;"/><line style="stroke:#94A3B8;stroke-width:1.875;" x1="341.9375" x2="448.4731" y1="474.8977" y2="474.8977"/><text fill="#111827" font-family="sans-serif" font-size="17.5" font-weight="bold" lengthAdjust="spacing" textLength="90.2856" x="346.9375" y="465.7705">Frontend</text></g><!--cluster pkg_gw--><g class="cluster" data-entity="pkg_gw" data-source-line="130" data-uid="ent0009" id="cluster_pkg_gw"><path d="M748.1875,755.8266 L857.9519,755.8266 A16.875,16.875 0 0 1 869.2019,767.0766 L877.9519,783.6977 L1428.1875,783.6977 A11.25,11.25 0 0 1 1439.4375,794.9477 L1439.4375,927.3141 A11.25,11.25 0 0 1 1428.1875,938.5641 L748.1875,938.5641 A11.25,11.25 0 0 1 736.9375,927.3141 L736.9375,767.0766 A11.25,11.25 0 0 1 748.1875,755.8266" fill="url(#guh74wfjtgqem0)" filter="url(#fuh74wfjtgqem)" style="stroke:#94A3B8;stroke-width:1.875;"/><line style="stroke:#94A3B8;stroke-width:1.875;" x1="736.9375" x2="877.9519" y1="783.6977" y2="783.6977"/><text fill="#111827" font-family="sans-serif" font-size="17.5" font-weight="bold" lengthAdjust="spacing" textLength="124.7644" x="741.9375" y="774.5705">API Gateway</text></g><!--cluster pkg_app--><g class="cluster" data-entity="pkg_app" data-source-line="136" data-uid="ent0012" id="cluster_pkg_app"><path d="M923.1875,1074.8141 L1109.0701,1074.8141 A16.875,16.875 0 0 1 1120.3201,1086.0641 L1129.0701,1102.6852 L1598.1875,1102.6852 A11.25,11.25 0 0 1 1609.4375,1113.9352 L1609.4375,1565.2766 A11.25,11.25 0 0 1 1598.1875,1576.5266 L923.1875,1576.5266 A11.25,11.25 0 0 1 911.9375,1565.2766 L911.9375,1086.0641 A11.25,11.25 0 0 1 923.1875,1074.8141" fill="url(#guh74wfjtgqem0)" filter="url(#fuh74wfjtgqem)" style="stroke:#94A3B8;stroke-width:1.875;"/><line style="stroke:#94A3B8;stroke-width:1.875;" x1="911.9375" x2="1129.0701" y1="1102.6852" y2="1102.6852"/><text fill="#111827" font-family="sans-serif" font-size="17.5" font-weight="bold" lengthAdjust="spacing" textLength="200.8826" x="916.9375" y="1093.558">Application Services</text></g><!--cluster pkg_data--><g class="cluster" data-entity="pkg_data" data-source-line="144" data-uid="ent0017" id="cluster_pkg_data"><path d="M513.1875,1712.7766 L605.657,1712.7766 A16.875,16.875 0 0 1 616.907,1724.0266 L625.657,1740.6477 L1433.1875,1740.6477 A11.25,11.25 0 0 1 1444.4375,1751.8977 L1444.4375,1894.2641 A11.25,11.25 0 0 1 1433.1875,1905.5141 L513.1875,1905.5141 A11.25,11.25 0 0 1 501.9375,1894.2641 L501.9375,1724.0266 A11.25,11.25 0 0 1 513.1875,1712.7766" fill="url(#guh74wfjtgqem0)" filter="url(#fuh74wfjtgqem)" style="stroke:#94A3B8;stroke-width:1.875;"/><line style="stroke:#94A3B8;stroke-width:1.875;" x1="501.9375" x2="625.657" y1="1740.6477" y2="1740.6477"/><text fill="#111827" font-family="sans-serif" font-size="17.5" font-weight="bold" lengthAdjust="spacing" textLength="107.4695" x="506.9375" y="1731.5205">Data Layer</text></g><!--cluster pkg_obs--><g class="cluster" data-entity="pkg_obs" data-source-line="151" data-uid="ent0021" id="cluster_pkg_obs"><path d="M1654.4375,1393.7891 L1906.6116,1393.7891 A16.875,16.875 0 0 1 1917.8616,1405.0391 L1926.6116,1421.6602 L1918.1875,1421.6602 A11.25,11.25 0 0 1 1929.4375,1432.9102 L1929.4375,1889.2641 A11.25,11.25 0 0 1 1918.1875,1900.5141 L1654.4375,1900.5141 A11.25,11.25 0 0 1 1643.1875,1889.2641 L1643.1875,1405.0391 A11.25,11.25 0 0 1 1654.4375,1393.7891" fill="url(#guh74wfjtgqem0)" filter="url(#fuh74wfjtgqem)" style="stroke:#94A3B8;stroke-width:1.875;"/><line style="stroke:#94A3B8;stroke-width:1.875;" x1="1643.1875" x2="1926.6116" y1="1421.6602" y2="1421.6602"/><text fill="#111827" font-family="sans-serif" font-size="17.5" font-weight="bold" lengthAdjust="spacing" textLength="267.1741" x="1648.1875" y="1412.533">Monitoring &amp; Observability</text></g><!--cluster pkg_platform--><g class="cluster" data-entity="pkg_platform" data-source-line="157" data-uid="ent0024" id="cluster_pkg_platform"><path d="M1555.6875,117.8516 L1735.3408,117.8516 A16.875,16.875 0 0 1 1746.5908,129.1016 L1755.3408,145.7227 L1825.6875,145.7227 A11.25,11.25 0 0 1 1836.9375,156.9727 L1836.9375,927.3141 A11.25,11.25 0 0 1 1825.6875,938.5641 L1555.6875,938.5641 A11.25,11.25 0 0 1 1544.4375,927.3141 L1544.4375,129.1016 A11.25,11.25 0 0 1 1555.6875,117.8516" fill="url(#guh74wfjtgqem0)" filter="url(#fuh74wfjtgqem)" style="stroke:#94A3B8;stroke-width:1.875;"/><line style="stroke:#94A3B8;stroke-width:1.875;" x1="1544.4375" x2="1755.3408" y1="145.7227" y2="145.7227"/><text fill="#111827" font-family="sans-serif" font-size="17.5" font-weight="bold" lengthAdjust="spacing" textLength="194.6533" x="1549.4375" y="136.5955">Platform &amp; Delivery</text></g><!--entity spa--><g class="entity" data-entity="spa" data-source-line="125" data-uid="ent0007" id="entity_spa"><polygon fill="#2D314A" filter="url(#fuh74wfjtgqem)" points="405.825,503.2766,418.325,490.7766,563.0638,490.7766,563.0638,576.8898,550.5638,589.3898,405.825,589.3898,405.825,503.2766" style="stroke:#9CA3AF;stroke-width:0.625;"/><line style="stroke:#9CA3AF;stroke-width:0.625;" x1="550.5638" x2="563.0638" y1="503.2766" y2="490.7766"/><line style="stroke:#9CA3AF;stroke-width:0.625;" x1="405.825" x2="550.5638" y1="503.2766" y2="503.2766"/><line style="stroke:#9CA3AF;stroke-width:0.625;" x1="550.5638" x2="550.5638" y1="503.2766" y2="589.3898"/><text fill="#FFFFFF" font-family="sans-serif" font-size="17.5" font-style="italic" lengthAdjust="spacing" textLength="96.3953" x="429.9968" y="532.0205">&#171;frontend&#187;</text><text fill="#FFFFFF" font-family="sans-serif" font-size="17.5" lengthAdjust="spacing" textLength="107.2388" x="424.575" y="552.3916">Angular SPA</text><text fill="#FFFFFF" font-family="sans-serif" font-size="17.5" lengthAdjust="spacing" textLength="104.3335" x="424.575" y="572.7626">&#171;container&#187;</text></g><!--entity realtime--><g class="entity" data-entity="realtime" data-source-line="126" data-uid="ent0008" id="entity_realtime"><polygon fill="#2D314A" filter="url(#fuh74wfjtgqem)" points="361.9625,812.0766,374.4625,799.5766,606.932,799.5766,606.932,906.0609,594.432,918.5609,361.9625,918.5609,361.9625,812.0766" style="stroke:#9CA3AF;stroke-width:0.625;"/><line style="stroke:#9CA3AF;stroke-width:0.625;" x1="594.432" x2="606.932" y1="812.0766" y2="799.5766"/><line style="stroke:#9CA3AF;stroke-width:0.625;" x1="361.9625" x2="594.432" y1="812.0766" y2="812.0766"/><line style="stroke:#9CA3AF;stroke-width:0.625;" x1="594.432" x2="594.432" y1="812.0766" y2="918.5609"/><text fill="#FFFFFF" font-family="sans-serif" font-size="17.5" font-style="italic" lengthAdjust="spacing" textLength="96.3953" x="429.9996" y="840.8205">&#171;frontend&#187;</text><text fill="#FFFFFF" font-family="sans-serif" font-size="17.5" lengthAdjust="spacing" textLength="186.3562" x="380.7125" y="861.1916">Real-time Integration</text><text fill="#FFFFFF" font-family="sans-serif" font-size="17.5" lengthAdjust="spacing" textLength="194.9695" x="380.7125" y="881.5626">(SignalR / WebSocket)</text><text fill="#FFFFFF" font-family="sans-serif" font-size="17.5" lengthAdjust="spacing" textLength="120.415" x="380.7125" y="901.9337">&#171;component&#187;</text></g><!--entity extgw--><g class="entity" data-entity="extgw" data-source-line="131" data-uid="ent0010" id="entity_extgw"><polygon fill="#2D314A" filter="url(#fuh74wfjtgqem)" points="757.2875,812.0766,769.7875,799.5766,986.5856,799.5766,986.5856,906.0609,974.0856,918.5609,757.2875,918.5609,757.2875,812.0766" style="stroke:#9CA3AF;stroke-width:0.625;"/><line style="stroke:#9CA3AF;stroke-width:0.625;" x1="974.0856" x2="986.5856" y1="812.0766" y2="799.5766"/><line style="stroke:#9CA3AF;stroke-width:0.625;" x1="757.2875" x2="974.0856" y1="812.0766" y2="812.0766"/><line style="stroke:#9CA3AF;stroke-width:0.625;" x1="974.0856" x2="974.0856" y1="812.0766" y2="918.5609"/><text fill="#FFFFFF" font-family="sans-serif" font-size="17.5" font-style="italic" lengthAdjust="spacing" textLength="96.2671" x="817.553" y="840.8205">&#171;gateway&#187;</text><text fill="#FFFFFF" font-family="sans-serif" font-size="17.5" lengthAdjust="spacing" textLength="179.2981" x="776.0375" y="861.1916">Integration Gateway</text><text fill="#FFFFFF" font-family="sans-serif" font-size="17.5" lengthAdjust="spacing" textLength="144.3066" x="776.0375" y="881.5626">(Partner Routes)</text><text fill="#FFFFFF" font-family="sans-serif" font-size="17.5" lengthAdjust="spacing" textLength="104.3335" x="776.0375" y="901.9337">&#171;container&#187;</text></g><!--entity osgw--><g class="entity" data-entity="osgw" data-source-line="132" data-uid="ent0011" id="entity_osgw"><polygon fill="#2D314A" filter="url(#fuh74wfjtgqem)" points="1137.0375,812.0766,1149.5375,799.5766,1419.3568,799.5766,1419.3568,906.0609,1406.8568,918.5609,1137.0375,918.5609,1137.0375,812.0766" style="stroke:#9CA3AF;stroke-width:0.625;"/><line style="stroke:#9CA3AF;stroke-width:0.625;" x1="1406.8568" x2="1419.3568" y1="812.0766" y2="799.5766"/><line style="stroke:#9CA3AF;stroke-width:0.625;" x1="1137.0375" x2="1406.8568" y1="812.0766" y2="812.0766"/><line style="stroke:#9CA3AF;stroke-width:0.625;" x1="1406.8568" x2="1406.8568" y1="812.0766" y2="918.5609"/><text fill="#FFFFFF" font-family="sans-serif" font-size="17.5" font-style="italic" lengthAdjust="spacing" textLength="96.2671" x="1223.8136" y="840.8205">&#171;gateway&#187;</text><text fill="#FFFFFF" font-family="sans-serif" font-size="17.5" lengthAdjust="spacing" textLength="202.9419" x="1155.7875" y="861.1916">OpenShift API Gateway</text><text fill="#FFFFFF" font-family="sans-serif" font-size="17.5" lengthAdjust="spacing" textLength="232.3193" x="1155.7875" y="881.5626">(Ingress / WAF / TLS / JWT)</text><text fill="#FFFFFF" font-family="sans-serif" font-size="17.5" lengthAdjust="spacing" textLength="104.3335" x="1155.7875" y="901.9337">&#171;container&#187;</text></g><!--entity webapi--><g class="entity" data-entity="webapi" data-source-line="137" data-uid="ent0013" id="entity_webapi"><polygon fill="#2D314A" filter="url(#fuh74wfjtgqem)" points="931.5875,1131.0641,944.0875,1118.5641,1244.7882,1118.5641,1244.7882,1225.0484,1232.2882,1237.5484,931.5875,1237.5484,931.5875,1131.0641" style="stroke:#9CA3AF;stroke-width:0.625;"/><line style="stroke:#9CA3AF;stroke-width:0.625;" x1="1232.2882" x2="1244.7882" y1="1131.0641" y2="1118.5641"/><line style="stroke:#9CA3AF;stroke-width:0.625;" x1="931.5875" x2="1232.2882" y1="1131.0641" y2="1131.0641"/><line style="stroke:#9CA3AF;stroke-width:0.625;" x1="1232.2882" x2="1232.2882" y1="1131.0641" y2="1237.5484"/><text fill="#FFFFFF" font-family="sans-serif" font-size="17.5" font-style="italic" lengthAdjust="spacing" textLength="84.0991" x="1039.8883" y="1159.808">&#171;service&#187;</text><text fill="#FFFFFF" font-family="sans-serif" font-size="17.5" lengthAdjust="spacing" textLength="164.8401" x="950.3375" y="1180.1791">.NET Core Web API</text><text fill="#FFFFFF" font-family="sans-serif" font-size="17.5" lengthAdjust="spacing" textLength="263.2007" x="950.3375" y="1200.5501">(Orchestration, AuthZ, Cache)</text><text fill="#FFFFFF" font-family="sans-serif" font-size="17.5" lengthAdjust="spacing" textLength="104.3335" x="950.3375" y="1220.9212">&#171;container&#187;</text></g><!--entity dpe--><g class="entity" data-entity="dpe" data-source-line="138" data-uid="ent0014" id="entity_dpe"><polygon fill="#2D314A" filter="url(#fuh74wfjtgqem)" points="1316.85,1450.0391,1329.35,1437.5391,1589.5392,1437.5391,1589.5392,1544.0234,1577.0392,1556.5234,1316.85,1556.5234,1316.85,1450.0391" style="stroke:#9CA3AF;stroke-width:0.625;"/><line style="stroke:#9CA3AF;stroke-width:0.625;" x1="1577.0392" x2="1589.5392" y1="1450.0391" y2="1437.5391"/><line style="stroke:#9CA3AF;stroke-width:0.625;" x1="1316.85" x2="1577.0392" y1="1450.0391" y2="1450.0391"/><line style="stroke:#9CA3AF;stroke-width:0.625;" x1="1577.0392" x2="1577.0392" y1="1450.0391" y2="1556.5234"/><text fill="#FFFFFF" font-family="sans-serif" font-size="17.5" font-style="italic" lengthAdjust="spacing" textLength="84.0991" x="1404.895" y="1478.783">&#171;service&#187;</text><text fill="#FFFFFF" font-family="sans-serif" font-size="17.5" lengthAdjust="spacing" textLength="207.0264" x="1335.6" y="1499.1541">Data Processing Engine</text><text fill="#FFFFFF" font-family="sans-serif" font-size="17.5" lengthAdjust="spacing" textLength="222.6892" x="1335.6" y="1519.5251">(ETL/ELT, Streams/Batch)</text><text fill="#FFFFFF" font-family="sans-serif" font-size="17.5" lengthAdjust="spacing" textLength="104.3335" x="1335.6" y="1539.8962">&#171;container&#187;</text></g><!--entity intsvc--><g class="entity" data-entity="intsvc" data-source-line="139" data-uid="ent0015" id="entity_intsvc"><polygon fill="#2D314A" filter="url(#fuh74wfjtgqem)" points="941.55,1450.0391,954.05,1437.5391,1167.3361,1437.5391,1167.3361,1544.0234,1154.8361,1556.5234,941.55,1556.5234,941.55,1450.0391" style="stroke:#9CA3AF;stroke-width:0.625;"/><line style="stroke:#9CA3AF;stroke-width:0.625;" x1="1154.8361" x2="1167.3361" y1="1450.0391" y2="1437.5391"/><line style="stroke:#9CA3AF;stroke-width:0.625;" x1="941.55" x2="1154.8361" y1="1450.0391" y2="1450.0391"/><line style="stroke:#9CA3AF;stroke-width:0.625;" x1="1154.8361" x2="1154.8361" y1="1450.0391" y2="1556.5234"/><text fill="#FFFFFF" font-family="sans-serif" font-size="17.5" font-style="italic" lengthAdjust="spacing" textLength="84.0991" x="1006.1435" y="1478.783">&#171;service&#187;</text><text fill="#FFFFFF" font-family="sans-serif" font-size="17.5" lengthAdjust="spacing" textLength="175.7861" x="960.3" y="1499.1541">Integration Services</text><text fill="#FFFFFF" font-family="sans-serif" font-size="17.5" lengthAdjust="spacing" textLength="135.8472" x="960.3" y="1519.5251">(Adapters, Bus)</text><text fill="#FFFFFF" font-family="sans-serif" font-size="17.5" lengthAdjust="spacing" textLength="120.415" x="960.3" y="1539.8962">&#171;component&#187;</text></g><!--entity analytics--><g class="entity" data-entity="analytics" data-source-line="140" data-uid="ent0016" id="entity_analytics"><polygon fill="#2D314A" filter="url(#fuh74wfjtgqem)" points="1394.4375,1131.0641,1406.9375,1118.5641,1589.4448,1118.5641,1589.4448,1225.0484,1576.9448,1237.5484,1394.4375,1237.5484,1394.4375,1131.0641" style="stroke:#9CA3AF;stroke-width:0.625;"/><line style="stroke:#9CA3AF;stroke-width:0.625;" x1="1576.9448" x2="1589.4448" y1="1131.0641" y2="1118.5641"/><line style="stroke:#9CA3AF;stroke-width:0.625;" x1="1394.4375" x2="1576.9448" y1="1131.0641" y2="1131.0641"/><line style="stroke:#9CA3AF;stroke-width:0.625;" x1="1576.9448" x2="1576.9448" y1="1131.0641" y2="1237.5484"/><text fill="#FFFFFF" font-family="sans-serif" font-size="17.5" font-style="italic" lengthAdjust="spacing" textLength="84.0991" x="1443.6416" y="1159.808">&#171;service&#187;</text><text fill="#FFFFFF" font-family="sans-serif" font-size="17.5" lengthAdjust="spacing" textLength="145.0073" x="1413.1875" y="1180.1791">Analytics Engine</text><text fill="#FFFFFF" font-family="sans-serif" font-size="17.5" lengthAdjust="spacing" textLength="129.0027" x="1413.1875" y="1200.5501">(KPIs, Reports)</text><text fill="#FFFFFF" font-family="sans-serif" font-size="17.5" lengthAdjust="spacing" textLength="120.415" x="1413.1875" y="1220.9212">&#171;component&#187;</text></g><!--entity sql--><g class="entity" data-entity="sql" data-source-line="145" data-uid="ent0018" id="entity_sql"><path d="M875.4375,1774.6516 C875.4375,1762.1516 990.6902,1762.1516 990.6902,1762.1516 C990.6902,1762.1516 1105.9429,1762.1516 1105.9429,1774.6516 L1105.9429,1867.3859 C1105.9429,1879.8859 990.6902,1879.8859 990.6902,1879.8859 C990.6902,1879.8859 875.4375,1879.8859 875.4375,1867.3859 L875.4375,1774.6516" fill="#3C2F1B" filter="url(#fuh74wfjtgqem)" style="stroke:#D1A954;stroke-width:0.625;"/><path d="M875.4375,1774.6516 C875.4375,1787.1516 990.6902,1787.1516 990.6902,1787.1516 C990.6902,1787.1516 1105.9429,1787.1516 1105.9429,1774.6516" fill="none" style="stroke:#D1A954;stroke-width:0.625;"/><text fill="#FFFFFF" font-family="sans-serif" font-size="17.5" font-style="italic" lengthAdjust="spacing" textLength="105.4785" x="937.9509" y="1808.3955">&#171;datastore&#187;</text><text fill="#FFFFFF" font-family="sans-serif" font-size="17.5" lengthAdjust="spacing" textLength="193.1665" x="887.9375" y="1828.7666">SQL Server Enterprise</text><text fill="#FFFFFF" font-family="sans-serif" font-size="17.5" lengthAdjust="spacing" textLength="205.5054" x="887.9375" y="1849.1376">(OLTP, Views, Backups)</text><text fill="#FFFFFF" font-family="sans-serif" font-size="17.5" lengthAdjust="spacing" textLength="105.4785" x="887.9375" y="1869.5087">&#171;datastore&#187;</text></g><!--entity redis--><g class="entity" data-entity="redis" data-source-line="146" data-uid="ent0019" id="entity_redis"><path d="M521.325,1774.6516 C521.325,1762.1516 623.1963,1762.1516 623.1963,1762.1516 C623.1963,1762.1516 725.0677,1762.1516 725.0677,1774.6516 L725.0677,1867.3859 C725.0677,1879.8859 623.1963,1879.8859 623.1963,1879.8859 C623.1963,1879.8859 521.325,1879.8859 521.325,1867.3859 L521.325,1774.6516" fill="#3C2F1B" filter="url(#fuh74wfjtgqem)" style="stroke:#D1A954;stroke-width:0.625;"/><path d="M521.325,1774.6516 C521.325,1787.1516 623.1963,1787.1516 623.1963,1787.1516 C623.1963,1787.1516 725.0677,1787.1516 725.0677,1774.6516" fill="none" style="stroke:#D1A954;stroke-width:0.625;"/><text fill="#FFFFFF" font-family="sans-serif" font-size="17.5" font-style="italic" lengthAdjust="spacing" textLength="105.4785" x="570.4571" y="1808.3955">&#171;datastore&#187;</text><text fill="#FFFFFF" font-family="sans-serif" font-size="17.5" lengthAdjust="spacing" textLength="107.9993" x="533.825" y="1828.7666">Redis Cache</text><text fill="#FFFFFF" font-family="sans-serif" font-size="17.5" lengthAdjust="spacing" textLength="178.7427" x="533.825" y="1849.1376">(Sessions, Hot Data)</text><text fill="#FFFFFF" font-family="sans-serif" font-size="17.5" lengthAdjust="spacing" textLength="105.4785" x="533.825" y="1869.5087">&#171;datastore&#187;</text></g><!--entity blob--><g class="entity" data-entity="blob" data-source-line="147" data-uid="ent0020" id="entity_blob"><path d="M1267.675,1756.5266 L1302.675,1756.5266 A16.875,16.875 0 0 1 1313.925,1767.7766 L1322.675,1782.7766 L1413.7028,1782.7766 A11.25,11.25 0 0 1 1424.9528,1794.0266 L1424.9528,1874.2609 A11.25,11.25 0 0 1 1413.7028,1885.5109 L1267.675,1885.5109 A11.25,11.25 0 0 1 1256.425,1874.2609 L1256.425,1767.7766 A11.25,11.25 0 0 1 1267.675,1756.5266" fill="#483B24" filter="url(#fuh74wfjtgqem)" style="stroke:#D6B46C;stroke-width:0.625;"/><line style="stroke:#D6B46C;stroke-width:0.625;" x1="1256.425" x2="1322.675" y1="1782.7766" y2="1782.7766"/><text fill="#FFFFFF" font-family="sans-serif" font-size="17.5" font-style="italic" lengthAdjust="spacing" textLength="105.4785" x="1281.6997" y="1807.7705">&#171;datastore&#187;</text><text fill="#FFFFFF" font-family="sans-serif" font-size="17.5" lengthAdjust="spacing" textLength="131.0278" x="1268.925" y="1828.1416">Object Storage</text><text fill="#FFFFFF" font-family="sans-serif" font-size="17.5" lengthAdjust="spacing" textLength="103.1372" x="1268.925" y="1848.5126">(Blob, Files)</text><text fill="#FFFFFF" font-family="sans-serif" font-size="17.5" lengthAdjust="spacing" textLength="105.4785" x="1268.925" y="1868.8837">&#171;datastore&#187;</text></g><!--entity prom--><g class="entity" data-entity="prom" data-source-line="152" data-uid="ent0022" id="entity_prom"><polygon fill="#2D314A" filter="url(#fuh74wfjtgqem)" points="1719.9,1774.0266,1732.4,1761.5266,1908.9771,1761.5266,1908.9771,1868.0109,1896.4771,1880.5109,1719.9,1880.5109,1719.9,1774.0266" style="stroke:#9CA3AF;stroke-width:0.625;"/><line style="stroke:#9CA3AF;stroke-width:0.625;" x1="1896.4771" x2="1908.9771" y1="1774.0266" y2="1761.5266"/><line style="stroke:#9CA3AF;stroke-width:0.625;" x1="1719.9" x2="1896.4771" y1="1774.0266" y2="1774.0266"/><line style="stroke:#9CA3AF;stroke-width:0.625;" x1="1896.4771" x2="1896.4771" y1="1774.0266" y2="1880.5109"/><text fill="#FFFFFF" font-family="sans-serif" font-size="17.5" font-style="italic" lengthAdjust="spacing" textLength="80.6641" x="1767.8565" y="1802.7705">&#171;observ&#187;</text><text fill="#FFFFFF" font-family="sans-serif" font-size="17.5" lengthAdjust="spacing" textLength="105.1965" x="1738.65" y="1823.1416">Prometheus</text><text fill="#FFFFFF" font-family="sans-serif" font-size="17.5" lengthAdjust="spacing" textLength="139.0771" x="1738.65" y="1843.5126">(Metrics, Alerts)</text><text fill="#FFFFFF" font-family="sans-serif" font-size="17.5" lengthAdjust="spacing" textLength="120.415" x="1738.65" y="1863.8837">&#171;component&#187;</text></g><!--entity graf--><g class="entity" data-entity="graf" data-source-line="153" data-uid="ent0023" id="entity_graf"><polygon fill="#2D314A" filter="url(#fuh74wfjtgqem)" points="1739.2375,1450.0391,1751.7375,1437.5391,1909.6525,1437.5391,1909.6525,1544.0234,1897.1525,1556.5234,1739.2375,1556.5234,1739.2375,1450.0391" style="stroke:#9CA3AF;stroke-width:0.625;"/><line style="stroke:#9CA3AF;stroke-width:0.625;" x1="1897.1525" x2="1909.6525" y1="1450.0391" y2="1437.5391"/><line style="stroke:#9CA3AF;stroke-width:0.625;" x1="1739.2375" x2="1897.1525" y1="1450.0391" y2="1450.0391"/><line style="stroke:#9CA3AF;stroke-width:0.625;" x1="1897.1525" x2="1897.1525" y1="1450.0391" y2="1556.5234"/><text fill="#FFFFFF" font-family="sans-serif" font-size="17.5" font-style="italic" lengthAdjust="spacing" textLength="80.6641" x="1777.863" y="1478.783">&#171;observ&#187;</text><text fill="#FFFFFF" font-family="sans-serif" font-size="17.5" lengthAdjust="spacing" textLength="70.1794" x="1757.9875" y="1499.1541">Grafana</text><text fill="#FFFFFF" font-family="sans-serif" font-size="17.5" lengthAdjust="spacing" textLength="118.0225" x="1757.9875" y="1519.5251">(Dashboards)</text><text fill="#FFFFFF" font-family="sans-serif" font-size="17.5" lengthAdjust="spacing" textLength="120.415" x="1757.9875" y="1539.8962">&#171;component&#187;</text></g><!--entity cicd--><g class="entity" data-entity="cicd" data-source-line="158" data-uid="ent0025" id="entity_cicd"><polygon fill="#2D314A" filter="url(#fuh74wfjtgqem)" points="1581.65,174.1016,1594.15,161.6016,1799.7372,161.6016,1799.7372,268.0859,1787.2372,280.5859,1581.65,280.5859,1581.65,174.1016" style="stroke:#9CA3AF;stroke-width:0.625;"/><line style="stroke:#9CA3AF;stroke-width:0.625;" x1="1787.2372" x2="1799.7372" y1="174.1016" y2="161.6016"/><line style="stroke:#9CA3AF;stroke-width:0.625;" x1="1581.65" x2="1787.2372" y1="174.1016" y2="174.1016"/><line style="stroke:#9CA3AF;stroke-width:0.625;" x1="1787.2372" x2="1787.2372" y1="174.1016" y2="280.5859"/><text fill="#FFFFFF" font-family="sans-serif" font-size="17.5" font-style="italic" lengthAdjust="spacing" textLength="96.0791" x="1636.404" y="202.8455">&#171;platform&#187;</text><text fill="#FFFFFF" font-family="sans-serif" font-size="17.5" lengthAdjust="spacing" textLength="123.4058" x="1600.4" y="223.2166">CI/CD Pipeline</text><text fill="#FFFFFF" font-family="sans-serif" font-size="17.5" lengthAdjust="spacing" textLength="168.0872" x="1600.4" y="243.5876">(Build/Test/Deploy)</text><text fill="#FFFFFF" font-family="sans-serif" font-size="17.5" lengthAdjust="spacing" textLength="120.415" x="1600.4" y="263.9587">&#171;component&#187;</text></g><!--entity nexus--><g class="entity" data-entity="nexus" data-source-line="159" data-uid="ent0026" id="entity_nexus"><polygon fill="#2D314A" filter="url(#fuh74wfjtgqem)" points="1564.2125,493.0891,1576.7125,480.5891,1817.1629,480.5891,1817.1629,587.0734,1804.6629,599.5734,1564.2125,599.5734,1564.2125,493.0891" style="stroke:#9CA3AF;stroke-width:0.625;"/><line style="stroke:#9CA3AF;stroke-width:0.625;" x1="1804.6629" x2="1817.1629" y1="493.0891" y2="480.5891"/><line style="stroke:#9CA3AF;stroke-width:0.625;" x1="1564.2125" x2="1804.6629" y1="493.0891" y2="493.0891"/><line style="stroke:#9CA3AF;stroke-width:0.625;" x1="1804.6629" x2="1804.6629" y1="493.0891" y2="599.5734"/><text fill="#FFFFFF" font-family="sans-serif" font-size="17.5" font-style="italic" lengthAdjust="spacing" textLength="96.0791" x="1636.3982" y="521.833">&#171;platform&#187;</text><text fill="#FFFFFF" font-family="sans-serif" font-size="17.5" lengthAdjust="spacing" textLength="202.9504" x="1582.9625" y="542.2041">Artifact/Image Registry</text><text fill="#FFFFFF" font-family="sans-serif" font-size="17.5" lengthAdjust="spacing" textLength="68.0774" x="1582.9625" y="562.5751">(Nexus)</text><text fill="#FFFFFF" font-family="sans-serif" font-size="17.5" lengthAdjust="spacing" textLength="120.415" x="1582.9625" y="582.9462">&#171;component&#187;</text></g><!--entity ocp--><g class="entity" data-entity="ocp" data-source-line="160" data-uid="ent0027" id="entity_ocp"><path d="M1580.5099,812.289 C1583.6057,804.4367 1591.4367,802.5857 1596.7129,809.9704 C1601.5993,802.1087 1607.2284,801.47 1612.8044,809.2615 C1615.9592,801.7281 1622.5648,800.2734 1627.8942,806.9528 C1631.9993,798.1518 1637.3955,798.2211 1644.0544,804.1514 C1649.6398,796.2852 1654.789,796.7467 1660.4137,804.1091 C1664.249,796.8148 1670.2243,794.7244 1676.3368,801.5393 C1682.2478,794.8115 1687.1909,793.9168 1691.9732,802.6786 C1696.3646,794.1254 1703.1646,795.7305 1708.0202,802.1822 C1714.3422,796.0594 1721.4113,796.6059 1724.5067,805.6821 C1728.6358,797.623 1735.2148,798.6178 1739.8802,805.1158 C1746.0116,799.4151 1751.522,800.3856 1754.6826,808.337 C1759.2582,800.3506 1767.6821,800.4276 1772.3668,808.2147 C1777.524,801.6448 1783.4232,802.562 1787.862,809.0662 C1793.6313,801.2125 1798.5209,800.998 1803.6797,809.6513 C1814.2301,812.702 1814.8903,821.7908 1807.6466,828.5721 C1816.2174,831.026 1817.7562,836.7329 1812.7461,843.7497 C1821.8551,846.9071 1822.7224,854.7434 1815.9948,860.9006 C1821.4245,867.8441 1819.2926,875.5037 1810.2414,877.3966 C1817.9198,883.4597 1815.1962,890.7723 1807.0544,893.7529 C1812.7648,900.3865 1812.0877,905.7575 1803.6489,909.2898 C1798.8862,917.6333 1793.6214,918.2813 1787.1077,911.1632 C1782.1925,919.2686 1776.8301,918.9475 1771.3436,911.7518 C1767.2052,919.2935 1761.0772,920.7321 1755.1944,913.6824 C1751.7976,921.3888 1744.9369,923.6884 1738.7999,916.7499 C1733.8072,925.8538 1728.7489,925.2444 1722.5681,917.9241 C1719.2434,925.6822 1711.841,925.6162 1707.6148,918.8525 C1703.1456,925.6593 1697.1049,927.6892 1691.7695,919.7855 C1686.0645,925.4393 1681.138,927.0256 1676.8361,918.3257 C1670.6487,925.2623 1664.2,926.3108 1659.5192,916.7448 C1655.623,922.2502 1649.5028,923.3739 1645.9716,916.3502 C1640.141,923.2611 1632.7124,922.2312 1628.6106,914.3246 C1623.493,920.9392 1617.775,920.7569 1613.4139,913.496 C1606.0867,920.3516 1600.9269,919.6428 1596.3728,910.5356 C1592.9158,917.1966 1585.9846,916.8877 1581.9898,911.16 C1574.8021,906.7478 1574.0646,899.3686 1581.8121,894.7943 C1573.4843,890.2816 1571.8892,883.1496 1580.1249,877.0609 C1573.3701,872.0644 1572.4681,867.3679 1579.7123,861.988 C1571.7194,857.4658 1570.3915,848.8857 1579.9485,844.602 C1571.7042,839.415 1571.8312,830.3817 1580.9641,826.1511 C1575.1508,822.5671 1574.5332,816.2592 1580.5099,812.289" fill="#2C3440" filter="url(#fuh74wfjtgqem)" style="stroke:#94A3B8;stroke-width:0.625;"/><text fill="#FFFFFF" font-family="sans-serif" font-size="17.5" font-style="italic" lengthAdjust="spacing" textLength="96.0791" x="1642.6466" y="834.5705">&#171;platform&#187;</text><text fill="#FFFFFF" font-family="sans-serif" font-size="17.5" lengthAdjust="spacing" textLength="137.7698" x="1588.6" y="854.9416">OpenShift (K8s)</text><text fill="#FFFFFF" font-family="sans-serif" font-size="17.5" lengthAdjust="spacing" textLength="204.1724" x="1588.6" y="875.3126">(Deploy/Scale/Rollouts)</text><text fill="#FFFFFF" font-family="sans-serif" font-size="17.5" lengthAdjust="spacing" textLength="104.3335" x="1588.6" y="895.6837">&#171;container&#187;</text></g><!--entity user--><g class="entity" data-entity="user" data-source-line="116" data-uid="ent0002" id="entity_user"><ellipse cx="225.6871" cy="182.1641" fill="#F1F1F1" filter="url(#fuh74wfjtgqem)" rx="10" ry="10" style="stroke:#181818;stroke-width:0.625;"/><path d="M225.6871,192.1641 L225.6871,225.9141 M209.4371,202.1641 L241.9371,202.1641 M225.6871,225.9141 L209.4371,244.6641 M225.6871,225.9141 L241.9371,244.6641" fill="none" filter="url(#fuh74wfjtgqem)" style="stroke:#181818;stroke-width:0.625;"/><text fill="#111827" font-family="sans-serif" font-size="17.5" lengthAdjust="spacing" textLength="132.8992" x="159.2375" y="266.533">User Operators</text></g><!--entity sec--><g class="entity" data-entity="sec" data-source-line="117" data-uid="ent0003" id="entity_sec"><path d="M2096.7963,492.1337 C2102.4918,480.6808 2112.175,483.0585 2118.3755,491.5883 C2122.5868,482.2939 2128.9959,480.8815 2135.4943,489.389 C2140.1448,477.3512 2148.7777,475.3794 2157.261,485.6491 C2163.6319,478.8281 2169.7948,479.3378 2174.4969,487.5609 C2178.5183,475.514 2187.6337,473.584 2196.4785,482.504 C2201.677,474.5164 2210.4158,475.6766 2214.6196,483.6355 C2220.2947,474.2153 2226.6483,471.9257 2234.6271,481.1654 C2239.8483,472.3053 2247.3444,472.4546 2252.2718,481.4555 C2259.8372,473.0977 2268.2967,476.1499 2271.7501,485.883 C2276.9307,477.009 2286.924,475.8698 2293.0386,484.7639 C2300.2243,475.4664 2308.7572,476.0618 2312.8555,487.688 C2318.5137,479.1133 2323.7938,480.1471 2329.713,487.4103 C2337.3011,478.6497 2346.3049,481.637 2349.1594,492.1791 C2354.7334,484.0865 2363.6063,483.242 2368.8351,492.569 C2382.9203,493.7934 2386.5276,505.3741 2377.6509,515.4467 C2391.2081,518.7824 2395.7513,530.4515 2385.2566,540.9578 C2394.2208,552.9605 2393.701,563.1524 2376.8857,566.8067 C2384.2145,577.2975 2383.8758,588.2614 2368.5646,590.9489 C2363.9385,599.4805 2355.1296,600.5531 2349.2077,592.4575 C2344.4063,601.6451 2336.0099,601.5286 2331.1699,592.4956 C2327.3531,600.9294 2318.9025,602.5951 2312.7499,595.2167 C2307.4176,604.9596 2299.0648,603.5094 2293.5707,595.3905 C2287.0067,605.6889 2277.6639,606.3355 2271.2332,595.2512 C2266.0506,605.363 2257.1623,603.6477 2252.4255,594.8088 C2247.3124,603.5143 2241.0281,603.874 2234.4869,596.3912 C2228.678,605.6254 2220.7088,605.2296 2214.1716,597.2506 C2206.5428,605.6145 2200.0113,605.0805 2194.0453,595.3963 C2186.4538,604.4536 2180.1132,603.2033 2174.767,593.1332 C2170.4768,601.807 2163.8911,603.1805 2157.4687,595.3708 C2150.423,604.7508 2139.6295,603.632 2136.0975,591.8264 C2130.7936,601.1046 2120.9828,599.9139 2116.0195,591.4413 C2111.6087,599.5053 2104.095,598.7249 2099.447,591.7018 C2085.8535,585.7153 2085.8563,576.2082 2096.2601,567.1117 C2083.2119,559.1991 2083.6764,550.8418 2094.6285,541.4058 C2082.7845,533.1142 2083.5496,525.5932 2094.5819,517.2575 C2081.564,509.2058 2082.4085,497.7698 2096.7963,492.1337" fill="#2C3440" filter="url(#fuh74wfjtgqem)" style="stroke:#94A3B8;stroke-width:0.625;"/><text fill="#FFFFFF" font-family="sans-serif" font-size="17.5" font-style="italic" lengthAdjust="spacing" textLength="91.2854" x="2186.3008" y="515.583">&#171;security&#187;</text><text fill="#FFFFFF" font-family="sans-serif" font-size="17.5" lengthAdjust="spacing" textLength="199.6436" x="2105.1625" y="535.9541">Security &amp; Compliance</text><text fill="#FFFFFF" font-family="sans-serif" font-size="17.5" lengthAdjust="spacing" textLength="253.562" x="2105.1625" y="556.3251">(Policies, JWT/OAuth2, mTLS,</text><text fill="#FFFFFF" font-family="sans-serif" font-size="17.5" lengthAdjust="spacing" textLength="156.3464" x="2105.1625" y="576.6962">Secrets, Auditing)</text></g><!--entity partners--><g class="entity" data-entity="partners" data-source-line="118" data-uid="ent0004" id="entity_partners"><path d="M28.9295,1791.99 C34.7066,1784.0786 39.7726,1785.0994 45.4347,1792.1171 C50.5773,1786.0442 56.8278,1784.4818 60.8382,1793.2891 C66.0168,1785.8219 71.3868,1785.9311 76.9948,1792.8054 C81.5906,1786.385 86.3259,1786.0251 90.8324,1792.8984 C96.099,1785.3752 103.961,1784.0503 109.19,1792.9406 C112.9233,1785.7682 119.1429,1784.9561 124.0789,1791.649 C127.93,1783.2972 133.8802,1783.4765 138.7713,1790.6658 C144.4846,1784.6575 149.5925,1783.5025 154.109,1791.9367 C160.1261,1784.6026 167.3872,1783.2835 172.8232,1792.5903 C176.8459,1785.1039 183.2363,1786.8799 187.1333,1792.7252 C191.3866,1783.394 199.177,1784.0894 203.9902,1792.1835 C208.8694,1786.138 214.8592,1786.4632 218.7473,1793.3171 C222.9902,1785.9554 228.2036,1784.6612 233.7425,1791.9946 C239.4573,1783.69 246.7046,1785.3755 250.5604,1793.8571 C265.2841,1801.693 264.0384,1812.5818 252.3225,1822.0691 C268.2871,1832.3363 267.2883,1844.0663 250.808,1852.731 C247.2615,1859.4809 241.1166,1861.3015 236.1036,1854.2991 C231.8984,1861.7606 223.3818,1862.768 218.9741,1854.5199 C214.7263,1862.4313 207.4729,1862.8493 202.2502,1855.595 C199.271,1862.9686 192.7162,1863.1938 187.9063,1857.6237 C184.4378,1865.8128 175.9236,1867.7222 170.0958,1860.3186 C164.4619,1867.5827 159.5778,1868.4199 154.3233,1859.9385 C151.5516,1869.0422 144.3956,1869.9126 138.3317,1863.2852 C132.8944,1869.9337 126.7428,1867.9077 123.9189,1860.5885 C118.3268,1868.4408 111.8549,1866.7426 108.264,1858.6266 C102.7044,1865.0819 94.8784,1866.2787 90.9908,1856.8125 C86.387,1863.7081 79.3293,1862.8709 75.9993,1855.4762 C70.7539,1863.0021 65.45,1861.5732 60.4008,1855.2551 C53.7817,1862.3814 47.4911,1861.31 43.6478,1852.3621 C39.1643,1859.4222 32.6068,1858.2204 29.3286,1851.1414 C21.7055,1847.9824 18.5309,1843.5819 24.6379,1836.1321 C16.381,1835.1412 14.3363,1830.6782 19.1793,1823.8603 C12.1141,1815.9856 16.1668,1811.0358 24.2655,1808.0345 C17.7259,1801.2889 19.9733,1794.2311 28.9295,1791.99" fill="#2C3440" filter="url(#fuh74wfjtgqem)" style="stroke:#94A3B8;stroke-width:0.625;"/><text fill="#FFFFFF" font-family="sans-serif" font-size="17.5" font-style="italic" lengthAdjust="spacing" textLength="94.0369" x="91.1674" y="1816.8955">&#171;external&#187;</text><text fill="#FFFFFF" font-family="sans-serif" font-size="17.5" lengthAdjust="spacing" textLength="204.1467" x="36.1125" y="1837.2666">External Partners / B2B</text></g><!--link user to spa--><g class="link" data-entity-1="user" data-entity-2="spa" data-source-line="165" data-uid="lnk28" id="link_user_spa"><path d="M275.575,271.0141 C275.575,360.8391 275.575,540.5141 275.575,540.5141 C275.575,540.5141 338.8375,540.5141 397.975,540.5141" fill="none" id="user-to-spa" style="stroke:#FF4D4F;stroke-width:5;"/><polygon fill="#FF4D4F" points="405.475,540.5141,394.225,535.5141,399.225,540.5141,394.225,545.5141,405.475,540.5141" style="stroke:#FF4D4F;stroke-width:5;"/><path d="M175.575,439.4641 L175.575,449.4641 A11.25,11.25 0 0 0 186.825,460.7141 L254.325,460.7141 A11.25,11.25 0 0 0 265.575,449.4641 L265.575,440.7141 L253.075,428.2141 L186.825,428.2141 A11.25,11.25 0 0 0 175.575,439.4641" fill="url(#guh74wfjtgqem1)" filter="url(#fuh74wfjtgqem)" style="stroke:#4B5563;stroke-width:0.625;"/><path d="M253.075,428.2141 L253.075,435.0891 A5.625,5.625 0 0 0 258.7,440.7141 L265.575,440.7141 L253.075,428.2141" fill="url(#guh74wfjtgqem1)" style="stroke:#4B5563;stroke-width:0.625;"/><text fill="#FFFFFF" font-family="sans-serif" font-size="17.5" font-weight="bold" lengthAdjust="spacing" textLength="63.9502" x="183.075" y="450.708">HTTPS</text></g><!--link spa to realtime--><g class="link" data-entity-1="spa" data-entity-2="realtime" data-source-line="170" data-uid="lnk29" id="link_spa_realtime"><path d="M484.4375,597.4266 C484.4375,654.0266 484.4375,731.3266 484.4375,791.7516" fill="none" id="spa-realtime" style="stroke:#FF4D4F;stroke-width:5;"/><polygon fill="#FF4D4F" points="484.4375,589.9266,479.4375,601.1766,484.4375,596.1766,489.4375,601.1766,484.4375,589.9266" style="stroke:#FF4D4F;stroke-width:5;"/><polygon fill="#FF4D4F" points="484.4375,799.2516,489.4375,788.0016,484.4375,793.0016,479.4375,788.0016,484.4375,799.2516" style="stroke:#FF4D4F;stroke-width:5;"/><path d="M173.1875,663.3391 L173.1875,673.3391 A11.25,11.25 0 0 0 184.4375,684.5891 L463.1875,684.5891 A11.25,11.25 0 0 0 474.4375,673.3391 L474.4375,664.5891 L461.9375,652.0891 L184.4375,652.0891 A11.25,11.25 0 0 0 173.1875,663.3391" fill="url(#guh74wfjtgqem1)" filter="url(#fuh74wfjtgqem)" style="stroke:#4B5563;stroke-width:0.625;"/><path d="M461.9375,652.0891 L461.9375,658.9641 A5.625,5.625 0 0 0 467.5625,664.5891 L474.4375,664.5891 L461.9375,652.0891" fill="url(#guh74wfjtgqem1)" style="stroke:#4B5563;stroke-width:0.625;"/><text fill="#FFFFFF" font-family="sans-serif" font-size="17.5" font-weight="bold" lengthAdjust="spacing" textLength="146.6992" x="180.6875" y="674.583">Live Telemetry</text><text fill="#FFFFFF" font-family="sans-serif" font-size="17.5" lengthAdjust="spacing" textLength="128.3362" x="327.3867" y="674.583">\nWS / SignalR</text></g><!--link spa to osgw--><g class="link" data-entity-1="spa" data-entity-2="osgw" data-source-line="175" data-uid="lnk30" id="link_spa_osgw"><path d="M563.65,540.5141 C755.8125,540.5141 1231.1375,540.5141 1231.1375,540.5141 C1231.1375,540.5141 1231.1375,699.3766 1231.1375,791.6516" fill="none" id="spa-to-osgw" style="stroke:#FF4D4F;stroke-width:5;"/><polygon fill="#FF4D4F" points="1231.1375,799.1516,1236.1375,787.9016,1231.1375,792.9016,1226.1375,787.9016,1231.1375,799.1516" style="stroke:#FF4D4F;stroke-width:5;"/><path d="M831.7125,509.2641 L831.7125,519.2641 A11.25,11.25 0 0 0 842.9625,530.5141 L1005.4625,530.5141 A11.25,11.25 0 0 0 1016.7125,519.2641 L1016.7125,510.5141 L1004.2125,498.0141 L842.9625,498.0141 A11.25,11.25 0 0 0 831.7125,509.2641" fill="url(#guh74wfjtgqem1)" filter="url(#fuh74wfjtgqem)" style="stroke:#4B5563;stroke-width:0.625;"/><path d="M1004.2125,498.0141 L1004.2125,504.8891 A5.625,5.625 0 0 0 1009.8375,510.5141 L1016.7125,510.5141 L1004.2125,498.0141" fill="url(#guh74wfjtgqem1)" style="stroke:#4B5563;stroke-width:0.625;"/><text fill="#FFFFFF" font-family="sans-serif" font-size="17.5" font-weight="bold" lengthAdjust="spacing" textLength="86.0388" x="839.2125" y="520.508">API Calls</text><text fill="#FFFFFF" font-family="sans-serif" font-size="17.5" lengthAdjust="spacing" textLength="73.1873" x="925.2513" y="520.508">\nHTTPS</text></g><!--link osgw to webapi--><g class="link" data-entity-1="osgw" data-entity-2="webapi" data-source-line="180" data-uid="lnk31" id="link_osgw_webapi"><path d="M1163.975,919.0641 C1163.975,976.1016 1163.975,1053.8891 1163.975,1110.8266" fill="none" id="osgw-to-webapi" style="stroke:#FF4D4F;stroke-width:5;"/><polygon fill="#FF4D4F" points="1163.975,1118.3266,1168.975,1107.0766,1163.975,1112.0766,1158.975,1107.0766,1163.975,1118.3266" style="stroke:#FF4D4F;stroke-width:5;"/><path d="M943.975,987.4516 L943.975,997.4516 A11.25,11.25 0 0 0 955.225,1008.7016 L1142.725,1008.7016 A11.25,11.25 0 0 0 1153.975,997.4516 L1153.975,988.7016 L1141.475,976.2016 L955.225,976.2016 A11.25,11.25 0 0 0 943.975,987.4516" fill="url(#guh74wfjtgqem1)" filter="url(#fuh74wfjtgqem)" style="stroke:#4B5563;stroke-width:0.625;"/><path d="M1141.475,976.2016 L1141.475,983.0766 A5.625,5.625 0 0 0 1147.1,988.7016 L1153.975,988.7016 L1141.475,976.2016" fill="url(#guh74wfjtgqem1)" style="stroke:#4B5563;stroke-width:0.625;"/><text fill="#FFFFFF" font-family="sans-serif" font-size="17.5" font-weight="bold" lengthAdjust="spacing" textLength="68.6072" x="951.475" y="998.6955">Routes</text><text fill="#FFFFFF" font-family="sans-serif" font-size="17.5" lengthAdjust="spacing" textLength="115.7581" x="1020.0822" y="998.6955">\nmTLS / JWT</text></g><!--link webapi to dpe--><g class="link" data-entity-1="webapi" data-entity-2="dpe" data-source-line="186" data-uid="lnk32" id="link_webapi_dpe"><path d="M1218.975,1238.0391 C1218.975,1325.5641 1218.975,1478.0141 1218.975,1478.0141 C1218.975,1478.0141 1257.5125,1478.0141 1308.7625,1478.0141" fill="none" id="webapi-to-dpe" style="stroke:#FF4D4F;stroke-width:5;"/><polygon fill="#FF4D4F" points="1316.2625,1478.0141,1305.0125,1473.0141,1310.0125,1478.0141,1305.0125,1483.0141,1316.2625,1478.0141" style="stroke:#FF4D4F;stroke-width:5;"/><path d="M872.725,1375.4266 L872.725,1385.4266 A11.25,11.25 0 0 0 883.975,1396.6766 L1197.725,1396.6766 A11.25,11.25 0 0 0 1208.975,1385.4266 L1208.975,1376.6766 L1196.475,1364.1766 L883.975,1364.1766 A11.25,11.25 0 0 0 872.725,1375.4266" fill="url(#guh74wfjtgqem1)" filter="url(#fuh74wfjtgqem)" style="stroke:#4B5563;stroke-width:0.625;"/><path d="M1196.475,1364.1766 L1196.475,1371.0516 A5.625,5.625 0 0 0 1202.1,1376.6766 L1208.975,1376.6766 L1196.475,1364.1766" fill="url(#guh74wfjtgqem1)" style="stroke:#4B5563;stroke-width:0.625;"/><text fill="#FFFFFF" font-family="sans-serif" font-size="17.5" font-weight="bold" lengthAdjust="spacing" textLength="168.1726" x="880.225" y="1386.6705">Trigger Pipelines</text><text fill="#FFFFFF" font-family="sans-serif" font-size="17.5" lengthAdjust="spacing" textLength="142.9224" x="1048.3976" y="1386.6705">\nJobs / Streams</text></g><!--link webapi to intsvc--><g class="link" data-entity-1="webapi" data-entity-2="intsvc" data-source-line="191" data-uid="lnk33" id="link_webapi_intsvc"><path d="M1016.8125,1238.0516 C1016.8125,1295.0766 1016.8125,1372.8641 1016.8125,1429.8141" fill="none" id="webapi-to-intsvc" style="stroke:#FF4D4F;stroke-width:5;"/><polygon fill="#FF4D4F" points="1016.8125,1437.3141,1021.8125,1426.0641,1016.8125,1431.0641,1011.8125,1426.0641,1016.8125,1437.3141" style="stroke:#FF4D4F;stroke-width:5;"/><path d="M634.3125,1306.4266 L634.3125,1316.4266 A11.25,11.25 0 0 0 645.5625,1327.6766 L995.5625,1327.6766 A11.25,11.25 0 0 0 1006.8125,1316.4266 L1006.8125,1307.6766 L994.3125,1295.1766 L645.5625,1295.1766 A11.25,11.25 0 0 0 634.3125,1306.4266" fill="url(#guh74wfjtgqem1)" filter="url(#fuh74wfjtgqem)" style="stroke:#4B5563;stroke-width:0.625;"/><path d="M994.3125,1295.1766 L994.3125,1302.0516 A5.625,5.625 0 0 0 999.9375,1307.6766 L1006.8125,1307.6766 L994.3125,1295.1766" fill="url(#guh74wfjtgqem1)" style="stroke:#4B5563;stroke-width:0.625;"/><text fill="#FFFFFF" font-family="sans-serif" font-size="17.5" font-weight="bold" lengthAdjust="spacing" textLength="202.113" x="641.8125" y="1317.6705">Partner Integrations</text><text fill="#FFFFFF" font-family="sans-serif" font-size="17.5" lengthAdjust="spacing" textLength="145.0757" x="843.9255" y="1317.6705">\nAdapters / Bus</text></g><!--link webapi to redis--><g class="link" data-entity-1="webapi" data-entity-2="redis" data-source-line="196" data-uid="lnk34" id="link_webapi_redis"><path d="M930.9875,1179.2641 C810.95,1179.2641 666,1179.2641 666,1179.2641 C666,1179.2641 666,1595.4266 666,1754.3016" fill="none" id="webapi-to-redis" style="stroke:#FF4D4F;stroke-width:5;"/><polygon fill="#FF4D4F" points="666,1761.8016,671,1750.5516,666,1755.5516,661,1750.5516,666,1761.8016" style="stroke:#FF4D4F;stroke-width:5;"/><path d="M437.25,1355.5391 L437.25,1365.5391 A11.25,11.25 0 0 0 448.5,1376.7891 L644.75,1376.7891 A11.25,11.25 0 0 0 656,1365.5391 L656,1356.7891 L643.5,1344.2891 L448.5,1344.2891 A11.25,11.25 0 0 0 437.25,1355.5391" fill="url(#guh74wfjtgqem1)" filter="url(#fuh74wfjtgqem)" style="stroke:#4B5563;stroke-width:0.625;"/><path d="M643.5,1344.2891 L643.5,1351.1641 A5.625,5.625 0 0 0 649.125,1356.7891 L656,1356.7891 L643.5,1344.2891" fill="url(#guh74wfjtgqem1)" style="stroke:#4B5563;stroke-width:0.625;"/><text fill="#FFFFFF" font-family="sans-serif" font-size="17.5" font-weight="bold" lengthAdjust="spacing" textLength="59.353" x="444.75" y="1366.783">Cache</text><text fill="#FFFFFF" font-family="sans-serif" font-size="17.5" lengthAdjust="spacing" textLength="133.3777" x="504.103" y="1366.783">\nBinary / JSON</text></g><!--link webapi to sql--><g class="link" data-entity-1="webapi" data-entity-2="sql" data-source-line="201" data-uid="lnk35" id="link_webapi_sql"><path d="M936.575,1237.9641 C936.575,1360.7891 936.575,1632.3516 936.575,1754.4641" fill="none" id="webapi-to-sql" style="stroke:#FF4D4F;stroke-width:5;"/><polygon fill="#FF4D4F" points="936.575,1761.9641,941.575,1750.7141,936.575,1755.7141,931.575,1750.7141,936.575,1761.9641" style="stroke:#FF4D4F;stroke-width:5;"/><path d="M741.575,1468.7141 L741.575,1478.7141 A11.25,11.25 0 0 0 752.825,1489.9641 L915.325,1489.9641 A11.25,11.25 0 0 0 926.575,1478.7141 L926.575,1469.9641 L914.075,1457.4641 L752.825,1457.4641 A11.25,11.25 0 0 0 741.575,1468.7141" fill="url(#guh74wfjtgqem1)" filter="url(#fuh74wfjtgqem)" style="stroke:#4B5563;stroke-width:0.625;"/><path d="M914.075,1457.4641 L914.075,1464.3391 A5.625,5.625 0 0 0 919.7,1469.9641 L926.575,1469.9641 L914.075,1457.4641" fill="url(#guh74wfjtgqem1)" style="stroke:#4B5563;stroke-width:0.625;"/><text fill="#FFFFFF" font-family="sans-serif" font-size="17.5" font-weight="bold" lengthAdjust="spacing" textLength="55.0549" x="749.075" y="1479.958">CRUD</text><text fill="#FFFFFF" font-family="sans-serif" font-size="17.5" lengthAdjust="spacing" textLength="103.9148" x="804.1299" y="1479.958">\nSQL / TDS</text></g><!--link dpe to sql--><g class="link" data-entity-1="dpe" data-entity-2="sql" data-source-line="206" data-uid="lnk36" id="link_dpe_sql"><path d="M1316.5875,1518.0141 C1281.0625,1518.0141 1252.55,1518.0141 1252.55,1518.0141 C1252.55,1518.0141 1252.55,1841.7641 1252.55,1841.7641 C1252.55,1841.7641 1183.9625,1841.7641 1113.8125,1841.7641" fill="none" id="dpe-to-sql" style="stroke:#FF4D4F;stroke-width:5;"/><polygon fill="#FF4D4F" points="1106.3125,1841.7641,1117.5625,1846.7641,1112.5625,1841.7641,1117.5625,1836.7641,1106.3125,1841.7641" style="stroke:#FF4D4F;stroke-width:5;"/><path d="M1258.8,1689.7391 L1258.8,1699.7391 A11.25,11.25 0 0 0 1270.05,1710.9891 L1510.05,1710.9891 A11.25,11.25 0 0 0 1521.3,1699.7391 L1521.3,1690.9891 L1508.8,1678.4891 L1270.05,1678.4891 A11.25,11.25 0 0 0 1258.8,1689.7391" fill="url(#guh74wfjtgqem1)" filter="url(#fuh74wfjtgqem)" style="stroke:#4B5563;stroke-width:0.625;"/><path d="M1508.8,1678.4891 L1508.8,1685.3641 A5.625,5.625 0 0 0 1514.425,1690.9891 L1521.3,1690.9891 L1508.8,1678.4891" fill="url(#guh74wfjtgqem1)" style="stroke:#4B5563;stroke-width:0.625;"/><text fill="#FFFFFF" font-family="sans-serif" font-size="17.5" font-weight="bold" lengthAdjust="spacing" textLength="88.6621" x="1266.3" y="1700.983">ETL / ELT</text><text fill="#FFFFFF" font-family="sans-serif" font-size="17.5" lengthAdjust="spacing" textLength="148.0151" x="1354.9621" y="1700.983">\nBatch / Stream</text></g><!--link dpe to blob--><g class="link" data-entity-1="dpe" data-entity-2="blob" data-source-line="211" data-uid="lnk37" id="link_dpe_blob"><path d="M1370.9,1556.8391 C1370.9,1613.3391 1370.9,1716.6141 1370.9,1774.7641" fill="none" id="dpe-to-blob" style="stroke:#FF4D4F;stroke-width:5;"/><polygon fill="#FF4D4F" points="1370.9,1782.2641,1375.9,1771.0141,1370.9,1776.0141,1365.9,1771.0141,1370.9,1782.2641" style="stroke:#FF4D4F;stroke-width:5;"/><path d="M1377.15,1625.1766 L1377.15,1635.1766 A11.25,11.25 0 0 0 1388.4,1646.4266 L1644.65,1646.4266 A11.25,11.25 0 0 0 1655.9,1635.1766 L1655.9,1626.4266 L1643.4,1613.9266 L1388.4,1613.9266 A11.25,11.25 0 0 0 1377.15,1625.1766" fill="url(#guh74wfjtgqem1)" filter="url(#fuh74wfjtgqem)" style="stroke:#4B5563;stroke-width:0.625;"/><path d="M1643.4,1613.9266 L1643.4,1620.8016 A5.625,5.625 0 0 0 1649.025,1626.4266 L1655.9,1626.4266 L1643.4,1613.9266" fill="url(#guh74wfjtgqem1)" style="stroke:#4B5563;stroke-width:0.625;"/><text fill="#FFFFFF" font-family="sans-serif" font-size="17.5" font-weight="bold" lengthAdjust="spacing" textLength="138.5303" x="1384.65" y="1636.4205">Curated / Raw</text><text fill="#FFFFFF" font-family="sans-serif" font-size="17.5" lengthAdjust="spacing" textLength="115.083" x="1523.1803" y="1636.4205">\nSDK / REST</text></g><!--link analytics to sql--><g class="link" data-entity-1="analytics" data-entity-2="sql" data-source-line="216" data-uid="lnk38" id="link_analytics_sql"><path d="M1394.05,1179.2641 C1326.45,1179.2641 1248.675,1179.2641 1248.675,1179.2641 C1248.675,1179.2641 1248.675,1801.7641 1248.675,1801.7641 C1248.675,1801.7641 1182.5625,1801.7641 1113.975,1801.7641" fill="none" id="analytics-to-sql" style="stroke:#FF4D4F;stroke-width:5;"/><polygon fill="#FF4D4F" points="1106.475,1801.7641,1117.725,1806.7641,1112.725,1801.7641,1117.725,1796.7641,1106.475,1801.7641" style="stroke:#FF4D4F;stroke-width:5;"/><path d="M1074.925,1506.4266 L1074.925,1516.4266 A11.25,11.25 0 0 0 1086.175,1527.6766 L1287.425,1527.6766 A11.25,11.25 0 0 0 1298.675,1516.4266 L1298.675,1507.6766 L1286.175,1495.1766 L1086.175,1495.1766 A11.25,11.25 0 0 0 1074.925,1506.4266" fill="url(#guh74wfjtgqem1)" filter="url(#fuh74wfjtgqem)" style="stroke:#4B5563;stroke-width:0.625;"/><path d="M1286.175,1495.1766 L1286.175,1502.0516 A5.625,5.625 0 0 0 1291.8,1507.6766 L1298.675,1507.6766 L1286.175,1495.1766" fill="url(#guh74wfjtgqem1)" style="stroke:#4B5563;stroke-width:0.625;"/><text fill="#FFFFFF" font-family="sans-serif" font-size="17.5" font-weight="bold" lengthAdjust="spacing" textLength="146.1438" x="1082.425" y="1517.6705">Read Analytics</text><text fill="#FFFFFF" font-family="sans-serif" font-size="17.5" lengthAdjust="spacing" textLength="51.6199" x="1228.5688" y="1517.6705">\nSQL</text></g><!--link analytics to graf--><g class="link" data-entity-1="analytics" data-entity-2="graf" data-source-line="221" data-uid="lnk39" id="link_analytics_graf"><path d="M1589.8875,1179.2641 C1671.8125,1179.2641 1775.375,1179.2641 1775.375,1179.2641 C1775.375,1179.2641 1775.375,1337.7141 1775.375,1429.7641" fill="none" id="analytics-to-graf" style="stroke:#FF4D4F;stroke-width:5;"/><polygon fill="#FF4D4F" points="1775.375,1437.2641,1780.375,1426.0141,1775.375,1431.0141,1770.375,1426.0141,1775.375,1437.2641" style="stroke:#FF4D4F;stroke-width:5;"/><path d="M1781.625,1184.2641 L1781.625,1194.2641 A11.25,11.25 0 0 0 1792.875,1205.5141 L2076.625,1205.5141 A11.25,11.25 0 0 0 2087.875,1194.2641 L2087.875,1185.5141 L2075.375,1173.0141 L1792.875,1173.0141 A11.25,11.25 0 0 0 1781.625,1184.2641" fill="url(#guh74wfjtgqem1)" filter="url(#fuh74wfjtgqem)" style="stroke:#4B5563;stroke-width:0.625;"/><path d="M2075.375,1173.0141 L2075.375,1179.8891 A5.625,5.625 0 0 0 2081,1185.5141 L2087.875,1185.5141 L2075.375,1173.0141" fill="url(#guh74wfjtgqem1)" style="stroke:#4B5563;stroke-width:0.625;"/><text fill="#FFFFFF" font-family="sans-serif" font-size="17.5" font-weight="bold" lengthAdjust="spacing" textLength="122.0898" x="1789.125" y="1195.508">Publish KPIs</text><text fill="#FFFFFF" font-family="sans-serif" font-size="17.5" lengthAdjust="spacing" textLength="158.6963" x="1911.2148" y="1195.508">\nPanels / Queries</text></g><!--link webapi to prom--><g class="link" data-entity-1="webapi" data-entity-2="prom" data-source-line="227" data-uid="lnk40" id="link_webapi_prom"><path d="M1193.15,1237.7141 C1193.15,1366.0391 1193.15,1656.7641 1193.15,1656.7641 C1193.15,1656.7641 1729.575,1656.7641 1729.575,1656.7641 C1729.575,1656.7641 1729.575,1706.7891 1729.575,1753.7516" fill="none" id="webapi-to-prom" style="stroke:#FF4D4F;stroke-width:5;"/><polygon fill="#FF4D4F" points="1729.575,1761.2516,1734.575,1750.0016,1729.575,1755.0016,1724.575,1750.0016,1729.575,1761.2516" style="stroke:#FF4D4F;stroke-width:5;"/><path d="M1119.0875,1625.5141 L1119.0875,1635.5141 A11.25,11.25 0 0 0 1130.3375,1646.7641 L1282.8375,1646.7641 A11.25,11.25 0 0 0 1294.0875,1635.5141 L1294.0875,1626.7641 L1281.5875,1614.2641 L1130.3375,1614.2641 A11.25,11.25 0 0 0 1119.0875,1625.5141" fill="url(#guh74wfjtgqem1)" filter="url(#fuh74wfjtgqem)" style="stroke:#4B5563;stroke-width:0.625;"/><path d="M1281.5875,1614.2641 L1281.5875,1621.1391 A5.625,5.625 0 0 0 1287.2125,1626.7641 L1294.0875,1626.7641 L1281.5875,1614.2641" fill="url(#guh74wfjtgqem1)" style="stroke:#4B5563;stroke-width:0.625;"/><text fill="#FFFFFF" font-family="sans-serif" font-size="17.5" font-weight="bold" lengthAdjust="spacing" textLength="149.2371" x="1126.5875" y="1636.758">Expose Metrics</text></g><!--link dpe to prom--><g class="link" data-entity-1="dpe" data-entity-2="prom" data-source-line="232" data-uid="lnk41" id="link_dpe_prom"><path d="M1590.0875,1518.0141 C1661.6,1518.0141 1734.4,1518.0141 1734.4,1518.0141 C1734.4,1518.0141 1734.4,1665.3516 1734.4,1753.6516" fill="none" id="dpe-to-prom" style="stroke:#FF4D4F;stroke-width:5;"/><polygon fill="#FF4D4F" points="1734.4,1761.1516,1739.4,1749.9016,1734.4,1754.9016,1729.4,1749.9016,1734.4,1761.1516" style="stroke:#FF4D4F;stroke-width:5;"/><path d="M1692.8375,1584.9266 L1692.8375,1594.9266 A11.25,11.25 0 0 0 1704.0875,1606.1766 L1856.5875,1606.1766 A11.25,11.25 0 0 0 1867.8375,1594.9266 L1867.8375,1586.1766 L1855.3375,1573.6766 L1704.0875,1573.6766 A11.25,11.25 0 0 0 1692.8375,1584.9266" fill="url(#guh74wfjtgqem1)" filter="url(#fuh74wfjtgqem)" style="stroke:#4B5563;stroke-width:0.625;"/><path d="M1855.3375,1573.6766 L1855.3375,1580.5516 A5.625,5.625 0 0 0 1860.9625,1586.1766 L1867.8375,1586.1766 L1855.3375,1573.6766" fill="url(#guh74wfjtgqem1)" style="stroke:#4B5563;stroke-width:0.625;"/><text fill="#FFFFFF" font-family="sans-serif" font-size="17.5" font-weight="bold" lengthAdjust="spacing" textLength="149.2371" x="1700.3375" y="1596.1705">Expose Metrics</text></g><!--link intsvc to prom--><g class="link" data-entity-1="intsvc" data-entity-2="prom" data-source-line="237" data-uid="lnk42" id="link_intsvc_prom"><path d="M1136.6375,1557.1391 C1136.6375,1619.1141 1136.6375,1706.7641 1136.6375,1706.7641 C1136.6375,1706.7641 1724.7375,1706.7641 1724.7375,1706.7641 C1724.7375,1706.7641 1724.7375,1726.0766 1724.7375,1753.7141" fill="none" id="intsvc-to-prom" style="stroke:#FF4D4F;stroke-width:5;"/><polygon fill="#FF4D4F" points="1724.7375,1761.2141,1729.7375,1749.9641,1724.7375,1754.9641,1719.7375,1749.9641,1724.7375,1761.2141" style="stroke:#FF4D4F;stroke-width:5;"/><path d="M1198.1,1724.2641 L1198.1,1734.2641 A11.25,11.25 0 0 0 1209.35,1745.5141 L1361.85,1745.5141 A11.25,11.25 0 0 0 1373.1,1734.2641 L1373.1,1725.5141 L1360.6,1713.0141 L1209.35,1713.0141 A11.25,11.25 0 0 0 1198.1,1724.2641" fill="url(#guh74wfjtgqem1)" filter="url(#fuh74wfjtgqem)" style="stroke:#4B5563;stroke-width:0.625;"/><path d="M1360.6,1713.0141 L1360.6,1719.8891 A5.625,5.625 0 0 0 1366.225,1725.5141 L1373.1,1725.5141 L1360.6,1713.0141" fill="url(#guh74wfjtgqem1)" style="stroke:#4B5563;stroke-width:0.625;"/><text fill="#FFFFFF" font-family="sans-serif" font-size="17.5" font-weight="bold" lengthAdjust="spacing" textLength="149.2371" x="1205.6" y="1735.508">Expose Metrics</text></g><!--link graf to prom--><g class="link" data-entity-1="graf" data-entity-2="prom" data-source-line="242" data-uid="lnk43" id="link_graf_prom"><path d="M1824.1125,1556.8391 C1824.1125,1614.9766 1824.1125,1695.3141 1824.1125,1753.5266" fill="none" id="graf-to-prom" style="stroke:#FF4D4F;stroke-width:5;"/><polygon fill="#FF4D4F" points="1824.1125,1761.0266,1829.1125,1749.7766,1824.1125,1754.7766,1819.1125,1749.7766,1824.1125,1761.0266" style="stroke:#FF4D4F;stroke-width:5;"/><path d="M1729.1125,1676.4266 L1729.1125,1686.4266 A11.25,11.25 0 0 0 1740.3625,1697.6766 L1802.8625,1697.6766 A11.25,11.25 0 0 0 1814.1125,1686.4266 L1814.1125,1677.6766 L1801.6125,1665.1766 L1740.3625,1665.1766 A11.25,11.25 0 0 0 1729.1125,1676.4266" fill="url(#guh74wfjtgqem1)" filter="url(#fuh74wfjtgqem)" style="stroke:#4B5563;stroke-width:0.625;"/><path d="M1801.6125,1665.1766 L1801.6125,1672.0516 A5.625,5.625 0 0 0 1807.2375,1677.6766 L1814.1125,1677.6766 L1801.6125,1665.1766" fill="url(#guh74wfjtgqem1)" style="stroke:#4B5563;stroke-width:0.625;"/><text fill="#FFFFFF" font-family="sans-serif" font-size="17.5" font-weight="bold" lengthAdjust="spacing" textLength="59.2419" x="1736.6125" y="1687.6705">Query</text></g><!--link cicd to nexus--><g class="link" data-entity-1="cicd" data-entity-2="nexus" data-source-line="248" data-uid="lnk44" id="link_cicd_nexus"><path d="M1690.6875,281.1016 C1690.6875,338.1266 1690.6875,415.9141 1690.6875,472.8516" fill="none" id="cicd-to-nexus" style="stroke:#FF4D4F;stroke-width:5;"/><polygon fill="#FF4D4F" points="1690.6875,480.3516,1695.6875,469.1016,1690.6875,474.1016,1685.6875,469.1016,1690.6875,480.3516" style="stroke:#FF4D4F;stroke-width:5;"/><path d="M1490.6875,349.4766 L1490.6875,359.4766 A11.25,11.25 0 0 0 1501.9375,370.7266 L1669.4375,370.7266 A11.25,11.25 0 0 0 1680.6875,359.4766 L1680.6875,350.7266 L1668.1875,338.2266 L1501.9375,338.2266 A11.25,11.25 0 0 0 1490.6875,349.4766" fill="url(#guh74wfjtgqem1)" filter="url(#fuh74wfjtgqem)" style="stroke:#4B5563;stroke-width:0.625;"/><path d="M1668.1875,338.2266 L1668.1875,345.1016 A5.625,5.625 0 0 0 1673.8125,350.7266 L1680.6875,350.7266 L1668.1875,338.2266" fill="url(#guh74wfjtgqem1)" style="stroke:#4B5563;stroke-width:0.625;"/><text fill="#FFFFFF" font-family="sans-serif" font-size="17.5" font-weight="bold" lengthAdjust="spacing" textLength="163.8916" x="1498.1875" y="360.7205">Publish Artifacts</text></g><!--link nexus to ocp--><g class="link" data-entity-1="nexus" data-entity-2="ocp" data-source-line="253" data-uid="lnk45" id="link_nexus_ocp"><path d="M1690.6875,600.0766 C1690.6875,657.1141 1690.6875,734.9016 1690.6875,791.8391" fill="none" id="nexus-to-ocp" style="stroke:#FF4D4F;stroke-width:5;"/><polygon fill="#FF4D4F" points="1690.6875,799.3391,1695.6875,788.0891,1690.6875,793.0891,1685.6875,788.0891,1690.6875,799.3391" style="stroke:#FF4D4F;stroke-width:5;"/><path d="M1540.6875,668.4641 L1540.6875,678.4641 A11.25,11.25 0 0 0 1551.9375,689.7141 L1669.4375,689.7141 A11.25,11.25 0 0 0 1680.6875,678.4641 L1680.6875,669.7141 L1668.1875,657.2141 L1551.9375,657.2141 A11.25,11.25 0 0 0 1540.6875,668.4641" fill="url(#guh74wfjtgqem1)" filter="url(#fuh74wfjtgqem)" style="stroke:#4B5563;stroke-width:0.625;"/><path d="M1668.1875,657.2141 L1668.1875,664.0891 A5.625,5.625 0 0 0 1673.8125,669.7141 L1680.6875,669.7141 L1668.1875,657.2141" fill="url(#guh74wfjtgqem1)" style="stroke:#4B5563;stroke-width:0.625;"/><text fill="#FFFFFF" font-family="sans-serif" font-size="17.5" font-weight="bold" lengthAdjust="spacing" textLength="114.7412" x="1548.1875" y="679.708">Pull Images</text></g><!--link ocp to webapi--><g class="link" data-entity-1="ocp" data-entity-2="webapi" data-source-line="258" data-uid="lnk46" id="link_ocp_webapi"><path d="M1579.65,919.1766 C1579.65,964.6266 1579.65,1019.2641 1579.65,1019.2641 C1579.65,1019.2641 1190.9125,1019.2641 1190.9125,1019.2641 C1190.9125,1019.2641 1190.9125,1065.5516 1190.9125,1110.5266" fill="none" id="ocp-to-webapi" style="stroke:#FF4D4F;stroke-width:5;"/><polygon fill="#FF4D4F" points="1190.9125,1118.0266,1195.9125,1106.7766,1190.9125,1111.7766,1185.9125,1106.7766,1190.9125,1118.0266" style="stroke:#FF4D4F;stroke-width:5;"/><path d="M1282.2,988.0141 L1282.2,998.0141 A11.25,11.25 0 0 0 1293.45,1009.2641 L1364.7,1009.2641 A11.25,11.25 0 0 0 1375.95,998.0141 L1375.95,989.2641 L1363.45,976.7641 L1293.45,976.7641 A11.25,11.25 0 0 0 1282.2,988.0141" fill="url(#guh74wfjtgqem1)" filter="url(#fuh74wfjtgqem)" style="stroke:#4B5563;stroke-width:0.625;"/><path d="M1363.45,976.7641 L1363.45,983.6391 A5.625,5.625 0 0 0 1369.075,989.2641 L1375.95,989.2641 L1363.45,976.7641" fill="url(#guh74wfjtgqem1)" style="stroke:#4B5563;stroke-width:0.625;"/><text fill="#FFFFFF" font-family="sans-serif" font-size="17.5" font-weight="bold" lengthAdjust="spacing" textLength="68.3508" x="1289.7" y="999.258">Deploy</text></g><!--link ocp to dpe--><g class="link" data-entity-1="ocp" data-entity-2="dpe" data-source-line="263" data-uid="lnk47" id="link_ocp_dpe"><path d="M1676.45,918.9766 C1676.45,1074.3141 1676.45,1478.0141 1676.45,1478.0141 C1676.45,1478.0141 1643.85,1478.0141 1597.625,1478.0141" fill="none" id="ocp-to-dpe" style="stroke:#FF4D4F;stroke-width:5;"/><polygon fill="#FF4D4F" points="1590.125,1478.0141,1601.375,1483.0141,1596.375,1478.0141,1601.375,1473.0141,1590.125,1478.0141" style="stroke:#FF4D4F;stroke-width:5;"/><path d="M1572.7,1259.1516 L1572.7,1269.1516 A11.25,11.25 0 0 0 1583.95,1280.4016 L1655.2,1280.4016 A11.25,11.25 0 0 0 1666.45,1269.1516 L1666.45,1260.4016 L1653.95,1247.9016 L1583.95,1247.9016 A11.25,11.25 0 0 0 1572.7,1259.1516" fill="url(#guh74wfjtgqem1)" filter="url(#fuh74wfjtgqem)" style="stroke:#4B5563;stroke-width:0.625;"/><path d="M1653.95,1247.9016 L1653.95,1254.7766 A5.625,5.625 0 0 0 1659.575,1260.4016 L1666.45,1260.4016 L1653.95,1247.9016" fill="url(#guh74wfjtgqem1)" style="stroke:#4B5563;stroke-width:0.625;"/><text fill="#FFFFFF" font-family="sans-serif" font-size="17.5" font-weight="bold" lengthAdjust="spacing" textLength="68.3508" x="1580.2" y="1270.3955">Deploy</text></g><!--link ocp to intsvc--><g class="link" data-entity-1="ocp" data-entity-2="intsvc" data-source-line="268" data-uid="lnk48" id="link_ocp_intsvc"><path d="M1632.9875,919.1141 C1632.9875,1040.6266 1632.9875,1304.2641 1632.9875,1304.2641 C1632.9875,1304.2641 1092.075,1304.2641 1092.075,1304.2641 C1092.075,1304.2641 1092.075,1373.0141 1092.075,1429.6016" fill="none" id="ocp-to-intsvc" style="stroke:#FF4D4F;stroke-width:5;"/><polygon fill="#FF4D4F" points="1092.075,1437.1016,1097.075,1425.8516,1092.075,1430.8516,1087.075,1425.8516,1092.075,1437.1016" style="stroke:#FF4D4F;stroke-width:5;"/><path d="M1384.9375,1273.0141 L1384.9375,1283.0141 A11.25,11.25 0 0 0 1396.1875,1294.2641 L1467.4375,1294.2641 A11.25,11.25 0 0 0 1478.6875,1283.0141 L1478.6875,1274.2641 L1466.1875,1261.7641 L1396.1875,1261.7641 A11.25,11.25 0 0 0 1384.9375,1273.0141" fill="url(#guh74wfjtgqem1)" filter="url(#fuh74wfjtgqem)" style="stroke:#4B5563;stroke-width:0.625;"/><path d="M1466.1875,1261.7641 L1466.1875,1268.6391 A5.625,5.625 0 0 0 1471.8125,1274.2641 L1478.6875,1274.2641 L1466.1875,1261.7641" fill="url(#guh74wfjtgqem1)" style="stroke:#4B5563;stroke-width:0.625;"/><text fill="#FFFFFF" font-family="sans-serif" font-size="17.5" font-weight="bold" lengthAdjust="spacing" textLength="68.3508" x="1392.4375" y="1284.258">Deploy</text></g><!--link intsvc to partners--><g class="link" data-entity-1="intsvc" data-entity-2="partners" data-source-line="274" data-uid="lnk49" id="link_intsvc_partners"><path d="M933.45,1498.0141 C706.5,1498.0141 225.7625,1498.0141 225.7625,1498.0141 C225.7625,1498.0141 225.7625,1687.6641 225.7625,1773.9141" fill="none" id="intsvc-partners" style="stroke:#FF4D4F;stroke-width:5;"/><polygon fill="#FF4D4F" points="940.95,1498.0141,929.7,1493.0141,934.7,1498.0141,929.7,1503.0141,940.95,1498.0141" style="stroke:#FF4D4F;stroke-width:5;"/><polygon fill="#FF4D4F" points="225.7625,1781.4141,230.7625,1770.1641,225.7625,1775.1641,220.7625,1770.1641,225.7625,1781.4141" style="stroke:#FF4D4F;stroke-width:5;"/><path d="M224.15,1466.7641 L224.15,1476.7641 A11.25,11.25 0 0 0 235.4,1488.0141 L420.4,1488.0141 A11.25,11.25 0 0 0 431.65,1476.7641 L431.65,1468.0141 L419.15,1455.5141 L235.4,1455.5141 A11.25,11.25 0 0 0 224.15,1466.7641" fill="url(#guh74wfjtgqem1)" filter="url(#fuh74wfjtgqem)" style="stroke:#4B5563;stroke-width:0.625;"/><path d="M419.15,1455.5141 L419.15,1462.3891 A5.625,5.625 0 0 0 424.775,1468.0141 L431.65,1468.0141 L419.15,1455.5141" fill="url(#guh74wfjtgqem1)" style="stroke:#4B5563;stroke-width:0.625;"/><text fill="#FFFFFF" font-family="sans-serif" font-size="17.5" font-weight="bold" lengthAdjust="spacing" textLength="181.4087" x="231.65" y="1478.008">B2B / Partner APIs</text></g><!--link extgw to partners--><g class="link" data-entity-1="extgw" data-entity-2="partners" data-source-line="279" data-uid="lnk50" id="link_extgw_partners"><path d="M816.3625,926.5016 C816.3625,952.3516 816.3625,969.2641 816.3625,969.2641 C816.3625,969.2641 192.5,969.2641 192.5,969.2641 C192.5,969.2641 192.5,1606.6391 192.5,1774.1516" fill="none" id="extgw-partners" style="stroke:#FF4D4F;stroke-width:5;"/><polygon fill="#FF4D4F" points="816.3625,919.0016,811.3625,930.2516,816.3625,925.2516,821.3625,930.2516,816.3625,919.0016" style="stroke:#FF4D4F;stroke-width:5;"/><polygon fill="#FF4D4F" points="192.5,1781.6516,197.5,1770.4016,192.5,1775.4016,187.5,1770.4016,192.5,1781.6516" style="stroke:#FF4D4F;stroke-width:5;"/><path d="M7.5,1007.1391 L7.5,1017.1391 A11.25,11.25 0 0 0 18.75,1028.3891 L171.25,1028.3891 A11.25,11.25 0 0 0 182.5,1017.1391 L182.5,1008.3891 L170,995.8891 L18.75,995.8891 A11.25,11.25 0 0 0 7.5,1007.1391" fill="url(#guh74wfjtgqem1)" filter="url(#fuh74wfjtgqem)" style="stroke:#4B5563;stroke-width:0.625;"/><path d="M170,995.8891 L170,1002.7641 A5.625,5.625 0 0 0 175.625,1008.3891 L182.5,1008.3891 L170,995.8891" fill="url(#guh74wfjtgqem1)" style="stroke:#4B5563;stroke-width:0.625;"/><text fill="#FFFFFF" font-family="sans-serif" font-size="17.5" font-weight="bold" lengthAdjust="spacing" textLength="149.2883" x="15" y="1018.383">Partner Routes</text></g><!--link sec to osgw--><g class="link" data-entity-1="sec" data-entity-2="osgw" data-source-line="285" data-uid="lnk51" id="link_sec_osgw"><path d="M2144.625,599.8266 C2144.625,645.4391 2144.625,700.5141 2144.625,700.5141 C2144.625,700.5141 1325.25,700.5141 1325.25,700.5141 C1325.25,700.5141 1325.25,746.7266 1325.25,791.6266" fill="none" id="sec-to-osgw" style="stroke:#FF4D4F;stroke-width:5;stroke-dasharray:7.0,7.0;"/><polygon fill="#FF4D4F" points="1325.25,799.1266,1330.25,787.8766,1325.25,792.8766,1320.25,787.8766,1325.25,799.1266" style="stroke:#FF4D4F;stroke-width:5;"/><path d="M1519.725,718.0141 L1519.725,728.0141 A11.25,11.25 0 0 0 1530.975,739.2641 L1714.725,739.2641 A11.25,11.25 0 0 0 1725.975,728.0141 L1725.975,719.2641 L1713.475,706.7641 L1530.975,706.7641 A11.25,11.25 0 0 0 1519.725,718.0141" fill="url(#guh74wfjtgqem1)" filter="url(#fuh74wfjtgqem)" style="stroke:#4B5563;stroke-width:0.625;"/><path d="M1713.475,706.7641 L1713.475,713.6391 A5.625,5.625 0 0 0 1719.1,719.2641 L1725.975,719.2641 L1713.475,706.7641" fill="url(#guh74wfjtgqem1)" style="stroke:#4B5563;stroke-width:0.625;"/><text fill="#FFFFFF" font-family="sans-serif" font-size="17.5" font-weight="bold" lengthAdjust="spacing" textLength="180.6653" x="1527.225" y="729.258">WAF / TLS Policies</text></g><!--link sec to webapi--><g class="link" data-entity-1="sec" data-entity-2="webapi" data-source-line="290" data-uid="lnk52" id="link_sec_webapi"><path d="M2202.8375,599.7641 C2202.8375,738.1516 2202.8375,1069.2641 2202.8375,1069.2641 C2202.8375,1069.2641 1217.85,1069.2641 1217.85,1069.2641 C1217.85,1069.2641 1217.85,1085.4641 1217.85,1110.7516" fill="none" id="sec-to-webapi" style="stroke:#FF4D4F;stroke-width:5;stroke-dasharray:7.0,7.0;"/><polygon fill="#FF4D4F" points="1217.85,1118.2516,1222.85,1107.0016,1217.85,1112.0016,1212.85,1107.0016,1217.85,1118.2516" style="stroke:#FF4D4F;stroke-width:5;"/><path d="M1711.85,1038.0141 L1711.85,1048.0141 A11.25,11.25 0 0 0 1723.1,1059.2641 L1899.35,1059.2641 A11.25,11.25 0 0 0 1910.6,1048.0141 L1910.6,1039.2641 L1898.1,1026.7641 L1723.1,1026.7641 A11.25,11.25 0 0 0 1711.85,1038.0141" fill="url(#guh74wfjtgqem1)" filter="url(#fuh74wfjtgqem)" style="stroke:#4B5563;stroke-width:0.625;"/><path d="M1898.1,1026.7641 L1898.1,1033.6391 A5.625,5.625 0 0 0 1903.725,1039.2641 L1910.6,1039.2641 L1898.1,1026.7641" fill="url(#guh74wfjtgqem1)" style="stroke:#4B5563;stroke-width:0.625;"/><text fill="#FFFFFF" font-family="sans-serif" font-size="17.5" font-weight="bold" lengthAdjust="spacing" textLength="173.2568" x="1719.35" y="1049.258">AuthN/Z / Secrets</text></g><!--link sec to sql--><g class="link" data-entity-1="sec" data-entity-2="sql" data-source-line="295" data-uid="lnk53" id="link_sec_sql"><path d="M2319.2625,600.1016 C2319.2625,825.2516 2319.2625,1606.7641 2319.2625,1606.7641 C2319.2625,1606.7641 1023.75,1606.7641 1023.75,1606.7641 C1023.75,1606.7641 1023.75,1690.9891 1023.75,1754.4016" fill="none" id="sec-to-sql" style="stroke:#FF4D4F;stroke-width:5;stroke-dasharray:7.0,7.0;"/><polygon fill="#FF4D4F" points="1023.75,1761.9016,1028.75,1750.6516,1023.75,1755.6516,1018.75,1750.6516,1023.75,1761.9016" style="stroke:#FF4D4F;stroke-width:5;"/><path d="M1906.0125,1575.5141 L1906.0125,1585.5141 A11.25,11.25 0 0 0 1917.2625,1596.7641 L2076.0125,1596.7641 A11.25,11.25 0 0 0 2087.2625,1585.5141 L2087.2625,1576.7641 L2074.7625,1564.2641 L1917.2625,1564.2641 A11.25,11.25 0 0 0 1906.0125,1575.5141" fill="url(#guh74wfjtgqem1)" filter="url(#fuh74wfjtgqem)" style="stroke:#4B5563;stroke-width:0.625;"/><path d="M2074.7625,1564.2641 L2074.7625,1571.1391 A5.625,5.625 0 0 0 2080.3875,1576.7641 L2087.2625,1576.7641 L2074.7625,1564.2641" fill="url(#guh74wfjtgqem1)" style="stroke:#4B5563;stroke-width:0.625;"/><text fill="#FFFFFF" font-family="sans-serif" font-size="17.5" font-weight="bold" lengthAdjust="spacing" textLength="155.8423" x="1913.5125" y="1586.758">Audit &amp; Policies</text></g><!--link sec to dpe--><g class="link" data-entity-1="sec" data-entity-2="dpe" data-source-line="300" data-uid="lnk54" id="link_sec_dpe"><path d="M2261.05,599.9016 C2261.05,790.5891 2261.05,1371.7641 2261.05,1371.7641 C2261.05,1371.7641 1491.9375,1371.7641 1491.9375,1371.7641 C1491.9375,1371.7641 1491.9375,1397.3141 1491.9375,1429.4641" fill="none" id="sec-to-dpe" style="stroke:#FF4D4F;stroke-width:5;stroke-dasharray:7.0,7.0;"/><polygon fill="#FF4D4F" points="1491.9375,1436.9641,1496.9375,1425.7141,1491.9375,1430.7141,1486.9375,1425.7141,1491.9375,1436.9641" style="stroke:#FF4D4F;stroke-width:5;"/><path d="M2024.825,1340.5141 L2024.825,1350.5141 A11.25,11.25 0 0 0 2036.075,1361.7641 L2208.575,1361.7641 A11.25,11.25 0 0 0 2219.825,1350.5141 L2219.825,1341.7641 L2207.325,1329.2641 L2036.075,1329.2641 A11.25,11.25 0 0 0 2024.825,1340.5141" fill="url(#guh74wfjtgqem1)" filter="url(#fuh74wfjtgqem)" style="stroke:#4B5563;stroke-width:0.625;"/><path d="M2207.325,1329.2641 L2207.325,1336.1391 A5.625,5.625 0 0 0 2212.95,1341.7641 L2219.825,1341.7641 L2207.325,1329.2641" fill="url(#guh74wfjtgqem1)" style="stroke:#4B5563;stroke-width:0.625;"/><text fill="#FFFFFF" font-family="sans-serif" font-size="17.5" font-weight="bold" lengthAdjust="spacing" textLength="169.8645" x="2032.325" y="1351.758">Data Governance</text></g><rect fill="#FFFFFF" height="216.2109" rx="11.25" ry="11.25" style="stroke:#CBD5E1;stroke-width:1.25;" width="713.7817" x="15" y="1964.2641"/><text fill="#111827" font-family="sans-serif" font-size="17.5" font-weight="bold" lengthAdjust="spacing" textLength="70.6409" x="21.25" y="1986.758">Visuals</text><text fill="#111827" font-family="sans-serif" font-size="17.5" lengthAdjust="spacing" textLength="366.5344" x="21.25" y="2007.1291">- Light canvas; DARK gradients on shapes</text><text fill="#111827" font-family="sans-serif" font-size="17.5" lengthAdjust="spacing" textLength="316.1365" x="21.25" y="2027.5001">- White labels in shapes for contrast</text><text fill="#111827" font-family="sans-serif" font-size="17.5" lengthAdjust="spacing" textLength="157.7222" x="21.25" y="2047.8712">- Thick red arrows</text><text fill="#111827" font-family="sans-serif" font-size="17.5" lengthAdjust="spacing" textLength="400.3894" x="21.25" y="2068.2423">- Wide spacing (nodesep=120, ranksep=160)</text><text fill="#111827" font-family="sans-serif" font-size="17.5" lengthAdjust="spacing" textLength="435.0732" x="21.25" y="2088.6134">- Link labels shown as dark &#8220;bubbles&#8221; above lines</text><text fill="#111827" font-family="sans-serif" font-size="17.5" lengthAdjust="spacing" textLength="5.5627" x="21.25" y="2108.9845">&#160;</text><text fill="#111827" font-family="sans-serif" font-size="17.5" font-weight="bold" lengthAdjust="spacing" textLength="224.1504" x="21.25" y="2129.3556">If any box is still white</text><text fill="#111827" font-family="sans-serif" font-size="17.5" lengthAdjust="spacing" textLength="490.7776" x="21.25" y="2149.7267">- This renderer may ignore some rectangle stereotypes.</text><text fill="#111827" font-family="sans-serif" font-size="17.5" lengthAdjust="spacing" textLength="701.2817" x="21.25" y="2170.0978">- We switched those boxes to NODE and added node-styles to enforce dark fills.</text><!--SRC=[dLdhRjiu5lxlfo1Ie4s0f8vliODD0qYsrMRgIJonEmK61HQqHDlSoAAMf9Dw1mNw4FjdWTsNwvFiEPHaonBbIPCV1Ihot2_VEUORyixsH_eqUgIAl2RlGp6Z8PdeJSZiTslgWKSnbNH5regvJDFaifPhbZkRKVzX8SKw2leY59AyyhhUfTVFtL1B6eWd7YsAf8RA5p9YaZHwkOCWvgJHFA_bFaKYO8h5vdEE0uqUpDUB_DUGHqnlOaQ4r4kHvnAmELs7sXEHlgKhHex68evvf4x9X2q48vzkJiczc0ajJeaZEGsFxCGJ_Yz66ctxOUg7HgFHQtPpLwPSX-nP5mnxjFyDcIwv_q0a2mYLKZoft7K7FsHEzzg3jbSyDCGHKugqYqS7NL0oVKkI6Dwq7UrR1QgFUFH0GZfZeIAGSm6L3-J7z__ErhDPoDIFx__BSRaLchd5J6fupSjMz-pLkTVeDftYRI439jERRRVJkMWLRkIKyinVuNoodvUeCLkmA01lqu22ZaH4a4kBfIQpHOuskLNIjYGZlPVNi-yEEiD6wOxLVMd5UaBwRAUIPbyrWN3nW65XnKoHuwSbr-o4K50zbk8HZmRE_KVYEQEHw_G_aZaF8GQbifRCrpHQ0DS_QuIKtKL8oSYMsm9NuqdUhCk-qtBmVi6btme5_7mvpK6hqNPU8YUWciwe-XcR-asluHPb3HhEPQTzMDPSX43mV4djNijjjakIBjpsHV-m93yKw-0dtDTljTld9VUrdPRREome1bPqaNYln7Ouz9gUT_Pgs1psl6hsnKQNrYyfDBZ6XKsLNUOFkD8yydMIp0j90yuYhKWCBaUruYoZtn1F0bCitMCQ14cgFJAfE1Im4cIUdVfK1j2B98j-VF-F9adT57BqwYgxVdrTza2tttA6WxDN7RVPS2yEakPTutHxhkVKIlSNLBCdkh59Qa936xfdhnh3zhdZ7QBSYq6ht_46PK6AoKVkCvkWyw7J6Lv2bsrTN3gDGvHvGHTTI85BZDO02euS-m8SJW0vb-Jg2ciG2B0X9VzHMaXWSMAfq-tjSaFjN0xFmGDkkzCwlpn8cjVCwmzQxK6fIhUNoKz8AfCUbBIlM6hqYmtRqZ_RkepYfIRcw2qoIwaXPfWSDWiRv-vbhm4vrUxsEjq3X7ifDHnsNGDzuv3gkP2hBAsGghv5gxffXkMwZLCgcqAjLhlHwPob8yL1KajBiq3c2yLLq1-KQSnzeJmBhKLMcK0nVosvjdQcf9sVbUTN2-rUVDlTTi-r28EHXic8XjPC6hI7WnwsmPRJSmxJsXgXHiWX7nZLPFZLNuBl8P_6i1Z0ylFZ-xzXVFKH1NozbemS3pXT8FF6oGw7YYlKc8aOMDQ1NoAwOdsYFbGJEVe4gKxk0BCe_5STuIGCwvIi9OX-D4cT1IjPNwpYaDF8Pr-Yux48kSyPZEM_V9xMxvorNZPFoMewcfn-YO18CWrdpZhWW96B4yCN74_oxizaR1KTKwbXsLAWlDjq3KsSVSgxijhuoKPfjW9NGuIet5IOFfTcix1wFP6Q1E3F6am0RyXP-hU3yUmB76S3oL5sc31uMFpTWAqPL4W2-KTEj5Y7L9B9sFaINLtvS4vX5vJNrub_Oaho69sZl6SqFDCSjBw1GyW13RC3X6725-2HUt3OPpQR2F-1wPE4zIeM4OmZAMkOpqD3Nk3_hM2XCxuXxnFejXgPEz_QkNZQCpAdO7OLyoM98solQytKYSryY2-moeqEEQQGeD5aoUSwho6mlOaM4lT7iD_nu5_8F_WNKj8gGQYIW983OiXnFz5-aemMoku9oyMjIsWSx_daxUrm2lK39GnXGXD0zJkeRAPquYai5RtyuvJqANorAl_4PZJc93Vnv0IO8MSi1IYXS5WTHWiW1Id3wQW-74rXUzQG0ojLTwdsbrO1GSmgkET3cjaAl9s0nb2IKEVkMbdJZiCy_EXNS7KWSpUQ-sgdxSVn3N2xPrX_TevqIxJFj1X7uv0HtK3AsQAtEzx630UCD6ZR7Ureyjl8M0niXk046KkkKD6xqNHyIdxdx0cj1wxhED4tDwOaDVtFS7_6B0YuPm5NITInd35y0d_i-22qiS7AL1gYCjjqtpkwc_q340D2BYHO2tpTKCnEYST3PjTo1kSbVaMNtfcfYCvuY7XWy-gl8k90ZWduUl_wriimMkrL1kJiYkabMsD2_SgqXD12COIiAW5Y822x4It7whsaSqWFu3EWQZaJk4nPMK0gp_TP54tT3dYloO257C9lDzXoRsjfDjFicTk_gVS7PCnZ5YOPxwvv6DIdq0Zg0nQ7OcFLsES-hYgxCIbVHbBpEO1v_MQ5Ejsp1Uob4flZBVjQKPSHdfGPfdYyQxR77tl8u3XHhJxnAOotzoA4UzhUn8KV5_b-os_DfMb5yXK2DSVg0Yim-ydnxbUvI01S93zqHG_gf0BGSMA105qZXDQG9AEeNSskFqoduybLVNPTG-Z6KvZn46gH80F64jK8eaccB6IGddA3v5-YpmWkAUGMc24lX9SI7yIhFWr3bR0mokHe3IGXSTBUI-G9NYQqgoswvHXKJa99SznthDrxARAW5e019HMcaY_CV9HcRQhDBrZAzGnNSXhbs2NzlyGn6mPok98opI059y1r1LFJ_KeyJGjDcBWymfG2JqtkRkqye2sNETn_6YGCiEl3B3781mhHiOeIG1RdxT4qbOyGktMDXGUssxBuDNY21K1tJvzIFGOVyR_3IJxWEmIiKWU6nO1iqNLhKYKFx8Vb6Ard8LTBWf2Si1ZJ28koJdvRCmcZ_pEIC0S8VvbwsDZBdlqQ2u3951WAHPovy-SfqxdaPSG6FYf9qJcR0aLbyxF0ZDrF1W1GfkdSbS7AiA2eSjBlJO_oOmjr61A37aKwxEO7cbC22nKqjbPoaA2YMLXfgZnQNYNj_im6KnF6z6f9CkoWaErPitBIGiXfaMui1vdiBpxFD6ExTNyGuW7mC821XWLLw8TxzTkt5VYpsukobRq8XIbrHOnnBxcj_u7jBDdgAyXjZSYi_v3SVo7PcYauZR_7NzSY_CMXG1ac3s4Xcsky_3jNQveWREsCZCoJc6zUalzM_74UVt4tpr9myJF-ifAz0FBi0APeIN2iaJ0BmwtI2oSGcjSjc0AniHsdJx_l6itpq-p5zrtZulp4wB9xOrHByHJPNne9dO6fvc5OrT2YcpbiEXio4ry9JFfASwXGynoGsWXAuHeGmRWFkRM2RHsc4jml5OpJkOSp1UN013usgxUeE7nvue1EO8rUOei32M2o5kJsRZ0qluZJ86396yMPmWTrSygYkNddCwgRvxgt68ua3ly7]--></g></svg>