<?xml version="1.0" encoding="UTF-8"?>
<svg version="1.1" xmlns="http://www.w3.org/2000/svg" width="512" height="512">
<path d="M0 0 C0.73334907 -0.00465992 1.46669815 -0.00931984 2.22226992 -0.01412097 C4.68706274 -0.02610062 7.15130736 -0.01666431 9.61610508 -0.00736332 C11.39806138 -0.01153494 13.18001502 -0.01701151 14.96196371 -0.02368313 C19.86461587 -0.03817898 24.76710052 -0.03388011 29.66976202 -0.02651632 C34.95478971 -0.02179718 40.23978051 -0.03428335 45.52479649 -0.04453373 C55.88078518 -0.06175161 66.23671328 -0.06255556 76.59271257 -0.05732083 C85.00788087 -0.05328352 93.42303123 -0.05471744 101.83819866 -0.06006908 C103.63301806 -0.06119172 103.63301806 -0.06119172 105.46409645 -0.06233703 C107.89467839 -0.06386847 110.32526034 -0.06540681 112.75584228 -0.066952 C135.56203509 -0.0806878 158.36819363 -0.07523171 181.17438567 -0.06376678 C202.05046243 -0.05383278 222.92645057 -0.06677607 243.80251365 -0.09070098 C265.22548524 -0.11506816 286.64841552 -0.12470574 308.0714007 -0.11804825 C320.10383465 -0.11455079 332.13620043 -0.11682279 344.16862392 -0.13429928 C354.41136351 -0.14899148 364.65398692 -0.14969578 374.89672416 -0.13222837 C380.12478793 -0.12369148 385.3526439 -0.12163426 390.58069706 -0.13687992 C395.36429138 -0.15065705 400.14749851 -0.14605418 404.93107004 -0.12664068 C406.66385455 -0.12285885 408.39666956 -0.12586503 410.12942707 -0.13625234 C412.48135184 -0.1493515 414.83192619 -0.13790359 417.18379211 -0.12025452 C419.14477928 -0.12009351 419.14477928 -0.12009351 421.14538234 -0.11992925 C426.2247369 0.60409819 429.39512477 2.74561614 432.50558662 6.78205872 C433.80380001 9.71714858 434.03440164 11.75089569 434.04249668 14.95244503 C434.05735363 16.61575108 434.05735363 16.61575108 434.07251072 18.31265926 C434.06800907 19.5195541 434.06350742 20.72644894 434.05886936 21.96991634 C434.06916424 23.88776188 434.06916424 23.88776188 434.07966709 25.84435177 C434.09758912 29.34441984 434.09643198 32.84423707 434.09072471 36.34433722 C434.08763135 39.26927222 434.09372695 42.19415913 434.09976345 45.11908728 C434.113804 52.02090182 434.11225144 58.92259256 434.10086155 65.82440853 C434.08938128 72.93806597 434.10345524 80.05134637 434.13025802 87.16495413 C434.15242948 93.2789255 434.15904916 99.39277865 434.15318161 105.50678736 C434.14981418 109.15558373 434.15221255 112.80413843 434.16943264 116.45290089 C434.18780163 120.52261691 434.1737 124.5916014 434.15652561 128.66132259 C434.16619358 129.8661932 434.17586155 131.0710638 434.18582249 132.31244564 C434.13167221 138.433811 434.09310717 142.72524326 429.65481663 147.38031673 C425.39787332 150.63490454 421.59733206 150.79999462 416.42280674 150.74108028 C415.59774059 150.74364356 414.77267444 150.74620683 413.92260629 150.74884778 C411.16021081 150.753786 408.39836286 150.73729218 405.6360178 150.72089291 C403.65501004 150.72004664 401.67400133 150.72052176 399.69299412 150.72222042 C394.3152802 150.72308182 388.93776667 150.70543247 383.56009936 150.68449855 C377.94001482 150.66575599 372.31992577 150.66398321 366.6998148 150.66042233 C356.05743879 150.65109476 345.41515514 150.62647128 334.77281982 150.59637386 C322.65686516 150.56285205 310.54090611 150.54634941 298.42491663 150.53128755 C273.501497 150.4999224 248.57816588 150.44654432 223.65481663 150.38031673 C223.98481663 160.94031673 224.31481663 171.50031673 224.65481663 182.38031673 C227.95481663 184.03031673 231.25481663 185.68031673 234.65481663 187.38031673 C242.50730253 192.97884835 248.58126602 200.15966491 251.65481663 209.38031673 C292.90481663 209.38031673 334.15481663 209.38031673 376.65481663 209.38031673 C378.30481663 206.08031673 379.95481663 202.78031673 381.65481663 199.38031673 C388.68353369 189.52185644 397.96359343 183.32304543 409.65481663 180.38031673 C412.91780046 179.94576359 416.11546367 179.85501156 419.40481663 179.88031673 C420.27662571 179.88603695 421.14843479 179.89175716 422.04666233 179.89765072 C434.83210946 180.24837371 444.18046566 185.30762481 453.32669163 193.96234798 C463.26778894 204.49273714 465.224435 216.44452032 464.99466038 230.23969173 C464.45008515 242.57737122 458.25509644 252.27181049 449.46731663 260.56781673 C437.50404351 270.30157077 424.46921541 271.71033872 409.65481663 270.38031673 C397.92467231 267.75398924 388.75792422 260.90493828 381.65481663 251.38031673 C380.00481663 248.08031673 378.35481663 244.78031673 376.65481663 241.38031673 C335.40481663 241.38031673 294.15481663 241.38031673 251.65481663 241.38031673 C250.00481663 244.68031673 248.35481663 247.98031673 246.65481663 251.38031673 C239.62609957 261.23877703 230.34603982 267.43758804 218.65481663 270.38031673 C215.39183279 270.81486988 212.19416959 270.90562191 208.90481663 270.88031673 C208.03300755 270.87459652 207.16119846 270.8688763 206.26297092 270.86298275 C193.51008307 270.51315291 183.99617374 265.48648163 174.94778538 256.72797298 C170.50500632 251.94776767 168.73894101 247.54856549 165.65481663 241.38031673 C124.40481663 241.38031673 83.15481663 241.38031673 40.65481663 241.38031673 C39.00481663 244.68031673 37.35481663 247.98031673 35.65481663 251.38031673 C28.62609957 261.23877703 19.34603982 267.43758804 7.65481663 270.38031673 C4.39183279 270.81486988 1.19416959 270.90562191 -2.09518337 270.88031673 C-2.96699245 270.87459652 -3.83880154 270.8688763 -4.73702908 270.86298275 C-17.5224762 270.51225976 -26.8708324 265.45300866 -36.01705837 256.79828548 C-45.95815568 246.26789632 -47.91480174 234.31611315 -47.68502712 220.52094173 C-47.14045189 208.18326224 -40.94546319 198.48882298 -32.15768337 190.19281673 C-20.19441026 180.4590627 -7.15958216 179.05029474 7.65481663 180.38031673 C19.38496094 183.00664423 28.55170903 189.85569519 35.65481663 199.38031673 C37.30481663 202.68031673 38.95481663 205.98031673 40.65481663 209.38031673 C81.90481663 209.38031673 123.15481663 209.38031673 165.65481663 209.38031673 C167.30481663 206.08031673 168.95481663 202.78031673 170.65481663 199.38031673 C176.25334825 191.52783083 183.4341648 185.45386734 192.65481663 182.38031673 C192.98481663 171.82031673 193.31481663 161.26031673 193.65481663 150.38031673 C191.14999699 150.38919918 188.64517735 150.39808163 186.06445408 150.40723324 C162.49108394 150.48892004 138.91773244 150.54847574 115.34425259 150.58756542 C103.22408431 150.60819703 91.10401984 150.63632919 78.98391819 150.68207455 C68.42093529 150.72192383 57.85802756 150.74774519 47.29497159 150.75667071 C41.70107889 150.76188866 36.10740127 150.77416541 30.51357746 150.80323696 C25.24902243 150.83037574 19.98477119 150.83876476 14.72015285 150.83274746 C12.78758754 150.83384838 10.85501213 150.84181131 8.92250729 150.85713863 C6.28365849 150.87704251 3.6459564 150.87225459 1.00708103 150.8613348 C-0.13982431 150.87881185 -0.13982431 150.87881185 -1.30989945 150.89664197 C-6.47327714 150.83889498 -9.43012299 149.73275778 -13.34518337 146.38031673 C-16.08611951 142.82340723 -16.72161774 140.25580217 -16.73286343 135.80818844 C-16.74276806 134.69931774 -16.75267269 133.59044704 -16.76287746 132.44797421 C-16.75837582 131.24107937 -16.75387417 130.03418453 -16.74923611 128.79071712 C-16.75609936 127.51215343 -16.76296261 126.23358974 -16.77003384 124.9162817 C-16.78795586 121.41621363 -16.78679873 117.91639639 -16.78109145 114.41629624 C-16.7779981 111.49136125 -16.78409369 108.56647434 -16.7901302 105.64154619 C-16.80417075 98.73973165 -16.80261818 91.8380409 -16.79122829 84.93622494 C-16.77974802 77.82256749 -16.79382199 70.7092871 -16.82062477 63.59567934 C-16.84279623 57.48170797 -16.8494159 51.36785482 -16.84354836 45.25384611 C-16.84018092 41.60504974 -16.84257929 37.95649504 -16.85979939 34.30773258 C-16.87816837 30.23801656 -16.86406674 26.16903207 -16.84689236 22.09931087 C-16.85656033 20.89444027 -16.86622829 19.68956966 -16.87618923 18.44818783 C-16.82203896 12.32682247 -16.78347391 8.03539021 -12.34518337 3.38031673 C-8.19475261 0.29003305 -5.12226131 0.00403276 0 0 Z " fill="#FEB900" transform="translate(47.34518337249756,225.61968326568604)"/>
<path d="M0 0 C8.5401699 6.26373388 12.57922983 12.67017841 17.421875 22.35546875 C58.671875 22.68546875 99.921875 23.01546875 142.421875 23.35546875 C142.091875 25.99546875 141.761875 28.63546875 141.421875 31.35546875 C141.33679118 33.31239652 141.29144905 35.27169972 141.296875 37.23046875 C141.29429687 38.15601563 141.29171875 39.0815625 141.2890625 40.03515625 C141.46716534 44.48772734 141.97847332 48.92145196 142.421875 53.35546875 C101.171875 53.68546875 59.921875 54.01546875 17.421875 54.35546875 C15.771875 57.65546875 14.121875 60.95546875 12.421875 64.35546875 C5.39315794 74.21392904 -3.88690181 80.41274006 -15.578125 83.35546875 C-18.84110884 83.79002189 -22.03877204 83.88077393 -25.328125 83.85546875 C-26.19993408 83.84974854 -27.07174316 83.84402832 -27.9699707 83.83813477 C-40.75541783 83.48741178 -50.10377403 78.42816067 -59.25 69.7734375 C-69.19109731 59.24304834 -71.14774337 47.29126517 -70.91796875 33.49609375 C-70.37339352 21.15841426 -64.17840481 11.463975 -55.390625 3.16796875 C-39.71553722 -9.58585267 -16.971118 -10.82551618 0 0 Z " fill="#FD6F00" transform="translate(70.578125,412.64453125)"/>
<path d="M0 0 C0.87180908 0.00572021 1.74361816 0.01144043 2.6418457 0.01733398 C15.42729283 0.36805697 24.77564903 5.42730808 33.921875 14.08203125 C43.86297231 24.61242041 45.81961837 36.56420358 45.58984375 50.359375 C45.04526852 62.69705449 38.85027981 72.39149375 30.0625 80.6875 C18.09922689 90.42125403 5.06439879 91.83002199 -9.75 90.5 C-21.48014431 87.87367251 -30.64689241 81.02462155 -37.75 71.5 C-39.4 68.2 -41.05 64.9 -42.75 61.5 C-84 61.17 -125.25 60.84 -167.75 60.5 C-167.42 57.2 -167.09 53.9 -166.75 50.5 C-166.66721025 48.2719816 -166.61940515 46.04204902 -166.625 43.8125 C-166.62113281 42.25982422 -166.62113281 42.25982422 -166.6171875 40.67578125 C-166.75979095 37.26588118 -167.26734579 33.87857946 -167.75 30.5 C-126.5 30.17 -85.25 29.84 -42.75 29.5 C-40.275 24.55 -40.275 24.55 -37.75 19.5 C-28.63476674 6.7149975 -15.6137913 -0.12011778 0 0 Z " fill="#FD6F00" transform="translate(466.75,405.5)"/>
<path d="M0 0 C1.26457031 0.29003906 2.52914062 0.58007812 3.83203125 0.87890625 C31.79457363 7.76155056 66.88487319 23.47624191 84 48 C85.7622257 52.33660759 86.13027888 56.13147415 85.4375 60.75 C83.22299745 65.75670141 80.03923984 68.90876153 75 71 C69.45977912 71.79808877 64.47585495 71.54813976 59.68359375 68.3828125 C57.78938855 66.82701519 56.13279932 65.14556631 54.4375 63.375 C30.93774182 39.01494239 -4.33180871 28.57608042 -37.31347656 27.95654297 C-73.79655245 28.09654574 -105.82599261 44.10349315 -132.125 68.46875 C-135.84520998 71.50692149 -139.83384088 71.3348785 -144.42578125 71.28125 C-149.41002392 70.73668934 -152.6947868 68.60976295 -155.875 64.6875 C-158.35091138 58.77282282 -158.3728677 54.09243794 -156.11328125 48.1796875 C-151.71702203 39.57227471 -141.60801654 33.66182594 -134 28 C-133.14172607 27.35925537 -133.14172607 27.35925537 -132.26611328 26.70556641 C-114.56387655 13.70222848 -94.23171881 5.26552937 -73 0 C-72.24992676 -0.19062012 -71.49985352 -0.38124023 -70.72705078 -0.57763672 C-48.95380492 -5.81499854 -21.68358889 -5.36905017 0 0 Z " fill="#FFFDD0" transform="translate(292,19)"/>
<path d="M0 0 C8.66496499 7.96999339 14.32708281 18.09586358 15.21875 29.89453125 C15.6365971 44.29284599 12.76356953 56.43176108 2.96484375 67.24609375 C-8.21780186 77.98224534 -19.98935432 80.58752123 -34.859375 80.33984375 C-47.23559049 79.79356757 -56.99299469 73.57161964 -65.25 64.6875 C-73.80429637 54.01839147 -76.06789647 41.40037832 -75 28 C-73.29857565 15.96628963 -67.73439491 6.46351395 -58.38671875 -1.28125 C-40.84230953 -13.91552178 -16.9597334 -13.43732723 0 0 Z " fill="#FD6F00" transform="translate(286,416)"/>
<path d="M0 0 C1.12792969 0.350625 2.25585938 0.70125 3.41796875 1.0625 C19.23261547 6.61014708 36.02871689 16.18657111 46 30 C47.59975055 34.79925166 47.97565788 39.46678963 46.12890625 44.26171875 C44.03267668 47.9799489 42.34880341 49.79330168 38.625 52 C31.9779536 53.83366797 27.95735225 53.37757268 22 50 C20.17106987 48.48128663 18.3809704 46.91501167 16.625 45.3125 C-0.90150994 30.02569176 -21.49496298 27.00136127 -44 28 C-56.92039824 29.37013767 -70.14821292 36.72620479 -80 45 C-81.59911654 46.27718219 -83.20343838 47.5478701 -84.8125 48.8125 C-85.90498047 49.68841797 -85.90498047 49.68841797 -87.01953125 50.58203125 C-90.88874683 53.35229802 -94.37061744 53.37945759 -99 53 C-103.42445856 51.62973858 -106.91730761 49.73673225 -109.5 45.8125 C-111.4869929 41.69721693 -111.8398743 37.47176318 -111 33 C-105.1144931 18.71733675 -86.73966974 9.20643472 -73.22265625 3.27734375 C-50.18067355 -5.8556603 -23.7553514 -7.52990409 0 0 Z " fill="#FFFAC9" transform="translate(288,80)"/>
<path d="M0 0 C41.25 0 82.5 0 125 0 C124.67 2.64 124.34 5.28 124 8 C123.91491618 9.95692777 123.86957405 11.91623097 123.875 13.875 C123.87242187 14.80054688 123.86984375 15.72609375 123.8671875 16.6796875 C124.04529034 21.13225859 124.55659832 25.56598321 125 30 C83.75 30 42.5 30 0 30 C0.33 26.7 0.66 23.4 1 20 C1.08278975 17.7719816 1.13059485 15.54204902 1.125 13.3125 C1.12886719 11.75982422 1.12886719 11.75982422 1.1328125 10.17578125 C0.99020905 6.76588118 0.48265421 3.37857946 0 0 Z " fill="#FEE59B" transform="translate(299,436)"/>
<path d="M0 0 C41.25 0 82.5 0 125 0 C124.67 2.64 124.34 5.28 124 8 C123.91491618 9.95692777 123.86957405 11.91623097 123.875 13.875 C123.87242187 14.80054688 123.86984375 15.72609375 123.8671875 16.6796875 C124.04529034 21.13225859 124.55659832 25.56598321 125 30 C83.75 30 42.5 30 0 30 C0.33 26.7 0.66 23.4 1 20 C1.08278975 17.7719816 1.13059485 15.54204902 1.125 13.3125 C1.12886719 11.75982422 1.12886719 11.75982422 1.1328125 10.17578125 C0.99020905 6.76588118 0.48265421 3.37857946 0 0 Z " fill="#FEE59B" transform="translate(88,436)"/>
<path d="M0 0 C5.56152894 4.04965699 9.98487205 8.26627608 11.2890625 15.2578125 C11.62674275 19.5735308 10.49245041 22.53807719 8.3515625 26.3203125 C5.15259355 29.9991268 3.03532473 32.03854056 -1.91796875 32.55859375 C-7.80813214 32.73050328 -10.92962283 32.16120816 -15.6484375 28.3203125 C-19.75114309 25.12931926 -23.15627732 24.81071576 -28.21875 24.9609375 C-31.76796587 25.48590191 -33.89936646 27.08269654 -36.6484375 29.3203125 C-40.73111942 32.49573177 -44.10512942 32.83710129 -49.14453125 32.671875 C-54.03594137 31.98509355 -57.28302697 29.91329145 -60.5234375 26.1328125 C-62.37129493 21.51316893 -63.40337585 17.07008794 -62.05859375 12.171875 C-57.7800353 2.58643504 -48.88400593 -1.68064729 -39.6484375 -5.6796875 C-26.51132303 -9.52917539 -11.38492601 -7.2205283 0 0 Z " fill="#FFF6C2" transform="translate(281.6484375,142.6796875)"/>
<path d="M0 0 C9.9 0 19.8 0 30 0 C30 10.56 30 21.12 30 32 C27.36 31.67 24.72 31.34 22 31 C19.66791473 30.91305822 17.3336993 30.86969614 15 30.875 C13.865625 30.87242187 12.73125 30.86984375 11.5625 30.8671875 C7.69256839 31.01146127 3.84271514 31.51966061 0 32 C0 21.44 0 10.88 0 0 Z " fill="#FEE9A3" transform="translate(241,376)"/>
<path d="M0 0 C4.5869788 2.07567197 8.13345553 5.27874046 10 10 C10.71298538 16.21315833 9.79368196 20.92679217 6 26 C2.60512832 29.13102155 -0.93404606 30.2591402 -5.5 30.5625 C-10.42150264 30.31894441 -13.59219914 28.49091795 -17 25 C-19.88935274 20.8989832 -20.59231374 17.16926415 -20.41796875 12.24609375 C-19.50598397 7.34524098 -16.43352519 4.26969374 -12.8125 1.0625 C-8.49612249 -0.5681315 -4.54664188 -0.75895582 0 0 Z " fill="#FEEDAB" transform="translate(231,286)"/>
<path d="M0 0 C4.5869788 2.07567197 8.13345553 5.27874046 10 10 C10.71298538 16.21315833 9.79368196 20.92679217 6 26 C2.60512832 29.13102155 -0.93404606 30.2591402 -5.5 30.5625 C-10.42150264 30.31894441 -13.59219914 28.49091795 -17 25 C-19.88935274 20.8989832 -20.59231374 17.16926415 -20.41796875 12.24609375 C-19.50598397 7.34524098 -16.43352519 4.26969374 -12.8125 1.0625 C-8.49612249 -0.5681315 -4.54664188 -0.75895582 0 0 Z " fill="#FEEDAB" transform="translate(171,286)"/>
<path d="M0 0 C4.5869788 2.07567197 8.13345553 5.27874046 10 10 C10.71298538 16.21315833 9.79368196 20.92679217 6 26 C2.60512832 29.13102155 -0.93404606 30.2591402 -5.5 30.5625 C-10.42150264 30.31894441 -13.59219914 28.49091795 -17 25 C-19.88935274 20.8989832 -20.59231374 17.16926415 -20.41796875 12.24609375 C-19.50598397 7.34524098 -16.43352519 4.26969374 -12.8125 1.0625 C-8.49612249 -0.5681315 -4.54664188 -0.75895582 0 0 Z " fill="#FEEDAB" transform="translate(111,286)"/>
</svg>
