<?xml version="1.0" encoding="UTF-8"?>
<svg version="1.1" xmlns="http://www.w3.org/2000/svg" width="512" height="512">
<path d="M0 0 C0.66547852 0.18191895 1.33095703 0.36383789 2.01660156 0.55126953 C22.14196484 6.16170339 40.41032171 17.13932871 55.4140625 31.5546875 C57.8469167 33.85524147 60.35629737 35.94802864 63 38 C63.74121094 37.62488281 64.48242188 37.24976563 65.24609375 36.86328125 C71.70649574 33.72401614 78.04885752 31.19339688 84.9375 29.1875 C85.64640381 28.9810083 86.35530762 28.7745166 87.08569336 28.56176758 C113.36982421 21.16867655 142.43713239 25.75150064 166.15625 38.7265625 C192.69525972 55.05252634 209.5884247 78.45609297 217.0546875 108.46484375 C217.95191147 112.38097213 218.22355074 116.17362583 218.4375 120.1875 C218.98959111 124.38657754 219.47547913 125.58427398 222.84375 128.25390625 C225.86752687 130.03465048 229.02645897 131.52388632 232.18554688 133.04638672 C253.5151751 144.25649542 268.29202542 168.47303373 275.875 190.6875 C283.78551862 216.25685311 281.3398209 245.00681802 269.078125 268.86328125 C265.35827106 275.73664773 261.06997179 282.05964678 256 288 C255.35804688 288.78632813 254.71609375 289.57265625 254.0546875 290.3828125 C240.842648 305.93499184 222.61352082 317.42386183 203 323 C201.62678589 323.40931763 201.62678589 323.40931763 200.22583008 323.8269043 C186.93576608 327.1394252 173.21891818 326.34141477 159.61987305 326.20599365 C156.16005081 326.17489343 152.70015816 326.16135005 149.24023438 326.14648438 C142.49313195 326.11624639 135.7471432 326.05748592 129 326 C129 336.23 129 346.46 129 357 C132.5880249 356.9685791 132.5880249 356.9685791 136.24853516 356.93652344 C144.15936483 356.87018938 152.07020692 356.82603903 159.98124123 356.79275131 C164.77686929 356.77189309 169.57221196 356.74360772 174.36767578 356.69824219 C178.99720432 356.65472142 183.62645865 356.63084961 188.25617599 356.62049103 C190.02080984 356.61311083 191.78542899 356.59869889 193.54994583 356.57707977 C196.02532409 356.54796238 198.49957518 356.54404739 200.97509766 356.54589844 C201.70158508 356.53151733 202.42807251 356.51713623 203.17657471 356.50231934 C208.25006007 356.54326175 211.07628139 357.84428142 215 361 C218.37788301 364.84379791 219.11996462 368.07791263 219.20532227 373.11401367 C219.22526749 374.15486618 219.24521271 375.19571869 219.26576233 376.26811218 C219.29083107 377.95104118 219.29083107 377.95104118 219.31640625 379.66796875 C219.33718735 380.81791824 219.35796844 381.96786774 219.37937927 383.15266418 C219.44483342 386.83088125 219.50374074 390.50917048 219.5625 394.1875 C219.60568913 396.67904396 219.64930355 399.17058059 219.69335938 401.66210938 C219.80051061 407.77466301 219.90228483 413.88728864 220 420 C220.76002823 420.40928741 221.52005646 420.81857483 222.30311584 421.24026489 C223.29758224 421.77859955 224.29204865 422.3169342 225.31665039 422.87158203 C226.30355362 423.40461945 227.29045685 423.93765686 228.30726624 424.48684692 C238.32937186 430.1186625 244.72068188 440.14304849 248 451 C250.85387477 462.76259194 249.32295767 475.00548923 243.57421875 485.63671875 C236.91192195 496.05193727 227.12020036 504.1168198 215.13012695 507.53271484 C202.19424381 510.37045471 189.18424994 508.05584923 178.125 501.0625 C168.13535727 493.9473193 161.33882528 484.5579993 158.4140625 472.60546875 C156.4740587 460.39808636 158.23302306 448.48115904 164.9375 438 C170.86199504 429.88890829 178.08138179 424.45930911 187 420 C187.33 409.11 187.66 398.22 188 387 C184.4119751 387.0314209 184.4119751 387.0314209 180.75146484 387.06347656 C172.84063517 387.12981062 164.92979308 387.17396097 157.01875877 387.20724869 C152.22313071 387.22810691 147.42778804 387.25639228 142.63232422 387.30175781 C138.00279568 387.34527858 133.37354135 387.36915039 128.74382401 387.37950897 C126.97919016 387.38688917 125.21457101 387.40130111 123.45005417 387.42292023 C120.97467591 387.45203762 118.50042482 387.45595261 116.02490234 387.45410156 C115.29841492 387.46848267 114.57192749 387.48286377 113.82342529 387.49768066 C108.74993993 387.45673825 105.92371861 386.15571858 102 383 C98.66282124 379.20252072 97.8739208 376.05344074 97.88647461 371.06958008 C97.88659546 370.05480591 97.88671631 369.04003174 97.88684082 367.99450684 C97.89195679 366.93026489 97.89707275 365.86602295 97.90234375 364.76953125 C97.90335083 363.78964233 97.90435791 362.80975342 97.90539551 361.8001709 C97.91062997 358.13760204 97.92459123 354.47504985 97.9375 350.8125 C97.958125 342.624375 97.97875 334.43625 98 326 C78.53 326 59.06 326 39 326 C39.33 357.02 39.66 388.04 40 420 C43.63 421.98 47.26 423.96 51 426 C60.12991109 432.39458487 65.97936287 442.6716983 68.578125 453.3828125 C70.54496227 465.58448813 68.76345286 477.52435018 62.0625 488 C54.90006491 497.80592735 44.99933674 505.36770997 33 508 C18.03994991 509.3084855 6.07493683 507.38073186 -6 498 C-15.29149728 489.78890938 -21.27803905 479.37365696 -22.23828125 466.90625 C-22.54464495 452.84576863 -18.93561744 441.84819869 -9.625 431.3125 C-4.33855813 426.65539644 0.65928269 423.17035866 7 420 C7.495 373.47 7.495 373.47 8 326 C-11.47 326 -30.94 326 -51 326 C-50.88144192 342.18496611 -50.88144192 342.18496611 -50.72973633 358.36962891 C-50.72097087 360.40526863 -50.71332707 362.44091364 -50.70703125 364.4765625 C-50.6840094 366.04990356 -50.6840094 366.04990356 -50.66052246 367.6550293 C-50.65854588 373.18549317 -50.79316139 377.26484648 -54 382 C-58.98004259 386.49418478 -62.03724089 387.14523135 -68.57080078 387.11352539 C-69.74166733 387.11374443 -69.74166733 387.11374443 -70.93618774 387.1139679 C-73.52259069 387.11326986 -76.10892209 387.10548257 -78.6953125 387.09765625 C-80.48607341 387.09579168 -82.27683483 387.09436796 -84.06759644 387.09336853 C-88.78584191 387.08954641 -93.5040567 387.07971871 -98.22229004 387.06866455 C-103.03490789 387.05844389 -107.84753068 387.0538695 -112.66015625 387.04882812 C-122.10678433 387.03809619 -131.55338962 387.0210234 -141 387 C-141.12951592 391.59151145 -141.18613861 396.1761984 -141.17700195 400.76953125 C-141.18395372 402.32931448 -141.21038573 403.88914254 -141.25708008 405.44824219 C-141.40062929 410.49988428 -141.35308934 415.10588789 -140 420 C-136.68664265 423.17081351 -133.28130196 424.51438933 -129 426 C-119.87008891 432.39458487 -114.02063713 442.6716983 -111.421875 453.3828125 C-109.45503773 465.58448813 -111.23654714 477.52435018 -117.9375 488 C-125.09993509 497.80592735 -135.00066326 505.36770997 -147 508 C-161.96005009 509.3084855 -173.92506317 507.38073186 -186 498 C-195.29149728 489.78890938 -201.27803905 479.37365696 -202.23828125 466.90625 C-202.54464495 452.84576863 -198.93561744 441.84819869 -189.625 431.3125 C-184.39458968 426.70475757 -179.26297894 423.08372325 -173 420 C-172.99413376 419.36186371 -172.98826752 418.72372742 -172.98222351 418.06625366 C-172.91820972 411.41481016 -172.83376899 404.76384691 -172.73754883 398.11279297 C-172.70432764 395.63173765 -172.67628702 393.15060727 -172.65356445 390.66943359 C-172.6199678 387.09960999 -172.56764717 383.53047255 -172.51171875 379.9609375 C-172.50532883 378.85446869 -172.4989389 377.74799988 -172.49235535 376.60800171 C-172.38630005 371.03242318 -172.23618197 366.7642577 -169 362 C-164.01995741 357.50581522 -160.96275911 356.85476865 -154.42919922 356.88647461 C-153.25833267 356.88625557 -153.25833267 356.88625557 -152.06381226 356.8860321 C-149.47740931 356.88673014 -146.89107791 356.89451743 -144.3046875 356.90234375 C-142.51392659 356.90420832 -140.72316517 356.90563204 -138.93240356 356.90663147 C-134.21415809 356.91045359 -129.4959433 356.92028129 -124.77770996 356.93133545 C-119.96509211 356.94155611 -115.15246932 356.9461305 -110.33984375 356.95117188 C-100.89321351 356.96190382 -91.4466141 356.97949817 -82 357 C-82 346.77 -82 336.54 -82 326 C-86.05023438 326.04640625 -90.10046875 326.0928125 -94.2734375 326.140625 C-97.55737831 326.16645245 -100.8412894 326.18810656 -104.12527466 326.20700073 C-107.56192305 326.22789145 -110.99815961 326.2556719 -114.43457031 326.30175781 C-133.06343803 326.54476459 -150.6284574 326.35755113 -167.9375 318.6875 C-168.63367432 318.38900146 -169.32984863 318.09050293 -170.04711914 317.78295898 C-194.99306735 306.76677743 -215.16745863 285.35363453 -225.24169922 260.09521484 C-234.86218348 233.51343894 -235.07855521 204.02859928 -223.24609375 178.09375 C-212.55932082 155.46592573 -195.46580965 137.23290482 -173 126 C-172.42198046 123.64724252 -172.42198046 123.64724252 -172.10546875 120.77734375 C-171.95730713 119.6888916 -171.80914551 118.60043945 -171.65649414 117.47900391 C-171.42434204 115.72595947 -171.42434204 115.72595947 -171.1875 113.9375 C-169.69176418 103.49364011 -167.71788357 93.88024716 -164 84 C-163.60941406 82.95199219 -163.21882813 81.90398437 -162.81640625 80.82421875 C-149.76027014 47.82001893 -124.47727502 21.21812274 -92.0703125 6.73828125 C-63.58250638 -5.39964252 -29.98521281 -8.60254691 0 0 Z " fill="#E067FE" transform="translate(232,4)"/>
<path d="M0 0 C0.94166016 0.62648437 0.94166016 0.62648437 1.90234375 1.265625 C9.17112508 6.73781412 14.69963784 16.31369454 17 25 C17.29358895 28.43930145 17.2937843 31.86610003 17.29052734 35.31640625 C17.29724457 36.34152313 17.30396179 37.36664001 17.31088257 38.42282104 C17.32984101 41.80276366 17.33378531 45.18250757 17.3359375 48.5625 C17.34236551 50.91609783 17.34909387 53.26969486 17.35610962 55.62329102 C17.36807598 60.55259047 17.37179095 65.48181986 17.37060547 70.41113281 C17.370402 76.72628465 17.39773668 83.0409879 17.43214989 89.35603333 C17.4543859 94.2150682 17.45844406 99.0739944 17.45738602 103.93307495 C17.45974569 106.26148021 17.46858973 108.58988829 17.48405075 110.91824341 C17.5036489 114.17368059 17.49789696 117.4281408 17.48583984 120.68359375 C17.49707886 121.64377411 17.50831787 122.60395447 17.51989746 123.5932312 C17.46539771 129.38479435 16.78274813 132.5503682 13 137 C9.69740076 139.90228418 7.11842552 140.91559053 2.6875 141.25 C-2.66430237 140.88716594 -5.71949363 139.41893949 -9.3125 135.4375 C-11.68768504 132.00667716 -12.12389481 130.31013376 -12.11352539 126.18310547 C-12.11344986 125.18221893 -12.11337433 124.1813324 -12.11329651 123.15011597 C-12.10813522 122.06674957 -12.10297394 120.98338318 -12.09765625 119.8671875 C-12.0962413 118.76021515 -12.09482635 117.6532428 -12.09336853 116.51272583 C-12.08775772 112.96679007 -12.07520337 109.42091677 -12.0625 105.875 C-12.05748639 103.47526133 -12.05292325 101.07552167 -12.04882812 98.67578125 C-12.0386344 92.78381057 -12.01906103 86.89197545 -12 81 C-22.23 81 -32.46 81 -43 81 C-42.95359375 84.53976563 -42.9071875 88.07953125 -42.859375 91.7265625 C-42.82816343 95.16193203 -42.80388463 98.59728566 -42.78027344 102.03271484 C-42.76018107 104.41690157 -42.73290219 106.80103915 -42.69824219 109.18505859 C-42.64962141 112.61568338 -42.62700688 116.04565555 -42.609375 119.4765625 C-42.58872986 120.53928375 -42.56808472 121.602005 -42.54681396 122.69692993 C-42.54496941 128.80580304 -42.91341561 132.35305102 -47 137 C-50.30259924 139.90228418 -52.88157448 140.91559053 -57.3125 141.25 C-62.66430237 140.88716594 -65.71949363 139.41893949 -69.3125 135.4375 C-71.52497463 132.24170331 -72.12585422 130.62777386 -72.14717102 126.8026123 C-72.15432632 125.92241425 -72.16148163 125.04221619 -72.16885376 124.13534546 C-72.17154266 123.16706818 -72.17423157 122.19879089 -72.17700195 121.20117188 C-72.18357315 120.18306427 -72.19014435 119.16495667 -72.19691467 118.11599731 C-72.21668541 114.73358084 -72.22832153 111.35120894 -72.23828125 107.96875 C-72.24235678 106.81361404 -72.2464323 105.65847809 -72.25063133 104.46833801 C-72.27151274 98.349011 -72.28580289 92.22970652 -72.29516602 86.11035156 C-72.30620697 79.799988 -72.34057457 73.48997935 -72.38033772 67.17974091 C-72.40653994 62.32055016 -72.41486131 57.46144328 -72.41844749 52.60218811 C-72.42330771 50.27708044 -72.43490547 47.95197638 -72.45348549 45.62693787 C-72.47794234 42.36233867 -72.47689904 39.09864794 -72.4699707 35.83398438 C-72.48278076 34.88190094 -72.49559082 33.9298175 -72.50878906 32.94888306 C-72.42127032 21.57068482 -67.49903525 12.38938893 -60 4 C-42.08726362 -11.7727192 -19.72958666 -13.48689173 0 0 Z " fill="#FEE3FD" transform="translate(193,129)"/>
<path d="M0 0 C1.21243881 -0.01429802 1.21243881 -0.01429802 2.44937134 -0.02888489 C3.31605438 -0.02797348 4.18273743 -0.02706207 5.07568359 -0.02612305 C5.97854095 -0.03040817 6.88139832 -0.0346933 7.81161499 -0.03910828 C9.72303429 -0.04484775 11.63447544 -0.04535465 13.54589844 -0.04101562 C16.44293534 -0.0378756 19.33893063 -0.06124978 22.23583984 -0.08666992 C24.09911982 -0.08894522 25.96240251 -0.08964534 27.82568359 -0.08862305 C28.68022125 -0.09783279 29.53475891 -0.10704254 30.41519165 -0.11653137 C43.21856772 -0.02012299 54.71608571 5.34457916 63.84912109 14.2746582 C66.44545605 17.46444115 68.70323579 20.76746067 70.84912109 24.2746582 C71.28869141 24.99008789 71.72826172 25.70551758 72.18115234 26.44262695 C75.08090701 32.2318898 75.22672009 37.98299924 75.28662109 44.3371582 C75.29685303 45.17617676 75.30708496 46.01519531 75.31762695 46.87963867 C75.16399507 57.84874025 70.74061224 68.58209804 63.40771484 76.8059082 C54.51946767 85.18180028 43.07133432 90.44780062 30.76708984 90.37231445 C29.83574219 90.3690918 28.90439453 90.36586914 27.94482422 90.36254883 C26.50526367 90.34998047 26.50526367 90.34998047 25.03662109 90.3371582 C24.05757813 90.33264648 23.07853516 90.32813477 22.06982422 90.32348633 C19.66285999 90.31174504 17.25602252 90.29532239 14.84912109 90.2746582 C14.85578293 90.87521027 14.86244476 91.47576233 14.86930847 92.09451294 C14.93578187 98.35632971 14.98097157 104.6180459 15.01391602 110.88012695 C15.0289837 113.21578036 15.04944158 115.55140557 15.07543945 117.88696289 C15.11191068 121.2480364 15.12886799 124.60873512 15.14208984 127.9699707 C15.1575737 129.01081818 15.17305756 130.05166565 15.18901062 131.12405396 C15.19027504 136.59571634 15.00227216 140.5813557 11.84912109 145.2746582 C8.16921949 148.67856718 5.58383491 150.14373641 0.53662109 150.5246582 C-4.7883901 150.16364049 -7.84229767 148.68934062 -11.46337891 144.7746582 C-13.94401245 141.09964554 -14.28009146 138.35477152 -14.31150818 134.0256958 C-14.3215538 132.9378479 -14.33159943 131.85 -14.34194946 130.72918701 C-14.34778046 129.53537415 -14.35361145 128.34156128 -14.35961914 127.11157227 C-14.37429482 125.22583496 -14.37429482 125.22583496 -14.38926697 123.30200195 C-14.42062621 119.13146032 -14.44091589 114.9608989 -14.45947266 110.7902832 C-14.46276998 110.08022471 -14.4660673 109.37016623 -14.46946454 108.63859081 C-14.50024415 101.93950001 -14.52694561 95.24040464 -14.54388332 88.54126358 C-14.56578578 79.97963249 -14.60775293 71.41862882 -14.6773209 62.85724854 C-14.72460363 56.83335287 -14.74882248 50.80962623 -14.75608021 44.78555083 C-14.76103012 41.18957817 -14.77604575 37.59431304 -14.81582451 33.99854279 C-14.85965415 29.98375144 -14.85578471 25.97034522 -14.84790039 21.95532227 C-14.867901 20.76960632 -14.88790161 19.58389038 -14.9085083 18.36224365 C-14.85276098 12.04093151 -14.35322894 8.14986654 -9.82949924 3.55541611 C-6.63488017 1.11797773 -4.0109107 0.02613539 0 0 Z " fill="#FEE5FD" transform="translate(255.15087890625,119.725341796875)"/>
<path d="M0 0 C2.75 2.4375 2.75 2.4375 5 5 C5.47953125 5.47695313 5.9590625 5.95390625 6.453125 6.4453125 C15.07108886 15.45500199 17.39094619 27.17598774 17.27734375 39.23046875 C16.38209771 51.39824937 11.13938182 61.94863982 2 70 C-10.26313555 80.3183211 -22.37809667 82.22688605 -38 81 C-50.44676808 78.48186773 -60.21550066 70.26924136 -67.578125 60.25 C-74.16884735 49.82072508 -75.66912082 37.51728511 -73.31640625 25.51171875 C-69.3004323 11.33083149 -60.61919979 1.61119988 -48 -5.75 C-32.31405919 -12.28580867 -13.65706232 -10.08876972 0 0 Z " fill="#B040FE" transform="translate(464,431)"/>
<path d="M0 0 C2.75 2.4375 2.75 2.4375 5 5 C5.47953125 5.47695313 5.9590625 5.95390625 6.453125 6.4453125 C15.07108886 15.45500199 17.39094619 27.17598774 17.27734375 39.23046875 C16.38209771 51.39824937 11.13938182 61.94863982 2 70 C-10.26313555 80.3183211 -22.37809667 82.22688605 -38 81 C-50.44676808 78.48186773 -60.21550066 70.26924136 -67.578125 60.25 C-74.16884735 49.82072508 -75.66912082 37.51728511 -73.31640625 25.51171875 C-69.3004323 11.33083149 -60.61919979 1.61119988 -48 -5.75 C-32.31405919 -12.28580867 -13.65706232 -10.08876972 0 0 Z " fill="#B040FE" transform="translate(284,431)"/>
<path d="M0 0 C2.75 2.4375 2.75 2.4375 5 5 C5.47953125 5.47695313 5.9590625 5.95390625 6.453125 6.4453125 C15.07108886 15.45500199 17.39094619 27.17598774 17.27734375 39.23046875 C16.38209771 51.39824937 11.13938182 61.94863982 2 70 C-10.26313555 80.3183211 -22.37809667 82.22688605 -38 81 C-50.44676808 78.48186773 -60.21550066 70.26924136 -67.578125 60.25 C-74.16884735 49.82072508 -75.66912082 37.51728511 -73.31640625 25.51171875 C-69.3004323 11.33083149 -60.61919979 1.61119988 -48 -5.75 C-32.31405919 -12.28580867 -13.65706232 -10.08876972 0 0 Z " fill="#B040FE" transform="translate(104,431)"/>
<path d="M0 0 C10.23 0 20.46 0 31 0 C31 10.23 31 20.46 31 31 C33.3920166 30.97905273 35.7840332 30.95810547 38.24853516 30.93652344 C46.15936483 30.87018938 54.07020692 30.82603903 61.98124123 30.79275131 C66.77686929 30.77189309 71.57221196 30.74360772 76.36767578 30.69824219 C80.99720432 30.65472142 85.62645865 30.63084961 90.25617599 30.62049103 C92.02080984 30.61311083 93.78542899 30.59869889 95.54994583 30.57707977 C98.02532409 30.54796238 100.49957518 30.54404739 102.97509766 30.54589844 C104.0648288 30.52432678 104.0648288 30.52432678 105.17657471 30.50231934 C110.25006007 30.54326175 113.07628139 31.84428142 117 35 C120.3929578 38.86095198 121.12578055 42.05263195 121.11352539 47.11401367 C121.11341209 48.67529243 121.11341209 48.67529243 121.11329651 50.26811218 C121.10813522 51.39006485 121.10297394 52.51201752 121.09765625 53.66796875 C121.0962413 54.81791824 121.09482635 55.96786774 121.09336853 57.15266418 C121.08776429 60.83096908 121.07521104 64.50921345 121.0625 68.1875 C121.05748555 70.67903558 121.05292255 73.17057211 121.04882812 75.66210938 C121.03779347 81.77476029 121.02105118 87.88737582 121 94 C120.32212936 93.92935333 119.64425873 93.85870667 118.94584656 93.78591919 C118.05194717 93.69430511 117.15804779 93.60269104 116.23706055 93.50830078 C114.91087959 93.37139328 114.91087959 93.37139328 113.5579071 93.23171997 C110.30278982 92.93683996 107.08023211 92.86747933 103.8125 92.875 C102.12060547 92.87113281 102.12060547 92.87113281 100.39453125 92.8671875 C96.91183692 93.00344942 93.45032934 93.50709581 90 94 C90 83.11 90 72.22 90 61 C86.4119751 61.0314209 86.4119751 61.0314209 82.75146484 61.06347656 C74.84063517 61.12981062 66.92979308 61.17396097 59.01875877 61.20724869 C54.22313071 61.22810691 49.42778804 61.25639228 44.63232422 61.30175781 C40.00279568 61.34527858 35.37354135 61.36915039 30.74382401 61.37950897 C28.97919016 61.38688917 27.21457101 61.40130111 25.45005417 61.42292023 C22.97467591 61.45203762 20.50042482 61.45595261 18.02490234 61.45410156 C17.29841492 61.46848267 16.57192749 61.48286377 15.82342529 61.49768066 C10.74993993 61.45673825 7.92371861 60.15571858 4 57 C0.66282124 53.20252072 -0.1260792 50.05344074 -0.11352539 45.06958008 C-0.11344986 44.06876907 -0.11337433 43.06795807 -0.11329651 42.03681946 C-0.10813522 40.95861435 -0.10297394 39.88040924 -0.09765625 38.76953125 C-0.0962413 37.66397385 -0.09482635 36.55841644 -0.09336853 35.4193573 C-0.08776514 31.88371083 -0.07521204 28.34812738 -0.0625 24.8125 C-0.05748544 22.41731862 -0.05292246 20.02213625 -0.04882812 17.62695312 C-0.03864494 11.75125819 -0.01907007 5.87569975 0 0 Z " fill="#FEC9FA" transform="translate(330,330)"/>
<path d="M0 0 C10.23 0 20.46 0 31 0 C31.06893825 7.01127527 31.12865397 14.02137047 31.16479492 21.03271484 C31.179864 23.41687001 31.20032291 25.80099753 31.22631836 28.18505859 C31.26278337 31.61562937 31.27974552 35.045833 31.29296875 38.4765625 C31.30845261 39.53928375 31.32393646 40.602005 31.33988953 41.69692993 C31.34113845 47.21189823 31.19769715 51.27834458 28 56 C23.01995741 60.49418478 19.96275911 61.14523135 13.42919922 61.11352539 C12.25833267 61.11374443 12.25833267 61.11374443 11.06381226 61.1139679 C8.47740931 61.11326986 5.89107791 61.10548257 3.3046875 61.09765625 C1.51392659 61.09579168 -0.27683483 61.09436796 -2.06759644 61.09336853 C-6.78584191 61.08954641 -11.5040567 61.07971871 -16.22229004 61.06866455 C-21.03490789 61.05844389 -25.84753068 61.0538695 -30.66015625 61.04882812 C-40.10678649 61.03809618 -49.5533859 61.02050183 -59 61 C-59 71.89 -59 82.78 -59 94 C-62.3 93.67 -65.6 93.34 -69 93 C-71.39472801 92.91614753 -73.79131072 92.86948518 -76.1875 92.875 C-77.87939453 92.87113281 -77.87939453 92.87113281 -79.60546875 92.8671875 C-83.12947605 93.00506581 -86.5145035 93.47874137 -90 94 C-90.07616325 86.70433246 -90.1286476 79.40876776 -90.16479492 72.11279297 C-90.17986662 69.6316342 -90.20032746 67.15050201 -90.22631836 64.66943359 C-90.26277167 61.09986811 -90.27974292 57.53065539 -90.29296875 53.9609375 C-90.30845261 52.85446869 -90.32393646 51.74799988 -90.33988953 50.60800171 C-90.34110963 45.00469907 -90.27752867 40.78494818 -87 36 C-82.01995741 31.50581522 -78.96275911 30.85476865 -72.42919922 30.88647461 C-71.25833267 30.88625557 -71.25833267 30.88625557 -70.06381226 30.8860321 C-67.47740931 30.88673014 -64.89107791 30.89451743 -62.3046875 30.90234375 C-60.51392659 30.90420832 -58.72316517 30.90563204 -56.93240356 30.90663147 C-52.21415809 30.91045359 -47.4959433 30.92028129 -42.77770996 30.93133545 C-37.96509211 30.94155611 -33.15246932 30.9461305 -28.33984375 30.95117188 C-18.89321351 30.96190382 -9.4466141 30.97949817 0 31 C0 20.77 0 10.54 0 0 Z " fill="#FEC9FA" transform="translate(150,330)"/>
<path d="M0 0 C3.36931534 2.24621022 5.94776163 4.26784876 7.8125 7.875 C8.55232502 12.07675543 8.48529412 16.22909306 8.44360352 20.48632812 C8.45075882 21.75528427 8.45791412 23.02424042 8.46528625 24.33164978 C8.48375784 27.80086283 8.47088958 31.26930465 8.45119596 34.73848534 C8.43477248 38.37518539 8.44362747 42.01183801 8.44871521 45.64855957 C8.45323208 51.75492629 8.43739192 57.86098628 8.40942383 63.96728516 C8.37737347 71.01907644 8.37738881 78.07031463 8.3946386 85.12214518 C8.41052272 91.91600866 8.4037581 98.70967009 8.38670158 105.50352478 C8.37984319 108.39018661 8.38085096 111.27668587 8.38824654 114.16334534 C8.39735629 118.19709806 8.37333384 122.23000192 8.34594727 126.26367188 C8.35247314 127.4576207 8.35899902 128.65156952 8.36572266 129.88169861 C8.29309841 136.17034884 8.09616448 140.12218638 3.8125 144.875 C0.50990076 147.77728418 -2.06907448 148.79059053 -6.5 149.125 C-11.85180237 148.76216594 -14.90699363 147.29393949 -18.5 143.3125 C-20.94830995 139.77605229 -21.31742984 137.97563145 -21.34812927 133.70832825 C-21.3581749 132.61344086 -21.36822052 131.51855347 -21.37857056 130.39048767 C-21.38440155 129.18372879 -21.39023254 127.97696991 -21.39624023 126.73364258 C-21.40602402 125.46687683 -21.4158078 124.20011108 -21.42588806 122.8949585 C-21.45729132 118.68651394 -21.4775449 114.47804953 -21.49609375 110.26953125 C-21.49939107 109.5533682 -21.50268839 108.83720516 -21.50608563 108.0993402 C-21.53687223 101.34377336 -21.56357792 94.58820207 -21.58050442 87.83258533 C-21.60240079 79.19479917 -21.64434458 70.55763545 -21.71394199 61.92009813 C-21.76122506 55.84526758 -21.78544382 49.77060469 -21.7927013 43.69559592 C-21.79765212 40.06831192 -21.81267574 36.4417292 -21.8524456 32.81464577 C-21.89627488 28.7638261 -21.8924057 24.71437929 -21.88452148 20.66333008 C-21.90452209 19.46669235 -21.92452271 18.27005463 -21.94512939 17.03715515 C-21.88967662 10.69283932 -21.41362874 6.76181092 -16.86612034 2.15197277 C-11.55830127 -1.88583153 -6.17815632 -2.18052576 0 0 Z " fill="#FEE3FD" transform="translate(382.1875,121.125)"/>
<path d="M0 0 C10.23 0 20.46 0 31 0 C31 31.02 31 62.04 31 94 C27.7 93.67 24.4 93.34 21 93 C18.60527199 92.91614753 16.20868928 92.86948518 13.8125 92.875 C12.12060547 92.87113281 12.12060547 92.87113281 10.39453125 92.8671875 C6.91183692 93.00344942 3.45032934 93.50709581 0 94 C0 62.98 0 31.96 0 0 Z " fill="#FEC8FA" transform="translate(240,330)"/>
<path d="M0 0 C3.32623046 2.21748697 5.93319931 4.33421156 7.8125 7.875 C8.40988776 11.52905204 8.28622656 15.06033725 8.125 18.75 C8.021875 22.09125 7.91875 25.4325 7.8125 28.875 C-1.7575 28.875 -11.3275 28.875 -21.1875 28.875 C-21.31125 25.554375 -21.435 22.23375 -21.5625 18.8125 C-21.61712402 17.77988037 -21.67174805 16.74726074 -21.72802734 15.68334961 C-21.83411797 9.77022312 -21.00971951 6.51805053 -16.87744141 2.21704102 C-11.64191224 -1.94067407 -6.16441976 -2.17567756 0 0 Z " fill="#E36AFE" transform="translate(172.1875,151.125)"/>
<path d="M0 0 C2.84625 -0.061875 5.6925 -0.12375 8.625 -0.1875 C9.51010254 -0.21481201 10.39520508 -0.24212402 11.30712891 -0.27026367 C17.85346326 -0.33877696 21.85255482 1.13265636 26.875 5.5 C29.70332092 9.16125685 29.6432905 12.89074066 29.41796875 17.37890625 C28.61853491 22.39217828 26.23451947 24.95408767 22.46875 28.14453125 C17.85545798 30.61222687 14.2504889 30.44913366 9.125 30.25 C4.608125 30.12625 4.608125 30.12625 0 30 C0 20.1 0 10.2 0 0 Z " fill="#E36AFE" transform="translate(271,150)"/>
</svg>
