<?xml version="1.0" encoding="UTF-8"?><svg version="1.1" xmlns="http://www.w3.org/2000/svg" width="586" height="526"><path d="M0 0 C1.80791016 0.00966797 1.80791016 0.00966797 3.65234375 0.01953125 C5.53373047 0.04466797 5.53373047 0.04466797 7.453125 0.0703125 C8.72285156 0.07933594 9.99257812 0.08835938 11.30078125 0.09765625 C14.43508593 0.12122245 17.56901041 0.15412418 20.703125 0.1953125 C20.82647217 1.08154297 20.94981934 1.96777344 21.0769043 2.88085938 C21.24617432 4.04681641 21.41544434 5.21277344 21.58984375 6.4140625 C21.75444092 7.56841797 21.91903809 8.72277344 22.08862305 9.91210938 C23.37302734 16.77451261 26.33331116 21.6996544 31.703125 26.1953125 C37.82125939 30.35845682 42.97627256 31.31316541 50.27832031 31.35644531 C51.59028381 31.36605286 52.90224731 31.3756604 54.25396729 31.38555908 C55.67972641 31.39040827 57.10548757 31.3946868 58.53125 31.3984375 C59.25461296 31.40126488 59.97797592 31.40409225 60.72325897 31.40700531 C64.55265159 31.42196505 68.38200685 31.4312143 72.21142578 31.43554688 C76.14638861 31.44102125 80.08100364 31.46503636 84.0158577 31.49351883 C87.05982426 31.51224074 90.10370871 31.5173559 93.14772797 31.51888275 C94.59725593 31.5218892 96.04678316 31.52984903 97.49625397 31.54306793 C108.61223783 31.63719419 117.6532532 31.09190959 125.98046875 23.12890625 C131.92781139 16.45331757 132.64655378 8.83487259 133.703125 0.1953125 C137.86941705 0.04902416 142.03504097 -0.03909171 146.203125 -0.1171875 C147.37617188 -0.15908203 148.54921875 -0.20097656 149.7578125 -0.24414062 C157.0146093 -0.34606193 162.19787826 0.18470287 167.703125 5.1953125 C171.05698627 9.6310645 171.8266342 13.65276863 171.83455276 19.11890125 C171.83839391 20.11531629 171.84223505 21.11173133 171.8461926 22.13834077 C171.84532612 23.23083483 171.84445963 24.32332889 171.84356689 25.44892883 C171.84653802 26.61121999 171.84950914 27.77351116 171.8525703 28.97102326 C171.85974955 32.19792864 171.86242953 35.42480158 171.86316776 38.65171373 C171.86501934 42.13170682 171.87256716 45.61168838 171.87930298 49.0916748 C171.89288219 56.7011678 171.89891027 64.31065553 171.90331364 71.92015862 C171.90607653 76.67148147 171.91031395 81.42280229 171.91481781 86.17412376 C171.92700952 99.3291845 171.9373093 112.48424362 171.9406929 125.63930988 C171.94102225 126.90211157 171.94102225 126.90211157 171.94135825 128.19042439 C171.94157653 129.03430396 171.94179481 129.87818352 171.9420197 130.74763519 C171.94246317 132.45765197 171.94290973 134.16766876 171.94335938 135.87768555 C171.94369152 137.15002609 171.94369152 137.15002609 171.94403037 138.44807049 C171.94797889 152.19418023 171.96543498 165.94023698 171.9887189 179.68632624 C172.01243119 193.79921366 172.02489468 207.91207449 172.02606082 222.02498215 C172.0269776 229.94889251 172.03273085 237.8727338 172.05088043 245.79662514 C172.06627972 252.5435242 172.07140289 259.29033285 172.06314233 266.03724615 C172.0592353 269.47913718 172.06016782 272.92084613 172.07419968 276.36271477 C172.08686038 280.09554912 172.08107383 283.82791447 172.07061768 287.56074524 C172.08270228 289.18944808 172.08270228 289.18944808 172.09503102 290.85105401 C172.04655129 298.23896753 171.19955663 303.15911186 166.390625 309.0078125 C161.27763067 313.16955207 156.06863255 313.48315561 149.6796875 313.390625 C148.93351166 313.3877951 148.18733582 313.38496521 147.41854858 313.38204956 C145.05490512 313.37092937 142.69165232 313.34584071 140.328125 313.3203125 C138.71745342 313.31027212 137.10677585 313.30114812 135.49609375 313.29296875 C131.56495556 313.2710169 127.63410633 313.23654435 123.703125 313.1953125 C123.26484375 312.00292969 122.8265625 310.81054688 122.375 309.58203125 C117.66240892 296.82361897 117.66240892 296.82361897 107.703125 288.1953125 C104.64201319 287.1749419 102.52360054 287.0567488 99.31713867 287.03417969 C97.66478462 287.01976837 97.66478462 287.01976837 95.97904968 287.00506592 C94.78842422 287.00081604 93.59779877 286.99656616 92.37109375 286.9921875 C91.14659012 286.98648743 89.92208649 286.98078735 88.66047668 286.97491455 C86.06719833 286.96546137 83.47390795 286.95892931 80.88061523 286.95507812 C76.9169412 286.94537691 72.95378657 286.91435728 68.99023438 286.8828125 C66.47135725 286.87628201 63.95247641 286.87103172 61.43359375 286.8671875 C60.24904099 286.8548407 59.06448822 286.8424939 57.84403992 286.82977295 C50.52005448 286.84955647 45.97007843 287.5658134 40.140625 292.2578125 C35.919617 297.34466829 33.19344779 302.95630231 31.63354492 309.36987305 C31.32650635 310.63226807 31.01946777 311.89466309 30.703125 313.1953125 C25.84679465 313.26984886 20.99080232 313.32409579 16.1340332 313.36010742 C14.48423456 313.37513056 12.83447542 313.3955551 11.18481445 313.42163086 C8.80409964 313.45830149 6.42391592 313.47510353 4.04296875 313.48828125 C3.31351547 313.50376511 2.58406219 313.51924896 1.83250427 313.53520203 C-4.54462929 313.53726575 -9.0906282 312.00933765 -14.109375 307.8828125 C-19.06489954 301.79459664 -18.58359643 295.18415699 -18.55757141 287.70118713 C-18.56139696 286.53718712 -18.56522251 285.37318711 -18.56916398 284.17391437 C-18.57768777 280.95148893 -18.57726392 277.72920933 -18.57298338 274.50678003 C-18.57051495 271.02817931 -18.57953175 267.54960532 -18.58702087 264.0710144 C-18.5997664 257.25951656 -18.60156177 250.44805814 -18.59922061 243.63655037 C-18.59743722 238.0999447 -18.59918755 232.56335099 -18.60344505 227.02674675 C-18.60404024 226.2386028 -18.60463543 225.45045884 -18.60524866 224.63843174 C-18.60646041 223.03729606 -18.60767455 221.43616038 -18.60889103 219.83502471 C-18.6197659 204.82171037 -18.61760426 189.80841849 -18.61150619 174.79510289 C-18.60633642 161.06204952 -18.61759412 147.32906708 -18.63660441 133.59602774 C-18.65597831 119.4921125 -18.66423963 105.38823081 -18.66048115 91.28430218 C-18.65856851 83.36713415 -18.66106285 75.45002651 -18.67519569 67.53286934 C-18.68710472 60.79333164 -18.68851974 54.05389149 -18.67640553 47.31435246 C-18.6705136 43.87650278 -18.66942594 40.43883156 -18.68140793 37.00099373 C-18.69183075 33.27263675 -18.68380995 29.54476097 -18.6710968 25.81642151 C-18.67847109 24.73198385 -18.68584537 23.6475462 -18.69344312 22.53024679 C-18.64025008 15.12685303 -17.84650039 10.13718795 -12.859375 4.3828125 C-8.50927078 0.6693089 -5.73593853 -0.05411263 0 0 Z " fill="#4D3F8F" transform="translate(226.296875,194.8046875)"/><path d="M0 0 C5.81947688 5.10011207 10.02285041 10.04700655 13.41796875 17.03125 C14.91935269 19.23223776 14.91935269 19.23223776 17.76953125 20.09375 C22.20618773 19.96499576 24.34440561 17.83186265 27.5 15 C43.23610005 1.7999439 61.55402294 -3.38088298 82 -2 C102.06395549 0.56092698 118.86244431 9.59175567 132 25 C141.44482055 37.73479718 146.80031857 51.80509705 147.7890625 67.625 C147.98677553 69.85110232 148.39376061 71.85331626 149 74 C149.92039062 74.08636719 150.84078125 74.17273438 151.7890625 74.26171875 C173.07457563 76.62436736 190.20593726 85.63823441 204 102 C216.56221047 118.28007056 219.46013446 137.02536054 218 157 C215.52447771 175.53467969 204.8391731 190.96593643 191 203 C179.01164489 211.91721602 165.08644271 217.1640993 150.0703125 217.09765625 C148.78125 217.09443359 147.4921875 217.09121094 146.1640625 217.08789062 C144.81770764 217.07953733 143.47135348 217.07107241 142.125 217.0625 C140.75520996 217.0574783 139.38541815 217.05291657 138.015625 217.04882812 C134.6770381 217.03707254 131.33854185 217.02063964 128 217 C127.99635437 216.24324478 127.99270874 215.48648956 127.98895264 214.70680237 C127.95093946 207.54256082 127.89393762 200.37883166 127.81609726 193.214921 C127.77674382 189.53266798 127.74449659 185.85064974 127.72900391 182.16821289 C127.71375632 178.6082234 127.67917046 175.04887991 127.63169098 171.48917961 C127.6098363 169.48373652 127.60753325 167.47811073 127.60565186 165.47254944 C127.45647093 156.08676034 125.97740024 147.78882185 119 141 C112.70513849 136.97128863 107.79547133 134.88005354 100.25267029 134.84609985 C99.56295877 134.8417176 98.87324725 134.83733535 98.16263539 134.8328203 C95.84596965 134.81944047 93.52934195 134.81325521 91.21264648 134.80712891 C89.55357186 134.7992271 87.89449896 134.7909581 86.23542786 134.78234863 C80.78066651 134.7561308 75.32589751 134.74081811 69.87109375 134.7265625 C67.9919999 134.72120213 66.11290609 134.71582462 64.23381233 134.71043015 C56.41454324 134.68879899 48.59527621 134.67006419 40.77598476 134.65880775 C29.57899835 134.64258207 18.3823597 134.60944057 7.18550438 134.55240691 C-0.69150498 134.51365593 -8.56842153 134.49416878 -16.44552368 134.48888719 C-21.14753669 134.48523991 -25.84917876 134.47328561 -30.55108833 134.44078445 C-34.97941575 134.41061408 -39.40714955 134.40442375 -43.83555794 134.41616821 C-45.45522784 134.41638822 -47.074926 134.40814367 -48.69449997 134.39051437 C-59.36816944 134.28071571 -67.37229623 135.35102732 -75.875 142.375 C-80.57788327 148.18444404 -83.09825826 153.49161746 -83.20532227 161.03198242 C-83.2352401 162.89357246 -83.2352401 162.89357246 -83.26576233 164.79277039 C-83.28274527 166.1470019 -83.29962413 167.50123473 -83.31640625 168.85546875 C-83.33698228 170.24124259 -83.35797892 171.62701025 -83.37937927 173.01277161 C-83.43453301 176.65740953 -83.48397174 180.30210346 -83.53222656 183.94683838 C-83.58249056 187.6670835 -83.63815104 191.38724743 -83.69335938 195.10742188 C-83.80085899 202.40487913 -83.90232207 209.70240397 -84 217 C-87.96751711 217.03745795 -91.93496377 217.06448022 -95.90261841 217.08239746 C-97.90557478 217.09352915 -99.90848199 217.11260223 -101.91137695 217.13183594 C-121.69403544 217.20655797 -138.20558915 211.32789672 -152.5612793 197.63916016 C-166.87402617 183.35105567 -174.32233004 166.19227739 -174.5 146 C-174.30629735 125.90635028 -166.99449433 109.37651115 -153.1875 94.875 C-140.34971739 82.43298718 -124.47792013 76.01694306 -106.890625 73.6875 C-104.84384349 73.14375924 -104.84384349 73.14375924 -103.68359375 71.17578125 C-102.73132298 68.14483944 -103.65463711 65.8158562 -104.41015625 62.80859375 C-108.09109102 45.28149374 -104.91748297 28.5220482 -95.75 13.25 C-86.6410375 -0.25639267 -72.63344557 -9.97493655 -56.875 -14.25 C-36.06152505 -18.27841451 -16.32482169 -13.92336122 0 0 Z " fill="#823D8E" transform="translate(281,50)"/><path d="M0 0 C1.7644043 -0.04930664 1.7644043 -0.04930664 3.56445312 -0.09960938 C13.25716549 -0.15988062 13.25716549 -0.15988062 16.94921875 2.83984375 C20.58483078 7.05918406 20.31017473 10.20232032 20.25 15.5625 C20.24548828 16.31660156 20.24097656 17.07070313 20.23632812 17.84765625 C20.22453499 19.71097127 20.20659942 21.57424555 20.1875 23.4375 C23.45237364 24.37385411 23.45237364 24.37385411 27.1875 24.4375 C29.83386883 22.38357692 29.83386883 22.38357692 32 19.5 C37.47602034 13.63461058 37.47602034 13.63461058 42.1875 13.25 C48.81887843 13.95790225 52.81191167 18.82776647 57.1875 23.4375 C58.5405313 24.75117039 59.89455789 26.06381722 61.25 27.375 C64.23124773 30.34221833 65.39216603 32.3244576 65.6875 36.5625 C65.67071266 41.75818123 63.44617628 44.21107046 59.9140625 47.80859375 C59.34429687 48.34613281 58.77453125 48.88367188 58.1875 49.4375 C57.1975 50.4275 57.1975 50.4275 56.1875 51.4375 C56.16441403 53.65878555 56.16441403 53.65878555 56.5625 56.0625 C56.67335938 56.87976563 56.78421875 57.69703125 56.8984375 58.5390625 C57.04152344 59.47878906 57.04152344 59.47878906 57.1875 60.4375 C58.27289063 60.37949219 59.35828125 60.32148438 60.4765625 60.26171875 C61.92183176 60.21479442 63.36714784 60.16929713 64.8125 60.125 C65.52535156 60.08310547 66.23820313 60.04121094 66.97265625 59.99804688 C71.02101196 59.90519468 73.45154313 60.23037454 76.6484375 62.83203125 C81.31032592 67.61584599 80.47588642 72.2195323 80.5625 78.625 C80.61857422 80.16897461 80.61857422 80.16897461 80.67578125 81.74414062 C80.74266837 87.54474009 80.45962012 91.65585242 76.59301758 96.16381836 C72.72540166 99.66865634 68.39965356 99.75797554 63.375 100.0625 C61.63283203 100.17464844 61.63283203 100.17464844 59.85546875 100.2890625 C58.97503906 100.33804688 58.09460938 100.38703125 57.1875 100.4375 C55.97668149 103.54290926 55.97668149 103.54290926 56.1875 107.4375 C58.03324065 109.82837801 60.04671751 111.73600473 62.3046875 113.73828125 C65.00963804 116.17947106 65.44073519 118.02142497 65.6875 121.5625 C65.62268438 126.62622013 63.73465401 128.93083364 60.265625 132.44921875 C59.57984375 133.10535156 58.8940625 133.76148438 58.1875 134.4375 C57.48109375 135.16582031 56.7746875 135.89414062 56.046875 136.64453125 C48.6380536 144.25915325 48.6380536 144.25915325 44.8046875 144.73046875 C40.25270866 144.55539264 37.26481958 144.35679005 33.7109375 141.32421875 C31.4375 138.8125 31.4375 138.8125 29.453125 136.2734375 C27.18415373 134.01246722 27.18415373 134.01246722 23.421875 134.6640625 C22.35453125 134.91929687 21.2871875 135.17453125 20.1875 135.4375 C20.23390625 136.45070313 20.2803125 137.46390625 20.328125 138.5078125 C20.36566758 139.85934532 20.40206506 141.21091028 20.4375 142.5625 C20.47101563 143.22765625 20.50453125 143.8928125 20.5390625 144.578125 C20.64009664 149.73086605 19.56693527 152.57688687 16.1875 156.4375 C11.0163146 160.1211908 5.80091697 159.92189511 -0.3125 159.875 C-1.69888672 159.9049707 -1.69888672 159.9049707 -3.11328125 159.93554688 C-8.7943016 159.9314832 -12.46120524 159.46520163 -16.8125 155.4375 C-19.09086991 151.52696451 -19.18723241 147.58810528 -19.4375 143.125 C-19.51226562 141.87074219 -19.58703125 140.61648438 -19.6640625 139.32421875 C-19.71304688 138.37160156 -19.76203125 137.41898438 -19.8125 136.4375 C-22.1225 135.7775 -24.4325 135.1175 -26.8125 134.4375 C-27.42738281 135.06398438 -28.04226563 135.69046875 -28.67578125 136.3359375 C-29.48402344 137.15320313 -30.29226563 137.97046875 -31.125 138.8125 C-31.92550781 139.62460937 -32.72601563 140.43671875 -33.55078125 141.2734375 C-36.35224548 143.95394041 -38.14629181 145.31993385 -42 146 C-47.5279967 145.18439393 -49.97081016 142.31336858 -53.8125 138.4375 C-55.14667969 137.14005859 -55.14667969 137.14005859 -56.5078125 135.81640625 C-64.94878965 127.53174349 -64.94878965 127.53174349 -65.3125 122.3125 C-65.29571266 117.11681877 -63.07117628 114.66392954 -59.5390625 111.06640625 C-58.96929687 110.52886719 -58.39953125 109.99132812 -57.8125 109.4375 C-55.62918311 107.67613645 -55.62918311 107.67613645 -55.6171875 105.4921875 C-55.64039063 104.77289063 -55.66359375 104.05359375 -55.6875 103.3125 C-55.72875 102.03375 -55.77 100.755 -55.8125 99.4375 C-56.82570312 99.48390625 -57.83890625 99.5303125 -58.8828125 99.578125 C-60.23434532 99.61566758 -61.58591028 99.65206506 -62.9375 99.6875 C-63.60265625 99.72101563 -64.2678125 99.75453125 -64.953125 99.7890625 C-70.08954832 99.88977668 -72.9196553 98.74121983 -76.8125 95.4375 C-79.98895069 90.48090775 -79.18105654 84.67991074 -79.1875 79 C-79.21199219 77.86755859 -79.23648438 76.73511719 -79.26171875 75.56835938 C-79.29112961 67.24998853 -79.29112961 67.24998853 -76.9140625 63.21484375 C-73.0882516 59.97926018 -69.51095138 60.12908509 -64.6875 59.875 C-63.55634766 59.81022461 -63.55634766 59.81022461 -62.40234375 59.74414062 C-60.53928112 59.6380168 -58.67591476 59.53724999 -56.8125 59.4375 C-55.66504291 55.45328866 -55.66504291 55.45328866 -55.8125 51.4375 C-57.64299978 48.99399564 -59.63410197 47.10920002 -61.9296875 45.1015625 C-64.65432618 42.69347935 -65.0665243 40.84225134 -65.3125 37.3125 C-65.21489558 31.19270289 -61.99422869 28.5218049 -57.8125 24.4375 C-57.05195313 23.53902344 -56.29140625 22.64054687 -55.5078125 21.71484375 C-49.3842512 14.75980847 -49.3842512 14.75980847 -44.7265625 13.8046875 C-42.01401836 13.81166062 -39.48368716 13.98045277 -36.8125 14.4375 C-36.8125 15.0975 -36.8125 15.7575 -36.8125 16.4375 C-36.27625 16.64375 -35.74 16.85 -35.1875 17.0625 C-31.8107346 19.01746944 -29.50775161 21.61973695 -26.8125 24.4375 C-24.5025 23.7775 -22.1925 23.1175 -19.8125 22.4375 C-19.77511719 21.41269531 -19.73773438 20.38789063 -19.69921875 19.33203125 C-19.63352921 17.97131938 -19.56708291 16.61064389 -19.5 15.25 C-19.47744141 14.57646484 -19.45488281 13.90292969 -19.43164062 13.20898438 C-19.196583 8.82836496 -18.49791188 5.92662185 -15.8125 2.4375 C-10.97439004 -0.78790664 -5.68859634 0.02777936 0 0 Z " fill="#4C4190" transform="translate(302.8125,280.5625)"/><path d="M0 0 C1.7644043 -0.04930664 1.7644043 -0.04930664 3.56445312 -0.09960938 C13.25716549 -0.15988062 13.25716549 -0.15988062 16.94921875 2.83984375 C20.58483078 7.05918406 20.31017473 10.20232032 20.25 15.5625 C20.24548828 16.31660156 20.24097656 17.07070313 20.23632812 17.84765625 C20.22453499 19.71097127 20.20659942 21.57424555 20.1875 23.4375 C23.45237364 24.37385411 23.45237364 24.37385411 27.1875 24.4375 C29.83386883 22.38357692 29.83386883 22.38357692 32 19.5 C37.47602034 13.63461058 37.47602034 13.63461058 42.1875 13.25 C48.81887843 13.95790225 52.81191167 18.82776647 57.1875 23.4375 C58.5405313 24.75117039 59.89455789 26.06381722 61.25 27.375 C64.23124773 30.34221833 65.39216603 32.3244576 65.6875 36.5625 C65.67071266 41.75818123 63.44617628 44.21107046 59.9140625 47.80859375 C59.34429687 48.34613281 58.77453125 48.88367188 58.1875 49.4375 C57.1975 50.4275 57.1975 50.4275 56.1875 51.4375 C56.16441403 53.65878555 56.16441403 53.65878555 56.5625 56.0625 C56.67335938 56.87976563 56.78421875 57.69703125 56.8984375 58.5390625 C57.04152344 59.47878906 57.04152344 59.47878906 57.1875 60.4375 C58.27289063 60.37949219 59.35828125 60.32148438 60.4765625 60.26171875 C61.92183176 60.21479442 63.36714784 60.16929713 64.8125 60.125 C65.52535156 60.08310547 66.23820313 60.04121094 66.97265625 59.99804688 C71.02101196 59.90519468 73.45154313 60.23037454 76.6484375 62.83203125 C81.31032592 67.61584599 80.47588642 72.2195323 80.5625 78.625 C80.61857422 80.16897461 80.61857422 80.16897461 80.67578125 81.74414062 C80.74266837 87.54474009 80.45962012 91.65585242 76.59301758 96.16381836 C72.72540166 99.66865634 68.39965356 99.75797554 63.375 100.0625 C61.63283203 100.17464844 61.63283203 100.17464844 59.85546875 100.2890625 C58.97503906 100.33804688 58.09460938 100.38703125 57.1875 100.4375 C55.97668149 103.54290926 55.97668149 103.54290926 56.1875 107.4375 C58.03324065 109.82837801 60.04671751 111.73600473 62.3046875 113.73828125 C65.00963804 116.17947106 65.44073519 118.02142497 65.6875 121.5625 C65.62268438 126.62622013 63.73465401 128.93083364 60.265625 132.44921875 C59.57984375 133.10535156 58.8940625 133.76148438 58.1875 134.4375 C57.48109375 135.16582031 56.7746875 135.89414062 56.046875 136.64453125 C48.6380536 144.25915325 48.6380536 144.25915325 44.8046875 144.73046875 C40.25270866 144.55539264 37.26481958 144.35679005 33.7109375 141.32421875 C31.4375 138.8125 31.4375 138.8125 29.453125 136.2734375 C27.18415373 134.01246722 27.18415373 134.01246722 23.421875 134.6640625 C22.35453125 134.91929687 21.2871875 135.17453125 20.1875 135.4375 C20.23390625 136.45070313 20.2803125 137.46390625 20.328125 138.5078125 C20.36566758 139.85934532 20.40206506 141.21091028 20.4375 142.5625 C20.47101563 143.22765625 20.50453125 143.8928125 20.5390625 144.578125 C20.64009664 149.73086605 19.56693527 152.57688687 16.1875 156.4375 C11.0163146 160.1211908 5.80091697 159.92189511 -0.3125 159.875 C-1.69888672 159.9049707 -1.69888672 159.9049707 -3.11328125 159.93554688 C-8.7943016 159.9314832 -12.46120524 159.46520163 -16.8125 155.4375 C-19.09086991 151.52696451 -19.18723241 147.58810528 -19.4375 143.125 C-19.51226562 141.87074219 -19.58703125 140.61648438 -19.6640625 139.32421875 C-19.71304688 138.37160156 -19.76203125 137.41898438 -19.8125 136.4375 C-22.1225 135.7775 -24.4325 135.1175 -26.8125 134.4375 C-27.42738281 135.06398438 -28.04226563 135.69046875 -28.67578125 136.3359375 C-29.48402344 137.15320313 -30.29226563 137.97046875 -31.125 138.8125 C-31.92550781 139.62460937 -32.72601563 140.43671875 -33.55078125 141.2734375 C-36.35224548 143.95394041 -38.14629181 145.31993385 -42 146 C-47.5279967 145.18439393 -49.97081016 142.31336858 -53.8125 138.4375 C-55.14667969 137.14005859 -55.14667969 137.14005859 -56.5078125 135.81640625 C-64.94878965 127.53174349 -64.94878965 127.53174349 -65.3125 122.3125 C-65.29571266 117.11681877 -63.07117628 114.66392954 -59.5390625 111.06640625 C-58.96929687 110.52886719 -58.39953125 109.99132812 -57.8125 109.4375 C-55.62918311 107.67613645 -55.62918311 107.67613645 -55.6171875 105.4921875 C-55.64039063 104.77289063 -55.66359375 104.05359375 -55.6875 103.3125 C-55.72875 102.03375 -55.77 100.755 -55.8125 99.4375 C-56.82570312 99.48390625 -57.83890625 99.5303125 -58.8828125 99.578125 C-60.23434532 99.61566758 -61.58591028 99.65206506 -62.9375 99.6875 C-63.60265625 99.72101563 -64.2678125 99.75453125 -64.953125 99.7890625 C-70.08954832 99.88977668 -72.9196553 98.74121983 -76.8125 95.4375 C-79.98895069 90.48090775 -79.18105654 84.67991074 -79.1875 79 C-79.21199219 77.86755859 -79.23648438 76.73511719 -79.26171875 75.56835938 C-79.29112961 67.24998853 -79.29112961 67.24998853 -76.9140625 63.21484375 C-73.0882516 59.97926018 -69.51095138 60.12908509 -64.6875 59.875 C-63.55634766 59.81022461 -63.55634766 59.81022461 -62.40234375 59.74414062 C-60.53928112 59.6380168 -58.67591476 59.53724999 -56.8125 59.4375 C-55.66504291 55.45328866 -55.66504291 55.45328866 -55.8125 51.4375 C-57.64299978 48.99399564 -59.63410197 47.10920002 -61.9296875 45.1015625 C-64.65432618 42.69347935 -65.0665243 40.84225134 -65.3125 37.3125 C-65.21489558 31.19270289 -61.99422869 28.5218049 -57.8125 24.4375 C-57.05195313 23.53902344 -56.29140625 22.64054687 -55.5078125 21.71484375 C-49.3842512 14.75980847 -49.3842512 14.75980847 -44.7265625 13.8046875 C-42.01401836 13.81166062 -39.48368716 13.98045277 -36.8125 14.4375 C-36.8125 15.0975 -36.8125 15.7575 -36.8125 16.4375 C-36.27625 16.64375 -35.74 16.85 -35.1875 17.0625 C-31.8107346 19.01746944 -29.50775161 21.61973695 -26.8125 24.4375 C-24.5025 23.7775 -22.1925 23.1175 -19.8125 22.4375 C-19.77511719 21.41269531 -19.73773438 20.38789063 -19.69921875 19.33203125 C-19.63352921 17.97131938 -19.56708291 16.61064389 -19.5 15.25 C-19.47744141 14.57646484 -19.45488281 13.90292969 -19.43164062 13.20898438 C-19.196583 8.82836496 -18.49791188 5.92662185 -15.8125 2.4375 C-10.97439004 -0.78790664 -5.68859634 0.02777936 0 0 Z M-6.8125 12.4375 C-6.82667969 13.46230469 -6.84085938 14.48710937 -6.85546875 15.54296875 C-6.90239016 16.90368971 -6.95063744 18.26436541 -7 19.625 C-7.00580078 20.29853516 -7.01160156 20.97207031 -7.01757812 21.66601562 C-7.18360447 25.44772692 -7.6941493 27.28765772 -10.05859375 30.28125 C-15.05664556 34.19461823 -20.33433635 36.15312056 -26.625 36.875 C-33.07479172 35.98973447 -36.49824474 31.9524183 -40.8125 27.4375 C-44.02774305 28.84594718 -46.13433868 30.54094786 -48.5625 33.0625 C-49.48289063 34.00996094 -49.48289063 34.00996094 -50.421875 34.9765625 C-50.88078125 35.45867187 -51.3396875 35.94078125 -51.8125 36.4375 C-50.41616893 39.62309952 -48.76692507 41.67693845 -46.25 44.0625 C-41.97562684 48.13248525 -41.97562684 48.13248525 -41.5 51.9375 C-42.06543153 58.27033308 -44.57619291 64.63564058 -48.8125 69.4375 C-52.37494661 70.6249822 -55.78568643 70.78817208 -59.5 71 C-61.913125 71.144375 -64.32625 71.28875 -66.8125 71.4375 C-66.8125 76.7175 -66.8125 81.9975 -66.8125 87.4375 C-62.10178527 87.64672274 -62.10178527 87.64672274 -57.38989258 87.82543945 C-53.06832889 88.06529937 -50.16114755 88.66188305 -46.8125 91.4375 C-43.85139776 96.32975587 -41.94304457 101.47933146 -41.5625 107.1875 C-43.670622 112.66861719 -47.72187216 116.34687216 -51.8125 120.4375 C-52.14328426 123.46800191 -52.14328426 123.46800191 -50.203125 125.26171875 C-49.49671875 125.87660156 -48.7903125 126.49148438 -48.0625 127.125 C-47.36640625 127.74761719 -46.6703125 128.37023437 -45.953125 129.01171875 C-43.68630892 130.80706644 -43.68630892 130.80706644 -39.8125 130.4375 C-37.88764362 128.95889832 -37.88764362 128.95889832 -36.1875 127 C-33.19325856 123.76386569 -31.96243444 122.56527049 -27.4375 122.0625 C-21.52082589 122.13849398 -15.83949966 124.4213002 -10.8125 127.4375 C-6.32754654 132.92770164 -7.12955589 139.65250389 -6.8125 146.4375 C-2.1925 146.4375 2.4275 146.4375 7.1875 146.4375 C7.20167969 145.41269531 7.21585937 144.38789063 7.23046875 143.33203125 C7.27739016 141.97131029 7.32563744 140.61063459 7.375 139.25 C7.38370117 138.23969727 7.38370117 138.23969727 7.39257812 137.20898438 C7.55784052 133.44467434 8.07068 131.5867586 10.41015625 128.59765625 C15.70841666 124.47678704 22.09217272 122.02292533 28.875 122.1875 C34.45412571 123.10392679 37.71119417 127.27919412 41.1875 131.4375 C44.53664511 130.23729442 47.01462281 129.05864364 49.5625 126.5625 C50.08585937 126.07007813 50.60921875 125.57765625 51.1484375 125.0703125 C52.38070881 123.48756389 52.38070881 123.48756389 52.06640625 121.5078125 C50.98706495 118.96536411 49.585701 117.24837014 47.75 115.1875 C46.82380859 114.12789062 46.82380859 114.12789062 45.87890625 113.046875 C44.33513552 111.20772637 44.33513552 111.20772637 42.1875 111.4375 C41.36699186 103.23241863 43.6825744 97.31887718 48.1875 90.4375 C51.55712443 86.89173611 55.28972353 86.90375442 59.9375 86.75 C60.63488281 86.71583984 61.33226562 86.68167969 62.05078125 86.64648438 C63.76247108 86.56441705 65.4749576 86.49927081 67.1875 86.4375 C67.1875 81.8175 67.1875 77.1975 67.1875 72.4375 C63.671875 72.20963542 60.15625 71.98177083 56.640625 71.75390625 C51.42780304 71.2762608 51.42780304 71.2762608 49.1875 70.4375 C48.0625 68.1875 48.0625 68.1875 47.1875 65.4375 C46.81625 64.509375 46.445 63.58125 46.0625 62.625 C45.77375 61.903125 45.485 61.18125 45.1875 60.4375 C44.5275 60.4375 43.8675 60.4375 43.1875 60.4375 C41.16816616 51.20625957 41.16816616 51.20625957 43.57421875 47.03125 C45.35606584 45.02900673 47.18703741 43.21942466 49.1875 41.4375 C50.88485448 39.91308224 50.88485448 39.91308224 52.1875 38.4375 C52.40302355 36.44641317 52.40302355 36.44641317 51.1875 34.4375 C49.22822937 32.7231382 47.22869788 31.05344832 45.1875 29.4375 C44.6925 28.4475 44.6925 28.4475 44.1875 27.4375 C40.59392281 28.00740652 39.01500729 29.30132477 36.5625 31.9375 C33.35762613 35.35230011 32.14691537 36.32917891 27.3125 36.875 C21.69367681 36.8658637 17.5199307 34.41401349 12.69140625 31.75 C10.36344265 30.28274496 10.36344265 30.28274496 8.1875 30.4375 C7.6925 21.5275 7.6925 21.5275 7.1875 12.4375 C2.5675 12.4375 -2.0525 12.4375 -6.8125 12.4375 Z " fill="#F8F8FB" transform="translate(302.8125,280.5625)"/><path d="M0 0 C1.28642143 0.00068733 1.28642143 0.00068733 2.59883118 0.00138855 C4.40680327 0.00440412 6.21477292 0.0122696 8.02270508 0.0246582 C10.80103672 0.04297043 13.57903605 0.04516742 16.35742188 0.04492188 C18.11328415 0.04983516 19.86914416 0.05566264 21.625 0.0625 C22.87805183 0.06416924 22.87805183 0.06416924 24.15641785 0.06587219 C29.99721597 0.11440347 29.99721597 0.11440347 31.11328125 1.23046875 C31.11328125 5.52046875 31.11328125 9.81046875 31.11328125 14.23046875 C20.55328125 14.23046875 9.99328125 14.23046875 -0.88671875 14.23046875 C-0.85191406 18.6596875 -0.81710938 23.08890625 -0.78125 27.65234375 C-0.76195478 31.18576808 -0.74568723 34.71917751 -0.7314682 38.25262451 C-0.71563131 41.98167506 -0.69447092 45.7105208 -0.66040039 49.43945312 C-0.6277858 53.03154783 -0.60986141 56.623444 -0.60208702 60.21567535 C-0.59654723 61.58561579 -0.58572923 62.95554546 -0.56952858 64.32540131 C-0.5477292 66.24514658 -0.54649313 68.16509193 -0.54614258 70.08496094 C-0.53614983 71.72377228 -0.53614983 71.72377228 -0.5259552 73.39569092 C-0.93435148 76.60475323 -1.57944075 77.9847115 -3.88671875 80.23046875 C-6.53377003 80.58716768 -8.75907551 80.69823672 -11.3984375 80.62109375 C-12.12666214 80.61543396 -12.85488678 80.60977417 -13.60517883 80.60394287 C-15.92886373 80.58156904 -18.25100082 80.53137544 -20.57421875 80.48046875 C-22.15036834 80.46040484 -23.72654212 80.44215387 -25.30273438 80.42578125 C-29.16465799 80.38170158 -33.02542605 80.312671 -36.88671875 80.23046875 C-37.16902344 81.45378906 -37.45132813 82.67710937 -37.7421875 83.9375 C-40.48875406 94.88759546 -47.58597162 102.20927611 -56.88671875 108.23046875 C-66.08022716 113.10981031 -77.08303036 113.22565502 -86.88671875 110.23046875 C-98.08003882 105.6980163 -104.85544193 98.27258028 -109.9765625 87.4921875 C-113.6635555 78.33008903 -112.91877489 67.6915257 -109.14453125 58.69140625 C-103.96718895 48.56182348 -95.73480064 40.85298802 -84.88671875 37.23046875 C-73.81201259 34.56896678 -62.91880635 35.95487901 -53.15625 41.890625 C-44.4592395 48.29825604 -39.82883289 55.93306926 -36.88671875 66.23046875 C-25.99671875 66.72546875 -25.99671875 66.72546875 -14.88671875 67.23046875 C-14.89719238 65.40354492 -14.90766602 63.57662109 -14.91845703 61.69433594 C-14.95071879 55.65539808 -14.97369358 49.61648064 -14.99034309 43.57748032 C-15.00077638 39.91635063 -15.01492719 36.25531426 -15.03759766 32.59423828 C-15.05934239 29.06050958 -15.0712908 25.52687059 -15.07647324 21.99308014 C-15.08196219 19.99004658 -15.09757256 17.98704906 -15.11331177 15.98406982 C-15.11346283 14.76310608 -15.11361389 13.54214233 -15.11376953 12.28417969 C-15.11821075 11.20940369 -15.12265198 10.13462769 -15.12722778 9.02728271 C-14.88505459 6.21111671 -14.39519388 4.59478346 -12.88671875 2.23046875 C-9.19542342 -0.6753713 -4.4668404 -0.03870341 0 0 Z " fill="#334190" transform="translate(165.88671875,387.76953125)"/><path d="M0 0 C1.14538239 -0.00855011 1.14538239 -0.00855011 2.31390381 -0.01727295 C3.93467823 -0.02673908 5.55547203 -0.03326331 7.17626953 -0.03710938 C9.64780767 -0.04678082 12.11850223 -0.07777343 14.58984375 -0.109375 C16.16405756 -0.11590834 17.73827732 -0.12115751 19.3125 -0.125 C20.04913879 -0.1373468 20.78577759 -0.1496936 21.54473877 -0.16241455 C26.01515113 -0.14316947 28.87303625 0.43317627 32.421875 3.203125 C33.78426576 5.92790652 33.54157458 8.07153355 33.53540039 11.12158203 C33.53532486 12.36271759 33.53524933 13.60385315 33.53517151 14.88259888 C33.5300645 16.24204549 33.5248485 17.60149169 33.51953125 18.9609375 C33.51766642 20.34813384 33.51624282 21.73533084 33.51524353 23.12252808 C33.51142348 26.77547012 33.50159755 30.42837248 33.49053955 34.08129883 C33.48031444 37.80810001 33.47574355 41.53490759 33.47070312 45.26171875 C33.45997483 52.57554103 33.44238217 59.8893224 33.421875 67.203125 C40.681875 66.873125 47.941875 66.543125 55.421875 66.203125 C55.958125 64.553125 56.494375 62.903125 57.046875 61.203125 C60.63936492 51.41798637 66.50673733 44.76892087 75.79296875 39.98046875 C85.38710227 35.58512679 95.17957259 34.39716663 105.359375 37.953125 C116.03966443 42.39810095 123.60048285 49.45114442 128.51171875 59.90625 C131.97978803 68.65828749 131.79846287 79.80888905 128.484375 88.578125 C123.23038002 99.45611462 115.36183758 105.82441752 104.484375 110.453125 C93.30626493 113.19062134 82.96207392 112.30325357 72.76953125 106.73046875 C63.65525543 100.80088165 57.90218882 91.76737239 55.421875 81.203125 C53.94593872 81.19696167 53.94593872 81.19696167 52.44018555 81.19067383 C48.78877405 81.16889838 45.13844267 81.1146278 41.48754883 81.05053711 C39.90757603 81.02734276 38.3274483 81.01295796 36.74731445 81.00756836 C34.47509061 80.99828815 32.20530785 80.95732753 29.93359375 80.91015625 C29.22724289 80.9140889 28.52089203 80.91802155 27.7931366 80.92207336 C25.79174805 80.86254883 25.79174805 80.86254883 22.421875 80.203125 C19.51763039 76.49700752 19.05249594 73.67315326 19.08129883 69.03588867 C19.08152542 67.81500046 19.08175201 66.59411224 19.08198547 65.33622742 C19.09746933 64.02773331 19.11295319 62.7192392 19.12890625 61.37109375 C19.13450616 60.01060963 19.1387744 58.65011943 19.14176941 57.28962708 C19.15318724 53.72041933 19.18262735 50.15158171 19.21588135 46.58251953 C19.24664874 42.93592332 19.26028894 39.28926691 19.27539062 35.64257812 C19.30750051 28.49594295 19.35865929 21.34955823 19.421875 14.203125 C18.60920166 14.20836182 17.79652832 14.21359863 16.95922852 14.21899414 C13.30095178 14.23969494 9.64268733 14.25276303 5.984375 14.265625 C4.70498047 14.27400391 3.42558594 14.28238281 2.10742188 14.29101562 C0.28500977 14.29584961 0.28500977 14.29584961 -1.57421875 14.30078125 C-2.70013428 14.30601807 -3.8260498 14.31125488 -4.98608398 14.31665039 C-7.578125 14.203125 -7.578125 14.203125 -8.578125 13.203125 C-8.67686316 11.20512928 -8.70784299 9.20355342 -8.703125 7.203125 C-8.70570313 6.11 -8.70828125 5.016875 -8.7109375 3.890625 C-8.44597292 -1.47101116 -4.34771637 0.0248105 0 0 Z " fill="#384692" transform="translate(417.578125,387.796875)"/><path d="M0 0 C5.84145494 5.35257781 9.42814375 11.84843156 11.2578125 19.54296875 C12.09497299 19.55327621 12.93213348 19.56358368 13.79466248 19.57420349 C21.66755986 19.67200657 29.54037908 19.774496 37.41314602 19.88230801 C41.46103067 19.93757404 45.5089225 19.99099977 49.55688477 20.0402832 C53.46023612 20.08787268 57.36349699 20.14021325 61.2667408 20.1959095 C62.75912295 20.21635769 64.25152993 20.23506662 65.74395561 20.25204277 C67.82736099 20.27603255 69.9105939 20.30609394 71.99389648 20.33764648 C73.18192368 20.35319077 74.36995087 20.36873505 75.59397888 20.38475037 C78.2578125 20.54296875 78.2578125 20.54296875 79.2578125 21.54296875 C79.35655066 23.54096447 79.38753049 25.54254033 79.3828125 27.54296875 C79.38539063 28.63609375 79.38796875 29.72921875 79.390625 30.85546875 C79.2578125 33.54296875 79.2578125 33.54296875 78.2578125 34.54296875 C76.1723943 34.66683215 74.08281109 34.72095942 71.99389648 34.74829102 C71.34026123 34.75819061 70.68662598 34.76809021 70.01318359 34.77828979 C67.84346186 34.80998509 65.6737182 34.83469367 63.50390625 34.859375 C62.00317298 34.87993762 60.5024456 34.9009339 59.00172424 34.92234802 C55.04469557 34.9776403 51.08761401 35.02701786 47.13049316 35.07519531 C43.0954109 35.12535825 39.06040578 35.18107143 35.02539062 35.23632812 C27.10292973 35.34399715 19.18040446 35.44542254 11.2578125 35.54296875 C11.00459229 36.28192383 10.75137207 37.02087891 10.49047852 37.78222656 C9.97505493 39.24934082 9.97505493 39.24934082 9.44921875 40.74609375 C9.11349854 41.71192383 8.77777832 42.67775391 8.43188477 43.67285156 C4.71974199 52.74749297 -2.18854306 58.15055674 -10.7421875 62.54296875 C-20.94178877 66.41406094 -31.40875909 66.45805733 -41.5625 62.421875 C-51.10458538 57.73057118 -58.13756617 50.45826857 -62.0859375 40.55078125 C-65.13265754 31.22926874 -64.86305523 21.13289 -61.06640625 12.07421875 C-55.2237829 0.90601836 -46.5797601 -5.59826395 -34.7421875 -9.45703125 C-22.42029654 -12.86521386 -9.4560278 -7.90829231 0 0 Z " fill="#544391" transform="translate(117.7421875,312.45703125)"/><path d="M0 0 C7.37788362 6.58113593 12.39387673 14.5144993 13.2578125 24.59375 C13.78299017 36.22327322 10.87000086 45.3655934 3.3515625 54.35546875 C-4.68770163 63.12899822 -14.48287847 66.08408225 -26.19140625 66.61328125 C-37.44299918 66.02496267 -46.52338016 61.26950878 -54.2109375 53.16015625 C-58.07714707 48.18822599 -60.21578717 42.54013849 -62.19140625 36.61328125 C-62.97845444 36.60297379 -63.76550262 36.59266632 -64.57640076 36.58204651 C-71.97838732 36.48423937 -79.38028693 36.38174939 -86.78213406 36.27394199 C-90.5878803 36.21867831 -94.39363417 36.16525296 -98.19946289 36.1159668 C-101.8693996 36.06837384 -105.53924016 36.01603316 -109.20906258 35.9603405 C-110.61212852 35.93989388 -112.01522085 35.92118468 -113.41833305 35.90420723 C-115.37717551 35.88021438 -117.33593326 35.84957926 -119.29467773 35.81860352 C-120.41164536 35.80305923 -121.52861298 35.78751495 -122.6794281 35.77149963 C-125.19140625 35.61328125 -125.19140625 35.61328125 -126.19140625 34.61328125 C-126.29014441 32.61528553 -126.32112424 30.61370967 -126.31640625 28.61328125 C-126.31898438 27.52015625 -126.3215625 26.42703125 -126.32421875 25.30078125 C-126.19140625 22.61328125 -126.19140625 22.61328125 -125.19140625 21.61328125 C-123.19708895 21.51922983 -121.19941082 21.49584876 -119.20288086 21.49975586 C-117.92162827 21.49983139 -116.64037567 21.49990692 -115.32029724 21.49998474 C-113.91144777 21.50509216 -112.50259869 21.51030816 -111.09375 21.515625 C-109.66028391 21.51748923 -108.22681718 21.51891311 -106.79335022 21.51991272 C-103.01380668 21.52373753 -99.23430135 21.53356748 -95.45477295 21.5446167 C-91.60071327 21.55483162 -87.74664743 21.55941051 -83.89257812 21.56445312 C-76.32550338 21.57518979 -68.75846016 21.59226576 -61.19140625 21.61328125 C-61.04590332 20.50791016 -60.90040039 19.40253906 -60.75048828 18.26367188 C-59.51416714 10.19141264 -54.52494599 3.59900557 -48.19140625 -1.38671875 C-32.61935319 -11.76808746 -14.84831231 -12.0399796 0 0 Z " fill="#4F3E8F" transform="translate(535.19140625,311.38671875)"/><path d="M0 0 C0.69802734 0.00064453 1.39605469 0.00128906 2.11523438 0.00195312 C5.48127323 0.03077743 8.59474341 0.14817294 11.8125 1.1875 C11.8125 1.8475 11.8125 2.5075 11.8125 3.1875 C12.4725 3.22875 13.1325 3.27 13.8125 3.3125 C22.05260557 5.71586412 28.82775458 13.21292431 33.13671875 20.39453125 C37.34216388 29.29236778 37.25535482 39.78623165 34.25 49.0625 C30.09856488 58.79739838 24.14459921 64.42769669 14.8125 69.1875 C13.91789062 69.73019531 13.02328125 70.27289063 12.1015625 70.83203125 C7.7169444 72.63899382 3.9404781 72.59068983 -0.75 72.5 C-2.00586914 72.50483398 -2.00586914 72.50483398 -3.28710938 72.50976562 C-7.68630925 72.47145114 -11.18912045 72.23983797 -15.1875 70.1875 C-15.1875 69.5275 -15.1875 68.8675 -15.1875 68.1875 C-15.93257813 68.08050781 -16.67765625 67.97351563 -17.4453125 67.86328125 C-23.22639 66.43859976 -26.93958396 62.00069087 -30.22265625 57.23046875 C-36.01558557 47.58351664 -37.15188327 39.33887441 -36.1875 28.1875 C-33.30853895 17.05896 -26.98030171 9.68343846 -17.59375 3.4140625 C-11.81038086 0.46604641 -6.34708293 -0.11323434 0 0 Z " fill="#F8F7FA" transform="translate(303.1875,323.8125)"/><path d="M0 0 C5.36990864 3.87715418 9.24402619 7.41509821 11 14 C12.0941787 22.06956793 10.66309804 28.30487183 6 35 C0.94606306 40.69018078 -5.13630233 44.04422576 -12.8125 44.5 C-18.61779995 44.31387588 -23.22708519 42.22565121 -28 39 C-30.5 36.25 -30.5 36.25 -32 34 C-32.66 33.67 -33.32 33.34 -34 33 C-34.40729228 30.67843403 -34.74438677 28.3431213 -35 26 C-35.66 26 -36.32 26 -37 26 C-37.44935144 18.51080932 -37.73141374 12.14555137 -33 6 C-24.32619932 -3.319722 -11.55844513 -6.89061152 0 0 Z " fill="#4A3E8F" transform="translate(316,340)"/><path d="M0 0 C29.37 0 58.74 0 89 0 C89 11.57894737 89 11.57894737 85 16 C80.56887806 19.47793979 77.69231271 20.50262428 72.08007812 20.51757812 C71.41584335 20.5245874 70.75160858 20.53159668 70.06724548 20.53881836 C67.88814543 20.55631473 65.71036149 20.54480717 63.53125 20.53125 C62.00719963 20.53394736 60.48315095 20.53783182 58.95910645 20.54284668 C55.77156115 20.54873034 52.58446551 20.54021592 49.39697266 20.52148438 C45.32140559 20.49869481 41.24689228 20.51182408 37.17136383 20.53577423 C34.02622612 20.55026327 30.88133617 20.54561215 27.7361908 20.53526306 C26.23396173 20.53260432 24.7317098 20.53583544 23.22950745 20.54518127 C21.12571058 20.55539909 19.02359429 20.53977694 16.91992188 20.51757812 C15.72556519 20.51439575 14.5312085 20.51121338 13.30065918 20.50793457 C8.14136543 19.71397691 5.06579224 17.17798089 1.625 13.375 C0 10 0 10 0 0 Z " fill="#774392" transform="translate(259,195)"/><path d="M0 0 C1.50692665 -0.02398109 1.50692665 -0.02398109 3.04429626 -0.04844666 C4.12352859 -0.05380936 5.20276093 -0.05917206 6.31469727 -0.06469727 C7.98641747 -0.07823997 7.98641747 -0.07823997 9.69190979 -0.09205627 C12.04799716 -0.10655822 14.4041248 -0.11544537 16.76025391 -0.11914062 C20.36437694 -0.13104825 23.96679432 -0.18024692 27.57055664 -0.23071289 C29.86026183 -0.24017585 32.14997753 -0.24741149 34.43969727 -0.25219727 C36.05550941 -0.28149574 36.05550941 -0.28149574 37.70396423 -0.31138611 C45.19196198 -0.26622698 45.19196198 -0.26622698 49.07519531 2.69213867 C50.79092603 5.09277169 52.16741384 7.28169361 53.31860352 9.99389648 C53.82520508 11.14438477 53.82520508 11.14438477 54.34204102 12.31811523 C54.94360352 14.30639648 54.94360352 14.30639648 53.94360352 16.30639648 C31.50360352 16.30639648 9.06360352 16.30639648 -14.05639648 16.30639648 C-12.8799259 6.89463178 -12.8799259 6.89463178 -9.05639648 2.30639648 C-5.99073019 0.3786039 -3.59067149 0.04331297 0 0 Z " fill="#2E4893" transform="translate(283.056396484375,491.693603515625)"/><path d="M0 0 C1.28642143 0.00068733 1.28642143 0.00068733 2.59883118 0.00138855 C4.40680327 0.00440412 6.21477292 0.0122696 8.02270508 0.0246582 C10.80103672 0.04297043 13.57903605 0.04516742 16.35742188 0.04492188 C18.11328415 0.04983516 19.86914416 0.05566264 21.625 0.0625 C22.87805183 0.06416924 22.87805183 0.06416924 24.15641785 0.06587219 C29.99721597 0.11440347 29.99721597 0.11440347 31.11328125 1.23046875 C31.11328125 5.52046875 31.11328125 9.81046875 31.11328125 14.23046875 C20.55328125 14.23046875 9.99328125 14.23046875 -0.88671875 14.23046875 C-0.88671875 34.69046875 -0.88671875 55.15046875 -0.88671875 76.23046875 C-1.21671875 76.23046875 -1.54671875 76.23046875 -1.88671875 76.23046875 C-1.88671875 55.44046875 -1.88671875 34.65046875 -1.88671875 13.23046875 C8.67328125 13.23046875 19.23328125 13.23046875 30.11328125 13.23046875 C30.11328125 9.60046875 30.11328125 5.97046875 30.11328125 2.23046875 C24.61356311 2.29926749 19.11461098 2.38719523 13.61547852 2.49291992 C11.74447111 2.52618877 9.87336287 2.5542146 8.00219727 2.5769043 C5.31352742 2.61041463 2.62578327 2.6627274 -0.0625 2.71875 C-1.3188903 2.72833488 -1.3188903 2.72833488 -2.60066223 2.7381134 C-6.82201996 2.75367625 -6.82201996 2.75367625 -10.60473633 4.38049316 C-12.44252216 7.03252556 -12.28653144 9.052 -12.3190918 12.26245117 C-12.33888596 13.5035112 -12.35868011 14.74457123 -12.3790741 16.02323914 C-12.38584384 17.37747038 -12.39229071 18.73170328 -12.3984375 20.0859375 C-12.4152828 21.47172136 -12.43343284 22.85748993 -12.45283508 24.24324036 C-12.50035813 27.88788067 -12.53015219 31.53245898 -12.55627441 35.17730713 C-12.58606858 38.89762621 -12.63260275 42.61773159 -12.67773438 46.33789062 C-12.76379374 53.63532906 -12.82957943 60.93273607 -12.88671875 68.23046875 C-21.13671875 68.23046875 -29.38671875 68.23046875 -37.88671875 68.23046875 C-37.39171875 67.24046875 -37.39171875 67.24046875 -36.88671875 66.23046875 C-29.62671875 66.56046875 -22.36671875 66.89046875 -14.88671875 67.23046875 C-14.89719238 65.40354492 -14.90766602 63.57662109 -14.91845703 61.69433594 C-14.95071879 55.65539808 -14.97369358 49.61648064 -14.99034309 43.57748032 C-15.00077638 39.91635063 -15.01492719 36.25531426 -15.03759766 32.59423828 C-15.05934239 29.06050958 -15.0712908 25.52687059 -15.07647324 21.99308014 C-15.08196219 19.99004658 -15.09757256 17.98704906 -15.11331177 15.98406982 C-15.11346283 14.76310608 -15.11361389 13.54214233 -15.11376953 12.28417969 C-15.11821075 11.20940369 -15.12265198 10.13462769 -15.12722778 9.02728271 C-14.88505459 6.21111671 -14.39519388 4.59478346 -12.88671875 2.23046875 C-9.19542342 -0.6753713 -4.4668404 -0.03870341 0 0 Z " fill="#9D9FC7" transform="translate(165.88671875,387.76953125)"/><path d="M0 0 C1.70209877 0.00333092 1.70209877 0.00333092 3.43858337 0.00672913 C4.71983597 0.00680466 6.00108856 0.00688019 7.32116699 0.00695801 C8.73001646 0.01206542 10.13886554 0.01728143 11.54771423 0.02259827 C12.98118033 0.02446249 14.41464706 0.02588637 15.84811401 0.02688599 C19.62765755 0.03071079 23.40716288 0.04054075 27.18669128 0.05158997 C31.04075097 0.06180489 34.8948168 0.06638378 38.74888611 0.07142639 C46.31596085 0.08216306 53.88300407 0.09923903 61.45005798 0.12025452 C61.45005798 0.78025452 61.45005798 1.44025452 61.45005798 2.12025452 C40.66005798 2.12025452 19.87005798 2.12025452 -1.54994202 2.12025452 C-1.54994202 5.75025452 -1.54994202 9.38025452 -1.54994202 13.12025452 C19.24005798 13.12025452 40.03005798 13.12025452 61.45005798 13.12025452 C61.12005798 13.78025452 60.79005798 14.44025452 60.45005798 15.12025452 C52.25306079 15.01290371 44.05616007 14.90030153 35.85933018 14.78091526 C32.05358394 14.72565158 28.24783006 14.67222623 24.44200134 14.62294006 C20.77206464 14.57534711 17.10222407 14.52300642 13.43240166 14.46731377 C12.02933572 14.44686715 10.62624339 14.42815795 9.22313118 14.4111805 C7.26428872 14.38718765 5.30553098 14.35655252 3.3467865 14.32557678 C2.22981888 14.3100325 1.11285126 14.29448822 -0.03796387 14.2784729 C-2.54994202 14.12025452 -2.54994202 14.12025452 -3.54994202 13.12025452 C-3.64868018 11.1222588 -3.67966001 9.12068293 -3.67494202 7.12025452 C-3.67752014 6.02712952 -3.68009827 4.93400452 -3.68275452 3.80775452 C-3.50274398 0.16518838 -3.50274398 0.16518838 0 0 Z " fill="#AAA1C8" transform="translate(412.54994201660156,332.87974548339844)"/><path d="M0 0 C1.02090729 0.00007553 2.04181458 0.00015106 3.09365845 0.00022888 C4.75151871 0.00797081 4.75151871 0.00797081 6.44287109 0.01586914 C7.57203949 0.01728409 8.70120789 0.01869904 9.86459351 0.02015686 C13.48185848 0.02576796 17.09906223 0.03832237 20.71630859 0.05102539 C23.16422437 0.05603896 25.61214111 0.06060211 28.06005859 0.06469727 C34.07049625 0.07574099 40.08089805 0.09248996 46.09130859 0.11352539 C46.58630859 1.10352539 46.58630859 1.10352539 47.09130859 2.11352539 C46.13410416 2.11566292 46.13410416 2.11566292 45.15756226 2.11784363 C38.50597341 2.13755483 31.85530048 2.19185957 25.20410156 2.26611328 C22.72304865 2.28928706 20.24189746 2.3036875 17.76074219 2.30908203 C14.19062084 2.3183755 10.62204418 2.35937902 7.05224609 2.40649414 C5.39254288 2.40059517 5.39254288 2.40059517 3.6993103 2.39457703 C-2.98448893 2.47344754 -2.98448893 2.47344754 -8.65625 5.65771484 C-9.39955566 6.46813232 -10.14286133 7.2785498 -10.90869141 8.11352539 C-10.90869141 5.11352539 -10.90869141 5.11352539 -9.03369141 2.98852539 C-5.85552383 0.18425988 -4.15099837 -0.01022413 0 0 Z " fill="#7D8CBB" transform="translate(282.90869140625,491.886474609375)"/><path d="M0 0 C4.29161047 -0.05783842 8.58312145 -0.0935412 12.875 -0.125 C14.09832031 -0.14175781 15.32164062 -0.15851563 16.58203125 -0.17578125 C17.74863281 -0.18222656 18.91523438 -0.18867188 20.1171875 -0.1953125 C21.19597168 -0.20578613 22.27475586 -0.21625977 23.38623047 -0.22705078 C26 0 26 0 28 2 C19.42 2.33 10.84 2.66 2 3 C1.67 4.65 1.34 6.3 1 8 C0.67 8 0.34 8 0 8 C0 5.36 0 2.72 0 0 Z " fill="#9D76AF" transform="translate(360,195)"/><path d="M0 0 C0.94746094 0.24363281 0.94746094 0.24363281 1.9140625 0.4921875 C1.9140625 0.8221875 1.9140625 1.1521875 1.9140625 1.4921875 C-1.3859375 1.4921875 -4.6859375 1.4921875 -8.0859375 1.4921875 C-8.7459375 2.8121875 -9.4059375 4.1321875 -10.0859375 5.4921875 C-11.47460938 7.13964844 -11.47460938 7.13964844 -13.0546875 8.7265625 C-13.91126953 9.58701172 -13.91126953 9.58701172 -14.78515625 10.46484375 C-15.67654297 11.34462891 -15.67654297 11.34462891 -16.5859375 12.2421875 C-17.47732422 13.14517578 -17.47732422 13.14517578 -18.38671875 14.06640625 C-18.95777344 14.63488281 -19.52882812 15.20335937 -20.1171875 15.7890625 C-20.63861328 16.30823242 -21.16003906 16.82740234 -21.69726562 17.36230469 C-23.0859375 18.4921875 -23.0859375 18.4921875 -25.0859375 18.4921875 C-20.67746835 8.90661994 -11.11830015 -1.57001933 0 0 Z " fill="#DED8E8" transform="translate(264.0859375,294.5078125)"/><path d="M0 0 C0.66 0.33 1.32 0.66 2 1 C0.38113585 2.67262717 -1.2452729 4.33795537 -2.875 6 C-4.23238281 7.3921875 -4.23238281 7.3921875 -5.6171875 8.8125 C-8 11 -8 11 -10 11 C-10.33 12.65 -10.66 14.3 -11 16 C-11.66 16 -12.32 16 -13 16 C-11.72969466 9.64847329 -7.68797776 6.12170718 -3 2 C-2.01 1.34 -1.02 0.68 0 0 Z " fill="#8372AD" transform="translate(490,308)"/><path d="M0 0 C0.99 0.33 1.98 0.66 3 1 C2.360625 1.598125 1.72125 2.19625 1.0625 2.8125 C-2.21118393 6.28458901 -2.21649962 9.59063777 -2.5625 14.1875 C-2.64628906 15.27417969 -2.73007812 16.36085938 -2.81640625 17.48046875 C-2.87699219 18.31191406 -2.93757813 19.14335937 -3 20 C-3.33 20 -3.66 20 -4 20 C-4.10854617 17.60293877 -4.18753157 15.21084162 -4.25 12.8125 C-4.28351563 12.13896484 -4.31703125 11.46542969 -4.3515625 10.77148438 C-4.42503051 7.00624873 -4.11393243 5.16891146 -1.984375 2.01171875 C-1.32953125 1.34785156 -0.6746875 0.68398438 0 0 Z " fill="#C6C7DE" transform="translate(314,407)"/><path d="M0 0 C0.66 0.33 1.32 0.66 2 1 C-1.96 4.96 -5.92 8.92 -10 13 C-10 8.41771462 -7.08388033 6.1816619 -4 3 C-1.625 1.0625 -1.625 1.0625 0 0 Z " fill="#D2CDE2" transform="translate(283,329)"/><path d="M0 0 C-1.39750048 3.15835107 -3.05198234 5.32272825 -5.5 7.75 C-6.41265625 8.67039062 -6.41265625 8.67039062 -7.34375 9.609375 C-9 11 -9 11 -11 11 C-9.60249952 7.84164893 -7.94801766 5.67727175 -5.5 3.25 C-4.8915625 2.63640625 -4.283125 2.0228125 -3.65625 1.390625 C-2 0 -2 0 0 0 Z " fill="#B56FAB" transform="translate(200,49)"/><path d="M0 0 C0.66 0.33 1.32 0.66 2 1 C0.54782324 2.50596108 -0.91192861 4.00462104 -2.375 5.5 C-3.18710938 6.3353125 -3.99921875 7.170625 -4.8359375 8.03125 C-7 10 -7 10 -9 10 C-7.61811547 6.78956118 -6.07578097 4.95063635 -3.375 2.75 C-2.74335937 2.22921875 -2.11171875 1.7084375 -1.4609375 1.171875 C-0.73777344 0.59179688 -0.73777344 0.59179688 0 0 Z " fill="#8574AE" transform="translate(71,308)"/><path d="M0 0 C0.66 0.33 1.32 0.66 2 1 C-2.625 6.875 -2.625 6.875 -6 8 C-4.55746343 4.63408134 -2.66735273 2.48952921 0 0 Z " fill="#9B74AE" transform="translate(216,197)"/><path d="M0 0 C1.32 0.33 2.64 0.66 4 1 C1.03 3.475 1.03 3.475 -2 6 C-2 3 -2 3 0 0 Z " fill="#6073AD" transform="translate(274,494)"/></svg>