<?xml version="1.0" standalone="yes"?>
<svg xmlns="http://www.w3.org/2000/svg" width="512" height="512">
<path style="fill:#000000; stroke:none;" d="M0 0L0 72C4.302 63.0656 5.38258 52.9743 10.3117 44C22.254 22.2573 46.652 3.07034 72 1C65.5639 -1.70068 55.951 0 49 0L0 0z"/>
<path style="fill:#5e3b7f; stroke:none;" d="M72 0.439056C37.4359 5.83731 9.45586 31.9434 1.65123 66C-1.10387 78.0223 0 90.7338 0 103L0 165L0 363L0 410C0 419.226 -0.747677 428.817 0.170525 438C1.56268 451.923 7.42963 465.648 15.439 477C28.6326 495.699 50.2996 508.761 73 511.711C90.1372 513.938 108.717 512 126 512L338 512L405 512C417.033 512 430.155 513.461 442 511.195C476.146 504.663 503.064 479.07 510.576 445C513.214 433.034 512 420.195 512 408L512 345L512 145C512 107.307 519.258 63.6843 494.331 32C480.865 14.8835 460.652 3.10306 439 0.289368C419.937 -2.18787 399.228 0 380 0L174 0L107 0C95.6036 0 83.2705 -1.32117 72 0.439056z"/>
<path style="fill:#000000; stroke:none;" d="M440 0C448.934 4.302 459.026 5.38254 468 10.3117C489.743 22.2541 508.93 46.6519 511 72C513.701 65.5638 512 55.951 512 49L512 0L440 0M140 112L140 409L257 409C289.147 409 321.328 409.604 350 392.547C389.861 368.833 398.342 307.588 368.674 272C358.561 259.868 344.78 254.194 330 250L330 248C370.048 236.463 382.802 183.061 364.677 149C359.135 138.587 350.149 130.267 340 124.428C315.647 110.418 288.045 112 261 112L140 112z"/>
<path style="fill:#5e3b7f; stroke:none;" d="M191 153L191 237L261 237C274.28 237 288.899 238.101 301 231.482C318.495 221.913 323.337 202.596 320.41 184C319.074 175.514 316.182 167.079 308.985 161.789C296.561 152.656 279.681 153 265 153L191 153M191 273L191 368L267 368C282.24 368 299.171 369.148 313 361.485C341.132 345.898 342.789 295.911 314 279.904C300.093 272.172 282.401 273 267 273L191 273z"/>
<path style="fill:#000000; stroke:none;" d="M0 440L0 512L72 512C63.013 507.673 52.957 506.697 44 501.573C28.1458 492.503 14.9831 478.631 7.30941 462C4.0488 454.934 3.30404 446.862 0 440M511 440C508.193 474.365 474.365 508.193 440 511C446.436 513.701 456.049 512 463 512L512 512L512 463C512 456.049 513.701 446.436 511 440z"/>
</svg>
