<?xml version="1.0" encoding="UTF-8"?><svg version="1.1" xmlns="http://www.w3.org/2000/svg" width="589" height="583"><path d="M0 0 C0.76957031 0.6703125 1.53914063 1.340625 2.33203125 2.03125 C3.63806129 3.16996835 4.94051558 4.31280938 6.23828125 5.4609375 C7.40846908 6.4832302 8.59351188 7.48877449 9.79296875 8.4765625 C13.60762705 11.62597134 16.86290809 14.97905239 20.0625 18.75 C22.25017281 21.29052327 24.5290499 23.73279115 26.8125 26.1875 C72.40511117 76.38750928 95.06472881 145.51986349 91.86376953 212.86621094 C88.95165908 262.51233184 73.11373029 312.95329812 43 353 C42.55301758 353.59570801 42.10603516 354.19141602 41.64550781 354.80517578 C38.5157832 358.94096377 35.28822735 362.98943699 32 367 C31.53513184 367.56928223 31.07026367 368.13856445 30.59130859 368.72509766 C19.63427174 382.05772535 7.6877502 394.44984297 -6 405 C-7.00289063 405.79664063 -8.00578125 406.59328125 -9.0390625 407.4140625 C-43.30814586 434.49301669 -83.9993906 452.44267219 -127 460 C-127.92554688 460.16371094 -128.85109375 460.32742188 -129.8046875 460.49609375 C-192.96567532 471.08124545 -264.42683175 457.13086129 -317.12890625 420.109375 C-318.07636719 419.41328125 -319.02382813 418.7171875 -320 418 C-320.59796387 417.56751953 -321.19592773 417.13503906 -321.81201172 416.68945312 C-331.07155963 409.98116947 -339.91138225 402.88742582 -348.48828125 395.328125 C-349.85793936 394.1248078 -351.2407489 392.93650095 -352.625 391.75 C-356.80849582 388.13184145 -360.5751538 384.39583254 -364.140625 380.16796875 C-366.25134007 377.70694592 -368.46855249 375.3638151 -370.6875 373 C-406.65774081 333.43273511 -427.66257942 281.67980859 -434 229 C-434.103125 228.14986328 -434.20625 227.29972656 -434.3125 226.42382812 C-435.23170793 217.7635763 -435.24350531 209.07425329 -435.25 200.375 C-435.25101212 199.15062729 -435.25101212 199.15062729 -435.25204468 197.90151978 C-435.23356048 183.75039538 -434.37859736 169.97128028 -432 156 C-431.8443457 155.04512695 -431.68869141 154.09025391 -431.52832031 153.10644531 C-422.49248452 99.34232057 -395.32695516 52.05305713 -358 13 C-357.29359375 12.25234375 -356.5871875 11.5046875 -355.859375 10.734375 C-350.63020156 5.33514714 -344.87934072 0.67022181 -339 -4 C-337.90327992 -4.88756888 -336.80693735 -5.77560441 -335.7109375 -6.6640625 C-261.85593675 -66.12734699 -159.78208515 -79.83490182 0 0 Z " fill="#B5E0A1" transform="translate(470,90)"/><path d="M0 0 C1.44848831 0.22685738 1.44848831 0.22685738 2.92623901 0.45829773 C6.09854366 0.95679285 9.26920405 1.46502829 12.43994141 1.97338867 C14.66833129 2.32552889 16.89681821 2.67705546 19.12539673 3.02799988 C24.98801978 3.95289312 30.84929755 4.88605342 36.71032715 5.82098389 C42.61550938 6.76150146 48.52191076 7.69429331 54.42822266 8.62768555 C64.10664831 10.15815507 73.78414726 11.69435802 83.46101952 13.23461628 C92.61159845 14.69062311 101.7637954 16.13630502 110.91650391 17.57885742 C110.91650391 18.23885742 110.91650391 18.89885742 110.91650391 19.57885742 C109.3096875 19.65233398 109.3096875 19.65233398 107.67041016 19.72729492 C106.27324751 19.80231037 104.87611341 19.87785872 103.47900391 19.95385742 C102.77195312 19.98479492 102.06490234 20.01573242 101.33642578 20.04760742 C99.52411203 20.15166371 97.71832402 20.35805634 95.91650391 20.57885742 C94.32194237 23.76798049 94.9077217 27.20472164 94.98681641 30.69995117 C94.99773108 32.37506404 95.00543589 34.0502003 95.01025391 35.7253418 C95.0180648 38.36029862 95.04071377 40.98965515 95.11865234 43.62353516 C95.56556852 59.78751378 95.56556852 59.78751378 89.95162964 65.84815979 C83.86769331 71.57885742 83.86769331 71.57885742 81.91650391 71.57885742 C81.91650391 54.74885742 81.91650391 37.91885742 81.91650391 20.57885742 C73.33650391 20.57885742 64.75650391 20.57885742 55.91650391 20.57885742 C55.91650391 21.89885742 55.91650391 23.21885742 55.91650391 24.57885742 C62.18650391 24.90885742 68.45650391 25.23885742 74.91650391 25.57885742 C74.91650391 42.07885742 74.91650391 58.57885742 74.91650391 75.57885742 C75.57650391 75.57885742 76.23650391 75.57885742 76.91650391 75.57885742 C75.54666888 78.74001518 74.92744011 79.57156662 71.91650391 81.57885742 C69.49032593 81.83041382 69.49032593 81.83041382 66.578125 81.83422852 C65.48623871 81.84118744 64.39435242 81.84814636 63.26937866 81.85531616 C61.49755722 81.85382065 61.49755722 81.85382065 59.68994141 81.85229492 C57.18863493 81.87259374 54.68733288 81.8934447 52.18603516 81.91479492 C48.24280062 81.9373473 44.29974126 81.95384516 40.35644531 81.9597168 C36.55062129 81.96927317 32.74558736 82.00310244 28.93994141 82.03979492 C27.7708725 82.03474945 26.60180359 82.02970398 25.39730835 82.02450562 C16.42431506 82.13164559 8.9452358 83.79069243 2.47900391 90.39135742 C1.84091797 91.01655273 1.20283203 91.64174805 0.54541016 92.28588867 C-4.34061644 99.16382059 -3.3615187 107.6410216 -3.32641602 115.6965332 C-3.32749012 117.12785936 -3.32943071 118.55918509 -3.33216858 119.99050903 C-3.33699868 123.86225091 -3.32938476 127.73387679 -3.31921554 131.60560465 C-3.31040659 135.66316494 -3.31219302 139.72072189 -3.31257629 143.77828979 C-3.31164105 150.58894787 -3.30297501 157.39956127 -3.28930664 164.21020508 C-3.27357002 172.08041892 -3.26830906 179.95058391 -3.26904219 187.82081234 C-3.26971796 196.20851498 -3.26277648 204.59619882 -3.25359559 212.98389578 C-3.25146607 215.39778433 -3.25075466 217.81166983 -3.25035667 220.22555923 C-3.24935109 224.0193116 -3.24323687 227.81302307 -3.23319054 231.60676193 C-3.2302737 232.99791463 -3.22903851 234.38907203 -3.22961807 235.78022766 C-3.23011018 237.68081092 -3.22382472 239.58139231 -3.21720886 241.48196411 C-3.21553302 242.54491762 -3.21385717 243.60787113 -3.21213055 244.70303535 C-3.08996014 247.43434371 -2.70044818 249.9198403 -2.08349609 252.57885742 C-1.42349609 252.57885742 -0.76349609 252.57885742 -0.08349609 252.57885742 C1.21337891 254.18823242 1.21337891 254.18823242 2.66650391 256.32885742 C6.08501268 261.05124729 9.30356806 263.70787881 14.91650391 265.57885742 C16.84726165 265.68038048 18.78133894 265.72253146 20.71473694 265.73275757 C22.52932404 265.74565826 22.52932404 265.74565826 24.38056946 265.75881958 C25.72335772 265.76325475 27.06614645 265.76755311 28.40893555 265.77172852 C29.82170818 265.7796315 31.2344788 265.78790058 32.64724731 265.79650879 C37.29036536 265.82271524 41.93349234 265.83803919 46.57666016 265.85229492 C48.17715396 265.85765595 49.77764771 265.86303346 51.3781414 265.86842728 C58.0393308 265.89005768 64.7005178 265.9087915 71.36173344 265.92004967 C80.89466966 265.93626895 90.42719701 265.96939537 99.95997912 266.02645051 C106.66926986 266.06523042 113.37845163 266.08469209 120.08785146 266.08997023 C124.09125043 266.0936139 128.09421317 266.10552863 132.09749031 266.13807297 C135.86922666 266.1682945 139.64026611 266.17441605 143.41209793 266.16268921 C145.44271144 266.16236556 147.47328283 266.1867393 149.5037384 266.21206665 C158.37127411 266.1520694 165.40803933 264.76911229 172.05752659 258.5889492 C179.55551418 250.72110993 180.35662975 243.58989034 180.30126953 233.08178711 C180.3066423 231.83712677 180.31201508 230.59246643 180.31755066 229.31008911 C180.32731554 226.61496077 180.33177732 223.92044626 180.32719421 221.22536469 C180.32036243 216.96444821 180.33628782 212.70379931 180.35559082 208.44293213 C180.39658136 198.63550384 180.40800206 188.8280836 180.41912079 179.02058411 C180.42962678 170.01786929 180.44635987 161.01528373 180.48721647 152.01264882 C180.50558633 147.77591036 180.50946099 143.53947983 180.50228119 139.30271101 C180.50040553 136.05454897 180.51763783 132.80647566 180.53173828 129.55834961 C180.52251595 127.79568253 180.52251595 127.79568253 180.5131073 125.99740601 C180.5254113 124.39087662 180.5254113 124.39087662 180.53796387 122.75189209 C180.53903263 121.35380373 180.53903263 121.35380373 180.54012299 119.92747116 C180.91650391 117.57885742 180.91650391 117.57885742 182.25266266 115.75554276 C183.91650391 114.57885742 183.91650391 114.57885742 186.91650391 114.57885742 C188.60400391 117.07885742 188.60400391 117.07885742 189.91650391 119.57885742 C188.92650391 119.57885742 187.93650391 119.57885742 186.91650391 119.57885742 C186.91650391 122.21885742 186.91650391 124.85885742 186.91650391 127.57885742 C190.21650391 127.57885742 193.51650391 127.57885742 196.91650391 127.57885742 C197.24650391 128.56885742 197.57650391 129.55885742 197.91650391 130.57885742 C198.57650391 130.57885742 199.23650391 130.57885742 199.91650391 130.57885742 C201.29141689 132.08672903 202.59014852 133.66425503 203.85400391 135.26635742 C204.64935547 136.26151367 205.44470703 137.25666992 206.26416016 138.28198242 C206.69100098 138.81629883 207.1178418 139.35061523 207.55761719 139.90112305 C210.37205564 143.37593819 213.29262744 146.7624195 216.19750977 150.16162109 C222.91650391 158.05426011 222.91650391 158.05426011 222.91650391 160.57885742 C211.03650391 160.57885742 199.15650391 160.57885742 186.91650391 160.57885742 C186.91650391 163.21885742 186.91650391 165.85885742 186.91650391 168.57885742 C188.20226318 168.52125244 189.48802246 168.46364746 190.81274414 168.40429688 C195.61461086 168.20416114 200.41611577 168.07856097 205.22094727 167.97460938 C207.29417024 167.91951945 209.36697019 167.84461747 211.4387207 167.74902344 C229.62973003 166.93110597 229.62973003 166.93110597 234.33496094 171.04125977 C239.91650391 177.80189412 239.91650391 177.80189412 239.91650391 180.57885742 C222.42650391 180.57885742 204.93650391 180.57885742 186.91650391 180.57885742 C186.91650391 183.21885742 186.91650391 185.85885742 186.91650391 188.57885742 C203.08650391 188.57885742 219.25650391 188.57885742 235.91650391 188.57885742 C236.24650391 194.51885742 236.57650391 200.45885742 236.91650391 206.57885742 C238.56650391 206.57885742 240.21650391 206.57885742 241.91650391 206.57885742 C243.06304872 204.28576779 243.11379508 202.77976086 243.23291016 200.22729492 C243.27480469 199.37651367 243.31669922 198.52573242 243.35986328 197.64916992 C243.39917969 196.7597168 243.43849609 195.87026367 243.47900391 194.95385742 C243.5221875 194.05666992 243.56537109 193.15948242 243.60986328 192.23510742 C243.71607251 190.0165146 243.81811585 187.79780863 243.91650391 185.57885742 C247.72039468 189.2855685 251.22849551 193.15746568 254.66650391 197.20385742 C255.19453613 197.82284912 255.72256836 198.44184082 256.26660156 199.07958984 C260.03596736 203.51107977 263.74619908 207.98747357 267.41259766 212.50463867 C269.43665644 214.98971552 271.47149443 217.46458169 273.51416016 219.93432617 C274.14725098 220.700271 274.7803418 221.46621582 275.43261719 222.25537109 C276.69430873 223.78110405 277.95697354 225.3060328 279.22070312 226.83007812 C279.79965332 227.53092529 280.37860352 228.23177246 280.97509766 228.95385742 C281.49386475 229.5803418 282.01263184 230.20682617 282.54711914 230.85229492 C283.74945356 232.3682352 284.84323672 233.96895664 285.91650391 235.57885742 C294.46086964 235.09887912 302.52350822 233.12061822 310.79150391 231.01635742 C313.37089496 230.36356818 315.95176905 229.71776999 318.53369141 229.07495117 C319.66403809 228.7880542 320.79438477 228.50115723 321.95898438 228.20556641 C324.91650391 227.57885742 324.91650391 227.57885742 328.91650391 227.57885742 C328.62365321 236.29434876 326.10682407 244.0756083 323.29150391 252.26635742 C323.06519287 252.93381989 322.83888184 253.60128235 322.60571289 254.28897095 C319.29282702 264.04434323 315.71469668 273.43455 310.91650391 282.57885742 C310.17147141 284.07027516 309.42809255 285.56251968 308.68603516 287.05541992 C291.3730063 321.41183702 264.97336157 354.05110171 232.91650391 375.57885742 C232.23136719 376.04437012 231.54623047 376.50988281 230.84033203 376.98950195 C220.84913321 383.73975405 210.5702654 389.93425157 199.91650391 395.57885742 C199.01569092 396.06684814 199.01569092 396.06684814 198.09667969 396.56469727 C178.03107221 407.29645209 154.40027421 414.66068268 131.96337891 418.2199707 C129.78817422 418.60135797 127.65844855 419.09497216 125.51025391 419.60620117 C116.99479448 421.52745003 108.42652257 421.72981684 99.72900391 421.71166992 C98.70468262 421.71262665 97.68036133 421.71358337 96.625 421.71456909 C94.48046812 421.71524468 92.33593412 421.71343411 90.19140625 421.70922852 C86.89790336 421.70382692 83.60453411 421.70921712 80.31103516 421.71557617 C78.2211911 421.71491615 76.13134714 421.71363655 74.04150391 421.71166992 C73.05512939 421.71369415 72.06875488 421.71571838 71.05249023 421.71780396 C70.14394287 421.71465179 69.23539551 421.71149963 68.29931641 421.70825195 C67.49896973 421.70745636 66.69862305 421.70666077 65.87402344 421.70584106 C63.91650391 421.57885742 63.91650391 421.57885742 61.91650391 420.57885742 C59.64863749 420.30323825 57.37692112 420.05914285 55.10400391 419.82885742 C45.60249046 418.75592878 36.44715998 416.48791983 27.19140625 414.14428711 C25.36323309 413.68989249 23.52580717 413.27280324 21.68603516 412.86791992 C6.40749821 409.47268949 -8.1978415 403.23014628 -22.27099609 396.51635742 C-23.28508545 396.03432861 -24.2991748 395.5522998 -25.34399414 395.05566406 C-35.37601235 390.15964334 -44.55926852 384.09556221 -53.64599609 377.64135742 C-54.37850586 377.1212207 -55.11101562 376.60108398 -55.86572266 376.06518555 C-84.63572914 355.50972275 -110.70607259 328.20193126 -127.08349609 296.57885742 C-127.08349609 295.91885742 -127.08349609 295.25885742 -127.08349609 294.57885742 C-127.74349609 294.57885742 -128.40349609 294.57885742 -129.08349609 294.57885742 C-129.57849609 293.44448242 -130.07349609 292.31010742 -130.58349609 291.14135742 C-131.94571654 288.05237866 -133.35855809 284.99807858 -134.84912109 281.96948242 C-145.16592553 260.88213121 -152.43549168 238.84672868 -155.72412109 215.56323242 C-155.88783409 213.58459288 -155.88783409 213.58459288 -157.08349609 212.57885742 C-159.22660884 200.3566805 -159.36829457 188.10392652 -159.28930664 175.72949219 C-159.27091208 172.75276169 -159.26879883 169.77634237 -159.26904297 166.79956055 C-159.22166643 140.94731164 -159.22166643 140.94731164 -156.08349609 132.57885742 C-154.59448064 127.21840178 -153.12082572 121.87760821 -152.58349609 116.32885742 C-152.12528674 112.89228725 -151.23891486 110.16528472 -149.93896484 106.97338867 C-148.90898425 104.09038364 -148.27594948 101.18647373 -147.58349609 98.20385742 C-143.64803075 82.47836825 -136.35700165 67.18053954 -128.58349609 53.01635742 C-128.17470215 52.26700928 -127.7659082 51.51766113 -127.34472656 50.74560547 C-124.46941517 45.70749711 -124.46941517 45.70749711 -121.08349609 44.57885742 C-121.02935547 43.92272461 -120.97521484 43.2665918 -120.91943359 42.59057617 C-119.71351578 38.24589095 -117.31215718 35.03398717 -114.70849609 31.39135742 C-114.17192383 30.63975342 -113.63535156 29.88814941 -113.08251953 29.11376953 C-101.85736005 13.79699658 -91.40816928 10.8779564 -73.30615234 7.75854492 C-71.76972166 7.49240633 -70.23329907 7.22622102 -68.69688416 6.95999146 C-65.48735247 6.40475341 -62.27737931 5.85214872 -59.06713867 5.30102539 C-54.97306516 4.59765041 -50.88075074 3.88454897 -46.78878117 3.16905022 C-43.61961042 2.61659158 -40.44929066 2.07096309 -37.27862358 1.52716446 C-35.77007069 1.26729428 -34.26193644 1.00498062 -32.75425911 0.74007797 C-30.63868873 0.36909217 -28.52166477 0.00780465 -26.40405273 -0.35131836 C-25.2046254 -0.55846466 -24.00519806 -0.76561096 -22.76942444 -0.97903442 C-14.97196755 -1.91429929 -7.72286155 -1.25512857 0 0 Z " fill="#C4E6B4" transform="translate(210.08349609375,115.421142578125)"/><path d="M0 0 C1.39867562 -0.00407102 2.79734803 -0.00941588 4.1960144 -0.01593018 C7.97489681 -0.02954534 11.75353206 -0.02432965 15.53241849 -0.01479292 C19.49695553 -0.00716761 23.46147221 -0.01424974 27.42601013 -0.01895142 C34.08108295 -0.0244 40.73605568 -0.01724032 47.39111328 -0.00292969 C55.07449404 0.01340185 62.75763601 0.00810112 70.44101101 -0.0084089 C77.05101419 -0.0220414 83.66094567 -0.02393503 90.27095836 -0.0160929 C94.21311953 -0.01142692 98.1551686 -0.01076196 102.09732246 -0.02070236 C105.80336641 -0.02939575 109.50910363 -0.02330721 113.21511459 -0.00601959 C115.21636793 -0.00018903 117.21764735 -0.00904953 119.21888733 -0.0184021 C130.18411471 0.05881522 137.03068236 2.7798523 145.07592773 10.38818359 C149.23293512 15.75683058 151.19686479 20.29387206 151.21636963 27.13067627 C151.22207977 28.32790817 151.22778992 29.52514008 151.2336731 30.75865173 C151.23534988 32.73171043 151.23534988 32.73171043 151.23706055 34.74462891 C151.24168943 36.1425642 151.24671419 37.54049823 151.25210571 38.93843079 C151.26522641 42.73818826 151.27167422 46.53792807 151.27611637 50.33770466 C151.27904811 52.71256307 151.28315315 55.08741666 151.28762054 57.46227264 C151.30129567 64.89519931 151.3109618 72.32811495 151.31482244 79.76105332 C151.31930098 88.33627953 151.3368393 96.91134617 151.36582303 105.48652387 C151.38745637 112.11764007 151.39752763 118.74871144 151.39886355 125.37986255 C151.39991056 129.3388881 151.4057958 133.29776366 151.42368317 137.25675201 C151.44019213 140.98321542 151.44230578 144.70941655 151.43354416 148.43590355 C151.43240968 150.44915553 151.44610588 152.46239891 151.46029663 154.4756012 C151.41743136 163.77740309 150.26378346 169.4595792 143.95092773 176.57568359 C143.24709961 177.39423828 142.54327148 178.21279297 141.81811523 179.05615234 C133.9482303 185.74891774 125.87542663 185.96755617 115.87060547 185.90576172 C114.45369755 185.91119129 113.03679528 185.91831861 111.61990356 185.92700195 C107.7954986 185.94513774 103.97152836 185.93820901 100.14711642 185.92548561 C96.13233247 185.91530903 92.11758399 185.92476397 88.10279846 185.93103027 C81.3637122 185.93829235 74.62480172 185.92875606 67.88574219 185.90966797 C60.10857266 185.88789305 52.33182253 185.89496071 44.55466312 185.91697359 C37.86053277 185.93515823 31.16652826 185.93767126 24.47238117 185.92721891 C20.48154744 185.92100189 16.49091052 185.92009887 12.50008965 185.93336487 C8.74798053 185.94496793 4.9964094 185.93681737 1.24435806 185.91378784 C-0.77935305 185.90602558 -2.80310997 185.91781788 -4.82679749 185.93029785 C-13.15276787 185.85319788 -18.84978837 185.03576884 -25.23657227 179.31787109 C-26.07188477 178.30080078 -26.07188477 178.30080078 -26.92407227 177.26318359 C-27.50157227 176.57998047 -28.07907227 175.89677734 -28.67407227 175.19287109 C-29.92407227 173.38818359 -29.92407227 173.38818359 -29.92407227 171.38818359 C-30.58407227 171.38818359 -31.24407227 171.38818359 -31.92407227 171.38818359 C-33.70849849 167.54369328 -34.17659938 164.52282255 -34.18476868 160.29801941 C-34.19185349 159.07424088 -34.19893829 157.85046234 -34.20623779 156.58959961 C-34.20394417 155.24145471 -34.20143449 153.89331016 -34.19873047 152.54516602 C-34.20307987 151.11900058 -34.20826379 149.69283749 -34.21421814 148.26667786 C-34.22759698 144.39876516 -34.2281879 140.53095026 -34.22565484 136.66301894 C-34.22458406 133.4301021 -34.22947141 130.19720496 -34.23426026 126.96429235 C-34.24535226 119.33368313 -34.24579503 111.70312314 -34.23974609 104.07250977 C-34.23371003 96.21142746 -34.24600862 88.35052431 -34.26731616 80.48947257 C-34.28495682 73.73175391 -34.29092952 66.97409215 -34.28767842 60.21635133 C-34.28586885 56.18411883 -34.2884688 52.15201405 -34.30239296 48.11980247 C-34.31500636 44.32517054 -34.31299425 40.53081675 -34.29998207 36.73618889 C-34.2976241 35.34790705 -34.30032292 33.95960542 -34.30860519 32.57134628 C-34.35630473 23.95053264 -34.28282894 16.87315059 -28.94360352 9.74365234 C-28.2152832 9.02822266 -27.48696289 8.31279297 -26.73657227 7.57568359 C-26.02114258 6.84736328 -25.30571289 6.11904297 -24.56860352 5.36865234 C-16.95796378 -0.33089617 -9.15162826 -0.04283582 0 0 Z " fill="#5F7358" transform="translate(239.924072265625,196.61181640625)"/><path d="M0 0 C0.76957031 0.6703125 1.53914063 1.340625 2.33203125 2.03125 C3.63806129 3.16996835 4.94051558 4.31280938 6.23828125 5.4609375 C7.40846908 6.4832302 8.59351188 7.48877449 9.79296875 8.4765625 C13.60762705 11.62597134 16.86290809 14.97905239 20.0625 18.75 C22.25017281 21.29052327 24.5290499 23.73279115 26.8125 26.1875 C72.40511117 76.38750928 95.06472881 145.51986349 91.86376953 212.86621094 C88.95165908 262.51233184 73.11373029 312.95329812 43 353 C42.55301758 353.59570801 42.10603516 354.19141602 41.64550781 354.80517578 C38.5157832 358.94096377 35.28822735 362.98943699 32 367 C31.53513184 367.56928223 31.07026367 368.13856445 30.59130859 368.72509766 C19.63427174 382.05772535 7.6877502 394.44984297 -6 405 C-7.00289063 405.79664063 -8.00578125 406.59328125 -9.0390625 407.4140625 C-43.30814586 434.49301669 -83.9993906 452.44267219 -127 460 C-127.92554688 460.16371094 -128.85109375 460.32742188 -129.8046875 460.49609375 C-192.96567532 471.08124545 -264.42683175 457.13086129 -317.12890625 420.109375 C-318.07636719 419.41328125 -319.02382813 418.7171875 -320 418 C-320.59796387 417.56751953 -321.19592773 417.13503906 -321.81201172 416.68945312 C-331.07155963 409.98116947 -339.91138225 402.88742582 -348.48828125 395.328125 C-349.85793936 394.1248078 -351.2407489 392.93650095 -352.625 391.75 C-356.80849582 388.13184145 -360.5751538 384.39583254 -364.140625 380.16796875 C-366.25134007 377.70694592 -368.46855249 375.3638151 -370.6875 373 C-406.65774081 333.43273511 -427.66257942 281.67980859 -434 229 C-434.103125 228.14986328 -434.20625 227.29972656 -434.3125 226.42382812 C-435.23170793 217.7635763 -435.24350531 209.07425329 -435.25 200.375 C-435.25101212 199.15062729 -435.25101212 199.15062729 -435.25204468 197.90151978 C-435.23356048 183.75039538 -434.37859736 169.97128028 -432 156 C-431.8443457 155.04512695 -431.68869141 154.09025391 -431.52832031 153.10644531 C-422.49248452 99.34232057 -395.32695516 52.05305713 -358 13 C-357.29359375 12.25234375 -356.5871875 11.5046875 -355.859375 10.734375 C-350.63020156 5.33514714 -344.87934072 0.67022181 -339 -4 C-337.90327992 -4.88756888 -336.80693735 -5.77560441 -335.7109375 -6.6640625 C-261.85593675 -66.12734699 -159.78208515 -79.83490182 0 0 Z M-185.65771484 -46.96923828 C-224.20509781 -46.50105144 -262.65539466 -33.79795724 -296 -15 C-296 -14.34 -296 -13.68 -296 -13 C-296.6703125 -12.93683594 -297.340625 -12.87367187 -298.03125 -12.80859375 C-302.12928 -11.69241979 -305.06623041 -9.50764763 -308.5 -7.0625 C-309.55405029 -6.32314209 -309.55405029 -6.32314209 -310.62939453 -5.56884766 C-333.08956744 10.30002875 -355.37237315 29.19671145 -371 52 C-371.44972168 52.64259766 -371.89944336 53.28519531 -372.36279297 53.94726562 C-373.79630719 55.99804788 -375.21447761 58.05834585 -376.625 60.125 C-377.06416748 60.76550293 -377.50333496 61.40600586 -377.95581055 62.06591797 C-380.42756524 65.70958952 -380.42756524 65.70958952 -381 70 C-381.99 70.33 -382.98 70.66 -384 71 C-385.64563689 73.45310424 -387.08977279 75.85152781 -388.5 78.4375 C-388.9321582 79.22737305 -389.36431641 80.01724609 -389.80957031 80.83105469 C-399.04757175 98.16141293 -406.02772805 116.16626402 -410.51025391 135.27954102 C-411 137 -411 137 -412 138 C-412.32939354 139.93144391 -412.61242719 141.87084318 -412.875 143.8125 C-415.46996438 161.46996438 -415.46996438 161.46996438 -418 164 C-419.63181375 174.23194802 -419.18614954 184.87246756 -419.18530273 195.19750977 C-419.18748253 198.16372178 -419.205676 201.12955687 -419.22460938 204.09570312 C-419.2664123 217.96111193 -419.02259665 231.62075234 -415 245 C-414.66143459 246.40748855 -414.33696192 247.81854877 -414.03515625 249.234375 C-413.87466797 249.97429687 -413.71417969 250.71421875 -413.54882812 251.4765625 C-413.22797649 252.97644727 -412.90765251 254.47644503 -412.58789062 255.9765625 C-410.33454435 266.35452383 -407.33900888 276.3812151 -403.75 286.375 C-403.3566748 287.47191162 -402.96334961 288.56882324 -402.55810547 289.69897461 C-400.00674371 296.65455877 -397.17247406 303.0471153 -393.44140625 309.453125 C-391.51345385 312.85969672 -390.23547952 316.29356145 -389 320 C-388.34 320 -387.68 320 -387 320 C-386.62101562 321.03253906 -386.62101562 321.03253906 -386.234375 322.0859375 C-381.9746465 332.14213199 -375.28973645 341.23319351 -368.875 350 C-368.30168945 350.78842285 -367.72837891 351.5768457 -367.13769531 352.38916016 C-363.87626362 356.77782767 -360.44873563 360.72483256 -356.51806641 364.52539062 C-354.8141403 366.18053917 -353.27190535 367.92705842 -351.75 369.75 C-338.97583955 384.49160926 -323.88238208 395.85724494 -308 407 C-307.07832031 407.64839844 -306.15664063 408.29679687 -305.20703125 408.96484375 C-291.01468124 418.43412785 -275.05809878 426.28192842 -259 432 C-257.87722656 432.41378906 -256.75445312 432.82757812 -255.59765625 433.25390625 C-239.19351297 439.03614018 -220.92845596 444.48468759 -203.5 445.5625 C-198.20648968 445.89675516 -198.20648968 445.89675516 -196 447 C-194.54149148 447.09461296 -193.07876083 447.12794164 -191.6171875 447.12939453 C-190.70864014 447.13254669 -189.80009277 447.13569885 -188.86401367 447.13894653 C-187.87763916 447.1369223 -186.89126465 447.13489807 -185.875 447.1328125 C-184.34999878 447.13424759 -184.34999878 447.13424759 -182.79418945 447.13571167 C-180.63541604 447.13639347 -178.47664059 447.13453922 -176.31787109 447.13037109 C-173.04129301 447.12506685 -169.76485479 447.13029313 -166.48828125 447.13671875 C-164.38802053 447.13605711 -162.2877599 447.13477416 -160.1875 447.1328125 C-159.21731934 447.13483673 -158.24713867 447.13686096 -157.24755859 447.13894653 C-148.74925285 447.11025834 -140.55648415 446.5006598 -132.27880859 444.53125 C-129.90964022 443.97893477 -127.53477058 443.51446568 -125.14453125 443.0625 C-66.36931472 431.56589462 -7.36424339 398.18068813 27 348 C27.39654785 347.4318457 27.7930957 346.86369141 28.20166016 346.27832031 C42.87163671 325.2233948 54.42286071 303.1784941 63 279 C63.37318359 277.95658447 63.37318359 277.95658447 63.75390625 276.89208984 C77.57909373 237.59893199 79.35058345 191.65554083 71 151 C70.71761911 149.45747466 70.43751097 147.91453075 70.16015625 146.37109375 C66.17400696 125.39383613 58.24424365 105.16596143 49 86 C48.34 86 47.68 86 47 86 C46.690625 84.88625 46.38125 83.7725 46.0625 82.625 C45.17673517 79.2054845 45.17673517 79.2054845 44 77 C43.34 77 42.68 77 42 77 C41.88841553 76.26136719 41.77683105 75.52273437 41.66186523 74.76171875 C40.97443148 71.89331202 40.07810772 70.22135523 38.41015625 67.8125 C37.87777344 67.03737061 37.34539062 66.26224121 36.796875 65.46362305 C36.22453125 64.65062744 35.6521875 63.83763184 35.0625 63 C34.47855469 62.15928955 33.89460938 61.3185791 33.29296875 60.45239258 C23.94380141 47.08568594 14.1177178 34.47975953 2 23.5 C-1.76517326 20.088409 -5.42357236 16.6120731 -9 13 C-19.83890911 2.20842237 -33.34077051 -5.98632739 -46.4375 -13.75 C-47.14068359 -14.16813965 -47.84386719 -14.5862793 -48.56835938 -15.01708984 C-51.68832037 -16.82737143 -54.47853277 -18.23896619 -58 -19 C-58 -19.66 -58 -20.32 -58 -21 C-79.94177812 -31.20286256 -103.02464045 -40.04703783 -127 -44 C-127.88558594 -44.14663086 -128.77117187 -44.29326172 -129.68359375 -44.44433594 C-148.41921474 -47.39958145 -166.77585058 -47.18778641 -185.65771484 -46.96923828 Z " fill="#607359" transform="translate(470,90)"/><path d="M0 0 C27.53922079 -0.74159744 54.37441683 1.48737246 80.73193359 10.08984375 C82.23385254 10.57855957 82.23385254 10.57855957 83.76611328 11.07714844 C102.21854235 17.15539347 102.21854235 17.15539347 109.9765625 21.19287109 C112.33681428 22.39893021 114.76289897 23.37966362 117.23193359 24.33984375 C118.08787109 24.675 118.94380859 25.01015625 119.82568359 25.35546875 C120.45474609 25.5978125 121.08380859 25.84015625 121.73193359 26.08984375 C121.73193359 26.74984375 121.73193359 27.40984375 121.73193359 28.08984375 C122.57755859 28.33734375 123.42318359 28.58484375 124.29443359 28.83984375 C128.11620833 30.22958002 131.25061422 32.00105213 134.73193359 34.08984375 C131.22262756 37.78179024 127.55069478 40.81549736 123.35693359 43.71484375 C122.1063377 44.59420524 120.85635814 45.47444377 119.60693359 46.35546875 C118.96626953 46.80599609 118.32560547 47.25652344 117.66552734 47.72070312 C114.53804336 49.93521451 111.44560543 52.19663858 108.35693359 54.46484375 C107.7347998 54.92157471 107.11266602 55.37830566 106.47167969 55.84887695 C101.2906959 59.66186309 96.14609258 63.52248353 91.00512695 67.38916016 C84.85467892 72.00999006 78.68654246 76.60804509 72.45874023 81.12426758 C69.06322168 83.59098431 65.71669211 86.03730271 62.57568359 88.82421875 C58.57880875 92.23331788 56.33538199 94.07656467 50.95849609 94.12109375 C47.46179802 93.64649202 44.13755409 93.00463816 40.73193359 92.08984375 C40.93818359 92.87359375 41.14443359 93.65734375 41.35693359 94.46484375 C41.48068359 95.33109375 41.60443359 96.19734375 41.73193359 97.08984375 C41.07193359 97.74984375 40.41193359 98.40984375 39.73193359 99.08984375 C33.79193359 99.08984375 27.85193359 99.08984375 21.73193359 99.08984375 C21.73193359 115.25984375 21.73193359 131.42984375 21.73193359 148.08984375 C19.42193359 148.08984375 17.11193359 148.08984375 14.73193359 148.08984375 C14.70666796 140.27531623 14.68910254 132.46079917 14.67700195 124.64624023 C14.67195977 121.98542894 14.66512623 119.32462043 14.65649414 116.66381836 C14.64442351 112.84878859 14.6387043 109.03379531 14.63427734 105.21875 C14.62911606 104.02085342 14.62395477 102.82295685 14.61863708 101.58876038 C14.61856155 100.48769455 14.61848602 99.38662872 14.6184082 98.25219727 C14.61618759 97.27734879 14.61396698 96.30250031 14.61167908 95.29811096 C14.73193359 93.08984375 14.73193359 93.08984375 15.73193359 92.08984375 C18.26242761 92.01670808 20.76498196 91.99736848 23.29443359 92.02734375 C24.36081055 92.03411133 24.36081055 92.03411133 25.44873047 92.04101562 C27.20983373 92.05283511 28.97089395 92.07077112 30.73193359 92.08984375 C30.73193359 91.42984375 30.73193359 90.76984375 30.73193359 90.08984375 C29.73810165 90.11282028 28.74426971 90.13579681 27.72032166 90.1594696 C23.70112266 90.08930588 19.87208427 89.62622045 15.91772461 88.97583008 C15.168311 88.85706512 14.4188974 88.73830017 13.64677429 88.61593628 C11.17561654 88.22302494 8.70576434 87.82245941 6.23583984 87.421875 C4.48412259 87.14190027 2.73232543 86.86242501 0.98045349 86.5834198 C-3.64565945 85.84536421 -8.27071951 85.10090778 -12.89556885 84.35498047 C-17.479459 83.61660367 -22.06420487 82.88358826 -26.64892578 82.15039062 C-28.45578127 81.86124433 -30.26263552 81.5720903 -32.06948853 81.28292847 C-35.64917741 80.7101675 -39.22891661 80.13772216 -42.8086853 79.56546021 C-44.56842267 79.28405143 -46.3281578 79.00262863 -48.08789062 78.72119141 C-49.37364266 78.51565738 -49.37364266 78.51565738 -50.68536949 78.30597115 C-55.60910258 77.51811219 -60.53159433 76.72303921 -65.45309734 75.92137241 C-68.40341858 75.44201643 -71.35461471 74.96822274 -74.30604744 74.49576378 C-76.29324294 74.17573503 -78.27927033 73.84847865 -80.26524353 73.52095032 C-92.97921676 71.49508066 -103.87740601 72.59933819 -116.49072266 74.6875 C-117.31095854 74.82218626 -118.13119442 74.95687252 -118.97628593 75.09564018 C-123.31174674 75.80835829 -127.64556678 76.53024407 -131.97827148 77.25952148 C-136.43175623 78.00717715 -140.88984789 78.72216895 -145.34981632 79.42995548 C-148.80095755 79.98387431 -152.24766885 80.56232732 -155.69366264 81.14733696 C-157.33505235 81.4216086 -158.97799879 81.68673861 -160.62242317 81.94218636 C-169.8955199 83.39198851 -176.76286305 84.80856084 -183.26806641 92.08984375 C-184.25806641 92.58484375 -184.25806641 92.58484375 -185.26806641 93.08984375 C-178.10251699 76.74605483 -156.59658359 59.36731135 -142.08349609 49.34423828 C-139.85033659 47.80120795 -137.64325332 46.22287082 -135.43212891 44.6484375 C-133.71228824 43.43925071 -131.99093575 42.23221131 -130.26806641 41.02734375 C-129.4538623 40.45371094 -128.6396582 39.88007812 -127.80078125 39.2890625 C-127.02686035 38.75796875 -126.25293945 38.226875 -125.45556641 37.6796875 C-124.76849609 37.20394287 -124.08142578 36.72819824 -123.37353516 36.23803711 C-121.01252185 34.95048544 -118.91482508 34.48968677 -116.26806641 34.08984375 C-116.26806641 33.42984375 -116.26806641 32.76984375 -116.26806641 32.08984375 C-100.6184199 23.6070947 -85.15160788 15.61148694 -67.86303711 11.05419922 C-64.46588983 10.14291014 -61.10292109 9.15073479 -57.73291016 8.14453125 C-50.55793511 6.09135831 -43.37396401 4.63625223 -36.01806641 3.40234375 C-34.74302246 3.18811768 -33.46797852 2.9738916 -32.15429688 2.75317383 C-23.38166212 1.32966659 -14.78591492 0.23090425 -5.89941406 0.125 C-3.93267686 0.09872331 -1.96616988 0.05405278 0 0 Z " fill="#9BD580" transform="translate(290.26806640625,42.91015625)"/><path d="M0 0 C13.64644289 5.59920844 32.48688791 19.39785495 41.734375 30.96484375 C44.22963253 34.06705581 46.94675865 36.47744754 49.984375 39.03125 C58.82587525 46.78430798 66.17189757 56.33784242 73.046875 65.83984375 C72.046875 67.83984375 72.046875 67.83984375 70.3515625 68.65625 C67.24201684 70.25318616 64.7862898 72.49200506 62.171875 74.77734375 C57.59677925 78.718345 52.95044965 82.52360133 48.171875 86.21484375 C42.40045179 90.68773717 36.87285063 95.3959735 31.38037109 100.20556641 C27.14807065 103.90592021 22.83970642 107.47779062 18.42578125 110.9609375 C12.30271023 115.79705764 6.29070194 120.76805793 0.35522461 125.83203125 C-5.36378281 130.71114829 -11.17543812 135.4368127 -17.11962891 140.03955078 C-20.23170358 142.45553836 -23.22948824 144.93611277 -26.140625 147.58984375 C-27.06875 148.33234375 -27.996875 149.07484375 -28.953125 149.83984375 C-32.7694165 148.56774658 -33.14615156 147.35011183 -34.953125 143.83984375 C-35.61798431 142.04158255 -36.24285944 140.22806155 -36.828125 138.40234375 C-39.87209225 129.89747645 -45.14967156 125.12546129 -52.953125 120.83984375 C-57.06791679 119.61608791 -61.13343037 119.66520346 -65.39355469 119.63452148 C-66.6672718 119.61967209 -66.6672718 119.61967209 -67.96672058 119.60452271 C-70.76945216 119.57297128 -73.57220068 119.5481754 -76.375 119.5234375 C-78.31984901 119.50286249 -80.2646936 119.48186587 -82.20953369 119.46046448 C-87.32554545 119.40530037 -92.44159719 119.35586612 -97.55767822 119.30761719 C-102.77937371 119.25736084 -108.00101122 119.20169635 -113.22265625 119.14648438 C-123.46609629 119.03897204 -133.7095867 118.93751168 -143.953125 118.83984375 C-142.303125 116.85984375 -140.653125 114.87984375 -138.953125 112.83984375 C-139.613125 112.83984375 -140.273125 112.83984375 -140.953125 112.83984375 C-140.953125 96.33984375 -140.953125 79.83984375 -140.953125 62.83984375 C-147.223125 62.83984375 -153.493125 62.83984375 -159.953125 62.83984375 C-160.283125 61.18984375 -160.613125 59.53984375 -160.953125 57.83984375 C-159.24227999 56.12899874 -157.00952407 56.70969686 -154.67578125 56.70703125 C-153.60521484 56.70574219 -152.53464844 56.70445312 -151.43164062 56.703125 C-149.74071289 56.70892578 -149.74071289 56.70892578 -148.015625 56.71484375 C-146.33049805 56.70904297 -146.33049805 56.70904297 -144.61132812 56.703125 C-143.00354492 56.70505859 -143.00354492 56.70505859 -141.36328125 56.70703125 C-139.88033569 56.70872314 -139.88033569 56.70872314 -138.36743164 56.71044922 C-135.953125 56.83984375 -135.953125 56.83984375 -133.953125 57.83984375 C-133.623125 74.33984375 -133.293125 90.83984375 -132.953125 107.83984375 C-123.78606436 100.18660401 -123.78606436 100.18660401 -121.66769409 90.91317749 C-121.69743317 90.13358673 -121.72717224 89.35399597 -121.7578125 88.55078125 C-121.74976593 87.72148102 -121.74171936 86.89218079 -121.73342896 86.03775024 C-121.71860516 83.42762211 -121.77203865 80.8243095 -121.828125 78.21484375 C-121.83006997 76.42968666 -121.82750407 74.64451866 -121.8203125 72.859375 C-121.81254133 68.51765936 -121.86591424 64.18064788 -121.953125 59.83984375 C-121.623125 59.83984375 -121.293125 59.83984375 -120.953125 59.83984375 C-120.953125 77.32984375 -120.953125 94.81984375 -120.953125 112.83984375 C-118.643125 112.83984375 -116.333125 112.83984375 -113.953125 112.83984375 C-113.953125 96.66984375 -113.953125 80.49984375 -113.953125 63.83984375 C-108.013125 63.50984375 -102.073125 63.17984375 -95.953125 62.83984375 C-94.87227979 59.20364719 -94.87227979 59.20364719 -94.953125 56.83984375 C-94.16292969 57.07445312 -93.37273437 57.3090625 -92.55859375 57.55078125 C-86.15925632 58.79408109 -81.95165115 58.80593393 -76.4609375 55.28125 C-72.31922983 52.30828509 -68.37256932 49.09530023 -64.43945312 45.85351562 C-60.41094009 42.59083147 -56.20976395 39.57195624 -52.015625 36.52734375 C-50.42202383 35.35573368 -48.82953698 34.18260612 -47.23828125 33.0078125 C-46.49852051 32.4617334 -45.75875977 31.9156543 -44.99658203 31.35302734 C-42.30622245 29.36081126 -39.6281348 27.3526119 -36.953125 25.33984375 C-29.37124042 19.63741225 -21.73678503 14.00693548 -14.08056641 8.40478516 C-12.26107024 7.06636762 -10.45412912 5.71363667 -8.65234375 4.3515625 C-7.78222656 3.70832031 -6.91210938 3.06507812 -6.015625 2.40234375 C-4.95021484 1.59990234 -4.95021484 1.59990234 -3.86328125 0.78125 C-1.953125 -0.16015625 -1.953125 -0.16015625 0 0 Z " fill="#A7DA90" transform="translate(425.953125,78.16015625)"/><path d="M0 0 C12.11892708 9.55057578 19.64561233 20.87370954 23 36 C24.51784281 54.91324135 20.72912309 70.01146542 9 85 C4.81229346 89.71420737 0.49018218 93.86275304 -5 97 C-5.66 97 -6.32 97 -7 97 C-7 97.66 -7 98.32 -7 99 C-17.76081815 105.24127453 -29.7087312 106.82880057 -42 106 C-42.88945312 105.94199219 -43.77890625 105.88398438 -44.6953125 105.82421875 C-59.30998627 104.01374424 -72.72779318 94.9923982 -81.6875 83.66796875 C-93.57370148 68.02440097 -95.20943276 53.33741099 -94 34 C-93.25607213 29.57228475 -92.06933244 25.97188287 -90 22 C-89.53722656 21.09894531 -89.07445312 20.19789063 -88.59765625 19.26953125 C-80.15976765 4.64248231 -66.47184646 -6.65539152 -50.125 -11.1875 C-31.87619329 -14.8559143 -14.64511639 -11.26312437 0 0 Z " fill="#5E7257" transform="translate(334,243)"/><path d="M0 0 C1.08936356 -0.00571014 2.17872711 -0.01142029 3.30110168 -0.01730347 C4.50165192 -0.01842133 5.70220215 -0.01953918 6.93913269 -0.02069092 C8.19935745 -0.02565582 9.45958221 -0.03062073 10.75799561 -0.03573608 C14.22091184 -0.04886803 17.68380867 -0.05530673 21.14674592 -0.05974674 C23.31001882 -0.06267654 25.4732864 -0.0667812 27.63655663 -0.07125092 C34.40419834 -0.08492872 41.17182793 -0.09459366 47.93948251 -0.09845281 C55.75292866 -0.10293266 63.56619979 -0.12047587 71.37959272 -0.1494534 C77.41788142 -0.17107043 83.4561209 -0.18115712 89.49444789 -0.18249393 C93.10131503 -0.18354206 96.70801771 -0.18945135 100.31484413 -0.20731354 C104.33945454 -0.22685641 108.36369885 -0.2225052 112.38835144 -0.21600342 C113.58282898 -0.2252182 114.77730652 -0.23443298 116.00798035 -0.243927 C117.65471489 -0.23557327 117.65471489 -0.23557327 119.3347168 -0.22705078 C120.2861749 -0.22851734 121.237633 -0.2299839 122.21792316 -0.2314949 C126.55266742 0.37922685 129.01154869 2.02779901 131.64610386 5.49154758 C132.98030105 8.40816047 133.23711742 10.32938755 133.24551392 13.52275085 C133.25541855 14.58955078 133.26532318 15.65635071 133.27552795 16.75547791 C133.27102631 17.91561905 133.26652466 19.07576019 133.2618866 20.27105713 C133.26874985 21.50085297 133.2756131 22.7306488 133.28268433 23.99771118 C133.29783601 27.36360024 133.29945015 30.72893486 133.29374194 34.09481692 C133.29064795 36.90791286 133.29674489 39.72095884 133.30278069 42.53404766 C133.31681985 49.17217526 133.31526985 55.81017414 133.30387878 62.44830322 C133.29239876 69.28930847 133.30647231 76.12992162 133.33327526 82.9708752 C133.35544953 88.85130393 133.36206576 94.73160974 133.35619885 100.6120773 C133.35283206 104.12114894 133.35522539 107.62996929 133.37244987 111.13900566 C133.39082409 115.05297018 133.37671405 118.96645445 133.35954285 122.88043213 C133.3740448 124.6176075 133.3740448 124.6176075 133.38883972 126.38987732 C133.3333644 132.42370604 133.19767855 136.53404701 128.85783386 141.14044189 C125.27259396 143.67062256 122.84860821 144.5160405 118.4755249 144.52139282 C117.40872498 144.52985229 116.34192505 144.53831177 115.24279785 144.54702759 C114.08265671 144.5409549 112.92251556 144.5348822 111.72721863 144.52862549 C110.49742279 144.53388245 109.26762695 144.5391394 108.00056458 144.54455566 C104.63466752 144.55548692 101.26932468 144.55293883 97.90345883 144.54341841 C94.37619371 144.53580974 90.84895187 144.54287093 87.32168579 144.5475769 C81.39773826 144.55303167 75.47390301 144.54585097 69.54997253 144.53155518 C62.70902358 144.51523664 55.86834298 144.52051234 49.02740055 144.53703439 C43.14697656 144.55066627 37.26663316 144.55256041 31.38619846 144.54471838 C27.87717763 144.54005021 24.36828275 144.53939317 20.8592701 144.54932785 C16.94535593 144.55963514 13.03174011 144.54533226 9.11784363 144.52862549 C7.95972672 144.53469818 6.8016098 144.54077087 5.60839844 144.54702759 C-4.79308491 144.46476371 -4.79308491 144.46476371 -9.14216614 141.14044189 C-13.27949184 135.73255152 -12.5784355 129.30810752 -12.56208801 122.80450439 C-12.57055756 121.56480896 -12.5790271 120.32511353 -12.5877533 119.04785156 C-12.6071055 115.65930445 -12.61290325 112.27130876 -12.61100578 108.88274384 C-12.61088583 106.0497123 -12.61945961 103.21673192 -12.6277833 100.38371468 C-12.64699414 93.69907318 -12.64990917 87.01455655 -12.6431427 80.32989502 C-12.63649841 73.44165523 -12.65938655 66.55395045 -12.69645643 59.66581917 C-12.72717112 53.74290449 -12.73851173 47.82016181 -12.73461962 41.89716911 C-12.73255446 38.36345153 -12.73799485 34.83015069 -12.76251221 31.29650879 C-12.78895013 27.35625285 -12.7750378 23.41669639 -12.75740051 19.47637939 C-12.77066376 18.31048279 -12.783927 17.14458618 -12.79759216 15.94335938 C-12.70582513 7.12927232 -12.70582513 7.12927232 -9.72871399 3.4319458 C-6.18791317 0.29503925 -4.62276874 0.01446994 0 0 Z M17.85783386 31.14044189 C16.77308777 32.20778564 16.77308777 32.20778564 15.66642761 33.29669189 C5.33691355 44.11622085 1.49925975 56.33984097 1.60783386 71.01544189 C1.60009949 72.05313721 1.59236511 73.09083252 1.58439636 74.15997314 C1.62913145 91.89743509 9.41029841 103.61418232 20.97892761 116.50372314 C29.61845682 124.91460697 41.89259852 130.19491324 53.85783386 131.14044189 C55.32736511 131.2622583 55.32736511 131.2622583 56.82658386 131.38653564 C63.41687821 131.65569371 69.46670419 130.8004955 75.85783386 129.32794189 C76.57600281 129.16278076 77.29417175 128.99761963 78.03410339 128.82745361 C82.06942434 127.81743568 85.50424053 126.63598693 88.85783386 124.14044189 C88.85783386 123.48044189 88.85783386 122.82044189 88.85783386 122.14044189 C89.94257996 121.77305908 89.94257996 121.77305908 91.04924011 121.39825439 C98.99546649 117.83958278 105.11723357 110.26553575 109.85783386 103.14044189 C110.30900574 102.49333252 110.76017761 101.84622314 111.22502136 101.17950439 C119.68182597 88.51931761 120.8362186 72.08373578 118.17424011 57.35919189 C113.55208439 41.24877362 103.49664949 30.34714609 89.85783386 21.14044189 C89.20170105 20.64415283 88.54556824 20.14786377 87.86955261 19.63653564 C66.14991207 4.05606545 34.82024913 14.20625028 17.85783386 31.14044189 Z " fill="#5E7157" transform="translate(238.1421661376953,217.85955810546875)"/><path d="M0 0 C1.09066772 -0.00571014 2.18133545 -0.01142029 3.30505371 -0.01730347 C4.49684235 -0.01842133 5.68863098 -0.01953918 6.91653442 -0.02069092 C8.17544495 -0.02565582 9.43435547 -0.03062073 10.73141479 -0.03573608 C14.18188346 -0.04883485 17.63233269 -0.05529991 21.08282232 -0.05974674 C23.23974842 -0.06268107 25.39666925 -0.06678653 27.55359268 -0.07125092 C34.30574546 -0.08491816 41.05788615 -0.09458904 47.8100518 -0.09845281 C55.59799784 -0.10293416 63.38576842 -0.12048874 71.17366111 -0.1494534 C77.19841777 -0.17108119 83.2231251 -0.18115764 89.24792016 -0.18249393 C92.84417035 -0.18354102 96.44025544 -0.18942845 100.03646469 -0.20731354 C104.04867937 -0.22688036 108.06052729 -0.22250092 112.07278442 -0.21600342 C113.85439468 -0.22982559 113.85439468 -0.22982559 115.67199707 -0.243927 C123.01809824 -0.2066094 127.54583125 0.56332521 133.31155396 5.39044189 C139.15585969 12.34042709 139.06592367 18.8987712 139.04397583 27.64996338 C139.05244537 28.89634583 139.06091492 30.14272827 139.06964111 31.42687988 C139.08897541 34.82996385 139.09479228 38.23249837 139.0928936 41.63559985 C139.09277352 44.48340484 139.10135295 47.3311591 139.10967112 50.17894989 C139.12887348 56.90060503 139.13180035 63.62213599 139.12503052 70.34381104 C139.11838943 77.26327314 139.14126349 84.18220222 139.17834425 91.10155624 C139.20909272 97.05679362 139.22039582 103.01185995 139.21650743 108.96717507 C139.21444549 112.51770837 139.21983257 116.06782657 139.24440002 119.61828423 C139.27090767 123.57957533 139.25689988 127.54017378 139.23928833 131.50152588 C139.25255157 132.66801163 139.26581482 133.83449738 139.27947998 135.03633118 C139.206557 142.10370178 138.31070957 146.74789293 133.62405396 152.14044189 C132.91512607 153.02813137 132.91512607 153.02813137 132.19187641 153.93375397 C128.71063555 157.62247693 125.77462799 158.54250507 120.74653625 158.86869812 C118.38179894 158.88905826 116.01663493 158.87637559 113.65213013 158.83746338 C112.35709564 158.83994583 111.06206116 158.84242828 109.7277832 158.84498596 C106.19257203 158.85095564 102.65856408 158.81990481 99.12359023 158.78173709 C95.42101752 158.7478395 91.71843569 158.74735287 88.01573181 158.74299622 C81.80431334 158.73105739 75.59334054 158.69729642 69.3821106 158.64801025 C60.61591007 158.57849695 51.84990813 158.54924177 43.08347738 158.52760971 C36.27796309 158.50932588 29.47248981 158.47989414 22.66702271 158.44903564 C21.93635896 158.44586421 21.20569522 158.44269277 20.45289016 158.43942523 C15.61817471 158.41775587 10.78362953 158.38595575 5.94900513 158.34918213 C4.72354477 158.34335114 3.49808441 158.33752014 2.23548889 158.33151245 C0.56791534 158.31644402 0.56791534 158.31644402 -1.13334656 158.30107117 C-2.10319898 158.29420005 -3.0730514 158.28732893 -4.07229328 158.2802496 C-6.37594604 158.14044189 -6.37594604 158.14044189 -8.37594604 157.14044189 C-8.37594604 156.48044189 -8.37594604 155.82044189 -8.37594604 155.14044189 C-9.13356515 154.89940074 -9.89118425 154.65835958 -10.67176151 154.41001415 C-15.49825983 152.14404883 -17.41283418 147.94041234 -19.37594604 143.14044189 C-20.16870994 138.78967417 -20.16819992 134.56423538 -20.10470581 130.15093994 C-20.11040085 128.88954697 -20.11609589 127.62815399 -20.1219635 126.32853699 C-20.13638503 122.89870667 -20.11370742 119.47006495 -20.08310437 116.04037833 C-20.05657547 112.4392933 -20.06203866 108.83823866 -20.06318665 105.23707581 C-20.06038636 99.1974215 -20.03445783 93.15822234 -19.99337769 87.11871338 C-19.94610399 80.14299105 -19.93038756 73.16776517 -19.93258435 66.19189423 C-19.93461192 58.74679937 -19.91379485 51.30189487 -19.88624454 43.85685754 C-19.87986087 41.71753414 -19.87772249 39.57824158 -19.87652779 37.43890953 C-19.87294903 33.45341899 -19.84379431 29.46833914 -19.81173706 25.48297119 C-19.81309662 24.30106201 -19.81445618 23.11915283 -19.81585693 21.90142822 C-19.80306198 20.81516647 -19.79026703 19.72890472 -19.77708435 18.60972595 C-19.77205682 17.6686584 -19.76702929 16.72759085 -19.7618494 15.7580061 C-19.06079433 11.00278275 -16.24608301 7.72017888 -12.93844604 4.39044189 C-12.36223511 3.79747314 -11.78602417 3.20450439 -11.19235229 2.59356689 C-7.8160692 -0.10745958 -4.19797495 0.01318387 0 0 Z M-11.37594604 12.14044189 C-12.63407749 14.65670478 -12.50741853 16.38284826 -12.51638794 19.19995117 C-12.52209808 20.27104126 -12.52780823 21.34213135 -12.53369141 22.44567871 C-12.53480927 23.62595642 -12.53592712 24.80623413 -12.53707886 26.02227783 C-12.54204376 27.26138916 -12.54700867 28.50050049 -12.55212402 29.77716064 C-12.56424714 33.18231091 -12.57169491 36.58739965 -12.57613468 39.9925642 C-12.57906487 42.12033288 -12.58316964 44.24809616 -12.58763885 46.37586212 C-12.60131774 53.03404902 -12.61098173 59.69222359 -12.61484075 66.35042357 C-12.61931864 74.03424989 -12.63685228 81.71789806 -12.66584134 89.40167022 C-12.6874719 95.34146162 -12.6975458 101.28120297 -12.69888186 107.22103333 C-12.69992918 110.76812983 -12.70582075 114.31505896 -12.72370148 117.86211395 C-12.74327312 121.82181007 -12.73888767 125.78128452 -12.73239136 129.74102783 C-12.74160614 130.91320862 -12.75082092 132.0853894 -12.76031494 133.29309082 C-12.8159096 141.20188738 -12.8159096 141.20188738 -9.37594604 148.14044189 C-3.97945384 152.26147808 2.38225766 151.56973998 8.86819458 151.54449463 C10.09813644 151.55135788 11.32807831 151.55822113 12.59529114 151.56529236 C15.95698944 151.58042777 19.31813187 151.58206293 22.67982292 151.57634997 C25.49048369 151.57325316 28.30109457 151.57935591 31.11174822 151.58538872 C37.74365952 151.59941945 44.37544197 151.59788433 51.00735474 151.58648682 C57.84099643 151.5750019 64.67424584 151.5890905 71.50783587 151.61588329 C77.38403852 151.6380567 83.26011818 151.64467416 89.13635969 151.63880688 C92.64206308 151.63544058 96.14751492 151.63783043 99.65318298 151.65505791 C103.56224901 151.67343087 107.47083414 151.65932299 111.37991333 151.64215088 C112.5364592 151.65181885 113.69300507 151.66148682 114.88459778 151.67144775 C120.91528204 151.61592633 125.01944635 151.47682641 129.62405396 147.14044189 C132.15634294 143.55300554 132.99965656 141.12735925 133.00500488 136.75140381 C133.01769409 135.14903618 133.01769409 135.14903618 133.03063965 133.51429749 C133.02456696 132.3525853 133.01849426 131.19087311 133.01223755 129.99395752 C133.01749451 128.76255539 133.02275146 127.53115326 133.02816772 126.26243591 C133.03909848 122.89247412 133.0365516 119.52306591 133.02703047 116.1531353 C133.01942308 112.62273298 133.02648247 109.09235395 133.03118896 105.56195068 C133.03664339 99.63380701 133.02946319 93.70577555 133.01516724 87.77764893 C132.99884124 80.9287277 133.00412997 74.08007442 133.02064645 67.23115969 C133.03427031 61.34565583 133.03617661 55.46023253 133.02833045 49.574718 C133.02365884 46.06181669 133.02301486 42.54904124 133.03293991 39.03614807 C133.04323283 35.11963525 133.02895739 31.20342139 133.01223755 27.28692627 C133.02134659 25.54435799 133.02134659 25.54435799 133.03063965 23.7665863 C133.02218018 22.69834122 133.0137207 21.63009613 133.00500488 20.52947998 C133.00387381 19.60404137 133.00274273 18.67860275 133.00157738 17.72512054 C132.37438244 13.4310893 130.70936827 10.96825288 127.28006649 8.35259247 C124.32879142 7.00569003 122.35971544 6.75876775 119.12785339 6.74603271 C118.035811 6.73468292 116.94376862 6.72333313 115.81863403 6.7116394 C114.63044067 6.71457001 113.44224731 6.71750061 112.2180481 6.72052002 C110.95899155 6.71205048 109.699935 6.70358093 108.40272522 6.69485474 C104.95638813 6.67266931 101.51029034 6.6697065 98.06389165 6.67160225 C95.18368936 6.67172208 92.30353754 6.66315291 89.42334932 6.65482473 C82.62701663 6.63560167 75.83080677 6.63270294 69.03445435 6.63946533 C62.02979121 6.64610686 55.02565456 6.62323533 48.0210982 6.5861516 C42.00054045 6.55543731 35.98015193 6.54409637 29.95951742 6.54798841 C26.36654286 6.55005403 22.77397813 6.54460643 19.18107796 6.52009583 C15.17351641 6.49365844 11.16706424 6.50756942 7.15945435 6.52520752 C5.97328522 6.51194427 4.78711609 6.49868103 3.56500244 6.48501587 C-3.1992888 6.55426622 -6.8146179 6.96365405 -11.37594604 12.14044189 Z " fill="#C1E2B2" transform="translate(238.37594604492188,210.85955810546875)"/><path d="M0 0 C14.33559225 0.31164331 24.60450234 5.12517494 35 15 C40.87854617 21.52202339 43.77612389 27.52147232 46 36 C46.18820312 36.70769531 46.37640625 37.41539062 46.5703125 38.14453125 C49.96683853 52.56780727 48.19197678 64.87610974 41.04296875 77.71484375 C35.20135255 87.10834131 27.0545213 95.40063929 16.30078125 98.87109375 C14.22029592 99.34467361 12.11085381 99.68856255 10 100 C10 100.66 10 101.32 10 102 C6.7 102 3.4 102 0 102 C-1.22602697 85.60188925 -1.22602697 85.60188925 1.60546875 81.90234375 C3.6875 80.75 3.6875 80.75 5.890625 79.87109375 C9.78919833 78.26112735 12.14422024 74.71155953 14 71 C14.51322348 65.85093815 14.61975846 61.39445654 12.5 56.625 C7.66386745 51.54706082 3.29226688 49.01592294 -3.6875 48 C-7.63093602 47.4257132 -8.86488861 47.10538688 -12.125 44.5625 C-15.1753034 40.39375202 -15.34980217 37.07213142 -15 32 C-13.47421139 28.80310958 -11.72779044 26.26144688 -9 24 C-4.73837395 23.18598154 -1.01039835 23.46112088 2.8125 25.5 C3.534375 25.995 4.25625 26.49 5 27 C6.32 27 7.64 27 9 27 C9.12815365 24.6147267 9.12815365 24.6147267 8 22 C5.36 20.68 2.72 19.36 0 18 C0 12.06 0 6.12 0 0 Z " fill="#5E7157" transform="translate(302,239)"/><path d="M0 0 C12.11892708 9.55057578 19.64561233 20.87370954 23 36 C24.51784281 54.91324135 20.72912309 70.01146542 9 85 C4.81229346 89.71420737 0.49018218 93.86275304 -5 97 C-5.66 97 -6.32 97 -7 97 C-7 97.66 -7 98.32 -7 99 C-17.76081815 105.24127453 -29.7087312 106.82880057 -42 106 C-42.88945312 105.94199219 -43.77890625 105.88398438 -44.6953125 105.82421875 C-59.30998627 104.01374424 -72.72779318 94.9923982 -81.6875 83.66796875 C-93.57370148 68.02440097 -95.20943276 53.33741099 -94 34 C-93.25607213 29.57228475 -92.06933244 25.97188287 -90 22 C-89.53722656 21.09894531 -89.07445312 20.19789063 -88.59765625 19.26953125 C-80.15976765 4.64248231 -66.47184646 -6.65539152 -50.125 -11.1875 C-31.87619329 -14.8559143 -14.64511639 -11.26312437 0 0 Z M-73.578125 10.4921875 C-84.22069679 21.80432507 -88.54015465 33.81464776 -88.34912109 49.28295898 C-88.15593017 54.75604471 -87.32689758 59.07487049 -85 64 C-84.25169922 65.66869141 -84.25169922 65.66869141 -83.48828125 67.37109375 C-78.59278762 77.94530354 -72.23965468 86.94327265 -62 93 C-60.68 93 -59.36 93 -58 93 C-58 93.66 -58 94.32 -58 95 C-51.36280445 98.00552251 -46.28168069 98.27306303 -39 98 C-39 92.06 -39 86.12 -39 80 C-41.64 78.68 -44.28 77.36 -47 76 C-48.5 72.75 -48.5 72.75 -49 70 C-45.59687262 71.05875074 -42.98646769 72.00902154 -40 74 C-35.03504727 74.45971784 -31.93832304 74.15065843 -28 71 C-26.67206394 68.93299345 -26.67206394 68.93299345 -26 67 C-25.34 67 -24.68 67 -24 67 C-23.71371735 61.46520217 -23.71111752 57.71406489 -27 53 C-31.26947558 50.08426058 -35.67738891 49.43398262 -40.66015625 48.52734375 C-45.19493897 47.50531426 -47.45534926 45.81697612 -50 42 C-50.66 42 -51.32 42 -52 42 C-53.36866008 35.87468523 -54.56581513 28.70987733 -52.05859375 22.76953125 C-48.66579163 17.78136762 -44.85039947 15.46259987 -39 14 C-39 7.73 -39 1.46 -39 -5 C-53.64507882 -5 -63.14752346 0.40927268 -73.578125 10.4921875 Z M-32 -4 C-32 1.94 -32 7.88 -32 14 C-29.36 15.32 -26.72 16.64 -24 18 C-23 20.75 -23 20.75 -23 23 C-26.73487777 22.5020163 -28.81237635 22.12508244 -32 20 C-35.06578057 19.4545896 -37.9329232 19.46191635 -41 20 C-44.28175318 22.52968474 -45.69243777 24.07731331 -47 28 C-47.4435248 33.98758482 -46.43111311 36.99251357 -42.71484375 41.58984375 C-40.45094895 43.45149756 -38.7709465 43.50310401 -35.875 43.8125 C-28.80139072 44.93827336 -23.82253505 48.00640222 -18.9375 53.1875 C-16.99645358 59.01063927 -16.95600676 64.83170636 -19.625 70.375 C-23.37635224 74.52123142 -26.93792964 77.46896482 -32 80 C-32 85.94 -32 91.88 -32 98 C-28.7 98 -25.4 98 -22 98 C-22 97.34 -22 96.68 -22 96 C-20.741875 95.814375 -19.48375 95.62875 -18.1875 95.4375 C-8.15087956 93.19309039 0.89873841 86.04292166 6.6171875 77.6171875 C8.15600963 75.11373061 9.59920935 72.5829608 11 70 C11.40476562 69.26007813 11.80953125 68.52015625 12.2265625 67.7578125 C17.86263345 57.01278516 16.78166047 44.81995431 14.625 33.1875 C14.49899414 32.50002686 14.37298828 31.81255371 14.24316406 31.10424805 C13.45132398 27.14186788 13.45132398 27.14186788 11 24 C10.56300781 22.86498047 10.56300781 22.86498047 10.1171875 21.70703125 C5.40910631 10.29898836 -5.16222946 3.85401612 -15.4375 -1.9375 C-20.91528932 -3.57122664 -26.29752309 -3.70605789 -32 -4 Z " fill="#B3D8A2" transform="translate(334,243)"/><path d="M0 0 C1.07056641 -0.00128906 2.14113281 -0.00257813 3.24414062 -0.00390625 C4.93506836 0.00189453 4.93506836 0.00189453 6.66015625 0.0078125 C8.3452832 0.00201172 8.3452832 0.00201172 10.06445312 -0.00390625 C11.67223633 -0.00197266 11.67223633 -0.00197266 13.3125 0 C14.79544556 0.00169189 14.79544556 0.00169189 16.30834961 0.00341797 C18.72265625 0.1328125 18.72265625 0.1328125 20.72265625 1.1328125 C21.05265625 17.6328125 21.38265625 34.1328125 21.72265625 51.1328125 C30.88971689 43.47957276 30.88971689 43.47957276 33.00808716 34.20614624 C32.97834808 33.42655548 32.94860901 32.64696472 32.91796875 31.84375 C32.92601532 31.01444977 32.93406189 30.18514954 32.94235229 29.33071899 C32.95717609 26.72059086 32.9037426 24.11727825 32.84765625 21.5078125 C32.84571128 19.72265541 32.84827718 17.93748741 32.85546875 16.15234375 C32.86323992 11.81062811 32.80986701 7.47361663 32.72265625 3.1328125 C33.05265625 3.1328125 33.38265625 3.1328125 33.72265625 3.1328125 C33.72265625 20.6228125 33.72265625 38.1128125 33.72265625 56.1328125 C36.03265625 56.1328125 38.34265625 56.1328125 40.72265625 56.1328125 C40.6755249 55.48320557 40.62839355 54.83359863 40.57983398 54.16430664 C39.40888124 35.63822018 39.40888124 35.63822018 42.4453125 29.84765625 C44.74152351 27.61446304 47.03663245 25.87132554 49.72265625 24.1328125 C50.97017526 23.09192189 52.20002497 22.02944313 53.41015625 20.9453125 C54.04695313 20.40390625 54.68375 19.8625 55.33984375 19.3046875 C57.37478552 17.44988812 59.30455234 15.55165822 61.23046875 13.5859375 C62.16886597 12.62917114 62.16886597 12.62917114 63.1262207 11.65307617 C64.3867311 10.36032353 65.6406409 9.06109786 66.88745117 7.75512695 C67.46857666 7.15917725 68.04970215 6.56322754 68.6484375 5.94921875 C69.16833252 5.40724854 69.68822754 4.86527832 70.22387695 4.30688477 C71.72265625 3.1328125 71.72265625 3.1328125 74.72265625 3.1328125 C75.40328125 4.8034375 75.40328125 4.8034375 76.09765625 6.5078125 C77.44731611 10.09480258 77.44731611 10.09480258 79.72265625 12.1328125 C80.39233387 13.79827163 81.05842694 15.46517296 81.72265625 17.1328125 C82.90086499 19.23332943 84.11079561 21.31628813 85.34765625 23.3828125 C88.72265625 29.03077168 88.72265625 29.03077168 88.72265625 30.1328125 C87.79582031 30.19339844 86.86898437 30.25398438 85.9140625 30.31640625 C84.11775391 30.44208984 84.11775391 30.44208984 82.28515625 30.5703125 C81.09019531 30.65152344 79.89523437 30.73273438 78.6640625 30.81640625 C75.83695381 30.80937364 75.83695381 30.80937364 74.72265625 32.1328125 C74.5650122 33.91150976 74.47164948 35.69599726 74.40625 37.48046875 C74.36435547 38.56005859 74.32246094 39.63964844 74.27929688 40.75195312 C74.23998047 41.88826172 74.20066406 43.02457031 74.16015625 44.1953125 C74.09538086 45.90557617 74.09538086 45.90557617 74.02929688 47.65039062 C73.92282786 50.47773445 73.82081418 53.30516988 73.72265625 56.1328125 C76.36265625 56.1328125 79.00265625 56.1328125 81.72265625 56.1328125 C81.72265625 50.1928125 81.72265625 44.2528125 81.72265625 38.1328125 C85.71498681 37.74800955 88.82734718 37.46789488 92.72265625 38.1328125 C95.1664066 40.92567004 96.18043069 42.83454251 97.72265625 46.1328125 C98.4758146 47.46859631 99.24127384 48.79748271 100.015625 50.12109375 C106.72265625 61.62781974 106.72265625 61.62781974 106.72265625 65.1328125 C106.17747628 64.99213663 105.63229631 64.85146076 105.07059574 64.70652199 C99.54196941 63.36659339 94.3910367 62.82966229 88.71459961 62.81396484 C87.43978729 62.79889641 87.43978729 62.79889641 86.13922119 62.78352356 C83.3636536 62.75292907 80.58818137 62.73572316 77.8125 62.71875 C75.87479342 62.70001921 73.93709484 62.6804444 71.99940491 62.6600647 C66.92457816 62.60893935 61.84972503 62.56920922 56.77478027 62.53192139 C51.58611631 62.4917583 46.39756025 62.44072233 41.20898438 62.390625 C31.04695102 62.29409801 20.88485646 62.20961952 10.72265625 62.1328125 C13.19765625 59.1628125 13.19765625 59.1628125 15.72265625 56.1328125 C15.06265625 56.1328125 14.40265625 56.1328125 13.72265625 56.1328125 C13.72265625 39.6328125 13.72265625 23.1328125 13.72265625 6.1328125 C7.45265625 6.1328125 1.18265625 6.1328125 -5.27734375 6.1328125 C-5.60734375 4.4828125 -5.93734375 2.8328125 -6.27734375 1.1328125 C-4.56649874 -0.57803251 -2.33374282 0.00266561 0 0 Z " fill="#BAE2A8" transform="translate(271.27734375,134.8671875)"/><path d="M0 0 C2.125 0.375 2.125 0.375 4 1 C5.68268971 6.87265413 6.3546962 12.15078738 6.3125 18.25 C6.30831055 19.08120361 6.30412109 19.91240723 6.29980469 20.76879883 C5.99992544 37.20951886 -0.66748883 50.65317206 -12.0625 62.375 C-20.01163968 70 -20.01163968 70 -24 70 C-24 70.66 -24 71.32 -24 72 C-34.76081815 78.24127453 -46.7087312 79.82880057 -59 79 C-59.88945312 78.94199219 -60.77890625 78.88398438 -61.6953125 78.82421875 C-76.30998627 77.01374424 -89.72779318 67.9923982 -98.6875 56.66796875 C-99.59117604 55.47203176 -100.48712117 54.27021142 -101.375 53.0625 C-101.78024902 52.51384277 -102.18549805 51.96518555 -102.60302734 51.39990234 C-109.24936255 41.87542948 -110.57016374 33.37626684 -110.25 21.875 C-110.23195312 20.63234375 -110.21390625 19.3896875 -110.1953125 18.109375 C-110.14858504 15.07209034 -110.08308591 12.03647061 -110 9 C-107.525 9.99 -107.525 9.99 -105 11 C-104.94392578 12.68416016 -104.94392578 12.68416016 -104.88671875 14.40234375 C-104.47794927 26.01713696 -104.47794927 26.01713696 -101 37 C-100.23623047 38.68416016 -100.23623047 38.68416016 -99.45703125 40.40234375 C-94.55320368 50.88046571 -88.86844256 58.64831152 -79 65 C-76.83733471 65.7119147 -76.83733471 65.7119147 -75 66 C-75 66.66 -75 67.32 -75 68 C-68.64564211 69.79840318 -62.58868105 70.50584892 -56 71 C-56.495 62.09 -56.495 62.09 -57 53 C-60.465 51.515 -60.465 51.515 -64 50 C-66 48 -66 48 -66.125 45.375 C-66.08375 44.59125 -66.0425 43.8075 -66 43 C-61.47169811 42.62264151 -61.47169811 42.62264151 -59.125 44.5 C-56.00023622 46.70571561 -53.7384296 46.3935189 -50 46 C-46.4613006 44.34860695 -45.18929847 43.28394771 -43 40 C-42.34 40 -41.68 40 -41 40 C-41 39.34 -41 38.68 -41 38 C-39.03852126 36.61061923 -37.03833424 35.2739589 -35 34 C-34.49163093 38.06695259 -34.17585613 40.65031512 -36.34765625 44.20703125 C-40.06721285 48.61327523 -42.58786189 50.29393095 -48 53 C-48.33 58.94 -48.66 64.88 -49 71 C-45.7 71 -42.4 71 -39 71 C-39 70.34 -39 69.68 -39 69 C-38.16597656 68.72027344 -37.33195312 68.44054687 -36.47265625 68.15234375 C-28.88902825 65.45073057 -22.88715157 62.51630738 -17 57 C-16.38640625 56.42765625 -15.7728125 55.8553125 -15.140625 55.265625 C-6.44815832 46.26546038 -0.66637778 33.2368076 -0.8125 20.75 C-0.82667969 19.45191406 -0.84085937 18.15382813 -0.85546875 16.81640625 C-1.01767972 12.53315973 -1.40523305 8.32110099 -1.9765625 4.07421875 C-1.98816406 3.04748047 -1.98816406 3.04748047 -2 2 C-1.34 1.34 -0.68 0.68 0 0 Z " fill="#BEDEAF" transform="translate(351,270)"/><path d="M0 0 C1.09933868 -0.00137466 2.19867737 -0.00274933 3.33132935 -0.00416565 C4.53254425 -0.00057037 5.73375916 0.0030249 6.97137451 0.00672913 C8.87419693 0.00651009 8.87419693 0.00651009 10.81546021 0.00628662 C14.29033331 0.00599977 17.76517188 0.01187835 21.24003696 0.01886058 C24.8728728 0.02511282 28.50570942 0.0256994 32.1385498 0.02688599 C39.01620508 0.02999378 45.89384445 0.03819974 52.77149272 0.04823548 C60.60214771 0.05941373 68.43280347 0.06491138 76.26346445 0.06993091 C92.37021201 0.0803828 108.47694357 0.09797158 124.5836792 0.12025452 C124.5836792 0.45025452 124.5836792 0.78025452 124.5836792 1.12025452 C122.78629807 1.1323848 122.78629807 1.1323848 120.9526062 1.14476013 C109.6805657 1.22212045 98.40864741 1.3098338 87.13676643 1.4077816 C81.34126318 1.45780662 75.54577871 1.50413596 69.75018311 1.54212952 C64.16099529 1.57890409 58.57196231 1.62524237 52.98290634 1.67831802 C50.84661439 1.69690372 48.7102892 1.7119961 46.57394791 1.72359848 C43.59021266 1.74038969 40.60683531 1.76940701 37.62322998 1.80140686 C36.28750946 1.80464714 36.28750946 1.80464714 34.92480469 1.80795288 C30.27308096 1.65404118 30.27308096 1.65404118 26.5836792 4.12025452 C73.6086792 4.61525452 73.6086792 4.61525452 121.5836792 5.12025452 C121.9136792 5.78025452 122.2436792 6.44025452 122.5836792 7.12025452 C121.92861043 7.12172108 121.27354166 7.12318764 120.59862232 7.12469864 C104.65738846 7.16175459 88.71640955 7.22075293 72.77535725 7.30415726 C65.06636011 7.34396225 57.35746528 7.37634726 49.64837646 7.39125061 C42.92891374 7.40425964 36.20967597 7.43120488 29.49033993 7.47486758 C25.93262941 7.49749961 22.37519651 7.51316418 18.81740761 7.51213837 C14.84514167 7.51125421 10.87344331 7.54148457 6.90130615 7.57435608 C5.722388 7.56932571 4.54346985 7.56429535 3.3288269 7.55911255 C-2.95406286 7.59403287 -2.95406286 7.59403287 -8.62367249 10.02937317 C-11.41040289 13.27971657 -11.54062875 15.08860346 -11.53657532 19.29606628 C-11.53794998 20.39265564 -11.53932465 21.489245 -11.54074097 22.61906433 C-11.53714569 23.82746979 -11.53355042 25.03587524 -11.52984619 26.28089905 C-11.52999222 27.54915527 -11.53013824 28.8174115 -11.5302887 30.12409973 C-11.53057628 33.60735537 -11.5246858 37.09057675 -11.51771474 40.57382441 C-11.51147477 44.21201054 -11.51087689 47.8501974 -11.50968933 51.48838806 C-11.50657792 58.38027629 -11.49836708 65.2721487 -11.48833984 72.16402996 C-11.47717282 80.00914859 -11.47166677 87.85426796 -11.46664441 95.69939256 C-11.45618432 111.83968914 -11.43858854 127.97996981 -11.4163208 144.12025452 C-12.0763208 143.79025452 -12.7363208 143.46025452 -13.4163208 143.12025452 C-13.7463208 110.45025452 -14.0763208 77.78025452 -14.4163208 44.12025452 C-17.64402729 47.20987088 -17.64402729 47.20987088 -17.81504822 51.12554932 C-17.82758636 51.9374321 -17.84012451 52.74931488 -17.8530426 53.58580017 C-17.85160751 54.47268524 -17.85017242 55.35957031 -17.84869385 56.27333069 C-17.8588855 57.21011154 -17.86907715 58.1468924 -17.87957764 59.11206055 C-17.90980356 62.2125082 -17.91898829 65.31264739 -17.92803955 68.41322327 C-17.94487911 70.56128982 -17.96302836 72.70934648 -17.98243713 74.85739136 C-18.03002171 80.51429654 -18.0597764 86.17116161 -18.08587646 91.82820129 C-18.11563932 97.59946112 -18.16218429 103.37058258 -18.20733643 109.14173889 C-18.29346579 120.46783852 -18.36076823 131.79396655 -18.4163208 143.12025452 C-18.7463208 143.12025452 -19.0763208 143.12025452 -19.4163208 143.12025452 C-19.4864075 126.2567352 -19.53930727 109.39326135 -19.57175732 92.52962971 C-19.58722503 84.69951826 -19.60831268 76.86949732 -19.64263916 69.03944397 C-19.6725445 62.21462242 -19.6918965 55.38986642 -19.69858629 48.56498116 C-19.70249665 44.95136315 -19.71168437 41.33793267 -19.73351097 37.72437477 C-19.7576817 33.68999036 -19.75829007 29.6559318 -19.75689697 25.62147522 C-19.7676828 24.42385559 -19.77846863 23.22623596 -19.7895813 21.99232483 C-19.78545731 20.89161148 -19.78133331 19.79089813 -19.77708435 18.65682983 C-19.77984973 17.7027741 -19.78261511 16.74871836 -19.78546429 15.76575184 C-19.11861904 10.98675024 -16.2971504 7.71075559 -12.9788208 4.37025452 C-12.40260986 3.77728577 -11.82639893 3.18431702 -11.23272705 2.57337952 C-7.84034816 -0.14052359 -4.21658517 -0.00407006 0 0 Z " fill="#A5CB94" transform="translate(238.41632080078125,210.87974548339844)"/><path d="M0 0 C0.94504395 -0.00700928 1.89008789 -0.01401855 2.86376953 -0.02124023 C5.99573955 -0.03888013 9.12680942 -0.02717227 12.25878906 -0.01367188 C14.43491794 -0.01636596 16.61104565 -0.02024768 18.78717041 -0.02526855 C23.35367261 -0.03117248 27.91986222 -0.02257501 32.48632812 -0.00390625 C38.33183709 0.01882944 44.17660929 0.00579967 50.02209091 -0.01819611 C54.51920075 -0.03267599 59.01613709 -0.02803704 63.51325226 -0.01768494 C65.66776873 -0.01502091 67.82230108 -0.01827599 69.97679901 -0.02760315 C72.99537089 -0.03779843 76.01276543 -0.02222291 79.03125 0 C79.91774231 -0.00809692 80.80423462 -0.01619385 81.71759033 -0.02453613 C87.55542263 0.05480919 90.96514832 1.16592478 95.77441406 4.51757812 C99.52589479 8.99049745 100.900237 14.04577202 100.89466858 19.77568054 C100.89673058 21.41000534 100.89673058 21.41000534 100.89883423 23.0773468 C100.89344131 24.87053596 100.89344131 24.87053596 100.88793945 26.69995117 C100.88808548 27.95859985 100.88823151 29.21724854 100.88838196 30.51403809 C100.88866917 33.96624392 100.88278476 37.41841509 100.875808 40.87061286 C100.86956176 44.47809661 100.86896966 48.08558113 100.86778259 51.69306946 C100.86467303 58.52471732 100.85646468 65.35634919 100.8464331 72.18799001 C100.83526034 79.96541846 100.82975858 87.74284767 100.82473767 95.52028215 C100.81428177 111.51939007 100.79668956 127.51848204 100.77441406 143.51757812 C100.44441406 143.51757812 100.11441406 143.51757812 99.77441406 143.51757812 C99.44441406 108.53757812 99.11441406 73.55757812 98.77441406 37.51757812 C97.28941406 38.01257813 97.28941406 38.01257813 95.77441406 38.51757812 C95.77441406 72.50757813 95.77441406 106.49757813 95.77441406 141.51757812 C95.44441406 141.51757812 95.11441406 141.51757812 94.77441406 141.51757812 C94.76944884 140.54270557 94.76944884 140.54270557 94.76438332 139.54813862 C94.68315269 123.73214754 94.59106005 107.91626262 94.48688698 92.1004076 C94.43677137 84.4519685 94.39032833 76.80354005 94.35253906 69.1550293 C94.3195915 62.4883633 94.27974502 55.82178029 94.23162401 49.15520591 C94.20638645 45.62551116 94.18459712 42.09587127 94.1710701 38.56611061 C94.15583781 34.62510992 94.12520278 30.68431065 94.09326172 26.7434082 C94.09110153 25.57384079 94.08894135 24.40427338 94.0867157 23.19926453 C94.07555222 22.12379364 94.06438873 21.04832275 94.05288696 19.94026184 C94.0473562 19.00832913 94.04182545 18.07639643 94.03612709 17.11622334 C93.74566672 14.23213516 93.08539404 12.0995974 91.77441406 9.51757812 C89.36489383 8.2704341 89.36489383 8.2704341 86.77441406 7.51757812 C85.78441406 6.85757813 84.79441406 6.19757813 83.77441406 5.51757812 C81.86772037 5.20892558 81.86772037 5.20892558 79.76911926 5.23910522 C78.95723648 5.22794174 78.1453537 5.21677826 77.30886841 5.20527649 C76.42198334 5.2031163 75.53509827 5.20095612 74.62133789 5.19873047 C73.68455704 5.18868484 72.74777618 5.17863922 71.78260803 5.16828918 C68.68222678 5.13736652 65.58193222 5.12039677 62.48144531 5.10351562 C60.33338164 5.08481129 58.18532538 5.06523844 56.03727722 5.04483032 C50.3803849 4.99342556 44.72346874 4.95384449 39.06646729 4.91668701 C33.29522768 4.87669965 27.52408797 4.82558331 21.75292969 4.77539062 C10.4268279 4.67853254 -0.89933018 4.5941594 -12.22558594 4.51757812 C-9.67048155 -0.9270286 -5.28378485 -0.04782352 0 0 Z " fill="#B9DEA7" transform="translate(276.2255859375,211.482421875)"/><path d="M0 0 C2.5 0.125 2.5 0.125 3.5 1.125 C3.58775605 3.27058827 3.60695219 5.41904421 3.59765625 7.56640625 C3.59443359 8.87158203 3.59121094 10.17675781 3.58789062 11.52148438 C3.57953401 12.9101569 3.57106905 14.29882877 3.5625 15.6875 C3.55748666 17.08007656 3.55292347 18.47265481 3.54882812 19.86523438 C3.53699434 23.2851987 3.5205088 26.70507844 3.5 30.125 C4.34763916 30.10928955 4.34763916 30.10928955 5.21240234 30.09326172 C7.76655653 30.05175212 10.32063982 30.0256904 12.875 30 C13.76445312 29.98324219 14.65390625 29.96648437 15.5703125 29.94921875 C16.42109375 29.94277344 17.271875 29.93632812 18.1484375 29.9296875 C19.32672119 29.91397705 19.32672119 29.91397705 20.52880859 29.89794922 C22.5 30.125 22.5 30.125 24.5 32.125 C24.72705078 34.55517578 24.72705078 34.55517578 24.6953125 37.5703125 C24.68886719 38.64667969 24.68242187 39.72304687 24.67578125 40.83203125 C24.65902344 41.95996094 24.64226562 43.08789062 24.625 44.25 C24.61597656 45.38566406 24.60695312 46.52132812 24.59765625 47.69140625 C24.57403098 50.50281299 24.54109013 53.31380298 24.5 56.125 C22.19 56.125 19.88 56.125 17.5 56.125 C17.5 49.855 17.5 43.585 17.5 37.125 C11.71125619 37.16447619 11.71125619 37.16447619 5.92260742 37.21508789 C5.19920166 37.21758545 4.4757959 37.22008301 3.73046875 37.22265625 C2.99207764 37.22789307 2.25368652 37.23312988 1.49291992 37.23852539 C-0.5 37.125 -0.5 37.125 -3.5 36.125 C-3.52465098 31.15877651 -3.54283649 26.19258834 -3.55493164 21.22631836 C-3.5599719 19.53555684 -3.56680405 17.84479971 -3.57543945 16.15405273 C-3.58751857 13.72899293 -3.59323123 11.30399056 -3.59765625 8.87890625 C-3.60281754 8.11848526 -3.60797882 7.35806427 -3.61329651 6.57460022 C-3.61349238 4.7576743 -3.56197277 2.94086873 -3.5 1.125 C-2.5 0.125 -2.5 0.125 0 0 Z " fill="#677D5E" transform="translate(227.5,134.875)"/><path d="M0 0 C1.12341797 -0.01224609 2.24683594 -0.02449219 3.40429688 -0.03710938 C5.01208008 -0.04000977 5.01208008 -0.04000977 6.65234375 -0.04296875 C8.13528931 -0.04913208 8.13528931 -0.04913208 9.64819336 -0.05541992 C12.0625 0.1875 12.0625 0.1875 14.0625 2.1875 C13.52678571 5.72321429 13.52678571 5.72321429 12.0625 7.1875 C6.1225 7.1875 0.1825 7.1875 -5.9375 7.1875 C-5.9375 23.3575 -5.9375 39.5275 -5.9375 56.1875 C-8.2475 56.1875 -10.5575 56.1875 -12.9375 56.1875 C-12.96276563 48.37297248 -12.98033105 40.55845542 -12.99243164 32.74389648 C-12.99747383 30.08308519 -13.00430736 27.42227668 -13.01293945 24.76147461 C-13.02501009 20.94644484 -13.03072929 17.13145156 -13.03515625 13.31640625 C-13.04031754 12.11850967 -13.04547882 10.9206131 -13.05079651 9.68641663 C-13.05087204 8.5853508 -13.05094757 7.48428497 -13.05102539 6.34985352 C-13.053246 5.37500504 -13.05546661 4.40015656 -13.05775452 3.39576721 C-12.75228806 -2.21359846 -4.24250388 0.00242567 0 0 Z " fill="#657B5D" transform="translate(317.9375,134.8125)"/><path d="M0 0 C3.53571429 0.53571429 3.53571429 0.53571429 5 2 C5.08726223 3.78071246 5.10699041 5.5648314 5.09765625 7.34765625 C5.09443359 8.42724609 5.09121094 9.50683594 5.08789062 10.61914062 C5.07532227 12.32360352 5.07532227 12.32360352 5.0625 14.0625 C5.05798828 15.20267578 5.05347656 16.34285156 5.04882812 17.51757812 C5.03699747 20.34510351 5.0205141 23.1725264 5 26 C2.45061185 27.27469407 0.66959002 27.12016184 -2.18408203 27.11352539 C-3.26505157 27.11344986 -4.34602112 27.11337433 -5.45974731 27.11329651 C-7.21603958 27.10555458 -7.21603958 27.10555458 -9.0078125 27.09765625 C-10.20356903 27.0962413 -11.39932556 27.09482635 -12.63131714 27.09336853 C-16.46256987 27.08775663 -20.29376484 27.07520208 -24.125 27.0625 C-26.71744707 27.05748653 -29.30989506 27.05292336 -31.90234375 27.04882812 C-38.26824898 27.03778333 -44.63412037 27.02103359 -51 27 C-51 24.69 -51 22.38 -51 20 C-34.83 20 -18.66 20 -2 20 C-2 14.06 -2 8.12 -2 2 C-1.34 1.34 -0.68 0.68 0 0 Z " fill="#677C5F" transform="translate(448,256)"/><path d="M0 0 C1.12276085 -0.0049926 1.12276085 -0.0049926 2.26820374 -0.01008606 C3.85449609 -0.01515818 5.44079915 -0.0174943 7.02709961 -0.01733398 C9.45899994 -0.01951898 11.89044574 -0.03766706 14.32226562 -0.05664062 C15.86067553 -0.05957474 17.39908759 -0.06155942 18.9375 -0.0625 C20.03287331 -0.07327827 20.03287331 -0.07327827 21.15037537 -0.08427429 C26.30633318 -0.06085432 26.30633318 -0.06085432 28.53515625 2.16796875 C28.28515625 4.23046875 28.28515625 4.23046875 27.53515625 6.16796875 C24.76898062 7.55105656 22.52497625 7.28007071 19.43359375 7.265625 C18.221875 7.26240234 17.01015625 7.25917969 15.76171875 7.25585938 C14.49070312 7.24748047 13.2196875 7.23910156 11.91015625 7.23046875 C10.63140625 7.22595703 9.35265625 7.22144531 8.03515625 7.21679688 C4.86844333 7.20498078 1.70182269 7.1885069 -1.46484375 7.16796875 C-1.44164062 8.44414062 -1.4184375 9.7203125 -1.39453125 11.03515625 C-1.37577546 12.70442125 -1.35757506 14.37369255 -1.33984375 16.04296875 C-1.32308594 16.88472656 -1.30632812 17.72648437 -1.2890625 18.59375 C-1.28261719 19.39941406 -1.27617187 20.20507812 -1.26953125 21.03515625 C-1.25905762 21.77878418 -1.24858398 22.52241211 -1.23779297 23.28857422 C-1.46484375 25.16796875 -1.46484375 25.16796875 -3.46484375 27.16796875 C-5.89501953 27.39501953 -5.89501953 27.39501953 -8.91015625 27.36328125 C-9.98652344 27.35683594 -11.06289063 27.35039062 -12.171875 27.34375 C-13.29980469 27.32699219 -14.42773438 27.31023437 -15.58984375 27.29296875 C-16.72550781 27.28394531 -17.86117188 27.27492187 -19.03125 27.265625 C-21.84265674 27.24199973 -24.65364673 27.20905888 -27.46484375 27.16796875 C-27.46484375 24.85796875 -27.46484375 22.54796875 -27.46484375 20.16796875 C-21.19484375 20.16796875 -14.92484375 20.16796875 -8.46484375 20.16796875 C-8.50442402 13.96003961 -8.50442402 13.96003961 -8.55493164 7.75219727 C-8.5574292 6.98319092 -8.55992676 6.21418457 -8.5625 5.421875 C-8.57035522 4.23573608 -8.57035522 4.23573608 -8.57836914 3.02563477 C-8.30381972 -1.46693845 -3.45697255 0.0052535 0 0 Z " fill="#667B5E" transform="translate(424.46484375,215.83203125)"/><path d="M0 0 C3.95827235 -0.05785647 7.9164367 -0.09354717 11.875 -0.125 C13.00292969 -0.14175781 14.13085938 -0.15851563 15.29296875 -0.17578125 C16.36933594 -0.18222656 17.44570313 -0.18867188 18.5546875 -0.1953125 C19.54968262 -0.20578613 20.54467773 -0.21625977 21.56982422 -0.22705078 C24 0 24 0 26 2 C26.22705078 3.87939453 26.22705078 3.87939453 26.1953125 6.1328125 C26.18886719 6.93847656 26.18242187 7.74414062 26.17578125 8.57421875 C26.15902344 9.41597656 26.14226562 10.25773437 26.125 11.125 C26.11597656 11.97449219 26.10695313 12.82398438 26.09765625 13.69921875 C26.07405647 15.79959884 26.03818483 17.89983444 26 20 C26.83772949 19.98952637 27.67545898 19.97905273 28.53857422 19.96826172 C31.64338164 19.93419981 34.74809392 19.90911089 37.85302734 19.89013672 C39.8591136 19.87511893 41.86511324 19.84971019 43.87109375 19.82421875 C45.12792969 19.81777344 46.38476562 19.81132812 47.6796875 19.8046875 C48.84226074 19.79421387 50.00483398 19.78374023 51.20263672 19.77294922 C54 20 54 20 56 22 C55.46428571 25.53571429 55.46428571 25.53571429 54 27 C51.57509629 27.11322434 49.17973138 27.16416875 46.75390625 27.16796875 C46.02759506 27.17129715 45.30128387 27.17462555 44.55296326 27.17805481 C43.01374954 27.18312675 41.4745248 27.18546305 39.93530273 27.18530273 C37.57582529 27.18748766 35.21681639 27.20563565 32.85742188 27.22460938 C31.36458494 27.22754352 29.87174577 27.22952817 28.37890625 27.23046875 C27.67053116 27.23765427 26.96215607 27.24483978 26.23231506 27.25224304 C21.22882337 27.22882337 21.22882337 27.22882337 19 25 C18.77294922 23.12060547 18.77294922 23.12060547 18.8046875 20.8671875 C18.80968262 20.14128418 18.81467773 19.41538086 18.81982422 18.66748047 C18.83803223 17.74596191 18.85624023 16.82444336 18.875 15.875 C18.91625 12.94625 18.9575 10.0175 19 7 C12.73 7 6.46 7 0 7 C0 4.69 0 2.38 0 0 Z " fill="#687C60" transform="translate(397,337)"/><path d="M0 0 C1.00023193 0.00523682 2.00046387 0.01047363 3.03100586 0.01586914 C4.1105957 0.0190918 5.19018555 0.02231445 6.30249023 0.02563477 C8.00695312 0.03820312 8.00695312 0.03820312 9.74584961 0.05102539 C11.45611328 0.05779297 11.45611328 0.05779297 13.20092773 0.06469727 C16.02845312 0.07652792 18.85587601 0.09301129 21.68334961 0.11352539 C21.68334961 2.42352539 21.68334961 4.73352539 21.68334961 7.11352539 C15.74334961 7.11352539 9.80334961 7.11352539 3.68334961 7.11352539 C3.69495117 8.47348633 3.70655273 9.83344727 3.71850586 11.23461914 C3.72788223 13.00675319 3.73698259 14.77888872 3.74584961 16.55102539 C3.75422852 17.44885742 3.76260742 18.34668945 3.77124023 19.27172852 C3.77446289 20.12573242 3.77768555 20.97973633 3.78100586 21.85961914 C3.78624268 22.65037842 3.79147949 23.4411377 3.796875 24.25585938 C3.68334961 26.11352539 3.68334961 26.11352539 2.68334961 27.11352539 C0.1858082 27.22679905 -2.28305029 27.2776973 -4.78149414 27.28149414 C-5.90425499 27.28648674 -5.90425499 27.28648674 -7.04969788 27.2915802 C-8.63599023 27.29665232 -10.22229329 27.29898844 -11.80859375 27.29882812 C-14.24049408 27.30101312 -16.67193988 27.3191612 -19.10375977 27.33813477 C-20.64216967 27.34106889 -22.18058173 27.34305356 -23.71899414 27.34399414 C-24.44924301 27.35117966 -25.17949188 27.35836517 -25.93186951 27.36576843 C-31.08782732 27.34234846 -31.08782732 27.34234846 -33.31665039 25.11352539 C-32.98665039 23.46352539 -32.65665039 21.81352539 -32.31665039 20.11352539 C-22.74665039 20.11352539 -13.17665039 20.11352539 -3.31665039 20.11352539 C-3.35623066 13.90559625 -3.35623066 13.90559625 -3.40673828 7.69775391 C-3.40923584 6.92874756 -3.4117334 6.15974121 -3.41430664 5.36743164 C-3.42216187 4.18129272 -3.42216187 4.18129272 -3.43017578 2.97119141 C-3.25825013 0.15789622 -2.81367649 0.13788171 0 0 Z " fill="#687C60" transform="translate(177.316650390625,336.886474609375)"/><path d="M0 0 C1.07056641 -0.00128906 2.14113281 -0.00257813 3.24414062 -0.00390625 C4.93506836 0.00189453 4.93506836 0.00189453 6.66015625 0.0078125 C8.3452832 0.00201172 8.3452832 0.00201172 10.06445312 -0.00390625 C11.67223633 -0.00197266 11.67223633 -0.00197266 13.3125 0 C14.79544556 0.00169189 14.79544556 0.00169189 16.30834961 0.00341797 C18.72265625 0.1328125 18.72265625 0.1328125 20.72265625 1.1328125 C20.72265625 19.2828125 20.72265625 37.4328125 20.72265625 56.1328125 C18.41265625 56.1328125 16.10265625 56.1328125 13.72265625 56.1328125 C13.72265625 39.6328125 13.72265625 23.1328125 13.72265625 6.1328125 C7.45265625 6.1328125 1.18265625 6.1328125 -5.27734375 6.1328125 C-5.60734375 4.4828125 -5.93734375 2.8328125 -6.27734375 1.1328125 C-4.56649874 -0.57803251 -2.33374282 0.00266561 0 0 Z " fill="#657B5D" transform="translate(271.27734375,134.8671875)"/><path d="M0 0 C1.59142319 0.0001133 1.59142319 0.0001133 3.21499634 0.00022888 C4.36398407 0.00539017 5.5129718 0.01055145 6.69677734 0.01586914 C7.87033783 0.01728409 9.04389832 0.01869904 10.25302124 0.02015686 C14.0129447 0.0257685 17.77280929 0.03832301 21.53271484 0.05102539 C24.07698482 0.05603889 26.62125572 0.06060206 29.16552734 0.06469727 C35.41294337 0.07574171 41.6603249 0.09249121 47.90771484 0.11352539 C47.90771484 2.42352539 47.90771484 4.73352539 47.90771484 7.11352539 C31.73771484 7.11352539 15.56771484 7.11352539 -1.09228516 7.11352539 C-1.09228516 13.38352539 -1.09228516 19.65352539 -1.09228516 26.11352539 C-2.74228516 26.44352539 -4.39228516 26.77352539 -6.09228516 27.11352539 C-7.09228516 26.11352539 -7.09228516 26.11352539 -7.20581055 23.70507812 C-7.20057373 22.66295166 -7.19533691 21.6208252 -7.18994141 20.54711914 C-7.18671875 19.42241211 -7.18349609 18.29770508 -7.18017578 17.13891602 C-7.17179688 15.95491211 -7.16341797 14.7709082 -7.15478516 13.55102539 C-7.15027344 12.3631543 -7.14576172 11.1752832 -7.14111328 9.95141602 C-7.1292819 7.00540313 -7.11279802 4.05948858 -7.09228516 1.11352539 C-4.56484427 -0.15019505 -2.82848207 -0.00670256 0 0 Z " fill="#677B5F" transform="translate(151.09228515625,295.886474609375)"/><path d="M0 0 C2.31 0 4.62 0 7 0 C7.05057965 7.51136408 7.08568257 15.02268449 7.10986328 22.53417969 C7.11994038 25.09116253 7.13360226 27.64813379 7.15087891 30.20507812 C7.17505217 33.87372692 7.18646585 37.54222379 7.1953125 41.2109375 C7.20563507 42.35992523 7.21595764 43.50891296 7.22659302 44.69271851 C7.22674408 45.7536673 7.22689514 46.81461609 7.22705078 47.90771484 C7.231492 48.84481293 7.23593323 49.78191101 7.24050903 50.74740601 C7 53 7 53 5 55 C2.56982422 55.22705078 2.56982422 55.22705078 -0.4453125 55.1953125 C-1.52167969 55.18886719 -2.59804688 55.18242187 -3.70703125 55.17578125 C-5.39892578 55.15064453 -5.39892578 55.15064453 -7.125 55.125 C-8.26066406 55.11597656 -9.39632813 55.10695313 -10.56640625 55.09765625 C-13.37781299 55.07403098 -16.18880298 55.04109013 -19 55 C-19.38218767 53.34385343 -19.71395102 51.67542976 -20 50 C-19.505 49.505 -19.505 49.505 -19 49 C-12.73 49 -6.46 49 0 49 C0 32.83 0 16.66 0 0 Z " fill="#687C60" transform="translate(285,389)"/><path d="M0 0 C0.7322731 0.00202423 1.4645462 0.00404846 2.2190094 0.00613403 C2.96751663 0.00517731 3.71602386 0.00422058 4.48721313 0.00323486 C6.07351261 0.00255307 7.65981486 0.00440731 9.24610901 0.00857544 C11.67789474 0.01391629 14.10949513 0.00863434 16.54127502 0.00222778 C18.07968689 0.00288871 19.61809864 0.00417018 21.1565094 0.00613403 C21.88675827 0.0041098 22.61700714 0.00208557 23.36938477 0 C28.52425229 0.02398985 28.52425229 0.02398985 30.75416565 1.13894653 C30.75416565 7.40894653 30.75416565 13.67894653 30.75416565 20.13894653 C37.02416565 20.13894653 43.29416565 20.13894653 49.75416565 20.13894653 C49.75416565 22.44894653 49.75416565 24.75894653 49.75416565 27.13894653 C41.50416565 27.13894653 33.25416565 27.13894653 24.75416565 27.13894653 C23.57990301 24.79042125 23.63908392 23.40120588 23.6565094 20.78738403 C23.65900696 20.02087524 23.66150452 19.25436646 23.66407776 18.46463013 C23.67318176 17.49090454 23.68228577 16.51717896 23.69166565 15.51394653 C23.71229065 12.42019653 23.73291565 9.32644653 23.75416565 6.13894653 C13.85416565 6.13894653 3.95416565 6.13894653 -6.24583435 6.13894653 C-6.24583435 -0.52120366 -6.04586879 0.02826797 0 0 Z " fill="#657A5D" transform="translate(150.24583435058594,215.86105346679688)"/><path d="M0 0 C1.65 0.33 3.3 0.66 5 1 C5.33 7.27 5.66 13.54 6 20 C21.84 20.33 37.68 20.66 54 21 C54 22.98 54 24.96 54 27 C46.34622001 27.05057791 38.69248287 27.08568184 31.03857422 27.10986328 C28.43308909 27.11994064 25.82761531 27.1336027 23.22216797 27.15087891 C19.48402101 27.17505102 15.74602315 27.1864656 12.0078125 27.1953125 C10.25152023 27.21079636 10.25152023 27.21079636 8.45974731 27.22659302 C6.838293 27.22681961 6.838293 27.22681961 5.18408203 27.22705078 C4.22921906 27.231492 3.27435608 27.23593323 2.29055786 27.24050903 C0 27 0 27 -2 25 C-2.25878906 22.69335938 -2.25878906 22.69335938 -2.265625 19.84375 C-2.26820313 18.82152344 -2.27078125 17.79929687 -2.2734375 16.74609375 C-2.26183594 15.13927734 -2.26183594 15.13927734 -2.25 13.5 C-2.25773438 12.42878906 -2.26546875 11.35757812 -2.2734375 10.25390625 C-2.27085937 9.23167969 -2.26828125 8.20945312 -2.265625 7.15625 C-2.26336914 6.21587891 -2.26111328 5.27550781 -2.25878906 4.30664062 C-2 2 -2 2 0 0 Z " fill="#63785B" transform="translate(145,256)"/><path d="M0 0 C1.32 0 2.64 0 4 0 C5.49544542 2.99089084 5.16279298 6.06367186 5.16796875 9.34375 C5.17129715 10.06864624 5.17462555 10.79354248 5.17805481 11.54040527 C5.18311925 13.07364263 5.18546328 14.60689101 5.18530273 16.14013672 C5.18749138 18.49074343 5.20565751 20.84088249 5.22460938 23.19140625 C5.22754292 24.67968589 5.22952798 26.16796777 5.23046875 27.65625 C5.23765427 28.36148804 5.24483978 29.06672607 5.25224304 29.79333496 C5.22882848 34.77117152 5.22882848 34.77117152 3 37 C1.12060547 37.22705078 1.12060547 37.22705078 -1.1328125 37.1953125 C-2.22166748 37.18781982 -2.22166748 37.18781982 -3.33251953 37.18017578 C-4.25403809 37.16196777 -5.17555664 37.14375977 -6.125 37.125 C-9.05375 37.08375 -11.9825 37.0425 -15 37 C-15 43.27 -15 49.54 -15 56 C-17.31 56 -19.62 56 -22 56 C-22 48.08 -22 40.16 -22 32 C-19.23434618 31.07811539 -17.61716298 30.88214778 -14.76953125 30.90234375 C-13.56586914 30.90717773 -13.56586914 30.90717773 -12.33789062 30.91210938 C-11.08782227 30.92467773 -11.08782227 30.92467773 -9.8125 30.9375 C-8.96751953 30.94201172 -8.12253906 30.94652344 -7.25195312 30.95117188 C-5.16793845 30.96294597 -3.08396023 30.9808811 -1 31 C-1.00785522 29.64467163 -1.00785522 29.64467163 -1.01586914 28.26196289 C-1.03287686 24.92048511 -1.04543333 21.57905308 -1.05493164 18.23754883 C-1.05997101 16.78929927 -1.06680253 15.34105483 -1.07543945 13.89282227 C-1.08752247 11.81525412 -1.09323211 9.73775303 -1.09765625 7.66015625 C-1.10289307 6.40855713 -1.10812988 5.15695801 -1.11352539 3.86743164 C-1 1 -1 1 0 0 Z " fill="#62775B" transform="translate(367,135)"/><path d="M0 0 C2.31 0 4.62 0 7 0 C7 6.27 7 12.54 7 19 C13.20792914 18.96041973 13.20792914 18.96041973 19.41577148 18.90991211 C20.18477783 18.90741455 20.95378418 18.90491699 21.74609375 18.90234375 C22.93223267 18.89448853 22.93223267 18.89448853 24.14233398 18.88647461 C26 19 26 19 27 20 C27.08847743 22.52094076 27.11527301 25.01430893 27.09765625 27.53515625 C27.0962413 28.28840683 27.09482635 29.04165741 27.09336853 29.81773376 C27.08775376 32.2326956 27.07519883 34.64756601 27.0625 37.0625 C27.0574869 38.69596221 27.05292366 40.32942586 27.04882812 41.96289062 C27.03777954 45.97529585 27.02050506 49.98763241 27 54 C25.34385343 54.38218767 23.67542976 54.71395102 22 55 C21 54 21 54 20.88647461 51.22436523 C20.89171143 50.01466064 20.89694824 48.80495605 20.90234375 47.55859375 C20.90556641 46.25341797 20.90878906 44.94824219 20.91210938 43.60351562 C20.92046599 42.2148431 20.92893095 40.82617123 20.9375 39.4375 C20.94251334 38.04492344 20.94707653 36.65234519 20.95117188 35.25976562 C20.96300566 31.8398013 20.9794912 28.41992156 21 25 C20.43490723 25.01047363 19.86981445 25.02094727 19.28759766 25.03173828 C16.73344347 25.07324788 14.17936018 25.0993096 11.625 25.125 C10.73554688 25.14175781 9.84609375 25.15851563 8.9296875 25.17578125 C8.07890625 25.18222656 7.228125 25.18867188 6.3515625 25.1953125 C5.17327881 25.21102295 5.17327881 25.21102295 3.97119141 25.22705078 C2 25 2 25 0 23 C-0.22705078 20.66162109 -0.22705078 20.66162109 -0.1953125 17.7734375 C-0.18886719 16.7421875 -0.18242187 15.7109375 -0.17578125 14.6484375 C-0.15902344 13.56820313 -0.14226562 12.48796875 -0.125 11.375 C-0.11597656 10.28703125 -0.10695313 9.1990625 -0.09765625 8.078125 C-0.07403409 5.38519848 -0.04109556 2.69270745 0 0 Z " fill="#63765B" transform="translate(345,389)"/><path d="M0 0 C1.98 0 3.96 0 6 0 C6 16.17 6 32.34 6 49 C12.27 49 18.54 49 25 49 C25.66 49.66 26.32 50.32 27 51 C26.625 53.125 26.625 53.125 26 55 C21.85418113 55.02886751 17.70838784 55.04675327 13.5625 55.0625 C11.78649414 55.07506836 11.78649414 55.07506836 9.97460938 55.08789062 C8.84990234 55.09111328 7.72519531 55.09433594 6.56640625 55.09765625 C5.00321655 55.10551147 5.00321655 55.10551147 3.40844727 55.11352539 C1 55 1 55 0 54 C-0.09353163 52.31198015 -0.11744791 50.62004793 -0.11352539 48.92944336 C-0.11344986 47.84839828 -0.11337433 46.76735321 -0.11329651 45.65354919 C-0.10813522 44.4775264 -0.10297394 43.3015036 -0.09765625 42.08984375 C-0.0962413 40.89267227 -0.09482635 39.69550079 -0.09336853 38.46205139 C-0.08774979 34.62050934 -0.07519411 30.77902457 -0.0625 26.9375 C-0.05748741 24.34049563 -0.05292409 21.74349035 -0.04882812 19.14648438 C-0.03777427 12.76430321 -0.02101792 6.3821557 0 0 Z " fill="#62755A" transform="translate(305,389)"/><path d="M0 0 C7.67211202 -0.02526605 15.3442134 -0.04283123 23.01635742 -0.05493164 C25.62866619 -0.05997377 28.24097211 -0.06680725 30.85327148 -0.07543945 C34.59880268 -0.08751036 38.34429672 -0.09322935 42.08984375 -0.09765625 C43.26586655 -0.10281754 44.44188934 -0.10797882 45.65354919 -0.11329651 C46.73459427 -0.11337204 47.81563934 -0.11344757 48.92944336 -0.11352539 C49.88652695 -0.115746 50.84361053 -0.11796661 51.82969666 -0.12025452 C54 0 54 0 55 1 C55.09946453 2.76859193 55.13080217 4.54111451 55.1328125 6.3125 C55.13474609 7.92511719 55.13474609 7.92511719 55.13671875 9.5703125 C55.13285156 10.70210938 55.12898438 11.83390625 55.125 13 C55.13080078 14.69769531 55.13080078 14.69769531 55.13671875 16.4296875 C55.13542969 17.50476563 55.13414062 18.57984375 55.1328125 19.6875 C55.13168457 20.68136719 55.13055664 21.67523438 55.12939453 22.69921875 C55 25 55 25 54 26 C52.35 26 50.7 26 49 26 C49 19.4 49 12.8 49 6 C32.83 6 16.66 6 0 6 C0 4.02 0 2.04 0 0 Z " fill="#62755A" transform="translate(398,297)"/><path d="M0 0 C1.98 0 3.96 0 6 0 C6.02886984 3.97915159 6.04675406 7.95827653 6.0625 11.9375 C6.07087891 13.07380859 6.07925781 14.21011719 6.08789062 15.38085938 C6.09272461 17.00024414 6.09272461 17.00024414 6.09765625 18.65234375 C6.10551147 20.15269165 6.10551147 20.15269165 6.11352539 21.68334961 C6 24 6 24 5 25 C3.58429877 25.08651611 2.164405 25.10704904 0.74609375 25.09765625 C-0.10791016 25.09443359 -0.96191406 25.09121094 -1.84179688 25.08789062 C-3.18854492 25.07532227 -3.18854492 25.07532227 -4.5625 25.0625 C-5.46419922 25.05798828 -6.36589844 25.05347656 -7.29492188 25.04882812 C-9.53001314 25.03700225 -11.76497437 25.0205222 -14 25 C-13.99476318 25.83772949 -13.98952637 26.67545898 -13.98413086 27.53857422 C-13.96709986 30.64338936 -13.95455518 33.74818071 -13.94506836 36.85302734 C-13.93755964 38.85906551 -13.9248553 40.86508202 -13.91210938 42.87109375 C-13.90888672 44.12792969 -13.90566406 45.38476562 -13.90234375 46.6796875 C-13.89710693 47.84226074 -13.89187012 49.00483398 -13.88647461 50.20263672 C-14 53 -14 53 -15 55 C-16.65 54.67 -18.3 54.34 -20 54 C-20 42.78 -20 31.56 -20 20 C-17.703463 18.8517315 -16.41686833 18.88438825 -13.8671875 18.90234375 C-13.14128418 18.90484131 -12.41538086 18.90733887 -11.66748047 18.90991211 C-10.74596191 18.91901611 -9.82444336 18.92812012 -8.875 18.9375 C-5.94625 18.958125 -3.0175 18.97875 0 19 C0 12.73 0 6.46 0 0 Z " fill="#607459" transform="translate(245,389)"/><path d="M0 0 C1.77155654 0.11429397 3.54226229 0.24183037 5.3125 0.375 C6.79169922 0.47941406 6.79169922 0.47941406 8.30078125 0.5859375 C11 1 11 1 14 3 C13.37738281 3.51433594 13.37738281 3.51433594 12.7421875 4.0390625 C7.9210627 8.13399277 3.44569472 12.50754588 -1 17 C-12.67010842 28.78007228 -12.67010842 28.78007228 -19 33 C-19 24.42 -19 15.84 -19 7 C-13.06 6.67 -7.12 6.34 -1 6 C0.08084521 2.36380344 0.08084521 2.36380344 0 0 Z " fill="#AFDC9A" transform="translate(331,135)"/><path d="M0 0 C0.66 0.33 1.32 0.66 2 1 C-8.23 11.23 -18.46 21.46 -29 32 C-29 28.37214289 -28.39588698 27.99319114 -25.96484375 25.453125 C-25.31966797 24.7725 -24.67449219 24.091875 -24.00976562 23.390625 C-23.32591797 22.68421875 -22.64207031 21.9778125 -21.9375 21.25 C-20.95233398 20.21359375 -20.95233398 20.21359375 -19.94726562 19.15625 C-13.54918205 12.44929342 -7.11158062 5.95050623 0 0 Z " fill="#72836C" transform="translate(127,89)"/><path d="M0 0 C0.66 0.33 1.32 0.66 2 1 C1.16855469 1.64001953 1.16855469 1.64001953 0.3203125 2.29296875 C-5.67453641 7.46645936 -7.06243831 11.6243831 -7.84375 19.4375 C-7.8953125 20.283125 -7.946875 21.12875 -8 22 C-8.33 22 -8.66 22 -9 22 C-10.03307219 10.52142007 -10.03307219 10.52142007 -6.1875 5.375 C-4.20879181 3.05917856 -2.57801859 1.71867906 0 0 Z " fill="#A1C293" transform="translate(289,258)"/><path d="M0 0 C0.66 0.33 1.32 0.66 2 1 C0.7121669 2.48250555 -0.58039064 3.96090818 -1.875 5.4375 C-2.59429687 6.26121094 -3.31359375 7.08492187 -4.0546875 7.93359375 C-6 10 -6 10 -8 11 C-9.13350534 13.01669827 -9.13350534 13.01669827 -10 15 C-10.33 14.34 -10.66 13.68 -11 13 C-8.66125163 7.69883703 -4.11598966 3.9400091 0 0 Z " fill="#7E9C72" transform="translate(218,200)"/><path d="M0 0 C0.99 0.33 1.98 0.66 3 1 C0.69 3.31 -1.62 5.62 -4 8 C-4 4.09161134 -2.49432124 2.88405893 0 0 Z " fill="#95C181" transform="translate(110,128)"/></svg>