<?xml version="1.0" encoding="UTF-8"?>
<svg version="1.1" xmlns="http://www.w3.org/2000/svg" width="559" height="511">
<path d="M0 0 C1.54492812 1.34787096 3.06579497 2.72377443 4.5625 4.125 C5.41328125 4.89714844 6.2640625 5.66929688 7.140625 6.46484375 C13.09047104 12.10294636 17.5645698 17.98373402 21.5625 25.125 C22.36494141 26.54619141 22.36494141 26.54619141 23.18359375 27.99609375 C33.58916146 47.53572588 34.95684482 68.95388937 29.5625 90.125 C28.40465905 93.55287321 27.11080601 96.85548072 25.5625 100.125 C26.38878906 99.96644531 27.21507812 99.80789062 28.06640625 99.64453125 C44.97553031 97.13177874 61.57716522 99.82810516 75.5625 110.125 C87.98953392 120.41404959 96.27717681 134.0482482 98.5625 150.125 C99.72781757 168.43393177 94.74082355 183.70676638 82.84375 197.77734375 C74.12992391 206.74482573 61.97742936 214.61486912 49.10736084 215.24525452 C48.19246887 215.24303391 47.2775769 215.24081329 46.33496094 215.23852539 C45.29418396 215.23844986 44.25340698 215.23837433 43.18109131 215.23829651 C42.06429993 215.23313522 40.94750854 215.22797394 39.796875 215.22265625 C38.07407318 215.22053383 38.07407318 215.22053383 36.31646729 215.21836853 C32.64845169 215.21277143 28.98049715 215.20021944 25.3125 215.1875 C22.82552171 215.18248463 20.33854247 215.17792178 17.8515625 215.17382812 C11.7551875 215.16280295 5.65884811 215.14606769 -0.4375 215.125 C-0.49228516 216.05078857 -0.54707031 216.97657715 -0.60351562 217.93041992 C-1.91253282 238.29601362 -8.52315694 255.89481364 -22.4375 271.125 C-23.02660156 271.805625 -23.61570312 272.48625 -24.22265625 273.1875 C-37.46288325 287.5802733 -57.88427645 296.51103052 -77.23828125 297.51171875 C-102.79428198 298.24861829 -124.21281094 290.55194799 -143.0625 273 C-148.50464646 267.35304157 -152.47956858 260.85271189 -156.4375 254.125 C-156.94410156 253.2690625 -157.45070313 252.413125 -157.97265625 251.53125 C-164.23998113 240.03157132 -165.7132864 227.97641771 -166.4375 215.125 C-167.02472839 215.13166183 -167.61195679 215.13832367 -168.21697998 215.14518738 C-174.38239004 215.21205709 -180.54769547 215.25701268 -186.71337891 215.28979492 C-189.0080179 215.30479151 -191.30262867 215.32519551 -193.59716797 215.35131836 C-196.91380825 215.3881058 -200.23006642 215.4048182 -203.546875 215.41796875 C-204.55675476 215.43345261 -205.56663452 215.44893646 -206.6071167 215.46488953 C-222.27247413 215.46851122 -235.96971988 210.2205012 -247.265625 199.3203125 C-248.34070313 198.23363281 -248.34070313 198.23363281 -249.4375 197.125 C-249.98921875 196.60679687 -250.5409375 196.08859375 -251.109375 195.5546875 C-261.50373356 184.8809107 -265.82868797 169.65792748 -265.73657227 155.20581055 C-265.28842723 138.75138649 -258.02119386 125.54232124 -246.4375 114.125 C-245.59251953 113.26455078 -245.59251953 113.26455078 -244.73046875 112.38671875 C-233.14153766 101.47451356 -217.74172436 98.48487908 -202.3984375 98.88671875 C-197.83460276 99.16126897 -193.81818681 99.85061838 -189.4375 101.125 C-189.7675 100.465 -190.0975 99.805 -190.4375 99.125 C-191.36151608 85.4465325 -189.89722869 74.70133845 -181.4765625 63.4140625 C-175.1197909 56.2779166 -165.949879 50.80321293 -156.32275391 49.93408203 C-148.00512708 49.50911954 -140.47219931 49.85017007 -132.4375 52.125 C-132.22996094 51.20460938 -132.02242187 50.28421875 -131.80859375 49.3359375 C-126.74964482 28.54979586 -115.24281966 9.39218953 -97.125 -2.625 C-67.00859608 -20.55143091 -28.68924717 -22.21393119 0 0 Z " fill="#27BF6C" transform="translate(373.4375,36.875)"/>
<path d="M0 0 C1.00239716 -0.00671722 2.00479431 -0.01343445 3.03756714 -0.02035522 C6.34296662 -0.039314 9.64816285 -0.04325827 12.95361328 -0.04541016 C15.25757937 -0.05183915 17.56154465 -0.05856759 19.86550903 -0.06558228 C24.69225965 -0.07754946 29.51893872 -0.08126363 34.34570312 -0.08007812 C40.52165809 -0.07987488 46.6971532 -0.10718564 52.87299919 -0.14162254 C57.63089087 -0.16389053 62.38867181 -0.1679157 67.14661026 -0.16685867 C69.42312328 -0.16921444 71.69963936 -0.17803654 73.97610092 -0.19352341 C77.16407999 -0.2131822 80.35106646 -0.20734532 83.5390625 -0.1953125 C84.940495 -0.21217102 84.940495 -0.21217102 86.37023926 -0.22937012 C92.35723432 -0.17212729 96.90399623 0.88178162 101.89892578 4.29052734 C106.65255163 9.28792888 107.13071194 13.69854131 107.453125 20.34912109 C107.49523542 21.21685654 107.53734585 22.08459198 107.58073235 22.97862244 C108.16165881 36.62505169 108.04457317 50.29304066 108.03325129 63.94913864 C108.03067841 68.03697521 108.03307869 72.1248098 108.03463745 76.21264648 C108.03644501 83.07096771 108.03409028 89.92927809 108.02929688 96.78759766 C108.02385701 104.66062191 108.02562068 112.53362024 108.03112328 120.40664387 C108.03569504 127.22683842 108.03628527 134.04702528 108.03368461 140.86722088 C108.03214399 144.91409923 108.03186595 148.96096549 108.0352211 153.00784302 C108.0553276 181.72458705 108.0553276 181.72458705 107.578125 194.04443359 C107.55616121 194.81802719 107.53419743 195.59162079 107.51156807 196.38865662 C107.22150872 202.2628811 105.82511617 206.4657154 101.52392578 210.54052734 C95.65705246 214.45177623 90.76590634 214.5832256 83.89550781 214.56518555 C82.89165039 214.57029648 81.88779297 214.57540741 80.85351562 214.58067322 C77.53786238 214.59456345 74.22241715 214.59361275 70.90673828 214.59130859 C68.59894738 214.59519601 66.29115718 214.59953078 63.98336792 214.60429382 C59.14644044 214.61175496 54.30958595 214.61146563 49.47265625 214.60620117 C43.2798323 214.60040874 37.08730764 214.61733285 30.89453316 214.64054585 C26.12810525 214.65529147 21.36174926 214.6561537 16.59530258 214.65303612 C14.31239098 214.65354898 12.02947531 214.65878005 9.74658585 214.66884804 C6.55123817 214.68120996 3.35647147 214.67442166 0.16113281 214.6628418 C-0.77832184 214.67048553 -1.71777649 214.67812927 -2.68569946 214.68600464 C-9.65493761 214.63029393 -14.40017379 213.51126769 -19.91357422 208.97802734 C-23.99295393 203.96621798 -24.39558483 198.8315637 -24.36177063 192.56155396 C-24.36559618 191.80253119 -24.36942172 191.04350843 -24.3733632 190.26148498 C-24.38364896 187.72828851 -24.3797095 185.19532058 -24.37573242 182.66210938 C-24.38008136 180.84171337 -24.38526512 179.02131919 -24.39122009 177.20092773 C-24.40460218 172.26286618 -24.4051896 167.32488121 -24.40265679 162.38680506 C-24.40158648 158.26160691 -24.40647203 154.13642423 -24.41126221 150.0112294 C-24.42235481 140.27733126 -24.42279629 130.54347171 -24.41674805 120.80957031 C-24.41070851 110.77460385 -24.42301935 100.7397776 -24.44431812 90.70483506 C-24.4619434 82.08299527 -24.46793398 73.46120008 -24.46468037 64.83934295 C-24.46286875 59.69266248 -24.46549162 54.54608201 -24.47939491 49.39941788 C-24.49198356 44.55830372 -24.49001928 39.71740786 -24.47698402 34.876297 C-24.47462091 33.10261333 -24.47734343 31.32891425 -24.48560715 29.55524826 C-24.49609901 27.12773656 -24.48795482 24.70095406 -24.47529602 22.27346802 C-24.48267031 21.57714708 -24.49004459 20.88082615 -24.49764234 20.16340458 C-24.43072736 14.03380302 -23.15474452 8.39970224 -18.78857422 3.91552734 C-12.62625706 0.18947511 -7.00090675 -0.00676242 0 0 Z " fill="#54CAEA" transform="translate(75.10107421875,284.70947265625)"/>
<path d="M0 0 C1.50578613 -0.0076664 1.50578613 -0.0076664 3.04199219 -0.01548767 C6.35764543 -0.02937791 9.67309066 -0.0284272 12.98876953 -0.02612305 C15.29656044 -0.03001047 17.60435063 -0.03434523 19.91213989 -0.03910828 C24.74906737 -0.04656941 29.58592187 -0.04628008 34.42285156 -0.04101562 C40.61567552 -0.03522319 46.80820018 -0.0521473 53.00097466 -0.0753603 C57.76740257 -0.09010592 62.53375855 -0.09096816 67.30020523 -0.08785057 C69.58311684 -0.08836343 71.8660325 -0.0935945 74.14892197 -0.10366249 C77.34426964 -0.11602441 80.53903634 -0.10923611 83.734375 -0.09765625 C84.67382965 -0.10529999 85.6132843 -0.11294373 86.58120728 -0.12081909 C93.55044543 -0.06510838 98.29568161 1.05391785 103.80908203 5.5871582 C107.89010748 10.60098947 108.29107243 15.73799988 108.25727844 22.01036072 C108.26110399 22.77008905 108.26492954 23.52981737 108.26887101 24.31256777 C108.27915677 26.84809815 108.27521733 29.38340021 108.27124023 31.91894531 C108.27558914 33.74096383 108.28077289 35.56298053 108.28672791 37.38499451 C108.30010943 42.327121 108.30069755 47.26917098 108.29816461 52.21131206 C108.29709439 56.33908979 108.30197951 60.46685207 108.30677003 64.59462649 C108.31786213 74.33327839 108.31830418 84.07189171 108.31225586 93.81054688 C108.30621444 103.85348569 108.31853206 113.89628446 108.33982593 123.93919939 C108.35744414 132.56611904 108.36344296 141.19299411 108.36018819 149.81993109 C108.35837566 154.97049204 108.36100862 160.12095308 108.37490273 165.27149773 C108.38748011 170.11507111 108.38553776 174.95842619 108.37249184 179.80199623 C108.37012638 181.57771249 108.37285965 183.35344411 108.38111496 185.12914276 C108.39158677 187.55700518 108.38347867 189.98413565 108.37080383 192.41197205 C108.37817812 193.11120582 108.3855524 193.81043959 108.39315015 194.53086227 C108.32460828 200.79055448 106.670534 205.23877068 102.68408203 210.0871582 C96.9604244 214.74594929 90.93987393 214.57198994 83.89550781 214.56518555 C82.89311066 214.57190277 81.8907135 214.57862 80.85794067 214.58554077 C77.55254119 214.60449955 74.24734496 214.60844382 70.94189453 214.6105957 C68.63792844 214.6170247 66.33396316 214.62375314 64.02999878 214.63076782 C59.20324816 214.642735 54.37656909 214.64644917 49.54980469 214.64526367 C43.37384972 214.64506043 37.19835462 214.67237119 31.02250862 214.70680809 C26.26461695 214.72907608 21.506836 214.73310125 16.74889755 214.73204422 C14.47238453 214.73439999 12.19586845 214.74322209 9.91940689 214.75870895 C6.73142782 214.77836774 3.54444135 214.77253087 0.35644531 214.76049805 C-0.57784302 214.77173706 -1.51213135 214.78297607 -2.47473145 214.79455566 C-8.46172651 214.73731284 -13.00848842 213.68340393 -18.00341797 210.2746582 C-22.75704382 205.27725667 -23.23520412 200.86664424 -23.55761719 194.21606445 C-23.59972761 193.34832901 -23.64183804 192.48059357 -23.68522453 191.58656311 C-24.266151 177.94013386 -24.14906536 164.27214489 -24.13774347 150.61604691 C-24.13517059 146.52821033 -24.13757088 142.44037575 -24.13912964 138.35253906 C-24.14093719 131.49421784 -24.13858247 124.63590746 -24.13378906 117.77758789 C-24.1283492 109.90456364 -24.13011286 102.03156531 -24.13561547 94.15854168 C-24.14018723 87.33834712 -24.14077746 80.51816026 -24.1381768 73.69796467 C-24.13663618 69.65108632 -24.13635813 65.60422005 -24.13971329 61.55734253 C-24.15981979 32.84059849 -24.15981979 32.84059849 -23.68261719 20.52075195 C-23.6606534 19.74715836 -23.63868961 18.97356476 -23.61606026 18.17652893 C-23.32600091 12.30230444 -21.92960836 8.09947015 -17.62841797 4.0246582 C-11.76154464 0.11340932 -6.87039852 -0.01804005 0 0 Z " fill="#66D6F1" transform="translate(421.00341796875,284.725341796875)"/>
<path d="M0 0 C0 0.66 0 1.32 0 2 C0.680625 2.103125 1.36125 2.20625 2.0625 2.3125 C20.00014581 6.51067242 35.02704295 20.10449364 45 35 C45.41765625 35.60199219 45.8353125 36.20398438 46.265625 36.82421875 C57.23643723 54.10760152 59.90741726 77.83405944 56.3515625 97.60546875 C53.05598958 111.95179308 45.92186804 125.13984665 36 136 C35.41089844 136.680625 34.82179688 137.36125 34.21484375 138.0625 C20.97461675 152.4552733 0.55322355 161.38603052 -18.80078125 162.38671875 C-44.35678198 163.12361829 -65.77531094 155.42694799 -84.625 137.875 C-90.06714646 132.22804157 -94.04206858 125.72771189 -98 119 C-98.50660156 118.1440625 -99.01320312 117.288125 -99.53515625 116.40625 C-105.63187001 105.21961925 -107.84812524 92.61941168 -108 80 C-108.02449219 78.78054687 -108.04898438 77.56109375 -108.07421875 76.3046875 C-107.72721819 58.22413195 -100.92703617 42.17956533 -90 28 C-89.47664063 27.2884375 -88.95328125 26.576875 -88.4140625 25.84375 C-84.11737448 20.37975368 -78.45196195 16.24394706 -73 12 C-72.32195312 11.45601562 -71.64390625 10.91203125 -70.9453125 10.3515625 C-67.36094041 7.59557863 -64.52249707 6.33091442 -60 6 C-60 5.34 -60 4.68 -60 4 C-40.76337081 -4.12038035 -20.2211478 -5.54184801 0 0 Z " fill="#43C0EC" transform="translate(315,172)"/>
<path d="M0 0 C40.59 0 81.18 0 123 0 C122.21506247 4.70962521 121.5932566 7.34703396 119.62890625 11.45703125 C119.14220459 12.47869385 118.65550293 13.50035645 118.15405273 14.55297852 C117.62884033 15.62862061 117.10362793 16.7042627 116.5625 17.8125 C116.02117432 18.9274585 115.47984863 20.04241699 114.92211914 21.19116211 C89.28937942 73.35531029 89.28937942 73.35531029 74 81 C74 76.05 74 71.1 74 66 C68.72 66 63.44 66 58 66 C58 71.61 58 77.22 58 83 C62.95 83 67.9 83 73 83 C62.01520823 96.11309518 49.81222443 107.9110363 36 118 C34.84894983 118.85806152 33.69790823 119.71613451 32.546875 120.57421875 C26.56057489 124.98588355 20.42560276 129.08842103 14.0625 132.9375 C13.45994385 133.30311035 12.8573877 133.6687207 12.23657227 134.04541016 C8.21483851 136.42672185 4.35888562 138.13190616 0 140 C0 93.8 0 47.6 0 0 Z " fill="#65D6F1" transform="translate(51,318)"/>
<path d="M0 0 C2.64 0 5.28 0 8 0 C8 48.84 8 97.68 8 148 C-35.23 148 -78.46 148 -123 148 C-123 140 -123 140 -120.91137695 137.87353516 C-119.94675537 137.35065918 -118.98213379 136.8277832 -117.98828125 136.2890625 C-116.92617432 135.68908447 -115.86406738 135.08910645 -114.76977539 134.47094727 C-113.62887451 133.86178467 -112.48797363 133.25262207 -111.3125 132.625 C-109.0018386 131.31974956 -106.69450656 130.00858678 -104.390625 128.69140625 C-103.28009766 128.06121582 -102.16957031 127.43102539 -101.02539062 126.78173828 C-95.23872109 123.3738046 -90.15832749 119.28455434 -85 115 C-83.33336442 113.70829322 -81.66669864 112.41662541 -80 111.125 C-70.06050243 103.13124421 -59.66612527 94.22150036 -52 84 C-58.93 83.505 -58.93 83.505 -66 83 C-66 77.39 -66 71.78 -66 66 C-60.39 66 -54.78 66 -49 66 C-48.505 72.93 -48.505 72.93 -48 80 C-27.85450493 55.78254317 -12.23007124 29.00722024 0 0 Z " fill="#53C9E9" transform="translate(521,318)"/>
<path d="M0 0 C1.00239716 -0.00671722 2.00479431 -0.01343445 3.03756714 -0.02035522 C6.34296662 -0.039314 9.64816285 -0.04325827 12.95361328 -0.04541016 C15.25757937 -0.05183915 17.56154465 -0.05856759 19.86550903 -0.06558228 C24.69225965 -0.07754946 29.51893872 -0.08126363 34.34570312 -0.08007812 C40.52165809 -0.07987488 46.6971532 -0.10718564 52.87299919 -0.14162254 C57.63089087 -0.16389053 62.38867181 -0.1679157 67.14661026 -0.16685867 C69.42312328 -0.16921444 71.69963936 -0.17803654 73.97610092 -0.19352341 C77.16407999 -0.2131822 80.35106646 -0.20734532 83.5390625 -0.1953125 C84.940495 -0.21217102 84.940495 -0.21217102 86.37023926 -0.22937012 C92.35723432 -0.17212729 96.90399623 0.88178162 101.89892578 4.29052734 C110.0738856 12.88471587 107.25074007 19.67862731 107.89892578 33.29052734 C64.33892578 33.29052734 20.77892578 33.29052734 -24.10107422 33.29052734 C-24.10107422 9.37160842 -24.10107422 9.37160842 -18.78857422 3.91552734 C-12.62625706 0.18947511 -7.00090675 -0.00676242 0 0 Z " fill="#CBCCCC" transform="translate(75.10107421875,284.70947265625)"/>
<path d="M0 0 C1.50578613 -0.0076664 1.50578613 -0.0076664 3.04199219 -0.01548767 C6.35764543 -0.02937791 9.67309066 -0.0284272 12.98876953 -0.02612305 C15.29656044 -0.03001047 17.60435063 -0.03434523 19.91213989 -0.03910828 C24.74906737 -0.04656941 29.58592187 -0.04628008 34.42285156 -0.04101562 C40.61567552 -0.03522319 46.80820018 -0.0521473 53.00097466 -0.0753603 C57.76740257 -0.09010592 62.53375855 -0.09096816 67.30020523 -0.08785057 C69.58311684 -0.08836343 71.8660325 -0.0935945 74.14892197 -0.10366249 C77.34426964 -0.11602441 80.53903634 -0.10923611 83.734375 -0.09765625 C84.67382965 -0.10529999 85.6132843 -0.11294373 86.58120728 -0.12081909 C93.55044543 -0.06510838 98.29568161 1.05391785 103.80908203 5.5871582 C110.51498495 13.82583893 107.99658203 22.56287376 107.99658203 33.2746582 C64.43658203 33.2746582 20.87658203 33.2746582 -24.00341797 33.2746582 C-22.84593765 8.96757159 -22.84593765 8.96757159 -17.62841797 4.0246582 C-11.76154464 0.11340932 -6.87039852 -0.01804005 0 0 Z " fill="#CBCCCC" transform="translate(421.00341796875,284.725341796875)"/>
<path d="M0 0 C43.56 0 87.12 0 132 0 C132 22.35135135 132 22.35135135 126.6875 28.8125 C120.96384237 33.47129109 114.9432919 33.29733174 107.89892578 33.29052734 C106.89652863 33.29724457 105.89413147 33.30396179 104.86135864 33.31088257 C101.55595916 33.32984134 98.25076293 33.33378561 94.9453125 33.3359375 C92.64134641 33.3423665 90.33738113 33.34909493 88.03341675 33.35610962 C83.20666613 33.3680768 78.37998706 33.37179097 73.55322266 33.37060547 C67.37726769 33.37040223 61.20177258 33.39771298 55.02592659 33.43214989 C50.26803491 33.45441787 45.51025397 33.45844304 40.75231552 33.45738602 C38.4758025 33.45974178 36.19928642 33.46856389 33.92282486 33.48405075 C30.73484579 33.50370954 27.54785932 33.49787267 24.35986328 33.48583984 C23.42557495 33.49707886 22.49128662 33.50831787 21.52868652 33.51989746 C15.54169146 33.46265463 10.99492955 32.40874573 6 29 C-2.17495982 20.40581147 0.64818572 13.61190004 0 0 Z " fill="#CBCBCC" transform="translate(397,466)"/>
<path d="M0 0 C43.56 0 87.12 0 132 0 C130.84251969 24.30708661 130.84251969 24.30708661 125.625 29.25 C119.75812668 33.16124888 114.86698055 33.29269825 107.99658203 33.2746582 C106.99272461 33.27976913 105.98886719 33.28488007 104.95458984 33.29014587 C101.6389366 33.30403611 98.32349137 33.30308541 95.0078125 33.30078125 C92.70002159 33.30466867 90.3922314 33.30900344 88.08444214 33.31376648 C83.24751466 33.32122761 78.41066017 33.32093829 73.57373047 33.31567383 C67.38090652 33.30988139 61.18838185 33.3268055 54.99560738 33.3500185 C50.22917947 33.36476412 45.46282348 33.36562636 40.6963768 33.36250877 C38.4134652 33.36302163 36.13054953 33.3682527 33.84766006 33.37832069 C30.65231239 33.39068261 27.45754569 33.38389431 24.26220703 33.37231445 C23.32275238 33.37995819 22.38329773 33.38760193 21.41537476 33.39547729 C14.44613661 33.33976658 9.70090043 32.22074035 4.1875 27.6875 C-2.51840292 19.44881927 0 10.71178444 0 0 Z " fill="#CBCBCC" transform="translate(51,466)"/>
<path d="M0 0 C3.63303084 1.69586126 5.94549046 3.73800488 8.75 6.625 C9.54921875 7.44226563 10.3484375 8.25953125 11.171875 9.1015625 C11.77515625 9.72804688 12.3784375 10.35453125 13 11 C12.06409496 12.1055189 11.12620142 13.20935453 10.1875 14.3125 C9.40439453 15.23482422 9.40439453 15.23482422 8.60546875 16.17578125 C7.13668249 17.84469411 5.57203741 19.42796259 4 21 C58.45 21.495 58.45 21.495 114 22 C114 27.61 114 33.22 114 39 C59.55 39.495 59.55 39.495 4 40 C6.64 42.64 9.28 45.28 12 48 C10.878962 52.48415202 9.70153664 53.6238804 6.4375 56.75 C5.61121094 57.54921875 4.78492188 58.3484375 3.93359375 59.171875 C3.29550781 59.77515625 2.65742188 60.3784375 2 61 C-1.90433414 59.39498772 -4.65704043 56.73212004 -7.640625 53.8359375 C-8.16767029 53.32503571 -8.69471558 52.81413391 -9.23773193 52.28775024 C-10.34666068 51.20640791 -11.45258171 50.1219736 -12.55566406 49.03466797 C-13.68354256 47.9298671 -14.82030923 46.8340664 -15.96582031 45.74755859 C-17.62753064 44.17137045 -19.26093909 42.5701402 -20.890625 40.9609375 C-21.40304749 40.48353119 -21.91546997 40.00612488 -22.44342041 39.51425171 C-25.1631455 36.76049344 -26.34701125 34.67068846 -26.49926758 30.86962891 C-26.00494079 27.03829414 -25.76957839 25.77081748 -23.12109375 23.125 C-22.48155762 22.46628906 -21.84202148 21.80757813 -21.18310547 21.12890625 C-20.46268066 20.42636719 -19.74225586 19.72382813 -19 19 C-18.22156738 18.20464844 -17.44313477 17.40929687 -16.64111328 16.58984375 C-14.13598693 14.03787879 -11.60366716 11.51604536 -9.0625 9 C-8.18787109 8.12988281 -7.31324219 7.25976562 -6.41210938 6.36328125 C-4.27702551 4.23986451 -2.13962795 2.11883622 0 0 Z " fill="#109FD2" transform="translate(242,419)"/>
<path d="M0 0 C3.88001126 1.58093516 6.49653127 4.22273506 9.38671875 7.15625 C9.88919632 7.65918579 10.39167389 8.16212158 10.90937805 8.68029785 C11.96645919 9.74039085 13.02111813 10.80290404 14.07348633 11.86767578 C15.68713491 13.49963077 17.30869291 15.12339153 18.93164062 16.74609375 C19.95880735 17.77817429 20.98551616 18.81071081 22.01171875 19.84375 C22.73979988 20.57350037 22.73979988 20.57350037 23.48258972 21.31799316 C26.72748715 24.6091529 27.89217782 26.04018103 28.41796875 30.72070312 C28.35150595 34.99406857 26.99972072 36.91009179 24.03588867 39.8704834 C23.46717041 40.39791138 22.89845215 40.92533936 22.3125 41.46875 C21.73540283 42.03452759 21.15830566 42.60030518 20.5637207 43.18322754 C18.72714694 44.97523391 16.86470858 46.73733536 15 48.5 C13.74557772 49.71427041 12.49295134 50.93039903 11.2421875 52.1484375 C8.18183262 55.12087493 5.09797409 58.06681176 2 61 C-1.31115963 59.42400077 -3.66702538 57.68825694 -6.3125 55.125 C-7.03050781 54.44695312 -7.74851562 53.76890625 -8.48828125 53.0703125 C-9.23658203 52.04550781 -9.23658203 52.04550781 -10 51 C-9 47 -9 47 -2 40 C-38.3 39.67 -74.6 39.34 -112 39 C-112 33.39 -112 27.78 -112 22 C-75.7 21.67 -39.4 21.34 -2 21 C-4.97 18.03 -7.94 15.06 -11 12 C-7.47412292 7.81814579 -3.92446674 3.80904125 0 0 Z " fill="#10A0D2" transform="translate(336,353)"/>
<path d="M0 0 C1.39605469 0.61294922 1.39605469 0.61294922 2.8203125 1.23828125 C25.12295285 11.57436131 41.13306925 30.70507222 50.3203125 53.23828125 C53.76018435 63.06102642 55.40608498 72.59971241 55 83 C52.36 83 49.72 83 47 83 C46.89042969 82.01 46.78085937 81.02 46.66796875 80 C45.83954851 72.94546993 44.83014748 66.56594214 42 60 C41.55377476 58.58605738 41.1167883 57.16917661 40.6875 55.75 C37.45771017 46.04389584 32.55364716 37.79554833 26 30 C25.38382813 29.18144531 24.76765625 28.36289063 24.1328125 27.51953125 C15.57552626 17.41064915 1.60171485 9.57048587 -11 6 C-11 5.34 -11 4.68 -11 4 C-11.67546875 3.93941406 -12.3509375 3.87882813 -13.046875 3.81640625 C-13.93890625 3.73261719 -14.8309375 3.64882812 -15.75 3.5625 C-16.63171875 3.48128906 -17.5134375 3.40007812 -18.421875 3.31640625 C-21 3 -21 3 -22.90332031 2.49072266 C-36.94479509 -0.79564953 -53.07381802 2.82281311 -66.3828125 7.1953125 C-69 8 -69 8 -71 8 C-71 8.66 -71 9.32 -71 10 C-71.53367188 10.1959375 -72.06734375 10.391875 -72.6171875 10.59375 C-79.39061449 13.31249578 -84.46751405 17.31021058 -90 22 C-90.84304687 22.64839844 -91.68609375 23.29679687 -92.5546875 23.96484375 C-96.71473682 27.42712122 -99.78014466 31.67619426 -103 36 C-103.93779297 37.25490234 -103.93779297 37.25490234 -104.89453125 38.53515625 C-109.45744934 45.12603794 -111.8085249 51.76456433 -113.95703125 59.3984375 C-115 63 -115 63 -116.06640625 65.48828125 C-117.31916798 68.85868205 -117.71068698 72.2636713 -118.125 75.8125 C-118.21136719 76.50537109 -118.29773438 77.19824219 -118.38671875 77.91210938 C-118.59716081 79.60733706 -118.79941672 81.30357755 -119 83 C-121.64 83 -124.28 83 -127 83 C-128.37378867 61.37554873 -119.24015599 41.31498414 -105.56640625 25.1171875 C-103.4193832 22.69870177 -101.24332482 20.32911162 -99 18 C-98.29488281 17.24847656 -97.58976562 16.49695313 -96.86328125 15.72265625 C-95 14 -95 14 -93 14 C-93 13.34 -93 12.68 -93 12 C-91.68 11.67 -90.36 11.34 -89 11 C-89 10.34 -89 9.68 -89 9 C-64.37092567 -9.21803546 -27.70699467 -12.96828984 0 0 Z " fill="#1FA65B" transform="translate(326,168)"/>
<path d="M0 0 C1.03125 0.391875 2.0625 0.78375 3.125 1.1875 C8.6602759 3.46243757 13.26947694 7.40683087 18 11 C19.14082031 11.76183594 19.14082031 11.76183594 20.3046875 12.5390625 C22 14 22 14 22.4375 17.375 C21.97230687 21.22945734 21.61451363 23.13246893 19 26 C15.36092617 27.0782441 13.13642874 27.50840233 9.625 25.9375 C8.75875 25.298125 7.8925 24.65875 7 24 C-5.99140292 14.61283723 -19.0680002 10.1019607 -35.0859375 12.28417969 C-44.90614038 14.01197953 -54.5270841 17.25681665 -61.58203125 24.66015625 C-64.07419791 27.01501345 -66.6924622 26.88594697 -70 27 C-72.94755732 25.65437601 -74.54277272 24.91445456 -76 22 C-76.79860667 18.55984818 -77.08828738 17.25944776 -76 14 C-58.79453107 -5.38224403 -22.85803286 -14.32436726 0 0 Z " fill="#048DBD" transform="translate(317,208)"/>
<path d="M0 0 C0 0.66 0 1.32 0 2 C1.1446875 2.37125 1.1446875 2.37125 2.3125 2.75 C5.37480696 4.17432882 6.52390425 4.96580319 8 8 C7.88067077 11.40088303 7.64141645 13.93097259 5.875 16.875 C2.76839286 18.73896428 0.64143368 19 -3 19 C-5.37299163 17.92214204 -7.52677127 16.63330496 -9.75390625 15.28125 C-16.75960031 11.28495843 -25.64123432 10.81588565 -33.421875 12.53515625 C-37.23786775 13.73916776 -40.62865838 15.31728141 -44.125 17.25 C-47.12205138 18.79937387 -48.24045725 19.00394192 -51.8125 19.0625 C-55 18 -55 18 -57 15.875 C-58.35682044 11.97414125 -58.24821146 9.95266964 -57 6 C-45.37161523 -9.36741524 -15.19723615 -10.13149077 0 0 Z " fill="#048EBE" transform="translate(315,241)"/>
<path d="M0 0 C12.03181083 6.10209317 22.92837357 15.86528471 27.6015625 28.6953125 C28.04242188 30.04882812 28.04242188 30.04882812 28.4921875 31.4296875 C29.26875923 33.91937058 29.26875923 33.91937058 30.4375 35.9921875 C32.08520173 39.5129177 31.90928126 43.15282491 31.3515625 46.9453125 C29.31845686 50.07316733 27.94894835 50.75465744 24.4140625 51.8828125 C20.53637133 51.96194905 19.21967773 51.58087785 16.3515625 48.9453125 C15.46222536 46.87170499 14.8494906 44.78454693 14.22265625 42.6171875 C9.99407262 29.64700272 3.18458213 21.00667616 -8.90234375 14.78515625 C-10.23392617 14.14020933 -11.5729533 13.51019118 -12.921875 12.90234375 C-14.91473976 11.79770152 -16.21540055 10.71934318 -17.6484375 8.9453125 C-18.29887998 2.87451604 -18.29887998 2.87451604 -16.3359375 0.0703125 C-11.19222113 -3.35883175 -5.44015031 -2.16643154 0 0 Z " fill="#48D08E" transform="translate(348.6484375,51.0546875)"/>
<path d="M0 0 C4.15109683 2.08840011 7.71860785 4.71860785 11 8 C11.625 10.5625 11.625 10.5625 12 14 C12.15082031 15.04607422 12.15082031 15.04607422 12.3046875 16.11328125 C12.72834348 21.01921753 12.00269426 23.62449125 8.8125 27.4375 C5.4582296 31.05485043 2.32089193 32.83568907 -2.6484375 33.1875 C-8.68083 32.77266499 -12.28311558 31.82963325 -16.66015625 27.5703125 C-20.56691976 22.9915401 -20.43141383 19.74259745 -20 14 C-19.11162317 8.17619633 -17.11297891 5.69545363 -12.65625 2.1640625 C-8.64287721 -0.65665706 -4.77147774 -0.80509454 0 0 Z " fill="#038DBD" transform="translate(294,268)"/>
<path d="M0 0 C5.28 0 10.56 0 16 0 C16 5.28 16 10.56 16 16 C10.72 16 5.44 16 0 16 C0 10.72 0 5.44 0 0 Z " fill="#099DD1" transform="translate(488,384)"/>
<path d="M0 0 C5.28 0 10.56 0 16 0 C16 5.28 16 10.56 16 16 C10.72 16 5.44 16 0 16 C0 10.72 0 5.44 0 0 Z " fill="#099DD1" transform="translate(455,384)"/>
<path d="M0 0 C5.28 0 10.56 0 16 0 C16 5.28 16 10.56 16 16 C10.72 16 5.44 16 0 16 C0 10.72 0 5.44 0 0 Z " fill="#099DD1" transform="translate(422,384)"/>
<path d="M0 0 C5.28 0 10.56 0 16 0 C16 5.28 16 10.56 16 16 C10.72 16 5.44 16 0 16 C0 10.72 0 5.44 0 0 Z " fill="#099DD1" transform="translate(142,384)"/>
<path d="M0 0 C5.28 0 10.56 0 16 0 C16 5.28 16 10.56 16 16 C10.72 16 5.44 16 0 16 C0 10.72 0 5.44 0 0 Z " fill="#099DD1" transform="translate(109,384)"/>
<path d="M0 0 C5.28 0 10.56 0 16 0 C16 5.28 16 10.56 16 16 C10.72 16 5.44 16 0 16 C0 10.72 0 5.44 0 0 Z " fill="#099DD1" transform="translate(76,384)"/>
<path d="M0 0 C0.66 0.33 1.32 0.66 2 1 C-1.7321605 5.45627659 -5.60961122 9.6652313 -9.8046875 13.69140625 C-10.63484375 14.49126953 -11.465 15.29113281 -12.3203125 16.11523438 C-14.03763792 17.7603481 -15.76440562 19.39565601 -17.5 21.02148438 C-22.66928498 25.7523364 -22.66928498 25.7523364 -25.0703125 32.08984375 C-25.04710937 33.05019531 -25.02390625 34.01054687 -25 35 C-25.33 35 -25.66 35 -26 35 C-26.84203458 28.26372335 -26.84203458 28.26372335 -24.77539062 25.16210938 C-23.94297852 24.26202148 -23.94297852 24.26202148 -23.09375 23.34375 C-22.45816162 22.65345703 -21.82257324 21.96316406 -21.16772461 21.25195312 C-17.18483118 17.11430147 -13.1435809 13.04073561 -9.0625 9 C-8.18787109 8.12988281 -7.31324219 7.25976562 -6.41210938 6.36328125 C-4.27702551 4.23986451 -2.13962795 2.11883622 0 0 Z " fill="#42B3DB" transform="translate(242,419)"/>
<path d="M0 0 C0.66 0.33 1.32 0.66 2 1 C-3.05352742 6.96348734 -8.41711741 12.53105379 -14 18 C-14 13.95983547 -12.53130788 13.0433941 -9.8125 10.125 C-8.99523437 9.24328125 -8.17796875 8.3615625 -7.3359375 7.453125 C-4.92833066 4.92473521 -2.50872566 2.42779902 0 0 Z " fill="#51CB88" transform="translate(271,38)"/>
<path d="M0 0 C0.66 0.33 1.32 0.66 2 1 C1.51789063 1.53109375 1.03578125 2.0621875 0.5390625 2.609375 C-0.09257812 3.31578125 -0.72421875 4.0221875 -1.375 4.75 C-2.00148438 5.44609375 -2.62796875 6.1421875 -3.2734375 6.859375 C-4.88443812 8.85672418 -5.95290044 10.67093742 -7 13 C-7.33 13.66 -7.66 14.32 -8 15 C-8.99 13.68 -9.98 12.36 -11 11 C-7.37 7.37 -3.74 3.74 0 0 Z " fill="#4DB8DE" transform="translate(336,353)"/>
<path d="M0 0 C0.66 0.33 1.32 0.66 2 1 C-2.29 5.29 -6.58 9.58 -11 14 C-11.66 13.67 -12.32 13.34 -13 13 C-9.13242719 8.04467233 -4.81123996 4.03523352 0 0 Z " fill="#3DBDD7" transform="translate(239,186)"/>
<path d="M0 0 C0.66 0.33 1.32 0.66 2 1 C0.71451591 2.33929505 -0.57858155 3.67128643 -1.875 5 C-2.59429687 5.7425 -3.31359375 6.485 -4.0546875 7.25 C-6 9 -6 9 -8 9 C-6.90101298 5.70303895 -6.05402613 4.95329411 -3.4375 2.8125 C-2.79683594 2.28269531 -2.15617188 1.75289062 -1.49609375 1.20703125 C-0.75552734 0.60955078 -0.75552734 0.60955078 0 0 Z " fill="#1097C6" transform="translate(249,215)"/>
</svg>
