<?xml version="1.0" standalone="yes"?>
<svg xmlns="http://www.w3.org/2000/svg" width="360" height="360">
<path style="fill:#000000; stroke:none;" d="M0 0L0 360L360 360L360 0L0 0z"/>
<path style="fill:#5194c3; stroke:none;" d="M201 6L200 8L202 8C202 6.14676 202.3 6.64987 201 6z"/>
<path style="fill:#0058a4; stroke:none;" d="M200 8C197.927 10.9287 196.129 13.5881 195 17C198.632 17 197 27.7108 197 31C198.582 27.2298 197.765 23.0275 198.289 19C198.767 15.3315 200.348 11.6626 200 8z"/>
<path style="fill:#5194c3; stroke:none;" d="M200 9L201 10L200 9M198 10L199 11L198 10M199 12L200 13L199 12M194 16L195 17L194 16z"/>
<path style="fill:#0868ac; stroke:none;" d="M196 16C191.892 19.2861 192.374 27.5038 191 33C189.773 37.9088 189.832 43.7453 191 49C191.211 49.9505 192.922 52.0586 193 53C193.123 54.4746 191.526 54.5769 192 56C195.5 66.4993 204.586 76.9398 214 84C215.853 85.3898 218.83 87.0354 221 88C222.115 88.4955 223.837 87.6123 225 88C227.025 88.675 228.949 90.3163 231 91C233.631 91.8771 236.597 91.5583 239 93L238 94C252.581 92.1572 278.654 96.0347 284 77L273 80L274 82C266.612 82.5831 259.435 83 252 83L253 81C231.32 79.2747 209.998 63.2748 202.068 43C200.235 38.3127 198.139 32.8682 197.259 27.9105C196.546 23.8888 197.6 19.8139 196 16z"/>
<path style="fill:#5194c3; stroke:none;" d="M198 17L199 18L198 17M193 18L194 19L193 18z"/>
<path style="fill:#0868ac; stroke:none;" d="M150 19L151 20L150 19z"/>
<path style="fill:#0058a4; stroke:none;" d="M193 19C188.932 31.5051 187.972 42.2986 192 55C193.519 49.8663 190.177 43.446 190.179 38C190.181 31.8985 194.685 24.6982 193 19z"/>
<path style="fill:#5194c3; stroke:none;" d="M149.667 20.3333C149.222 20.7779 150.278 20.7221 150.333 20.6667C150.778 20.2224 149.722 20.2777 149.667 20.3333M192 20L193 21L192 20z"/>
<path style="fill:#0058a4; stroke:none;" d="M149 21C146.68 24.2416 144.434 27.2712 143 31C145.351 31 144.935 31.6524 145 34C147.143 30.4964 149.342 25.1059 149 21z"/>
<path style="fill:#5194c3; stroke:none;" d="M149 22L150 23L149 22M147 23L148 24L147 23M191 23L192 24L191 23M190 26L191 27L190 26M144 27L145 28L144 27M147 27L148 28L147 27M142 30L143 31L142 30z"/>
<path style="fill:#0868ac; stroke:none;" d="M144 30C132.181 40.5915 131.045 56.3489 130.999 71C130.982 76.4749 130.348 81.5647 131.45 87C132.99 94.5922 136.449 100.169 139.738 107.001C141.495 110.651 142.563 114.54 144.714 118C157.077 137.89 182.025 155.904 206 157L205 159C213.693 159.067 222.265 160.665 231 159.83C258.15 157.236 289.636 142.433 298 114C293.407 117.499 289.633 121.964 285 125.497C275.002 133.12 261.674 138.737 249 139L250 141C207.655 141 164.027 117.858 149.345 76C146.334 67.4169 144.029 58.1632 144.029 49C144.029 42.7797 146.929 35.8309 144 30z"/>
<path style="fill:#5194c3; stroke:none;" d="M189.333 30.6667C189.278 30.7221 189.222 31.7778 189.667 31.3333C189.722 31.2777 189.778 30.2223 189.333 30.6667M198 30L199 31L198 30M146 31L147 32L146 31M140 33L141 34L140 33M145.333 35.6667C145.278 35.7221 145.222 36.7778 145.667 36.3333C145.722 36.2777 145.778 35.2222 145.333 35.6667M199 35L200 36L199 35M138 36L139 37L138 36M137 38L138 39L137 38z"/>
<path style="fill:#0868ac; stroke:none;" d="M89 40L90 41L89 40z"/>
<path style="fill:#0058a4; stroke:none;" d="M88 41C85.5699 44.6781 82.7262 47.9219 81 52C82.4162 51.5279 82.8137 51.1863 84 50C82.7593 56.0141 81.1275 61.8239 81 68C83.4713 62.8593 84.0461 56.5022 85.7207 51C86.7261 47.6966 88.5997 44.4206 88 41z"/>
<path style="fill:#5194c3; stroke:none;" d="M87 42L88 43L87 42M135 42L136 43L135 42M88 43L89 44L88 43M144.333 43.6667C144.278 43.7222 144.222 44.7778 144.667 44.3333C144.722 44.2777 144.778 43.2222 144.333 43.6667M189.333 44.6667C189.278 44.7221 189.222 45.7778 189.667 45.3333C189.722 45.2777 189.778 44.2223 189.333 44.6667M202 44L203 45L202 44M87 45L88 46L87 45M203 46L204 47L203 46M83 47L84 48L83 47M133 47L134 48L133 47M86 48L87 49L86 48M204 48L205 49L204 48z"/>
<path style="fill:#0868ac; stroke:none;" d="M83 50C62.4643 67.0775 63.0611 93.7787 60 118C61.2997 117.35 61 117.853 61 116C64.3059 127.081 63.3501 139.148 68.0926 149.91C85.1627 188.647 118.312 222.371 161 231.761C168.797 233.476 177.993 233 186 233L184 234C189.991 236.514 197.711 234.583 204.015 234.064C218.983 232.831 230.746 228.253 244 221.757C253.748 216.979 262.062 212.738 270 204.985C276.288 198.844 284.788 191.112 286 182C278.141 186.512 271.092 192.88 263 196.737C257.97 199.134 252.338 199.76 247.09 201.612C239.984 204.12 234.695 206.407 227 205C227 208.106 223.647 207 221 207L201 207L202 205C186.138 204.869 170.048 199.271 156 192.247C121.078 174.786 92.7467 142.475 83.8873 104C81.8789 95.2773 79.0811 84.994 80.1289 76.0394C80.7047 71.1183 80.9346 65.8721 81.8086 61C82.4664 57.3333 84.0982 53.6166 83 50z"/>
<path style="fill:#5194c3; stroke:none;" d="M132 50L133 51L132 50M190 50L191 51L190 50M80 51L81 52L80 51M85 51L86 52L85 51M79 52L80 53L79 52M144.333 53.6667C144.278 53.7221 144.222 54.7778 144.667 54.3333C144.722 54.2777 144.778 53.2223 144.333 53.6667M191 53L192 54L191 53M207 53L208 54L207 53M131 54L132 55L131 54M76 56L77 57L76 56M192 56L193 57L192 56M209 56L210 57L209 56M210 57L211 58L210 57M83.3333 58.6667C83.2777 58.7223 83.2222 59.7778 83.6667 59.3333C83.7222 59.2778 83.7778 58.2222 83.3333 58.6667M193 58L194 59L193 58M130 59L131 60L130 59M73 60L74 61L73 60z"/>
<path style="fill:#0058a4; stroke:none;" d="M130 62L130 79C131.883 74.5135 131.883 66.4865 130 62z"/>
<path style="fill:#5194c3; stroke:none;" d="M145 62L146 63L145 62M82.3333 63.6667C82.2777 63.7223 82.2223 64.7777 82.6667 64.3333C82.7221 64.2779 82.7778 63.2221 82.3333 63.6667M196 64L197 65L196 64M70 65L71 66L70 65M69 67L70 68L69 67M146 67L147 68L146 67M198 67L199 68L198 67M221 68L222 69L221 68M68 69L69 70L68 69M129 69L129 72C129.696 70.4463 129.696 70.5537 129 69M291 69L292 70L291 69M200 70L201 71L200 70z"/>
<path style="fill:#0868ac; stroke:none;" d="M290 70L291 71L290 70z"/>
<path style="fill:#5194c3; stroke:none;" d="M67 71L68 72L67 71M201 71L202 72L201 71M225 71L226 72L225 71z"/>
<path style="fill:#0058a4; stroke:none;" d="M289 71L283 76L284 79C286.657 76.829 289.181 74.5596 289 71M80 72L80 89C81.8826 84.5135 81.8826 76.4865 80 72z"/>
<path style="fill:#5194c3; stroke:none;" d="M81.3333 72.6667C81.2777 72.7223 81.2223 73.7777 81.6667 73.3333C81.7222 73.2779 81.7778 72.2222 81.3333 72.6667M232 75L233 76L232 75M287 75L288 76L287 75M65 76L66 77L65 76M237 77L238 78L237 77z"/>
<path style="fill:#0058a4; stroke:none;" d="M65 78C61.0803 90.2582 60 102.205 60 115C63.0108 107.825 61.5541 97.7929 63.2106 90C64.0386 86.105 66.1469 81.8768 65 78z"/>
<path style="fill:#5194c3; stroke:none;" d="M240 78L241 79L240 78M64 79L65 80L64 79M150 79L151 80L150 79M243 79L244 80L243 79M276 79L277 80L276 79M283 80L284 81L283 80M130.333 81.6667C130.278 81.7221 130.222 82.7779 130.667 82.3333C130.722 82.2777 130.778 81.2222 130.333 81.6667M151 81L152 82L151 81M211 81L212 82L211 81M253 81C254.248 81.6848 254.548 81.7488 256 82C254.752 81.3152 254.452 81.2512 253 81M267.667 81.3333C267.222 81.7777 268.278 81.7222 268.333 81.6667C268.778 81.2222 267.722 81.2778 267.667 81.3333z"/>
<path style="fill:#0058a4; stroke:none;" d="M252 82C258.379 84.6766 267.307 82.8459 274 82C268.235 79.7498 258.386 82 252 82z"/>
<path style="fill:#5194c3; stroke:none;" d="M282 81L283 82L282 81M63 82L64 83L63 82M281 82L282 83L281 82M215 84L216 85L215 84M62 86L63 87L62 86M276 86L277 87L276 86M81.3333 87.6667C81.2777 87.7223 81.2223 88.7777 81.6667 88.3333C81.7222 88.2778 81.7778 87.2222 81.3333 87.6667M131 87L132 88L131 87M220 87L221 88L220 87M222 88L223 89L222 88z"/>
<path style="fill:#0058a4; stroke:none;" d="M223 88C227.528 91.6546 233.273 92.878 239 93C234.257 90.702 228.204 88.8954 223 88z"/>
<path style="fill:#5194c3; stroke:none;" d="M155 89L156 90L155 89M224 89L225 90L224 89M271 89L272 90L271 89M269 90L270 91L269 90M61 91L62 92L61 91M132 91L133 92L132 91M156 91L157 92L156 91M229 91L230 92L229 91M266 91L267 92L266 91M232 92L233 93L232 92M263 92L264 93L263 92M237 93L238 94L237 93z"/>
<path style="fill:#0058a4; stroke:none;" d="M241 93C245.724 94.9822 251.91 94 257 94C252.276 92.0178 246.09 93 241 93z"/>
<path style="fill:#5194c3; stroke:none;" d="M259 93L260 94L259 93M133 94L134 95L133 94M158 94L159 95L158 94M246 94C248.052 94.8743 249.747 94.9528 252 95C249.948 94.1258 248.253 94.0472 246 94M82 96L83 97L82 96M60.3333 97.6667C60.2778 97.7222 60.2222 98.7778 60.6667 98.3333C60.7222 98.2778 60.7778 97.2222 60.3333 97.6667M160 97L161 98L160 97M135 100L136 101L135 100z"/>
<path style="fill:#0058a4; stroke:none;" d="M136 100C136.787 104.413 138.752 108.148 141 112C141.696 107.82 138.623 103.165 136 100z"/>
<path style="fill:#5194c3; stroke:none;" d="M83.3333 101.667C83.2777 101.722 83.2223 102.778 83.6667 102.333C83.7221 102.278 83.7778 101.222 83.3333 101.667M163 101L164 102L163 101M84 106L85 107L84 106M167 106L168 107L167 106M168 107L169 108L168 107M169 108L170 109L169 108M170 109L171 110L170 109M85 110L86 111L85 110M171 110L172 111L171 110M172 111L173 112L172 111M141 112L142 113L141 112M173 112L174 113L173 112M298 112L299 113L298 112M86 113L87 114L86 113M174 113L175 114L174 113z"/>
<path style="fill:#0868ac; stroke:none;" d="M298 113L299 114L298 113z"/>
<path style="fill:#0058a4; stroke:none;" d="M61 116C61.0008 123.665 62.4596 130.533 64 138C65.7944 132.984 63.0934 120.943 61 116z"/>
<path style="fill:#5194c3; stroke:none;" d="M87 116L88 117L87 116M60 118L60 121C60.6961 119.446 60.6961 119.554 60 118M180 118L181 119L180 118M293 118L294 119L293 118M88 119L89 120L88 119M292 119L293 120L292 119M291 120L292 121L291 120M184 121L185 122L184 121M294 121L295 122L294 121M187 123L188 124L187 123M293 123L294 124L293 123M90 124L91 125L90 124M149 124L150 125L149 124M286 124L287 125L286 124M150 125L151 126L150 125M190 125L191 126L190 125M285 125L286 126L285 125M61 126L62 127L61 126M91 126L92 127L91 126M291 126L292 127L291 126M282 127L283 128L282 127M279 129L280 130L279 129M277 130L278 131L277 130M288 130L289 131L288 130M62 131L63 132L62 131M204 132L205 133L204 132M271 133L272 134L271 133M209 134L210 135L209 134M63 135L64 136L63 135M212 135L213 136L212 135M266 135L267 136L266 135M284 135L285 136L284 135M96 136L97 137L96 136M161 136L162 137L161 136M216 136L217 137L216 136M263 136L264 137L263 136M283 136L284 137L283 136M162 137L163 138L162 137M220 137L221 138L220 137M259 137L260 138L259 137M282 137L283 138L282 137M97 138L98 139L97 138M224.667 138.333C224.222 138.778 225.278 138.722 225.333 138.667C225.778 138.222 224.722 138.278 224.667 138.333M254.667 138.333C254.222 138.778 255.278 138.722 255.333 138.667C255.778 138.222 254.722 138.278 254.667 138.333M281 138L282 139L281 138M64 139L65 140L64 139M232 139C233.248 139.685 233.549 139.749 235 140C233.752 139.315 233.452 139.251 232 139M245 139C246.506 139.683 247.315 139.826 249 140C247.494 139.317 246.685 139.174 245 139M280 139L281 140L280 139M166 140L167 141L166 140z"/>
<path style="fill:#0058a4; stroke:none;" d="M232 140C237.222 142.191 244.368 141 250 141C244.778 138.809 237.632 140 232 140z"/>
<path style="fill:#5194c3; stroke:none;" d="M99 141L100 142L99 141M167 141L168 142L167 141M65 142L66 143L65 142M170 143L171 144L170 143M275 143L276 144L275 143M274 144L275 145L274 144M66 145L67 146L66 145M173 145L174 146L173 145M271 146L272 147L271 146M103 147L104 148L103 147M176 147L177 148L176 147M67 148L68 149L67 148M178 148L179 149L178 148M268 148L269 149L268 148M266 149L267 150L266 149M105 150L106 151L105 150M186 152L187 153L186 152M69 153L70 154L69 153z"/>
<path style="fill:#0058a4; stroke:none;" d="M70 153C70.9061 158.083 73.4136 162.569 76 167C76.7665 162.398 72.8892 156.487 70 153z"/>
<path style="fill:#5194c3; stroke:none;" d="M188 153L189 154L188 153z"/>
<path style="fill:#0058a4; stroke:none;" d="M190 153C194.307 156.797 200.373 157.88 206 158C201.172 155.661 195.247 154.214 190 153z"/>
<path style="fill:#5194c3; stroke:none;" d="M258 153L259 154L258 153M109 155L110 156L109 155M193 155L194 156L193 155M196 156L197 157L196 156M199 157L200 158L199 157M203.667 158.333C203.222 158.778 204.278 158.722 204.333 158.667C204.778 158.222 203.722 158.278 203.667 158.333M240.667 158.333C240.222 158.778 241.278 158.722 241.333 158.667C241.778 158.222 240.722 158.278 240.667 158.333M212 159L213 160L212 159M214 159L215 160L214 159M233.667 159.333C233.222 159.778 234.278 159.722 234.333 159.667C234.778 159.222 233.722 159.278 233.667 159.333M115 162L116 163L115 162M116 163L117 164L116 163M117 164L118 165L117 164M118 165L119 166L118 165M119 166L120 167L119 166M76 167L77 168L76 167M120 167L121 168L120 167M121 168L122 169L121 168M122 169L123 170L122 169M79 172L80 173L79 172M292 172L293 173L292 172z"/>
<path style="fill:#0868ac; stroke:none;" d="M292 173L293 174L292 173z"/>
<path style="fill:#5194c3; stroke:none;" d="M128 174L129 175L128 174z"/>
<path style="fill:#0058a4; stroke:none;" d="M291 174C287.471 177.529 283.877 180.916 281 185C283.468 184.286 284.848 182.494 287 184C288.814 180.921 291.342 177.609 291 174z"/>
<path style="fill:#5194c3; stroke:none;" d="M81 175L82 176L81 175M129 175L130 176L129 175M290 177L291 178L290 177M83 178L84 179L83 178M133 178L134 179L133 178M289 179L290 180L289 179M137 181L138 182L137 181M86 182L87 183L86 182M140 183L141 184L140 183M280 184L281 185L280 184M286 184L287 185L286 184M143 185L144 186L143 185M279 185L280 186L279 185M90 187L91 188L90 187M284 187L285 188L284 187M91 188L92 189L91 188M148 188L149 189L148 188M150 189L151 190L150 189M282 190L283 191L282 190M270 191L271 192L270 191z"/>
<path style="fill:#0058a4; stroke:none;" d="M257 198C261.68 199.283 267.021 195.322 271 193C266.342 192.224 261.271 196.222 257 198M97 193C98.9769 197.236 101.764 200.023 106 202C103.459 198.395 100.605 195.541 97 193z"/>
<path style="fill:#5194c3; stroke:none;" d="M160 194L161 195L160 194M162 195L163 196L162 195M278 195L279 196L278 195M167 197L168 198L167 197M170 198L171 199L170 198M256 198L257 199L256 198M253 199L254 200L253 199M250 200L251 201L250 200M179 201L180 202L179 201M247 201L248 202L247 201M105 202L106 203L105 202M183 202L184 203L183 202M243 202L244 203L243 202M188 203L189 204L188 203M239 203L240 204L239 203z"/>
<path style="fill:#0058a4; stroke:none;" d="M229 205C233.709 206.957 239.168 204.937 244 204C239.446 202.367 233.816 204.793 229 205z"/>
<path style="fill:#5194c3; stroke:none;" d="M194.667 204.333C194.222 204.778 195.278 204.722 195.333 204.667C195.778 204.222 194.722 204.278 194.667 204.333M233.667 204.333C233.222 204.778 234.278 204.722 234.333 204.667C234.778 204.222 233.722 204.278 233.667 204.333M202 205C203.248 205.685 203.548 205.749 205 206C203.752 205.315 203.452 205.251 202 205M223 205C224.506 205.683 225.315 205.826 227 206C225.494 205.317 224.685 205.174 223 205M110 206L111 207L110 206z"/>
<path style="fill:#0058a4; stroke:none;" d="M201 206C208.409 209.109 219.975 207 228 207C220.591 203.891 209.025 206 201 206z"/>
<path style="fill:#5194c3; stroke:none;" d="M111 207L112 208L111 207M115 210L116 211L115 210M263 210L264 211L263 210M118 212L119 213L118 212M259 213L260 214L259 213M121 214L122 215L121 214M255 216L256 217L255 216M126 217L127 218L126 217z"/>
<path style="fill:#0058a4; stroke:none;" d="M236 225C240.68 226.283 246.021 222.322 250 220C245.342 219.224 240.271 223.222 236 225z"/>
<path style="fill:#5194c3; stroke:none;" d="M250 219L251 220L250 219M135 222L136 223L135 222M142 225L143 226L142 225M236 226L237 227L236 226M147 227L148 228L147 227M233 227L234 228L233 227M156 230L157 231L156 230M224 230L225 231L224 230M159 231L160 232L159 231M220 231L221 232L220 231M164 232L165 233L164 232z"/>
<path style="fill:#0058a4; stroke:none;" d="M167 232C172.503 234.645 180.006 234.64 186 234C180.78 231.81 172.709 232.047 167 232z"/>
<path style="fill:#5194c3; stroke:none;" d="M215.667 232.333C215.222 232.778 216.278 232.722 216.333 232.667C216.778 232.222 215.722 232.278 215.667 232.333M170.667 233.333C170.222 233.778 171.278 233.722 171.333 233.667C171.778 233.222 170.722 233.278 170.667 233.333M209.667 233.333C209.222 233.778 210.278 233.722 210.333 233.667C210.778 233.222 209.722 233.278 209.667 233.333M180.667 234.333C180.222 234.778 181.278 234.722 181.333 234.667C181.778 234.222 180.722 234.278 180.667 234.333M183 234L184 235L183 234M198 234L199 235L198 234M200.667 234.333C200.222 234.778 201.278 234.722 201.333 234.667C201.778 234.222 200.722 234.278 200.667 234.333M95 256C96.2484 256.685 96.5484 256.749 98 257C96.7516 256.315 96.4516 256.251 95 256z"/>
<path style="fill:#0868ac; stroke:none;" d="M127 312L120 312C123.579 298.889 132.027 284.752 126.12 271C118.143 252.431 90.7175 252.807 77.0401 264.468C67.4637 272.632 63.2877 286.85 62.1705 299C61.923 301.692 62.1186 304.348 62.6188 307C66.2049 326.015 85.921 324 101 324C106.332 324 111.669 324.071 117 323.996C119.402 323.963 122.318 324.119 124.146 322.258C126.545 319.816 126.739 315.201 127 312z"/>
<path style="fill:#5194c3; stroke:none;" d="M103 256C104.248 256.685 104.548 256.749 106 257C104.752 256.315 104.452 256.251 103 256M90 257L91 258L90 257M110 257L111 258L110 257M87 258L88 259L87 258M113 258L114 259L113 258M115 259L116 260L115 259M79 262L80 263L79 262M78 263L79 264L78 263M324 263L323 265C324.263 264.029 324.392 264.306 324 263z"/>
<path style="fill:#0868ac; stroke:none;" d="M302 297C300.085 295.723 300.915 295.723 299 297C298.155 287.715 291.632 289 284 289C284.143 295.689 287.736 300.593 289.066 307C290.281 312.859 288.776 318.234 288 324C291.856 324 298.178 325.169 301.487 322.821C303.9 321.109 304.078 317.569 304.978 315C306.026 312.012 307.767 309.53 309.63 307C320.103 292.779 334.126 278.81 342 263C337.043 263 329.566 261.613 325.09 264.028C321.381 266.029 318.95 270.617 316.67 274C311.743 281.309 305.128 288.75 302 297z"/>
<path style="fill:#5194c3; stroke:none;" d="M341 264L342 265L341 264M124 267L125 268L124 267M321 267L322 268L321 267M338 268L339 269L338 268M72 269L73 270L72 269M125 269L126 270L125 269M96 270L97 271L96 270z"/>
<path style="fill:#000000; stroke:none;" d="M104 312C106.481 307.273 107.689 302.12 109.14 297C110.258 293.057 111.628 289.117 111.909 285C112.779 272.23 99.5076 266.19 89.0934 273.147C81.8424 277.992 79.0883 288.794 79.0039 297C78.9525 301.99 79.0946 307.128 84.044 309.825C89.8997 313.016 97.6462 311.114 104 312z"/>
<path style="fill:#5194c3; stroke:none;" d="M101.667 270.333C101.222 270.778 102.278 270.722 102.333 270.667C102.778 270.222 101.722 270.278 101.667 270.333M213.667 270.333C213.222 270.778 214.278 270.722 214.333 270.667C214.778 270.222 213.722 270.278 213.667 270.333z"/>
<path style="fill:#0058a4; stroke:none;" d="M205 273C209.002 273.844 213.765 272.036 218 272C213.929 269.675 209.115 271.261 205 273z"/>
<path style="fill:#5194c3; stroke:none;" d="M216 270L217 271L216 270z"/>
<path style="fill:#0868ac; stroke:none;" d="M217 270L218 272C212.091 272.016 205.038 272.271 200.04 275.815C197.409 277.68 195.479 280.234 193.88 283.001C188.622 292.094 182.751 310.654 190.569 319.787C198.994 329.631 219.529 326 231 326L233 314C222.314 314 202.496 317.282 202 302L236 302L234 299L238 299C238.515 287.004 241.574 273.392 226.09 270.699C223.072 270.174 220.055 270.041 217 270z"/>
<path style="fill:#5194c3; stroke:none;" d="M223 270L224 271L223 270M225 270L226 271L225 270z"/>
<path style="fill:#0058a4; stroke:none;" d="M45 271L45 275C45.6848 273.752 45.7488 273.452 46 272C50.7611 272 55.3449 271.892 60 273C56.9117 269.466 49.4311 271 45 271z"/>
<path style="fill:#5194c3; stroke:none;" d="M105 271L106 272L105 271M126 271L127 272L126 271M140 271L141 272L140 271z"/>
<path style="fill:#0058a4; stroke:none;" d="M138 286C140.009 282.228 139.451 275.517 143.303 273.028C145.914 271.341 150.04 272 153 272L152 275C153.618 273.686 153.693 273.123 154 271C150.54 271 144.492 269.86 141.564 272.028C138.18 274.532 138.164 282.193 138 286z"/>
<path style="fill:#5194c3; stroke:none;" d="M154.333 271.667C154.278 271.722 154.222 272.778 154.667 272.333C154.722 272.278 154.778 271.222 154.333 271.667z"/>
<path style="fill:#0058a4; stroke:none;" d="M174 273C178.254 271.987 182.372 271.251 186 274C187.77 269.305 175.931 270.355 174 273M253 271C252.159 275.336 251.19 279.577 251 284C253.098 280.061 253.642 275.274 255 271L253 271z"/>
<path style="fill:#0868ac; stroke:none;" d="M252 284L250 283C249.232 292.647 246.482 302.558 244.35 312C243.732 314.735 241.297 320.659 243.832 322.972C246.162 325.099 252.073 324 255 324C256.807 310.887 264.483 297.61 263 284C273.418 281.52 285.326 283 296 283C297.492 267.729 279.238 271 269 271C265.288 271 258.697 269.759 255.514 272.028C252.349 274.284 252.278 280.503 252 284z"/>
<path style="fill:#5194c3; stroke:none;" d="M289 271L290 272L289 271z"/>
<path style="fill:#0868ac; stroke:none;" d="M44 274L43 284C46.7268 284 54.3097 285.444 57.0617 282.397C59.0808 280.161 59.2685 275.826 60 273C56.8719 271.436 52.7446 272 49 272C48.5369 272 46.3288 271.718 46 272C44.0195 273.698 47.2564 274.814 44 274z"/>
<path style="fill:#5194c3; stroke:none;" d="M70 272L71 273L70 272M107 272L108 273L107 272z"/>
<path style="fill:#0868ac; stroke:none;" d="M137 285C138.48 295.382 132.044 306.666 135.063 316.995C137.547 325.491 150.186 324 157 324C161.427 324 170.577 325.736 174.276 322.976C177.191 320.802 178.099 315.288 178.88 311.996C181.004 303.056 182.787 294.008 184.6 285C185.195 282.045 187.601 276.37 185.731 273.603C183.641 270.511 176.245 272.223 173 272C172.225 281.736 169.24 291.457 167.211 301C166.488 304.398 166.358 309.52 163.097 311.589C158.645 314.413 149.789 312.173 148.448 306.981C147.603 303.705 148.92 300.263 149.219 297C149.908 289.5 150.101 281.685 154 275C152.755 273.802 152.926 273.866 153 272C150.72 272 143.818 270.788 142 272C140.159 273.227 141.549 274.354 141 276C139.952 279.144 139.72 283.133 138 286L137 285z"/>
<path style="fill:#5194c3; stroke:none;" d="M232 272L233 273L232 272M292 272L293 273L292 272M335 272L336 273L335 272M88 273L89 274L88 273M203 273L204 274L203 273M234 273L235 274L234 273M252 273L253 274L252 273M59 274L60 275L59 274M316 274L317 275L316 274M110 275L111 276L110 275M139 275L140 276L139 275M200 275L201 276L200 275M295 275L296 276L295 275M85 276L86 277L85 276z"/>
<path style="fill:#0058a4; stroke:none;" d="M152 276C151.177 282.371 149.277 288.563 149 295C151.499 290.308 153.969 281.045 152 276z"/>
<path style="fill:#5194c3; stroke:none;" d="M153 276L154 277L153 276M172 276L173 277L172 276M186 276L187 277L186 276M237 276L238 277L237 276M332 276L333 277L332 276M111 277L112 278L111 277z"/>
<path style="fill:#0058a4; stroke:none;" d="M237 277C239.17 286.493 238.186 292.702 236 302L202 302C205.959 303.661 210.74 303 215 303L238 303C239.089 294.917 243.025 283.928 237 277z"/>
<path style="fill:#5194c3; stroke:none;" d="M314 277L315 278L314 277M43 278L44 279L43 278M251 278L252 279L251 278M296 278L297 279L296 278M58 279L59 280L58 279M83 279L84 280L83 279M138.333 279.667C138.278 279.722 138.222 280.778 138.667 280.333C138.722 280.278 138.778 279.222 138.333 279.667M66 280L67 281L66 280M171.333 280.667C171.278 280.722 171.222 281.778 171.667 281.333C171.722 281.278 171.778 280.222 171.333 280.667M185.333 280.667C185.278 280.722 185.222 281.778 185.667 281.333C185.722 281.278 185.778 280.222 185.333 280.667M195 280L196 281L195 280M239 280L240 281L239 280z"/>
<path style="fill:#0058a4; stroke:none;" d="M296 280C293.829 283.349 290.787 282.992 287 283C280.789 283.013 266.691 280.306 263 286C273.192 281.681 287.062 284 298 284C297.404 282.44 296.911 281.377 296 280z"/>
<path style="fill:#5194c3; stroke:none;" d="M312 280L313 281L312 280M329 280L330 281L329 280M82 281L83 282L82 281M152 281L153 282L152 281M42 282L43 283L42 282M297 282L298 283L297 282M65 283L66 284L65 283M81 283L82 284L81 283M193 283L194 284L193 283M212 283L213 284L212 283z"/>
<path style="fill:#000000; stroke:none;" d="M205 292L225 292C224.581 279.118 207.616 281.233 205 292z"/>
<path style="fill:#5194c3; stroke:none;" d="M221 283L222 284L221 283M310 283L311 284L310 283M137 284L138 285L137 284M326 284L327 285L326 284M170 285L171 286L170 285M184 285L185 286L184 285M192 285L193 286L192 285M208 285L209 286L208 285M325 285L326 286L325 285M64 286L65 287L64 286M80 286L81 287L80 286M151 286L152 287L151 286M308 286L309 287L308 286z"/>
<path style="fill:#0058a4; stroke:none;" d="M137 287C135.163 296.475 133.316 305.312 134 315C135.467 311.503 134.797 307.74 135.171 304C135.707 298.635 138.857 292.179 137 287z"/>
<path style="fill:#5194c3; stroke:none;" d="M191 287L192 288L191 287M206 287L207 288L206 287M249 287L250 288L249 287M263.333 287.667C263.278 287.722 263.222 288.778 263.667 288.333C263.722 288.278 263.778 287.222 263.333 287.667z"/>
<path style="fill:#0058a4; stroke:none;" d="M41 288L40 297C41.3778 294.412 41.7613 291.92 42 289L55 289C53.1726 295.5 51.5364 302.26 51 309C54.4169 303.333 55.4781 294.559 56 288L41 288z"/>
<path style="fill:#5194c3; stroke:none;" d="M56 288L57 289L56 288M111 288L112 289L111 288M127 288L128 289L127 288M225 288L225 291C225.696 289.446 225.696 289.554 225 288M282 288L283 289L282 288z"/>
<path style="fill:#0058a4; stroke:none;" d="M283 291C290.011 287.101 297.643 288.485 299 297C304.871 286.692 284.378 284.57 283 291z"/>
<path style="fill:#5194c3; stroke:none;" d="M298 288L299 289L298 288z"/>
<path style="fill:#0868ac; stroke:none;" d="M42 289C40.6799 298.58 36.8234 308.448 34.6505 318C33.6716 322.303 33.1905 328.28 30.4113 331.852C27.8697 335.118 23.7813 335.256 20 335C19.7829 338.683 19.6527 342.37 19 346C24.8445 346 33.8983 347.71 38.9846 344.397C45.546 340.122 45.6131 332.862 47.0039 326C47.9854 321.157 50.2463 316.67 51.2099 311.91C52.7309 304.398 53.4326 296.598 55 289L42 289z"/>
<path style="fill:#5194c3; stroke:none;" d="M136 289L137 290L136 289M322 289L323 290L322 289M63 290L64 291L63 290M79 290L80 291L79 290M169 290L170 291L169 290M183 290L184 291L183 290M190 290L191 291L190 290M40 291L41 292L40 291M150 291L151 292L150 291M283 291L284 292L283 291M299 291L300 292L299 291M55 292L56 293L55 292M110 292L111 293L110 292M126 292L127 293L126 292M248 292L249 293L248 292M262 292L263 293L262 292M189 293L190 294L189 293M303 293L304 294L303 293M319 293L320 294L319 293z"/>
<path style="fill:#0058a4; stroke:none;" d="M110 294C108.776 298.312 107.39 302.522 107 307C109.263 303.399 111.265 298.165 110 294z"/>
<path style="fill:#5194c3; stroke:none;" d="M135 294L136 295L135 294M168.333 294.667C168.278 294.722 168.222 295.778 168.667 295.333C168.722 295.278 168.778 294.222 168.333 294.667M39.3333 295.667C39.2777 295.722 39.2222 296.778 39.6667 296.333C39.7222 296.278 39.7778 295.222 39.3333 295.667M62.3333 295.667C62.2777 295.722 62.2222 296.778 62.6667 296.333C62.7222 296.278 62.7778 295.222 62.3333 295.667M109 295L110 296L109 295M125 295L126 296L125 295M182 295L183 296L182 295M239 295L240 296L239 295M284 295L285 296L284 295M149.333 296.667C149.278 296.722 149.222 297.778 149.667 297.333C149.722 297.278 149.778 296.222 149.333 296.667M247 296L248 297L247 296M301 296L302 297L301 296M54 297L55 298L54 297M78 297L78 301C78.7102 299.241 78.7102 298.759 78 297M188 297L189 298L188 297M261 297L262 298L261 297M316 297L317 298L316 297M124 298L125 299L124 298M285 298L286 299L285 298z"/>
<path style="fill:#0058a4; stroke:none;" d="M286 298C286.394 302.828 287.923 307.304 289 312C290.566 307.623 288.401 301.82 286 298z"/>
<path style="fill:#5194c3; stroke:none;" d="M108 299L109 300L108 299M134 299L135 300L134 299M167 299L168 300L167 299M181 299L182 300L181 299z"/>
<path style="fill:#8bb7d5; stroke:none;" d="M234.667 299.333C234.222 299.778 235.278 299.722 235.333 299.667C235.778 299.222 234.722 299.278 234.667 299.333z"/>
<path style="fill:#5194c3; stroke:none;" d="M238.333 299.667C238.278 299.722 238.222 300.778 238.667 300.333C238.722 300.278 238.778 299.222 238.333 299.667M38 300L39 301L38 300z"/>
<path style="fill:#b9d2e3; stroke:none;" d="M234.667 300.333C234.222 300.778 235.278 300.722 235.333 300.667C235.778 300.222 234.722 300.278 234.667 300.333z"/>
<path style="fill:#5194c3; stroke:none;" d="M53.3333 301.667C53.2778 301.722 53.2222 302.778 53.6667 302.333C53.7222 302.278 53.7778 301.222 53.3333 301.667M123 301L124 302L123 301M148.333 301.667C148.278 301.722 148.222 302.778 148.667 302.333C148.722 302.278 148.778 301.222 148.333 301.667M246 301L247 302L246 301M313 301L314 302L313 301M107 302L108 303L107 302M260 302L261 303L260 302M286 302L287 303L286 302M187 303L188 304L187 303M202 303L203 304L202 303M37.3333 304.667C37.2778 304.722 37.2222 305.778 37.6667 305.333C37.7222 305.278 37.7778 304.222 37.3333 304.667M166 304L167 305L166 304M180 304L181 305L180 304M79 305L80 306L79 305M133 305L133 308C133.696 306.446 133.696 306.554 133 305M310 305L311 306L310 305M52 306L53 307L52 306M62 306L63 307L62 306M106 306L107 307L106 306M245 306L246 307L245 306M259.333 306.667C259.278 306.722 259.222 307.778 259.667 307.333C259.722 307.278 259.778 306.222 259.333 306.667M81 308L82 309L81 308M165.333 308.667C165.278 308.722 165.222 309.778 165.667 309.333C165.722 309.278 165.778 308.222 165.333 308.667M202 308L203 309L202 308M36 309L37 310L36 309M82 309L83 310L82 309M105 309L106 310L105 309M120 309L121 310L120 309M179 309L180 310L179 309M288 309L289 310L288 309M307 309L308 310L307 309M84 310L85 311L84 310M133 310L133 313C133.696 311.446 133.696 311.554 133 310M244.333 310.667C244.278 310.722 244.222 311.778 244.667 311.333C244.722 311.278 244.778 310.222 244.333 310.667M51 311L52 312L51 311M63 311L64 312L63 311M88 311C89.2484 311.685 89.5484 311.749 91 312C89.7516 311.315 89.4516 311.251 88 311M92 311L93 312L92 311M94 311L95 312L94 311M96 311L97 312L96 311M98 311L99 312L98 311M100 311L101 312L100 311M102 311L103 312L102 311M150 311L151 312L150 311M205 311L206 312L205 311z"/>
<path style="fill:#0058a4; stroke:none;" d="M88 312C92.7238 313.982 98.9098 313 104 313C99.2762 311.018 93.0902 312 88 312z"/>
<path style="fill:#5194c3; stroke:none;" d="M154 312L155 313L154 312M156 312L157 313L156 312M158 312L159 313L158 312M160 312L161 313L160 312M162 312L163 313L162 312M210 312C216.687 314.806 226.767 313 234 313C227.313 310.194 217.233 312 210 312M258 312L259 313L258 312M305 312L306 313L305 312M64 313L65 314L64 313M178.333 313.667C178.278 313.722 178.222 314.778 178.667 314.333C178.722 314.278 178.778 313.222 178.333 313.667M187 313L188 314L187 313z"/>
<path style="fill:#0058a4; stroke:none;" d="M210 313C216.445 315.704 226.032 314 233 314C232.475 318.044 231.078 321.954 231 326C233.557 322.321 234.099 317.366 235 313L210 313M289 313L286 325C290.601 325 298.8 326.663 302 323C297.345 324.108 292.761 324 288 324C288.757 320.33 290.289 316.602 289 313z"/>
<path style="fill:#5194c3; stroke:none;" d="M35 314L36 315L35 314z"/>
<path style="fill:#0058a4; stroke:none;" d="M49 315L46 332C48.6458 327.668 50.8913 319.846 49 315z"/>
<path style="fill:#5194c3; stroke:none;" d="M50 315L51 316L50 315M65 315L66 316L65 315M234 315L235 316L234 315M243 315L244 316L243 315M288 315L289 316L288 315M126 316L127 317L126 316M134 316L135 317L134 316z"/>
<path style="fill:#0058a4; stroke:none;" d="M256 316L255 324C250.761 324 246.482 324.638 243 322C241.247 326.651 253.069 325 256 325C256.398 321.841 257.172 319.001 256 316z"/>
<path style="fill:#5194c3; stroke:none;" d="M257.333 316.667C257.278 316.722 257.222 317.778 257.667 317.333C257.722 317.278 257.778 316.222 257.333 316.667M34 318L35 319L34 318M67 318L68 319L67 318z"/>
<path style="fill:#0058a4; stroke:none;" d="M176 318C174.62 324.618 169.792 324 164 324C156.229 324 148.722 323.609 141 323C147.247 326.742 156.93 325 164 325C167.045 325 170.829 325.583 173.772 324.682C176.997 323.695 177 320.584 176 318z"/>
<path style="fill:#5194c3; stroke:none;" d="M177 318L178 319L177 318M189 318L190 319L189 318M68 319L69 320L68 319M233.333 319.667C233.278 319.722 233.222 320.778 233.667 320.333C233.722 320.278 233.778 319.222 233.333 319.667M287 319L288 320L287 319M49 320L50 321L49 320z"/>
<path style="fill:#0058a4; stroke:none;" d="M70 320C78.8135 328.804 98.5152 325 110 325C114.241 325 121.03 326.399 124 323C117.792 324.478 111.346 324 105 324C97.4836 324 89.4458 324.799 82 323.699C77.8158 323.081 74.0324 321.151 70 320z"/>
<path style="fill:#5194c3; stroke:none;" d="M125 320L126 321L125 320M242 320L243 321L242 320M256 321L257 322L256 321M193 322L194 323L193 322M33 323L34 324L33 323M124 323L125 324L124 323M140 323L141 324L140 323M176 323L177 324L176 323M195 323L196 324L195 323M286 323L287 324L286 323M302 323L303 324L302 323M78 324L79 325L78 324M143 324L144 325L143 324M232 324L233 325L232 324M48 325L49 326L48 325M84 325C87.9586 326.661 92.7397 326 97 326L123 326C119.041 324.339 114.26 325 110 325L84 325M202.667 325.333C202.222 325.778 203.278 325.722 203.333 325.667C203.778 325.222 202.722 325.278 202.667 325.333M31 329L32 330L31 329M47 329L48 330L47 329z"/>
<path style="fill:#0058a4; stroke:none;" d="M31 330C27.962 332.57 23.4012 333.234 21 336C24.8535 335.069 31.1119 335.047 31 330z"/>
<path style="fill:#5194c3; stroke:none;" d="M46 332L47 333L46 332M45 335L46 336L45 335M19 339L20 340L19 339z"/>
<path style="fill:#0058a4; stroke:none;" d="M19 341L18 347L35 347C30.2762 345.018 24.0902 346 19 346C19.5922 343.845 19.7744 343.044 19 341z"/>
<path style="fill:#5194c3; stroke:none;" d="M41 342L42 343L41 342M18 343L19 344L18 343M40 343L41 344L40 343M39 344L40 345L39 344M35 346L36 347L35 346M18 347C22.2165 348.769 27.4589 348 32 348C27.7835 346.231 22.5411 347 18 347z"/>
</svg>
