<?xml version="1.0" encoding="UTF-8"?>
<svg version="1.1" xmlns="http://www.w3.org/2000/svg" width="256" height="256">
<path d="M0 0 C0 10.89 0 21.78 0 33 C-39 55.5 -39 55.5 -78 78 C-78 110.34 -78 142.68 -78 176 C-65.625 182.93 -65.625 182.93 -53 190 C-44.5625 194.9375 -44.5625 194.9375 -40.578125 197.30078125 C-33.55815764 201.45548846 -26.48546408 205.52082111 -19.4074707 209.57568359 C-14.71395097 212.26570708 -10.02912162 214.95362074 -5.43359375 217.80859375 C-4.79381592 218.19901855 -4.15403809 218.58944336 -3.49487305 218.99169922 C-1.89913144 219.97098041 -0.31603996 220.97079852 1.265625 221.97265625 C4.93252076 223.35036137 6.40291589 222.41940495 10 221 C11.81322256 220.06721403 13.5997186 219.08106039 15.359375 218.05078125 C16.37902344 217.4578125 17.39867187 216.86484375 18.44921875 216.25390625 C19.53847656 215.61324219 20.62773437 214.97257813 21.75 214.3125 C22.90720972 213.63743361 24.06476857 212.96296538 25.22265625 212.2890625 C27.62570582 210.88984195 30.0272392 209.48807065 32.42773438 208.08447266 C36.81161966 205.5234497 41.20753807 202.98360498 45.61407471 200.46174622 C47.75168437 199.22325236 49.87768263 197.96428964 51.98638916 196.67720032 C57.53128459 193.33600489 62.77404233 190.61036896 68.93945312 188.60351562 C76.20669333 185.94953721 83.8374066 182.91514597 88 176 C92.75596447 162.06295805 89.549157 144.37314901 88.5 130 C87.89343593 121.6902468 87.37671835 113.39247259 87.15625 105.0625 C87.12861572 104.08156372 87.10098145 103.10062744 87.07250977 102.08996582 C86.84474931 86.00859511 86.84474931 86.00859511 91.52490234 80.56738281 C98.04921663 74.42354575 106.50435356 71.37589789 115 69 C115.99 68.67 116.98 68.34 118 68 C118 109.25 118 150.5 118 193 C110.41 197.29 102.82 201.58 95 206 C91.05476393 208.28051034 87.11502296 210.56493281 83.1875 212.875 C74.84952352 217.75753059 66.49632472 222.61235708 58.125 227.4375 C56.52241333 228.36139526 56.52241333 228.36139526 54.88745117 229.30395508 C50.42010257 231.87860359 45.95204698 234.45202253 41.48339844 237.02441406 C39.12653709 238.38115258 36.76993076 239.73833221 34.41357422 241.09594727 C32.20993131 242.36546119 30.00586045 243.63423268 27.80126953 244.90209961 C26.79435059 245.4822583 25.78743164 246.06241699 24.75 246.66015625 C23.780625 247.21461426 22.81125 247.76907227 21.8125 248.34033203 C19.95248939 249.43793204 18.11767305 250.57950798 16.3125 251.76513672 C8.18524586 257.05683401 8.18524586 257.05683401 3.171875 256.61816406 C-1.98854359 255.14939384 -6.45895878 252.15489755 -11 249.375 C-12.15260232 248.68705075 -13.30626875 248.00088149 -14.4609375 247.31640625 C-16.83056623 245.90894716 -19.19468157 244.49286901 -21.5546875 243.06933594 C-26.66958718 239.98890117 -31.83721364 236.99920586 -37 234 C-38.98192248 232.84270759 -40.96369219 231.68515349 -42.9453125 230.52734375 C-52.48717084 224.96151847 -62.062251 219.45316837 -71.63427734 213.93945312 C-75.1489325 211.91417962 -78.66255469 209.88712521 -82.17578125 207.859375 C-82.76593018 207.51877548 -83.3560791 207.17817596 -83.96411133 206.82725525 C-86.79692756 205.19230093 -89.62969 203.55725345 -92.46240234 201.92211914 C-93.47898926 201.33551514 -94.49557617 200.74891113 -95.54296875 200.14453125 C-96.43008545 199.63253174 -97.31720215 199.12053223 -98.23120117 198.59301758 C-101.48352348 196.72180666 -104.74217509 194.86161423 -108 193 C-108 149.44 -108 105.88 -108 61 C-98.76 55.72 -89.52 50.44 -80 45 C-66.33868224 37.13829827 -52.69537874 29.24927736 -39.08642578 21.29760742 C-31.27881727 16.73851942 -23.45557683 12.20697947 -15.625 7.6875 C-14.49449219 7.03458984 -13.36398438 6.38167969 -12.19921875 5.70898438 C-11.15636719 5.10763672 -10.11351563 4.50628906 -9.0390625 3.88671875 C-8.11303223 3.35264404 -7.18700195 2.81856934 -6.23291016 2.26831055 C-2.23946102 0 -2.23946102 0 0 0 Z " fill="#1B1E29" transform="translate(123,0)"/>
<path d="M0 0 C4.5157109 0.90314218 6.61031818 1.72578757 10.41015625 4.03515625 C11.99679077 4.98950562 11.99679077 4.98950562 13.61547852 5.96313477 C14.17582794 6.3045047 14.73617737 6.64587463 15.31350708 6.99758911 C18.33486647 8.83720691 21.37138537 10.65153032 24.40625 12.46875 C25.03427017 12.84556412 25.66229034 13.22237823 26.30934143 13.61061096 C32.8406936 17.52138432 39.44436605 21.30106189 46.0625 25.0625 C47.22840228 25.72606879 48.39425508 26.3897245 49.56005859 27.0534668 C51.88335753 28.37616308 54.20677705 29.69864658 56.53027344 31.02099609 C72.08900499 39.89512204 87.58629824 48.87629074 103 58 C101.26418612 63.20744163 96.01816568 65.21947074 91.4753418 67.96459961 C90.29038582 68.69227229 89.11768263 69.44031281 87.95874023 70.20874023 C84.12913256 72.74523363 80.48895343 74.81659005 76 76 C71.32101878 74.98660859 67.91095872 72.68656632 64 70 C62.17107181 68.94736205 60.33517535 67.90672956 58.4921875 66.87890625 C56.61768283 65.77701716 54.7453564 64.6714158 52.875 63.5625 C50.78160688 62.3314242 48.68784322 61.1009783 46.59375 59.87109375 C45.51738281 59.23800293 44.44101563 58.60491211 43.33203125 57.95263672 C37.69543682 54.64948005 32.03549028 51.38698445 26.375 48.125 C25.34616699 47.53146729 24.31733398 46.93793457 23.25732422 46.32641602 C15.51625311 41.86404027 7.75801865 37.43315351 0 33 C0 22.11 0 11.22 0 0 Z " fill="#28B472" transform="translate(133,0)"/>
<path d="M0 0 C0 5.94 0 11.88 0 18 C-2.475 18.12375 -2.475 18.12375 -5 18.25 C-11.2968252 18.81062057 -16.47408575 20.47408575 -21 25 C-21.32997447 27.05907197 -21.32997447 27.05907197 -21.31884766 29.44970703 C-21.33871735 30.37051056 -21.35858704 31.29131409 -21.37905884 32.24002075 C-21.39638565 33.73382767 -21.39638565 33.73382767 -21.4140625 35.2578125 C-21.43342865 36.27600067 -21.4527948 37.29418884 -21.4727478 38.3432312 C-21.53265355 41.60373489 -21.57897299 44.86427367 -21.625 48.125 C-21.66316965 50.33204687 -21.70222077 52.53907869 -21.7421875 54.74609375 C-21.83836414 60.16394059 -21.92235447 65.58185717 -22 71 C-28.27 71 -34.54 71 -41 71 C-41 47.9 -41 24.8 -41 1 C-34.73 1 -28.46 1 -22 1 C-21.67 3.31 -21.34 5.62 -21 8 C-20.11248047 7.38511719 -20.11248047 7.38511719 -19.20703125 6.7578125 C-18.41683594 6.21898438 -17.62664062 5.68015625 -16.8125 5.125 C-15.64654297 4.32449219 -15.64654297 4.32449219 -14.45703125 3.5078125 C-9.11329999 0.2285116 -6.6493204 0 0 0 Z " fill="#28B472" transform="translate(154,94)"/>
</svg>
