<?xml version="1.0" encoding="UTF-8"?>
<svg version="1.1" xmlns="http://www.w3.org/2000/svg" width="589" height="583">
<path d="M0 0 C0.8869455 -0.00067474 1.77389099 -0.00134949 2.68771362 -0.00204468 C65.88952461 0.07409608 126.31102131 22.55430439 173.875 64.25 C174.70257813 64.96542969 175.53015625 65.68085937 176.3828125 66.41796875 C187.79753755 76.45765267 198.57756353 87.21190128 207.875 99.25 C209.03515625 100.68472656 209.03515625 100.68472656 210.21875 102.1484375 C235.922961 134.44138613 252.42960254 172.80719674 260.6875 213.0625 C260.88239014 214.00246826 261.07728027 214.94243652 261.27807617 215.91088867 C264.35537462 231.79105063 265.25870185 247.73246701 265.1875 263.875 C265.18476578 265.17544754 265.18476578 265.17544754 265.18197632 266.50216675 C264.94119 334.90822648 238.25335303 399.00206381 190.875 448.25 C190.3269873 448.81992676 189.77897461 449.38985352 189.21435547 449.97705078 C181.82745402 457.61135055 174.28472827 464.73424736 165.875 471.25 C164.38613281 472.44689453 164.38613281 472.44689453 162.8671875 473.66796875 C149.28132088 484.50456612 134.22120418 493.16133971 118.875 501.25 C117.78010254 501.82814453 117.78010254 501.82814453 116.66308594 502.41796875 C90.42103133 516.05685478 61.15280533 523.76296693 31.875 527.25 C31.09688965 527.34571289 30.3187793 527.44142578 29.51708984 527.54003906 C20.2881207 528.5328605 11.02164758 528.49364978 1.75 528.5 C0.8630545 528.50067474 -0.02389099 528.50134949 -0.93771362 528.50204468 C-74.97681447 528.41284797 -140.2434239 497.38009461 -192.11547852 445.44482422 C-197.15402731 440.32289519 -201.72416436 434.93005477 -206.125 429.25 C-206.92292969 428.25742187 -207.72085938 427.26484375 -208.54296875 426.2421875 C-219.37956612 412.65632088 -228.03633971 397.59620418 -236.125 382.25 C-236.70314453 381.15510254 -236.70314453 381.15510254 -237.29296875 380.03808594 C-250.93185478 353.79603133 -258.63796693 324.52780533 -262.125 295.25 C-262.22071289 294.47188965 -262.31642578 293.6937793 -262.41503906 292.89208984 C-263.4078605 283.6631207 -263.36864978 274.39664758 -263.375 265.125 C-263.37567474 264.2380545 -263.37634949 263.35110901 -263.37704468 262.43728638 C-263.30823279 205.31892105 -245.13283823 148.09247512 -209.125 103.25 C-208.41085938 102.34507812 -207.69671875 101.44015625 -206.9609375 100.5078125 C-194.30683833 84.72372414 -180.13156724 69.65907418 -164.125 57.25 C-163.16722656 56.47527344 -162.20945312 55.70054688 -161.22265625 54.90234375 C-123.52384758 24.90493105 -77.71341337 7.18170025 -30.125 1.25 C-29.30257812 1.146875 -28.48015625 1.04375 -27.6328125 0.9375 C-18.45346533 -0.05256826 -9.22195652 0.00631619 0 0 Z " fill="#3AD56F" transform="translate(298.125,29.75)"/>
<path d="M0 0 C23.24135862 0 23.24135862 0 30.25 1.625 C31.06662109 1.80248779 31.88324219 1.97997559 32.72460938 2.1628418 C62.33265626 8.9513794 84.64319559 26.64320117 100.77783203 51.98583984 C104.06544586 57.40390098 106.54649692 63.16714362 109 69 C109.88277461 71.05730793 110.76559037 73.1145982 111.6484375 75.171875 C112.58002782 77.36377558 113.50971291 79.55648688 114.4375 81.75 C115.11244507 83.34134766 115.11244507 83.34134766 115.80102539 84.96484375 C116.21602295 85.96128906 116.63102051 86.95773438 117.05859375 87.984375 C117.43298584 88.87866211 117.80737793 89.77294922 118.19311523 90.69433594 C119 93 119 93 119 96 C119.66 96 120.32 96 121 96 C121.10884521 95.31591064 121.21769043 94.63182129 121.32983398 93.92700195 C122.11884054 90.48095473 123.3576404 87.42963821 124.72265625 84.16796875 C125.12006264 83.2130529 125.12006264 83.2130529 125.52549744 82.23884583 C126.36687104 80.21990579 127.21457591 78.20369644 128.0625 76.1875 C128.63648889 74.81332689 129.21006107 73.43897965 129.78320312 72.06445312 C131.18398484 68.70760648 132.59045455 65.35317771 134 62 C134.66 62 135.32 62 136 62 C136.10570312 61.113125 136.21140625 60.22625 136.3203125 59.3125 C139.51506021 43.74269508 157.66305142 26.15233349 170.6015625 17.53125 C192.81755708 3.41224066 213.80054102 0 240 0 C240 20.46 240 40.92 240 62 C234.06 62.33 228.12 62.66 222 63 C210.93407231 65.61399867 202.50226637 69.30596457 196 79 C190.71571185 88.28649586 186.87502859 98.30324704 182.875 108.1875 C181.66612529 111.16099865 180.45478494 114.13348644 179.2421875 117.10546875 C178.95493805 117.80981049 178.6676886 118.51415222 178.37173462 119.23983765 C175.42664091 126.43961099 172.2583862 133.49520044 168.875 140.5 C165.53490952 147.59579879 162.48534117 154.81133788 159.5 162.0625 C159.04222168 163.1453125 158.58444336 164.228125 158.11279297 165.34375 C157.69400879 166.37628906 157.27522461 167.40882813 156.84375 168.47265625 C156.46412109 169.39312744 156.08449219 170.31359863 155.69335938 171.26196289 C154.48910144 176.01750964 155.82786226 180.05615344 157.70703125 184.4609375 C158.2165332 185.66363281 158.2165332 185.66363281 158.73632812 186.890625 C159.09146484 187.71046875 159.44660156 188.5303125 159.8125 189.375 C160.32780273 190.59316406 160.32780273 190.59316406 160.85351562 191.8359375 C162.74902514 196.27420369 164.75284954 200.62255658 166.97924805 204.90478516 C169.88708783 210.87347232 172.29746774 217.09785329 174.8359375 223.23046875 C175.19716705 224.10214188 175.55839661 224.973815 175.93057251 225.87190247 C177.07911188 228.64360408 178.22708273 231.41554069 179.375 234.1875 C180.13797937 236.02931405 180.90099985 237.87111108 181.6640625 239.71289062 C182.03549377 240.60952927 182.40692505 241.50616791 182.78961182 242.42997742 C183.52393927 244.20184001 184.25875529 245.97350021 184.99407959 247.74494934 C186.52202198 251.42647552 188.04768829 255.10856892 189.54785156 258.80151367 C189.97807617 259.85443604 190.40830078 260.9073584 190.8515625 261.9921875 C191.20299316 262.86085449 191.55442383 263.72952148 191.91650391 264.62451172 C198.29975403 278.61933455 208.10210093 283.78828785 222 289 C227.94 289.33 233.88 289.66 240 290 C240 310.46 240 330.92 240 352 C225.60141656 352 214.40103373 351.82163568 201 348 C200.34837891 347.82339844 199.69675781 347.64679688 199.02539062 347.46484375 C174.03988184 340.58809821 154.29273938 324.07382007 141 302 C140.25390625 299.62109375 140.25390625 299.62109375 140 298 C139.34 298 138.68 298 138 298 C137.70867187 297.18917969 137.41734375 296.37835938 137.1171875 295.54296875 C135.06248451 289.99268615 132.95818072 284.69716601 130 279.5625 C125.8563055 272.28158976 122.86759547 264.1732404 121 256 C120.34 256 119.68 256 119 256 C118.62875 257.175625 118.2575 258.35125 117.875 259.5625 C114.63523371 269.25123504 110.81000495 278.7019824 106.1015625 287.76953125 C104.46009089 291.09322022 103.2296152 294.50530418 102 298 C101.34 298 100.68 298 100 298 C99.63648438 299.30130859 99.63648438 299.30130859 99.265625 300.62890625 C97.05981119 306.50426835 92.86228473 311.12271212 89 316 C88.23816406 316.99773437 88.23816406 316.99773437 87.4609375 318.015625 C74.03601429 334.8164061 52.60879905 345.38973532 32 350 C31.14019531 350.20496094 30.28039062 350.40992188 29.39453125 350.62109375 C19.04751503 352.73719721 10.01946247 352 -1 352 C-1 331.54 -1 311.08 -1 290 C4.61 289.67 10.22 289.34 16 289 C26.9137137 286.44363463 36.97899732 282.34738891 43.42407227 272.67553711 C45.37773344 269.35870166 47.039764 265.93140004 48.671875 262.44921875 C49.01942841 261.70875809 49.36698181 260.96829742 49.72506714 260.20539856 C54.22598531 250.49822654 58.1631566 240.55968469 62.15087891 230.6340332 C65.68693745 221.84947994 69.251408 213.19234559 73.59765625 204.76928711 C76.09547048 199.8367128 78.27201258 194.772673 80.4375 189.6875 C80.89576172 188.65560547 81.35402344 187.62371094 81.82617188 186.56054688 C82.25349609 185.55443359 82.68082031 184.54832031 83.12109375 183.51171875 C83.5070874 182.61928467 83.89308105 181.72685059 84.29077148 180.80737305 C85.87709558 174.52815075 83.43419324 168.99104823 80.9453125 163.2734375 C80.64309784 162.56273102 80.34088318 161.85202454 80.0295105 161.11978149 C79.39292388 159.62731834 78.75232531 158.13656063 78.10791016 156.64746094 C77.12639744 154.37823085 76.15792062 152.10377794 75.19140625 149.828125 C74.56846472 148.372072 73.94479144 146.91633179 73.3203125 145.4609375 C73.0327005 144.78686859 72.7450885 144.11279968 72.44876099 143.41830444 C70.86325569 139.76597253 69.07321206 136.3936638 67 133 C66.27318922 131.11689934 65.55080124 129.23177684 64.8659668 127.33300781 C63.89910299 124.72817259 62.84371075 122.17184888 61.76953125 119.609375 C61.1048584 118.02274048 61.1048584 118.02274048 60.42675781 116.40405273 C59.95592773 115.28071533 59.48509766 114.15737793 59 113 C58.5265918 111.86054932 58.05318359 110.72109863 57.56542969 109.54711914 C56.07476059 105.96450474 54.5695948 102.38823197 53.0625 98.8125 C52.31323242 97.00362305 52.31323242 97.00362305 51.54882812 95.15820312 C46.37510039 82.93485411 40.62155135 72.40934671 28.05078125 66.6484375 C18.34282235 63.04521644 11.0074086 62.68796304 0 62 C0 41.54 0 21.08 0 0 Z " fill="#554D94" transform="translate(179,118)"/>
<path d="M0 0 C-9.197849 4.80796652 -14.36930643 4.27308165 -26 5 C-26.33 24.47 -26.66 43.94 -27 64 C-20.73 64 -14.46 64 -8 64 C-8 64.33 -8 64.66 -8 65 C-14.93 65 -21.86 65 -29 65 C-29 44.54 -29 24.08 -29 3 C-20.585 2.505 -20.585 2.505 -12 2 C-7.8527235 0.88508044 -7.8527235 0.88508044 -3.78515625 -0.4765625 C-2 -1 -2 -1 0 0 Z " fill="#588296" transform="translate(207,405)"/>
<path d="M0 0 C0.66 0.33 1.32 0.66 2 1 C-9.55 12.55 -21.1 24.1 -33 36 C-33.66 35.67 -34.32 35.34 -35 35 C-10.37778756 8.44703638 -10.37778756 8.44703638 0 0 Z " fill="#61EA8A" transform="translate(130,90)"/>
</svg>
