<?xml version="1.0" standalone="yes"?>
<svg xmlns="http://www.w3.org/2000/svg" width="250" height="250">
<path style="fill:#000000; stroke:none;" d="M0 0L0 250L250 250L250 0L0 0z"/>
<path style="fill:#dd0031; stroke:none;" d="M125 236L125 202C121.647 202 117.314 202.688 114.285 200.972C108.543 197.72 105.489 191.337 99 189C100.477 186.677 101.894 184.513 103 182L99 182C99 166.854 96.8794 149.958 99.2137 135C99.9888 130.034 108.217 122.209 105.713 117.419C104.181 114.489 98.8416 113.487 96 112.424C88.2038 109.509 78.0513 107.608 71.1443 102.914C68.0889 100.838 67.4729 97.3566 66.6265 94C64.8758 87.0568 62.9183 80.1111 62 73C67.9449 74.1529 73.9628 76.1774 80 75C78.4939 74.317 77.6852 74.1741 76 74C80.0228 67.5401 86.1554 56.6288 93.0394 53.0278C96.2213 51.3633 100.532 52 104 52L125 52L125 15C115.165 16.4525 105.29 21.1025 96 24.5756C80.7759 30.2671 65.3831 35.7505 50 40.9969C43.646 43.1639 37.3238 45.438 31 47.6921C28.5175 48.577 24.6647 49.4438 23.0316 51.6991C20.7115 54.9031 23.0858 62.3588 23.5756 66C25.2693 78.5908 26.7489 91.3492 27.9252 104C29.756 123.691 32.3034 143.372 34.7153 163C35.5379 169.694 34.5726 180.941 38.0278 186.787C39.5063 189.289 42.5798 190.609 45 191.999C50.2859 195.035 55.6768 197.891 61 200.86C75.6521 209.034 90.2939 217.229 105 225.306C111.544 228.9 117.991 233.434 125 236z"/>
<path style="fill:#c3002f; stroke:none;" d="M125 15L125 52L147 52C150.056 52.0002 153.945 51.4205 156.7 53.0278C163.132 56.7802 169.111 67.755 173 74L160 76C166.825 80.4624 180.361 74.0287 188 73C186.618 79.6947 184.881 86.3361 183.349 93C182.396 97.1433 181.813 100.78 178 103C181.585 111.46 180 121.95 180 131C180 134.492 180.619 138.772 178.972 141.985C177.241 145.363 173.708 147.37 171.192 150.089C169.199 152.242 168.063 155.003 166 157C172.567 168.809 160.499 182.086 149 184C150.532 189.899 141.288 198.415 136 200C132.734 202.474 128.99 202 125 202L125 236C132.02 233.43 138.428 228.872 145 225.309C159.725 217.326 174.436 209.277 189 201C195.443 197.338 208.078 193.307 211.976 186.79C215.454 180.976 214.473 170.605 215.285 164C217.74 144.022 220.022 124.013 222.166 104C223.524 91.3192 225.156 78.6578 226.715 66C227.175 62.2714 229.292 54.9233 226.971 51.6489C225.294 49.2813 221.581 48.5407 219 47.6674C212.976 45.6289 206.992 43.4406 201 41.3079C186.335 36.0887 171.579 31.0261 157 25.5756C146.765 21.7494 135.838 16.6006 125 15z"/>
<path style="fill:#df0b3a; stroke:none;" d="M92 52C95.6987 53.552 100.017 53 104 53L125 53C121.301 51.448 116.983 52 113 52L92 52z"/>
<path style="fill:#c60b38; stroke:none;" d="M125 52C128.699 53.552 133.017 53 137 53L158 53C154.301 51.448 149.983 52 146 52L125 52z"/>
<path style="fill:#ffffff; stroke:none;" d="M77 74C84.7377 74.3331 92.412 76.5285 100 78L110 56C109.597 65.4347 101.417 74.5136 102.253 84C103.472 97.8418 114.499 110.281 116.809 124C117.474 127.945 116.214 132.113 115.59 136C114.512 142.706 113.705 149.411 112 156L136 156C135.782 145.443 130.356 133.458 132.775 123C134.886 113.877 139.542 104.699 143 96C144.557 92.0832 147.242 87.2878 147.242 83C147.242 73.1629 139.674 62.3542 137 53L106 53C101.922 53 96.115 51.9624 92.3002 53.6034C89.5794 54.7737 87.8401 57.7329 86.1265 60.0008C82.7595 64.457 78.7992 68.6641 77 74z"/>
<path style="fill:#f6d7df; stroke:none;" d="M137 53L137 56L139 55C138.455 53.3648 138.635 53.5451 137 53z"/>
<path style="fill:#ffffff; stroke:none;" d="M138 53C141.33 61.5822 145.359 70.0482 150 78C157.281 76.588 164.601 74.5888 172 74C170.007 67.9922 162.916 56.1178 156.826 53.6034C151.679 51.4778 143.518 53 138 53z"/>
<path style="fill:#f5b1c0; stroke:none;" d="M90 54L91 55L90 54z"/>
<path style="fill:#ea6485; stroke:none;" d="M89 55L90 56L89 55z"/>
<path style="fill:#e48ca0; stroke:none;" d="M138 55L138 58L140 57C139.455 55.3648 139.635 55.545 138 55z"/>
<path style="fill:#e99db1; stroke:none;" d="M159 55L160 56L159 55z"/>
<path style="fill:#f5b4c2; stroke:none;" d="M110 56L109 58L111 58C111 56.1467 111.3 56.6499 110 56z"/>
<path style="fill:#da6283; stroke:none;" d="M160 56L161 57L160 56z"/>
<path style="fill:#d65271; stroke:none;" d="M139 57C139.406 59.0924 139.217 59.0197 141 60C140.309 58.6116 140.015 58.1393 139 57z"/>
<path style="fill:#f5b6c7; stroke:none;" d="M87 58L88 59L87 58z"/>
<path style="fill:#eb6c87; stroke:none;" d="M109 58L108 60L110 60C110 58.1467 110.3 58.6499 109 58z"/>
<path style="fill:#eb6b8b; stroke:none;" d="M86 59L87 60L86 59z"/>
<path style="fill:#e9a5b6; stroke:none;" d="M162 59L163 60L162 59z"/>
<path style="fill:#e43c63; stroke:none;" d="M85 60L86 61L85 60z"/>
<path style="fill:#e22b53; stroke:none;" d="M108.333 60.6667C108.278 60.7222 108.222 61.7778 108.667 61.3333C108.722 61.2777 108.778 60.2223 108.333 60.6667z"/>
<path style="fill:#f5b7c5; stroke:none;" d="M109 60L110 61L109 60z"/>
<path style="fill:#ce3259; stroke:none;" d="M140 60L140 62L142 62C141.455 60.3649 141.635 60.545 140 60z"/>
<path style="fill:#dd6c89; stroke:none;" d="M163 60L164 61L163 60z"/>
<path style="fill:#f3a8ba; stroke:none;" d="M107 61L108 62L107 61z"/>
<path style="fill:#f6bccc; stroke:none;" d="M84 62L85 63L84 62z"/>
<path style="fill:#dc002c; stroke:none;" d="M107.333 62.6667C107.278 62.7222 107.222 63.7778 107.667 63.3333C107.722 63.2777 107.778 62.2223 107.333 62.6667z"/>
<path style="fill:#eb6885; stroke:none;" d="M108 62L109 63L108 62z"/>
<path style="fill:#e598aa; stroke:none;" d="M140 62L141 63L140 62z"/>
<path style="fill:#c00026; stroke:none;" d="M141.333 62.6667C141.278 62.7222 141.222 63.7778 141.667 63.3333C141.722 63.2777 141.778 62.2223 141.333 62.6667z"/>
<path style="fill:#ec7392; stroke:none;" d="M83 63L84 64L83 63z"/>
<path style="fill:#f8c3cf; stroke:none;" d="M106 63L107 64L106 63z"/>
<path style="fill:#de6f8d; stroke:none;" d="M142 63L143 64L142 63z"/>
<path style="fill:#e9a5b4; stroke:none;" d="M165 63L166 64L165 63z"/>
<path style="fill:#e54067; stroke:none;" d="M82 64L83 65L82 64z"/>
<path style="fill:#e21e49; stroke:none;" d="M106.667 64.3333C106.222 64.7778 107.278 64.7222 107.333 64.6667C107.778 64.2222 106.722 64.2778 106.667 64.3333z"/>
<path style="fill:#d44c6d; stroke:none;" d="M141 64L142 65L141 64z"/>
<path style="fill:#bf0023; stroke:none;" d="M142 64C143.448 72.4171 147.924 79.209 147 88C151.287 82.7266 152.598 79.6104 160 79C156.718 76.7964 152.439 78.7067 149.495 76.3573C145.884 73.4747 144.898 67.5731 142 64z"/>
<path style="fill:#d95b7e; stroke:none;" d="M166 64L167 65L166 64z"/>
<path style="fill:#800000; stroke:none;" d="M23 65L24 66L23 65z"/>
<path style="fill:#d9001b; stroke:none;" d="M106.333 65.6667C106.278 65.7221 106.222 66.7778 106.667 66.3333C106.722 66.2777 106.778 65.2223 106.333 65.6667z"/>
<path style="fill:#ef8ba1; stroke:none;" d="M107 65L108 66L107 65z"/>
<path style="fill:#f2c7d2; stroke:none;" d="M141 65L142 66L141 65z"/>
<path style="fill:#e27f9b; stroke:none;" d="M143 65L144 66L143 65z"/>
<path style="fill:#f6c3d1; stroke:none;" d="M81 66L82 67L81 66z"/>
<path style="fill:#e74772; stroke:none;" d="M105 66L106 67L105 66z"/>
<path style="fill:#ee7b97; stroke:none;" d="M80 67L81 68L80 67z"/>
<path style="fill:#d80012; stroke:none;" d="M105 67C103.47 70.6809 101.703 74.0541 101 78C104.379 75.6876 106.171 70.9606 105 67z"/>
<path style="fill:#e53e65; stroke:none;" d="M106 67L107 68L106 67z"/>
<path style="fill:#db6885; stroke:none;" d="M142 67L143 68L142 67z"/>
<path style="fill:#e593aa; stroke:none;" d="M144 67L145 68L144 67z"/>
<path style="fill:#ecaabb; stroke:none;" d="M168 67L169 68L168 67z"/>
<path style="fill:#e6456a; stroke:none;" d="M79 68L80 69L79 68z"/>
<path style="fill:#e95b7d; stroke:none;" d="M104 68L105 69L104 68z"/>
<path style="fill:#f2a4b6; stroke:none;" d="M106 68L107 69L106 68z"/>
<path style="fill:#db6686; stroke:none;" d="M169 68L170 69L169 68z"/>
<path style="fill:#cd2853; stroke:none;" d="M143 69L144 70L143 69z"/>
<path style="fill:#e99fb2; stroke:none;" d="M145 69L146 70L145 69z"/>
<path style="fill:#e9577b; stroke:none;" d="M103 70L104 71L103 70z"/>
<path style="fill:#e9587b; stroke:none;" d="M105 70L106 71L105 70z"/>
<path style="fill:#e28199; stroke:none;" d="M143 70L144 71L143 70z"/>
<path style="fill:#cc204d; stroke:none;" d="M145 70L146 71L145 70z"/>
<path style="fill:#ee859e; stroke:none;" d="M77 71L78 72L77 71z"/>
<path style="fill:#f5b5c3; stroke:none;" d="M105 71L106 72L105 71z"/>
<path style="fill:#e8a5b6; stroke:none;" d="M146 71L147 72L146 71z"/>
<path style="fill:#ecb2c1; stroke:none;" d="M171 71L172 72L171 71z"/>
<path style="fill:#e85b7b; stroke:none;" d="M76.3333 72.6667C76.2778 72.7222 76.2222 73.7778 76.6667 73.3333C76.7223 73.2777 76.7777 72.2223 76.3333 72.6667z"/>
<path style="fill:#ea6585; stroke:none;" d="M102 72L103 73L102 72z"/>
<path style="fill:#d24165; stroke:none;" d="M144 72L145 73L144 72z"/>
<path style="fill:#e9a4b5; stroke:none;" d="M172.333 72.6667C172.278 72.7222 172.222 73.7778 172.667 73.3333C172.722 73.2777 172.778 72.2223 172.333 72.6667z"/>
<path style="fill:#f7cad3; stroke:none;" d="M62.6667 73.3333C62.2222 73.7778 63.2778 73.7222 63.3333 73.6667C63.7778 73.2222 62.7222 73.2778 62.6667 73.3333z"/>
<path style="fill:#e75374; stroke:none;" d="M64 73L65 74L64 73z"/>
<path style="fill:#eb6986; stroke:none;" d="M104 73L105 74L104 73z"/>
<path style="fill:#e592a6; stroke:none;" d="M144 73L145 74L144 73z"/>
<path style="fill:#ebaab9; stroke:none;" d="M147 73L148 74L147 73z"/>
<path style="fill:#d14163; stroke:none;" d="M184 73L185 74L184 73z"/>
<path style="fill:#de748d; stroke:none;" d="M185 73L187 76C188.118 73.8603 187.251 73.4733 185 73z"/>
<path style="fill:#ffffff; stroke:none;" d="M62 74C64.1832 81.7509 64.4097 94.0267 69.1397 100.582C71.5933 103.982 77.2809 105.021 81 106.424C91.5404 110.399 102.843 116.329 114 118C110.575 109.652 107.068 101.323 103.576 93C102.132 89.5608 100.896 84.3923 98.1821 81.7384C95.7529 79.363 91.1657 79.2336 88 78.6003C79.468 76.8936 70.7067 74.3748 62 74z"/>
<path style="fill:#f29aab; stroke:none;" d="M67.6667 74.3333C67.2222 74.7778 68.2778 74.7222 68.3333 74.6667C68.7778 74.2222 67.7222 74.2778 67.6667 74.3333z"/>
<path style="fill:#e85a79; stroke:none;" d="M69 74L70 75L69 74z"/>
<path style="fill:#f3b0bd; stroke:none;" d="M80 74L81 75L80 74z"/>
<path style="fill:#eb718b; stroke:none;" d="M81 74L82 75L81 74z"/>
<path style="fill:#f5b6c3; stroke:none;" d="M82 74L83 75L82 74z"/>
<path style="fill:#eb718f; stroke:none;" d="M101 74L102 75L101 74z"/>
<path style="fill:#f5bac9; stroke:none;" d="M104 74L105 75L104 74z"/>
<path style="fill:#e390a3; stroke:none;" d="M167 74C168.248 74.6848 168.548 74.7488 170 75C168.752 74.3152 168.452 74.2512 167 74z"/>
<path style="fill:#dc6a85; stroke:none;" d="M180.667 74.3333C180.222 74.7778 181.278 74.7222 181.333 74.6667C181.778 74.2222 180.722 74.2778 180.667 74.3333z"/>
<path style="fill:#ffffff; stroke:none;" d="M136 118C146.849 116.133 157.725 110.715 168 106.808C171.714 105.396 177.409 104.372 180.143 101.301C182.052 99.1554 182.248 95.6797 182.884 93C184.384 86.6857 186.167 80.4479 187 74C178.621 74.3607 170.21 76.7573 162 78.3997C158.718 79.0562 154.215 79.2173 151.638 81.5887C148.647 84.3415 147.494 89.3542 145.989 93C142.598 101.218 138.444 109.452 136 118z"/>
<path style="fill:#eb748e; stroke:none;" d="M62.3333 75.6667C62.2777 75.7223 62.2222 76.7777 62.6667 76.3333C62.7222 76.2778 62.7778 75.2222 62.3333 75.6667z"/>
<path style="fill:#f298ab; stroke:none;" d="M72.6667 75.3333C72.2222 75.7778 73.2778 75.7222 73.3333 75.6667C73.7778 75.2222 72.7222 75.2778 72.6667 75.3333z"/>
<path style="fill:#e85c7a; stroke:none;" d="M74 75L75 76L74 75z"/>
<path style="fill:#d80013; stroke:none;" d="M78 75C79.506 75.683 80.3148 75.8259 82 76C80.4939 75.317 79.6852 75.1741 78 75z"/>
<path style="fill:#de0e38; stroke:none;" d="M80 76C81.9433 76.6218 82.949 76.4358 85 76C83.0567 75.3782 82.051 75.5642 80 76z"/>
<path style="fill:#f2a7b7; stroke:none;" d="M85 75L86 76L85 75z"/>
<path style="fill:#eb6d8a; stroke:none;" d="M86 75L87 76L86 75z"/>
<path style="fill:#f4aebd; stroke:none;" d="M87 75L88 76L87 75z"/>
<path style="fill:#d44669; stroke:none;" d="M145 75L146 76L145 75z"/>
<path style="fill:#ecb3c0; stroke:none;" d="M148 75L149 76L148 75z"/>
<path style="fill:#e89fb0; stroke:none;" d="M162.667 75.3333C162.222 75.7778 163.278 75.7222 163.333 75.6667C163.778 75.2223 162.722 75.2777 162.667 75.3333z"/>
<path style="fill:#d85f7c; stroke:none;" d="M164 75L165 76L164 75z"/>
<path style="fill:#dc6a85; stroke:none;" d="M175.667 75.3333C175.222 75.7778 176.278 75.7222 176.333 75.6667C176.778 75.2222 175.722 75.2777 175.667 75.3333z"/>
<path style="fill:#800000; stroke:none;" d="M225 75L226 76L225 75z"/>
<path style="fill:#f3a4b6; stroke:none;" d="M77.6667 76.3333C77.2222 76.7778 78.2778 76.7222 78.3333 76.6667C78.7778 76.2222 77.7222 76.2778 77.6667 76.3333z"/>
<path style="fill:#ea5f7e; stroke:none;" d="M79 76L80 77L79 76z"/>
<path style="fill:#d80013; stroke:none;" d="M83 76C84.506 76.683 85.3148 76.8259 87 77C85.4939 76.317 84.6852 76.1741 83 76z"/>
<path style="fill:#de0e36; stroke:none;" d="M85 77C86.9433 77.6218 87.949 77.4358 90 77C88.0567 76.3782 87.051 76.5642 85 77z"/>
<path style="fill:#eb6a86; stroke:none;" d="M90.6667 76.3333C90.2222 76.7778 91.2778 76.7222 91.3333 76.6667C91.7778 76.2222 90.7222 76.2778 90.6667 76.3333z"/>
<path style="fill:#f4a7b8; stroke:none;" d="M92 76L93 77L92 76z"/>
<path style="fill:#ee7b94; stroke:none;" d="M100 76L101 77L100 76z"/>
<path style="fill:#ec7891; stroke:none;" d="M103 76L104 77L103 76z"/>
<path style="fill:#e89eb0; stroke:none;" d="M145 76L146 77L145 76z"/>
<path style="fill:#d0395f; stroke:none;" d="M148 76L149 77L148 76z"/>
<path style="fill:#e699ab; stroke:none;" d="M157.667 76.3333C157.222 76.7778 158.278 76.7222 158.333 76.6667C158.778 76.2222 157.722 76.2777 157.667 76.3333z"/>
<path style="fill:#d65774; stroke:none;" d="M159 76L160 77L159 76z"/>
<path style="fill:#da617e; stroke:none;" d="M170.667 76.3333C170.222 76.7778 171.278 76.7222 171.333 76.6667C171.778 76.2222 170.722 76.2777 170.667 76.3333z"/>
<path style="fill:#f2a0b3; stroke:none;" d="M82.6667 77.3333C82.2222 77.7778 83.2778 77.7222 83.3333 77.6667C83.7778 77.2222 82.7222 77.2778 82.6667 77.3333z"/>
<path style="fill:#e9607e; stroke:none;" d="M84 77L85 78L84 77z"/>
<path style="fill:#d80013; stroke:none;" d="M88 77C89.506 77.683 90.3148 77.8259 92 78C90.4939 77.317 89.6852 77.1741 88 77z"/>
<path style="fill:#dc002a; stroke:none;" d="M90 78C93.9126 79.8999 97.1159 80.453 100 84C101.455 82.0788 102.203 80.2889 103 78C98.6963 77.4836 94.2628 77.1653 90 78z"/>
<path style="fill:#ea6985; stroke:none;" d="M95.6667 77.3333C95.2222 77.7778 96.2778 77.7222 96.3333 77.6667C96.7778 77.2222 95.7222 77.2778 95.6667 77.3333z"/>
<path style="fill:#f1a1b4; stroke:none;" d="M97 77L98 78L97 77z"/>
<path style="fill:#f5becc; stroke:none;" d="M103 77L104 78L103 77z"/>
<path style="fill:#e58fa3; stroke:none;" d="M149 77L150 78L149 77z"/>
<path style="fill:#efbeca; stroke:none;" d="M152.667 77.3333C152.222 77.7778 153.278 77.7222 153.333 77.6667C153.778 77.2222 152.722 77.2778 152.667 77.3333z"/>
<path style="fill:#bb0012; stroke:none;" d="M158 77C159.506 77.683 160.315 77.8259 162 78C160.494 77.317 159.685 77.1741 158 77z"/>
<path style="fill:#da6180; stroke:none;" d="M165.667 77.3333C165.222 77.7778 166.278 77.7222 166.333 77.6667C166.778 77.2222 165.722 77.2778 165.667 77.3333z"/>
<path style="fill:#f0c5d0; stroke:none;" d="M186 77L187 78L186 77z"/>
<path style="fill:#f29fb2; stroke:none;" d="M87.6667 78.3333C87.2222 78.7778 88.2778 78.7222 88.3333 78.6667C88.7778 78.2222 87.7222 78.2778 87.6667 78.3333z"/>
<path style="fill:#ea5f7b; stroke:none;" d="M89 78L90 79L89 78z"/>
<path style="fill:#d85a79; stroke:none;" d="M146 78L147 79L146 78z"/>
<path style="fill:#da6280; stroke:none;" d="M160.667 78.3333C160.222 78.7778 161.278 78.7222 161.333 78.6667C161.778 78.2222 160.722 78.2777 160.667 78.3333z"/>
<path style="fill:#da627d; stroke:none;" d="M186.333 78.6667C186.278 78.7222 186.222 79.7778 186.667 79.3333C186.722 79.2778 186.778 78.2223 186.333 78.6667z"/>
<path style="fill:#f4aaba; stroke:none;" d="M63 79L64 80L63 79z"/>
<path style="fill:#f29fb2; stroke:none;" d="M92.6667 79.3333C92.2222 79.7778 93.2778 79.7222 93.3333 79.6667C93.7778 79.2222 92.7222 79.2778 92.6667 79.3333z"/>
<path style="fill:#ea5d7c; stroke:none;" d="M94 79L95 80L94 79z"/>
<path style="fill:#eb6b87; stroke:none;" d="M102 79L103 80L102 79z"/>
<path style="fill:#ecb3c0; stroke:none;" d="M146 79L147 80L146 79z"/>
<path style="fill:#da617d; stroke:none;" d="M155.667 79.3333C155.222 79.7778 156.278 79.7222 156.333 79.6667C156.778 79.2222 155.722 79.2777 155.667 79.3333z"/>
<path style="fill:#e64569; stroke:none;" d="M63.3333 80.6667C63.2777 80.7223 63.2222 81.7777 63.6667 81.3333C63.7222 81.2778 63.7778 80.2222 63.3333 80.6667z"/>
<path style="fill:#ed7e97; stroke:none;" d="M97 80L98 81L97 80z"/>
<path style="fill:#dc6c87; stroke:none;" d="M151 80L152 81L151 80z"/>
<path style="fill:#dd6f89; stroke:none;" d="M147 81L148 82L147 81z"/>
<path style="fill:#d8597a; stroke:none;" d="M150 81L151 82L150 81z"/>
<path style="fill:#e43a61; stroke:none;" d="M99 82L100 83L99 82z"/>
<path style="fill:#f29eb2; stroke:none;" d="M101.333 82.6667C101.278 82.7222 101.222 83.7778 101.667 83.3333C101.722 83.2777 101.778 82.2223 101.333 82.6667z"/>
<path style="fill:#edb5c3; stroke:none;" d="M150 82L151 83L150 82z"/>
<path style="fill:#da6681; stroke:none;" d="M185.333 82.6667C185.278 82.7222 185.222 83.7778 185.667 83.3333C185.722 83.2778 185.778 82.2222 185.333 82.6667z"/>
<path style="fill:#f5bbc8; stroke:none;" d="M64 83L65 84L64 83z"/>
<path style="fill:#f2a6b8; stroke:none;" d="M99 83L100 84L99 83z"/>
<path style="fill:#e85676; stroke:none;" d="M64.3333 84.6667C64.2778 84.7222 64.2222 85.7778 64.6667 85.3333C64.7223 85.2777 64.7777 84.2223 64.3333 84.6667z"/>
<path style="fill:#e11e49; stroke:none;" d="M100.667 84.3333C100.222 84.7778 101.278 84.7222 101.333 84.6667C101.778 84.2222 100.722 84.2778 100.667 84.3333z"/>
<path style="fill:#e38ba2; stroke:none;" d="M147 84L148 85L147 84z"/>
<path style="fill:#e389a1; stroke:none;" d="M149 84L150 85L149 84z"/>
<path style="fill:#ee7793; stroke:none;" d="M100 85L101 86L100 85z"/>
<path style="fill:#d80014; stroke:none;" d="M101.333 85.6667C101.278 85.7222 101.222 86.7778 101.667 86.3333C101.722 86.2777 101.778 85.2223 101.333 85.6667z"/>
<path style="fill:#e96183; stroke:none;" d="M102 86L103 87L102 86z"/>
<path style="fill:#f1c2cd; stroke:none;" d="M146 86L147 87L146 86z"/>
<path style="fill:#d95e81; stroke:none;" d="M148 86L149 87L148 86z"/>
<path style="fill:#de748d; stroke:none;" d="M184.333 86.6667C184.278 86.7222 184.222 87.7778 184.667 87.3333C184.722 87.2778 184.778 86.2222 184.333 86.6667z"/>
<path style="fill:#e6436c; stroke:none;" d="M101 87L102 88L101 87z"/>
<path style="fill:#d80011; stroke:none;" d="M102.333 87.6667C102.278 87.7222 102.222 88.7778 102.667 88.3333C102.722 88.2777 102.778 87.2223 102.333 87.6667z"/>
<path style="fill:#d8597a; stroke:none;" d="M146 87L147 88L146 87z"/>
<path style="fill:#e95c7c; stroke:none;" d="M65.3333 88.6667C65.2778 88.7222 65.2222 89.7778 65.6667 89.3333C65.7223 89.2777 65.7777 88.2223 65.3333 88.6667z"/>
<path style="fill:#f7bfcb; stroke:none;" d="M101 88L102 89L101 88z"/>
<path style="fill:#f29cb1; stroke:none;" d="M103 88L104 89L103 88z"/>
<path style="fill:#c30a31; stroke:none;" d="M146 88L145 93C146.318 91.0738 146.651 90.2342 146 88z"/>
<path style="fill:#cc2653; stroke:none;" d="M147 88L148 89L147 88z"/>
<path style="fill:#e12850; stroke:none;" d="M102.667 89.3333C102.222 89.7778 103.278 89.7222 103.333 89.6667C103.778 89.2222 102.722 89.2778 102.667 89.3333z"/>
<path style="fill:#e592a9; stroke:none;" d="M145 89L146 90L145 89z"/>
<path style="fill:#e9a3b5; stroke:none;" d="M147 89L148 90L147 89z"/>
<path style="fill:#f090a8; stroke:none;" d="M102 90L103 91L102 90z"/>
<path style="fill:#dd0d3c; stroke:none;" d="M103 90L104 94C104.393 92.076 104.146 91.6405 103 90z"/>
<path style="fill:#ecaaba; stroke:none;" d="M183 90L184 91L183 90z"/>
<path style="fill:#800000; stroke:none;" d="M26 91L27 92L26 91z"/>
<path style="fill:#ea607f; stroke:none;" d="M104 91L105 92L104 91z"/>
<path style="fill:#dc6989; stroke:none;" d="M146 91L147 92L146 91z"/>
<path style="fill:#d44567; stroke:none;" d="M183.333 91.6667C183.278 91.7222 183.222 92.7778 183.667 92.3333C183.722 92.2777 183.778 91.2222 183.333 91.6667z"/>
<path style="fill:#eb6b87; stroke:none;" d="M66.3333 92.6667C66.2778 92.7222 66.2222 93.7778 66.6667 93.3333C66.7223 93.2777 66.7777 92.2223 66.3333 92.6667z"/>
<path style="fill:#d95b7e; stroke:none;" d="M144 92L145 93L144 92z"/>
<path style="fill:#f5b6c4; stroke:none;" d="M105 93L106 94L105 93z"/>
<path style="fill:#c10027; stroke:none;" d="M144 93L143 98C144.318 96.0738 144.651 95.2342 144 93z"/>
<path style="fill:#d23c60; stroke:none;" d="M145 93L146 94L145 93z"/>
<path style="fill:#e3315a; stroke:none;" d="M104.667 94.3333C104.222 94.7778 105.278 94.7222 105.333 94.6667C105.778 94.2222 104.722 94.2778 104.667 94.3333z"/>
<path style="fill:#ebadbd; stroke:none;" d="M143 94L144 95L143 94z"/>
<path style="fill:#efbcc8; stroke:none;" d="M145 94L146 95L145 94z"/>
<path style="fill:#efbbc9; stroke:none;" d="M182 94L183 95L182 94z"/>
<path style="fill:#f2a6b8; stroke:none;" d="M104 95L105 96L104 95z"/>
<path style="fill:#de0837; stroke:none;" d="M105.333 95.6667C105.278 95.7222 105.222 96.7778 105.667 96.3333C105.722 96.2777 105.778 95.2223 105.333 95.6667z"/>
<path style="fill:#d85876; stroke:none;" d="M182.333 95.6667C182.278 95.7222 182.222 96.7778 182.667 96.3333C182.722 96.2777 182.778 95.2223 182.333 95.6667z"/>
<path style="fill:#ee7a93; stroke:none;" d="M67.3333 96.6667C67.2778 96.7222 67.2222 97.7778 67.6667 97.3333C67.7223 97.2777 67.7778 96.2223 67.3333 96.6667z"/>
<path style="fill:#ec7893; stroke:none;" d="M106 96L107 97L106 96z"/>
<path style="fill:#e389a1; stroke:none;" d="M144 96L145 97L144 96z"/>
<path style="fill:#ea6d89; stroke:none;" d="M105 97L106 98L105 97z"/>
<path style="fill:#dc002b; stroke:none;" d="M106.333 97.6667C106.278 97.7222 106.222 98.7778 106.667 98.3333C106.722 98.2777 106.778 97.2223 106.333 97.6667z"/>
<path style="fill:#df7993; stroke:none;" d="M142 97L143 98L142 97z"/>
<path style="fill:#f6becc; stroke:none;" d="M107 98L108 99L107 98z"/>
<path style="fill:#bf0022; stroke:none;" d="M142.333 98.6667C142.278 98.7222 142.222 99.7778 142.667 99.3333C142.722 99.2778 142.778 98.2223 142.333 98.6667z"/>
<path style="fill:#d13c61; stroke:none;" d="M143 98L144 99L143 98z"/>
<path style="fill:#e6476a; stroke:none;" d="M106.667 99.3333C106.222 99.7778 107.278 99.7222 107.333 99.6667C107.778 99.2222 106.722 99.2778 106.667 99.3333z"/>
<path style="fill:#efbfca; stroke:none;" d="M141 99L142 100L141 99z"/>
<path style="fill:#d85e7c; stroke:none;" d="M181.333 99.6667C181.278 99.7222 181.222 100.778 181.667 100.333C181.722 100.278 181.778 99.2222 181.333 99.6667z"/>
<path style="fill:#f5b7c5; stroke:none;" d="M68 100L69 101L68 100z"/>
<path style="fill:#f5bac8; stroke:none;" d="M106 100L107 101L106 100z"/>
<path style="fill:#e1224e; stroke:none;" d="M107.333 100.667C107.278 100.722 107.222 101.778 107.667 101.333C107.722 101.278 107.778 100.222 107.333 100.667z"/>
<path style="fill:#c81540; stroke:none;" d="M141 100L141 103C142.015 101.861 142.309 101.388 143 100L141 100z"/>
<path style="fill:#ea6481; stroke:none;" d="M68 101L69 102L68 101z"/>
<path style="fill:#ec7c95; stroke:none;" d="M108 101L109 102L108 101z"/>
<path style="fill:#e99db1; stroke:none;" d="M142 101L143 102L142 101z"/>
<path style="fill:#800000; stroke:none;" d="M222 101L223 102L222 101z"/>
<path style="fill:#e85774; stroke:none;" d="M69 102L70 103L69 102z"/>
<path style="fill:#f19cae; stroke:none;" d="M70 102L71 103L70 102z"/>
<path style="fill:#eb738f; stroke:none;" d="M107 102L108 103L107 102z"/>
<path style="fill:#e3254e; stroke:none;" d="M108.333 102.667C108.278 102.722 108.222 103.778 108.667 103.333C108.722 103.278 108.778 102.222 108.333 102.667z"/>
<path style="fill:#e08096; stroke:none;" d="M140 102L141 103L140 102z"/>
<path style="fill:#e590a4; stroke:none;" d="M179 102L180 103L179 102z"/>
<path style="fill:#ce3a5a; stroke:none;" d="M180 102L181 103L180 102z"/>
<path style="fill:#e85979; stroke:none;" d="M71.6667 103.333C71.2222 103.778 72.2778 103.722 72.3333 103.667C72.7778 103.222 71.7222 103.278 71.6667 103.333z"/>
<path style="fill:#f7c2cc; stroke:none;" d="M73 103L74 104L73 103z"/>
<path style="fill:#cb2149; stroke:none;" d="M140 103L139 108C140.318 106.074 140.651 105.234 140 103z"/>
<path style="fill:#d9617e; stroke:none;" d="M141 103L142 104L141 103z"/>
<path style="fill:#ebaebb; stroke:none;" d="M176 103L177 104L176 103z"/>
<path style="fill:#da6683; stroke:none;" d="M177 103L178 104L177 103z"/>
<path style="fill:#e33f5f; stroke:none;" d="M74 104L75 105L74 104z"/>
<path style="fill:#f093a8; stroke:none;" d="M75 104L76 105L75 104z"/>
<path style="fill:#e43d61; stroke:none;" d="M108 104L109 107C109.685 105.752 109.749 105.452 110 104L108 104z"/>
<path style="fill:#df7890; stroke:none;" d="M174 104L175 105L174 104z"/>
<path style="fill:#bd001b; stroke:none;" d="M166 109C170.61 109.035 174.656 106.479 179 105C174.499 103.404 169.492 106.117 166 109z"/>
<path style="fill:#ee7c95; stroke:none;" d="M69 105L70 106L69 105z"/>
<path style="fill:#ffffff; stroke:none;" d="M70 105L70 130C70 133.74 69.2741 138.434 70.6034 141.996C71.9108 145.5 75.2757 147.78 78 150.13C83.6213 154.981 89.1735 160.957 96 164L96 141C95.9998 138.163 96.6798 134.109 94.9722 131.634C91.7154 126.915 83.9919 126.812 81.0278 121.787C78.9754 118.308 81.127 113.919 79.3966 110.429C77.966 107.544 72.7625 106.233 70 105z"/>
<path style="fill:#ea6c89; stroke:none;" d="M71 105L72 106L71 105z"/>
<path style="fill:#e54b6a; stroke:none;" d="M77 105L78 106L77 105z"/>
<path style="fill:#f19db0; stroke:none;" d="M78 105L79 106L78 105z"/>
<path style="fill:#e48ca0; stroke:none;" d="M171 105L172 106L171 105z"/>
<path style="fill:#e592a6; stroke:none;" d="M177 105L178 106L177 105z"/>
<path style="fill:#ffffff; stroke:none;" d="M178 105C175.47 106.441 170.952 107.651 169.603 110.418C167.894 113.924 170.026 118.305 167.972 121.787C165.008 126.812 157.285 126.915 154.028 131.634C152.32 134.109 153 138.163 153 141L153 164C159.827 160.957 165.379 154.981 171 150.13C173.724 147.78 177.089 145.5 178.397 141.996C180.597 136.099 179 127.242 179 121C179 115.92 179.981 109.72 178 105z"/>
<path style="fill:#de728d; stroke:none;" d="M179 105L179 143C182.105 135.6 180 124.007 180 116C180 112.298 180.441 108.435 179 105z"/>
<path style="fill:#d70010; stroke:none;" d="M68 106L68 143C71.0042 135.841 69 124.744 69 117C69 113.298 69.4412 109.435 68 106z"/>
<path style="fill:#f7c4d0; stroke:none;" d="M69 106L69 142C70.4412 138.565 70 134.702 70 131C70 123.52 71.9032 112.919 69 106z"/>
<path style="fill:#ef8fa4; stroke:none;" d="M73 106L74 107L73 106z"/>
<path style="fill:#e75576; stroke:none;" d="M79.6667 106.333C79.2222 106.778 80.2778 106.722 80.3333 106.667C80.7778 106.222 79.7222 106.278 79.6667 106.333z"/>
<path style="fill:#f5c1cd; stroke:none;" d="M81 106L82 107L81 106z"/>
<path style="fill:#ef8fa4; stroke:none;" d="M110 106L111 107L110 106z"/>
<path style="fill:#ebadbc; stroke:none;" d="M140 106L141 107L140 106z"/>
<path style="fill:#dd6c87; stroke:none;" d="M168.667 106.333C168.222 106.778 169.278 106.722 169.333 106.667C169.778 106.222 168.722 106.278 168.667 106.333z"/>
<path style="fill:#cf3b5a; stroke:none;" d="M174 106L175 107L174 106z"/>
<path style="fill:#e08399; stroke:none;" d="M175 106L176 107L175 106z"/>
<path style="fill:#f8d1d9; stroke:none;" d="M74.6667 107.333C74.2222 107.778 75.2778 107.722 75.3333 107.667C75.7778 107.222 74.7222 107.278 74.6667 107.333z"/>
<path style="fill:#e64d69; stroke:none;" d="M76 107L77 108L76 107z"/>
<path style="fill:#e43f60; stroke:none;" d="M82 107L83 108L82 107z"/>
<path style="fill:#f096aa; stroke:none;" d="M83 107L84 108L83 107z"/>
<path style="fill:#ef91a6; stroke:none;" d="M109 107L110 108L109 107z"/>
<path style="fill:#e3345c; stroke:none;" d="M110.333 107.667C110.278 107.722 110.222 108.778 110.667 108.333C110.722 108.278 110.778 107.222 110.333 107.667z"/>
<path style="fill:#e697ab; stroke:none;" d="M138 107L139 108L138 107z"/>
<path style="fill:#df7890; stroke:none;" d="M166 107L167 108L166 107z"/>
<path style="fill:#ce3356; stroke:none;" d="M167 107L168 108L167 107z"/>
<path style="fill:#d14463; stroke:none;" d="M172 107L173 108L172 107z"/>
<path style="fill:#e9a5b4; stroke:none;" d="M173 107L174 108L173 107z"/>
<path style="fill:#f2a1b3; stroke:none;" d="M78 108L79 109L78 108z"/>
<path style="fill:#e74c6b; stroke:none;" d="M85 108L86 109L85 108z"/>
<path style="fill:#f19eb0; stroke:none;" d="M86 108L87 109L86 108z"/>
<path style="fill:#d24064; stroke:none;" d="M138 108L137 113C138.318 111.074 138.651 110.234 138 108z"/>
<path style="fill:#df7b93; stroke:none;" d="M139 108L140 109L139 108z"/>
<path style="fill:#eaa6b4; stroke:none;" d="M163 108L164 109L163 108z"/>
<path style="fill:#d3506b; stroke:none;" d="M164 108L165 109L164 108z"/>
<path style="fill:#c3002f; stroke:none;" d="M164.852 109.132C162.899 108.802 160.772 109.924 159 110.577C155.03 112.041 146.488 113.536 144.223 117.419C142.037 121.166 146.953 129.953 151.105 130.494C155.69 131.091 166.384 125.346 167.682 120.815C168.538 117.826 169.004 109.834 164.852 109.132z"/>
<path style="fill:#db6482; stroke:none;" d="M170 108L171 109L170 108z"/>
<path style="fill:#ed7b92; stroke:none;" d="M80 109L81 110L80 109z"/>
<path style="fill:#e85575; stroke:none;" d="M87.6667 109.333C87.2222 109.778 88.2777 109.722 88.3333 109.667C88.7778 109.222 87.7222 109.278 87.6667 109.333z"/>
<path style="fill:#f5bdc9; stroke:none;" d="M89 109L90 110L89 109z"/>
<path style="fill:#e95879; stroke:none;" d="M110 109L112 114C112.516 111.543 111.994 110.498 110 109z"/>
<path style="fill:#ebabba; stroke:none;" d="M160 109L161 110L160 109z"/>
<path style="fill:#d8617b; stroke:none;" d="M161 109L162 110L161 109z"/>
<path style="fill:#de758d; stroke:none;" d="M168 109L169 110L168 109z"/>
<path style="fill:#f3aaba; stroke:none;" d="M80 110L80 123C81.5909 119.209 81.5909 113.791 80 110z"/>
<path style="fill:#e53c5d; stroke:none;" d="M90 110L91 111L90 110z"/>
<path style="fill:#ef8ba1; stroke:none;" d="M91 110L92 111L91 110z"/>
<path style="fill:#d03858; stroke:none;" d="M158.667 110.333C158.222 110.778 159.278 110.722 159.333 110.667C159.778 110.222 158.722 110.278 158.667 110.333z"/>
<path style="fill:#e699ab; stroke:none;" d="M168 110L168 123C169.591 119.209 169.591 113.791 168 110z"/>
<path style="fill:#e44363; stroke:none;" d="M93 111L94 112L93 111z"/>
<path style="fill:#f19aad; stroke:none;" d="M94 111L95 112L94 111z"/>
<path style="fill:#f2a2b4; stroke:none;" d="M112 111L113 112L112 111z"/>
<path style="fill:#efc1cb; stroke:none;" d="M138 111L139 112L138 111z"/>
<path style="fill:#e9a0b1; stroke:none;" d="M155 111L156 112L155 111z"/>
<path style="fill:#d24d68; stroke:none;" d="M156 111L157 112L156 111z"/>
<path style="fill:#f3b1c1; stroke:none;" d="M96.6667 112.333C96.2222 112.778 97.2778 112.722 97.3333 112.667C97.7778 112.222 96.7222 112.278 96.6667 112.333z"/>
<path style="fill:#f4abbb; stroke:none;" d="M111 112L112 113L111 112z"/>
<path style="fill:#e8a1b2; stroke:none;" d="M136 112L137 113L136 112z"/>
<path style="fill:#eaa8b7; stroke:none;" d="M152 112L153 113L152 112z"/>
<path style="fill:#d65a74; stroke:none;" d="M153 112L154 113L153 112z"/>
<path style="fill:#e43a5c; stroke:none;" d="M98 113L99 114L98 113z"/>
<path style="fill:#ee879e; stroke:none;" d="M99 113L100 114L99 113z"/>
<path style="fill:#d34768; stroke:none;" d="M136.333 113.667C136.278 113.722 136.222 114.778 136.667 114.333C136.722 114.278 136.778 113.222 136.333 113.667z"/>
<path style="fill:#e3899f; stroke:none;" d="M137 113L138 114L137 113z"/>
<path style="fill:#cd3457; stroke:none;" d="M150.667 113.333C150.222 113.778 151.278 113.722 151.333 113.667C151.778 113.222 150.722 113.278 150.667 113.333z"/>
<path style="fill:#e33d5d; stroke:none;" d="M101 114L102 115L101 114z"/>
<path style="fill:#f197aa; stroke:none;" d="M102 114L103 115L102 114z"/>
<path style="fill:#ee7d96; stroke:none;" d="M112 114L114 118C114.369 115.777 113.86 115.265 112 114z"/>
<path style="fill:#e79cae; stroke:none;" d="M147 114L148 115L147 114z"/>
<path style="fill:#d34764; stroke:none;" d="M148 114L149 115L148 114z"/>
<path style="fill:#ed748f; stroke:none;" d="M104 115L105 116L104 115z"/>
<path style="fill:#f4aebd; stroke:none;" d="M105 115L106 116L105 115z"/>
<path style="fill:#de718b; stroke:none;" d="M135 115L134 119C135.733 117.778 136.151 116.991 137 115L135 115z"/>
<path style="fill:#e9a4b4; stroke:none;" d="M144 115L145 116L144 115z"/>
<path style="fill:#d55671; stroke:none;" d="M145 115L146 116L145 115z"/>
<path style="fill:#e4375a; stroke:none;" d="M106 116L107 117L106 116z"/>
<path style="fill:#ee8199; stroke:none;" d="M107 116L108 117L107 116z"/>
<path style="fill:#eebdc8; stroke:none;" d="M141 116L142 117L141 116z"/>
<path style="fill:#ce3154; stroke:none;" d="M142.667 116.333C142.222 116.778 143.278 116.722 143.333 116.667C143.778 116.222 142.722 116.278 142.667 116.333z"/>
<path style="fill:#da001c; stroke:none;" d="M106 117C108.475 119.335 113.094 120.888 114.357 124.21C115.342 126.798 114.211 130.318 114 133L116 133C116.73 123.731 116.463 118.547 106 117z"/>
<path style="fill:#e23558; stroke:none;" d="M109 117L110 118L109 117z"/>
<path style="fill:#f197a9; stroke:none;" d="M110 117L111 118L110 117z"/>
<path style="fill:#f0c6cf; stroke:none;" d="M134 117L135 118L134 117z"/>
<path style="fill:#e591a5; stroke:none;" d="M139 117L140 118L139 117z"/>
<path style="fill:#d0405d; stroke:none;" d="M140 117L141 118L140 117z"/>
<path style="fill:#bd001c; stroke:none;" d="M134 119C133.375 122.363 133.028 125.578 133 129C135.773 123.052 137.938 120.89 144 118C140.704 117.025 137.376 118.504 134 119z"/>
<path style="fill:#ee8da2; stroke:none;" d="M112.667 118.333C112.222 118.778 113.278 118.722 113.333 118.667C113.778 118.222 112.722 118.278 112.667 118.333z"/>
<path style="fill:#e74e73; stroke:none;" d="M114 118L115 119L114 118z"/>
<path style="fill:#e697ab; stroke:none;" d="M136 118L137 119L136 118z"/>
<path style="fill:#d55172; stroke:none;" d="M137 118L138 119L137 118z"/>
<path style="fill:#f095a9; stroke:none;" d="M107 119L108 120L107 119z"/>
<path style="fill:#ffffff; stroke:none;" d="M108 119C105.093 122.81 101.477 127.314 100.164 132C98.8295 136.76 100 143.055 100 148L100 181C103.588 179.337 106.311 176.144 110 174.742C115.719 172.569 123.954 174 130 174C132.89 174 136.235 173.59 139 174.603C143.138 176.121 145.649 179.779 150 181L150 150C150 144.844 150.713 139.075 149.725 134C148.205 126.19 143.092 119.145 135 122C136.405 129.568 136.287 137.348 137.282 145C137.779 148.831 139.305 154.29 137.802 158C132.963 169.949 117.653 169.21 111.643 159C109.652 155.618 111.038 151.611 111.573 148C112.978 138.499 117.911 124.481 108 119z"/>
<path style="fill:#e23058; stroke:none;" d="M109 119L110 120L109 119z"/>
<path style="fill:#f6bcc9; stroke:none;" d="M115 119L116 120L115 119z"/>
<path style="fill:#eeb7c5; stroke:none;" d="M140.667 119.333C140.222 119.778 141.278 119.722 141.333 119.667C141.778 119.222 140.722 119.278 140.667 119.333z"/>
<path style="fill:#d13c61; stroke:none;" d="M142 119L143 120L142 119z"/>
<path style="fill:#ee8097; stroke:none;" d="M106 120L107 121L106 120z"/>
<path style="fill:#ec7a93; stroke:none;" d="M110 120L111 121L110 120z"/>
<path style="fill:#e95678; stroke:none;" d="M115 120L116 121L115 120z"/>
<path style="fill:#efbbc7; stroke:none;" d="M133 120L134 121L133 120z"/>
<path style="fill:#e2849b; stroke:none;" d="M138 120L139 121L138 120z"/>
<path style="fill:#f0bdc8; stroke:none;" d="M142 120L143 121L142 120z"/>
<path style="fill:#ee849b; stroke:none;" d="M112 121L113 122L112 121z"/>
<path style="fill:#d8597a; stroke:none;" d="M133 121L134 122L133 121z"/>
<path style="fill:#d96681; stroke:none;" d="M136 121L137 122L136 121z"/>
<path style="fill:#dc6684; stroke:none;" d="M143 121L144 122L143 121z"/>
<path style="fill:#f6c5d0; stroke:none;" d="M105 122L106 123L105 122z"/>
<path style="fill:#e64066; stroke:none;" d="M114 122L114 129C115.059 126.466 115.059 124.534 114 122z"/>
<path style="fill:#ef91a6; stroke:none;" d="M116 122L117 123L116 122z"/>
<path style="fill:#f6c1cd; stroke:none;" d="M81 123L82 124L81 123z"/>
<path style="fill:#e43c59; stroke:none;" d="M82 123L83 124L82 123z"/>
<path style="fill:#e74f72; stroke:none;" d="M104 123L105 124L104 123z"/>
<path style="fill:#e58fa3; stroke:none;" d="M132 123L133 124L132 123z"/>
<path style="fill:#c40333; stroke:none;" d="M134 123L133 132C135.148 129.164 135.378 126.291 134 123z"/>
<path style="fill:#e58fa4; stroke:none;" d="M144 123L145 124L144 123z"/>
<path style="fill:#d24462; stroke:none;" d="M166 123L167 124L166 123z"/>
<path style="fill:#ecadbc; stroke:none;" d="M167 123L168 124L167 123z"/>
<path style="fill:#ef93a4; stroke:none;" d="M83 124L84 125L83 124z"/>
<path style="fill:#f4b7c6; stroke:none;" d="M117.333 124.667C117.278 124.722 117.222 125.778 117.667 125.333C117.722 125.278 117.778 124.222 117.333 124.667z"/>
<path style="fill:#c8133d; stroke:none;" d="M132.333 124.667C132.278 124.722 132.222 125.778 132.667 125.333C132.722 125.278 132.778 124.222 132.333 124.667z"/>
<path style="fill:#f8dfe5; stroke:none;" d="M135 124L135 130C135.951 127.715 135.951 126.285 135 124z"/>
<path style="fill:#cc2952; stroke:none;" d="M145 124L146 125L145 124z"/>
<path style="fill:#e79aad; stroke:none;" d="M165 124L166 125L165 124z"/>
<path style="fill:#f29caf; stroke:none;" d="M85 125L86 126L85 125z"/>
<path style="fill:#ef87a2; stroke:none;" d="M103 125L104 126L103 125z"/>
<path style="fill:#f2c6d1; stroke:none;" d="M145 125L146 126L145 125z"/>
<path style="fill:#e07e95; stroke:none;" d="M163 125L164 126L163 125z"/>
<path style="fill:#f199ab; stroke:none;" d="M87 126L88 127L87 126z"/>
<path style="fill:#de718a; stroke:none;" d="M132 126L132 129C132.696 127.446 132.696 127.554 132 126z"/>
<path style="fill:#d85a7d; stroke:none;" d="M146 126L147 127L146 126z"/>
<path style="fill:#d75c76; stroke:none;" d="M161 126L162 127L161 126z"/>
<path style="fill:#eb6b84; stroke:none;" d="M89 127L90 128L89 127z"/>
<path style="fill:#f6becd; stroke:none;" d="M102 127L103 128L102 127z"/>
<path style="fill:#d85f7b; stroke:none;" d="M159 127L160 128L159 127z"/>
<path style="fill:#800000; stroke:none;" d="M219 127L220 128L219 127z"/>
<path style="fill:#f5b9c6; stroke:none;" d="M90 128L91 129L90 128z"/>
<path style="fill:#e75975; stroke:none;" d="M91 128L92 129L91 128z"/>
<path style="fill:#e53f66; stroke:none;" d="M101 128L102 129L101 128z"/>
<path style="fill:#eb6b88; stroke:none;" d="M116 128L116 131C116.696 129.446 116.696 129.554 116 128z"/>
<path style="fill:#e2839b; stroke:none;" d="M147 128L148 129L147 128z"/>
<path style="fill:#d24767; stroke:none;" d="M157 128L158 129L157 128z"/>
<path style="fill:#efbdc9; stroke:none;" d="M158 128L159 129L158 128z"/>
<path style="fill:#f6c7d1; stroke:none;" d="M92 129L93 130L92 129z"/>
<path style="fill:#e54969; stroke:none;" d="M93 129L94 130L93 129z"/>
<path style="fill:#ebacbc; stroke:none;" d="M156 129L157 130L156 129z"/>
<path style="fill:#f6c1cd; stroke:none;" d="M94 130L95 131L94 130z"/>
<path style="fill:#ee7b97; stroke:none;" d="M100 130L101 131L100 130z"/>
<path style="fill:#e07c96; stroke:none;" d="M135 130L135 134C135.71 132.241 135.71 131.759 135 130z"/>
<path style="fill:#f1c4cf; stroke:none;" d="M148 130L149 131L148 130z"/>
<path style="fill:#cf3e5d; stroke:none;" d="M153 130L154 131L153 130z"/>
<path style="fill:#eaaaba; stroke:none;" d="M154 130L155 131L154 130z"/>
<path style="fill:#ea6b85; stroke:none;" d="M96 131L97 132L96 131z"/>
<path style="fill:#b70006; stroke:none;" d="M134 131L134 135C134.71 133.241 134.71 132.759 134 131z"/>
<path style="fill:#d34a6e; stroke:none;" d="M149 131L150 132L149 131z"/>
<path style="fill:#b8000b; stroke:none;" d="M150 131C151.992 141.732 151 153.114 151 164C153.801 157.324 152.003 147.214 152 140C151.999 136.683 152.604 133.276 150 131z"/>
<path style="fill:#df7993; stroke:none;" d="M152 131L152 164C153.328 160.834 153 157.419 153 154C153 147.049 154.701 137.436 152 131z"/>
<path style="fill:#f2a0b3; stroke:none;" d="M96 132L96 164C97.3283 160.834 96.9998 157.419 97 154C97.0004 147.314 98.599 138.194 96 132z"/>
<path style="fill:#d7000a; stroke:none;" d="M97 132L97 165C92.6464 162.486 89.1358 158.224 84 158C87.4143 161.726 93.4615 163.772 95.9722 168.184C98.3199 172.31 97 179.39 97 184C98.6611 180.041 98 175.26 98 171L98 146C98 141.465 98.7687 136.215 97 132z"/>
<path style="fill:#f5b0c1; stroke:none;" d="M99 132L100 133L99 132z"/>
<path style="fill:#f299ad; stroke:none;" d="M113 132L113 136C113.71 134.241 113.71 133.759 113 132z"/>
<path style="fill:#db6883; stroke:none;" d="M133 132L133 136C133.71 134.241 133.71 133.759 133 132z"/>
<path style="fill:#d30000; stroke:none;" d="M114 133L114 136C114.696 134.446 114.696 134.554 114 133z"/>
<path style="fill:#ea6b86; stroke:none;" d="M115 133L115 137C115.71 135.241 115.71 134.759 115 133z"/>
<path style="fill:#d13b5f; stroke:none;" d="M150 133L150 182C151.769 177.785 151 172.536 151 168L151 145C151 141.017 151.552 136.699 150 133z"/>
<path style="fill:#fadfe5; stroke:none;" d="M99 134L99 169C99 173.068 97.7407 179.152 101 182C98.4496 171.288 100 158.976 100 148C100 143.465 100.769 138.215 99 134z"/>
<path style="fill:#c2002b; stroke:none;" d="M135 134C134.438 135.801 134.176 137.122 134 139L136 139C135.912 137.036 135.779 135.769 135 134z"/>
<path style="fill:#df0c3a; stroke:none;" d="M113 136L112 152C114.12 147.278 114.592 141.158 115 136L113 136z"/>
<path style="fill:#f6dde4; stroke:none;" d="M133.333 136.667C133.278 136.722 133.222 137.778 133.667 137.333C133.722 137.278 133.778 136.222 133.333 136.667z"/>
<path style="fill:#e2839b; stroke:none;" d="M136 138L136 142C136.71 140.241 136.71 139.759 136 138z"/>
<path style="fill:#d95e7b; stroke:none;" d="M134 139L134 142C134.696 140.446 134.696 140.554 134 139z"/>
<path style="fill:#b00000; stroke:none;" d="M135 139L135 142C135.696 140.446 135.696 140.554 135 139z"/>
<path style="fill:#ec7892; stroke:none;" d="M112 140L112 144C112.71 142.241 112.71 141.759 112 140z"/>
<path style="fill:#eb708b; stroke:none;" d="M114.333 140.667C114.278 140.722 114.222 141.778 114.667 141.333C114.722 141.278 114.778 140.222 114.333 140.667z"/>
<path style="fill:#ec7891; stroke:none;" d="M69 142L70 143L69 142z"/>
<path style="fill:#f8d3dc; stroke:none;" d="M114.333 142.667C114.278 142.722 114.222 143.778 114.667 143.333C114.722 143.278 114.778 142.222 114.333 142.667z"/>
<path style="fill:#f8dee4; stroke:none;" d="M134 142L134 145C134.696 143.446 134.696 143.554 134 142z"/>
<path style="fill:#c3002f; stroke:none;" d="M135 142L137 157L125 157L125 165C126.905 165.059 129.131 165.429 131.004 164.972C141.315 162.459 137.061 149.318 137 142L135 142z"/>
<path style="fill:#ec7e94; stroke:none;" d="M70 143L71 144L70 143z"/>
<path style="fill:#e2879d; stroke:none;" d="M178 143L179 144L178 143z"/>
<path style="fill:#ed7a91; stroke:none;" d="M71 144L72 145L71 144z"/>
<path style="fill:#d85d79; stroke:none;" d="M177 144L178 145L177 144z"/>
<path style="fill:#e53a5c; stroke:none;" d="M72 145L73 146L72 145z"/>
<path style="fill:#d75e78; stroke:none;" d="M176 145L177 146L176 145z"/>
<path style="fill:#ea6582; stroke:none;" d="M113.333 146.667C113.278 146.722 113.222 147.778 113.667 147.333C113.722 147.278 113.778 146.222 113.333 146.667z"/>
<path style="fill:#de7a93; stroke:none;" d="M135 146L135 150C135.71 148.241 135.71 147.759 135 146z"/>
<path style="fill:#de7991; stroke:none;" d="M137 146L137 150C137.71 148.241 137.71 147.759 137 146z"/>
<path style="fill:#cd3657; stroke:none;" d="M175 146L176 147L175 146z"/>
<path style="fill:#ef8b9f; stroke:none;" d="M76 148L77 149L76 148z"/>
<path style="fill:#f6c0cb; stroke:none;" d="M111 148L112 149L111 148z"/>
<path style="fill:#f8d4de; stroke:none;" d="M113.333 148.667C113.278 148.722 113.222 149.778 113.667 149.333C113.722 149.278 113.778 148.222 113.333 148.667z"/>
<path style="fill:#ecadbc; stroke:none;" d="M172 148L173 149L172 148z"/>
<path style="fill:#ed8299; stroke:none;" d="M77 149L78 150L77 149z"/>
<path style="fill:#ec7891; stroke:none;" d="M111 149L111 152C111.696 150.446 111.696 150.554 111 149z"/>
<path style="fill:#e08197; stroke:none;" d="M171 149L172 150L171 149z"/>
<path style="fill:#ed7a91; stroke:none;" d="M78 150L79 151L78 150z"/>
<path style="fill:#d75a78; stroke:none;" d="M170 150L171 151L170 150z"/>
<path style="fill:#e53a5c; stroke:none;" d="M79 151L80 152L79 151z"/>
<path style="fill:#d75c78; stroke:none;" d="M169 151L170 152L169 151z"/>
<path style="fill:#df1744; stroke:none;" d="M111 152L111 156C111.71 154.241 111.71 153.759 111 152z"/>
<path style="fill:#ea5d7c; stroke:none;" d="M112.333 152.667C112.278 152.722 112.222 153.778 112.667 153.333C112.722 153.278 112.778 152.222 112.333 152.667z"/>
<path style="fill:#cd3457; stroke:none;" d="M168 152L169 153L168 152z"/>
<path style="fill:#da607d; stroke:none;" d="M136.333 153.667C136.278 153.722 136.222 154.778 136.667 154.333C136.722 154.278 136.778 153.222 136.333 153.667z"/>
<path style="fill:#b9000d; stroke:none;" d="M158 162C161.537 160.705 164.678 158.766 168 157C168.131 155.359 168.369 154.544 169 153C164.625 155.028 161.02 158.255 158 162z"/>
<path style="fill:#800000; stroke:none;" d="M216 153L217 154L216 153z"/>
<path style="fill:#ef8ea2; stroke:none;" d="M83 154L84 155L83 154z"/>
<path style="fill:#f8ced6; stroke:none;" d="M110 154L110 157C110.696 155.446 110.696 155.554 110 154z"/>
<path style="fill:#f2a9bb; stroke:none;" d="M112 154L113 155L112 154z"/>
<path style="fill:#ecabbd; stroke:none;" d="M165 154L166 155L165 154z"/>
<path style="fill:#ee869c; stroke:none;" d="M84 155L85 156L84 155z"/>
<path style="fill:#f4a8b9; stroke:none;" d="M136 155C128.845 157.115 120.433 156 113 156C117.408 158.54 125.838 157.012 131 157C133.005 156.995 137.063 157.574 136 155z"/>
<path style="fill:#de718b; stroke:none;" d="M138 155L138 159C138.71 157.241 138.71 156.759 138 155z"/>
<path style="fill:#df7e95; stroke:none;" d="M164 155L165 156L164 155z"/>
<path style="fill:#ed7c93; stroke:none;" d="M85 156L86 157L85 156z"/>
<path style="fill:#dd0031; stroke:none;" d="M111 156C113.008 163.147 118.144 164.976 125 165L125 157C120.239 157 115.655 157.108 111 156z"/>
<path style="fill:#ea6783; stroke:none;" d="M112 156L113 157L112 156z"/>
<path style="fill:#d65975; stroke:none;" d="M163 156L164 157L163 156z"/>
<path style="fill:#e53e60; stroke:none;" d="M86 157L87 158L86 157z"/>
<path style="fill:#ee879e; stroke:none;" d="M110.333 157.667C110.278 157.722 110.222 158.778 110.667 158.333C110.722 158.278 110.778 157.222 110.333 157.667z"/>
<path style="fill:#d75c78; stroke:none;" d="M162 157L163 158L162 157z"/>
<path style="fill:#f9dde3; stroke:none;" d="M81.6667 158.333C81.2222 158.778 82.2778 158.722 82.3333 158.667C82.7778 158.222 81.7222 158.278 81.6667 158.333z"/>
<path style="fill:#ea6582; stroke:none;" d="M83 158L84 159L83 158z"/>
<path style="fill:#cd3256; stroke:none;" d="M161 158L162 159L161 158z"/>
<path style="fill:#ffffff; stroke:none;" d="M153 183C163.367 177.949 167 168.687 167 158C162.606 159.848 155.483 163.408 153.603 168.093C151.908 172.32 153 178.503 153 183z"/>
<path style="fill:#e9a4b5; stroke:none;" d="M167 158L167 169C168.431 165.59 168.431 161.41 167 158z"/>
<path style="fill:#ffffff; stroke:none;" d="M81 159C81.0012 169.983 87.0419 177.672 96 184C96 179.309 97.234 172.564 95.3966 168.184C93.3678 163.349 85.7925 159.927 81 159z"/>
<path style="fill:#f5b6c4; stroke:none;" d="M84 159L85 160L84 159z"/>
<path style="fill:#e96683; stroke:none;" d="M111 159L112 160L111 159z"/>
<path style="fill:#da6983; stroke:none;" d="M163 159L164 160L163 159z"/>
<path style="fill:#eb748c; stroke:none;" d="M86 160L87 161L86 160z"/>
<path style="fill:#f2a0b3; stroke:none;" d="M90 160L91 161L90 160z"/>
<path style="fill:#e95f7c; stroke:none;" d="M112 160L113 161L112 160z"/>
<path style="fill:#ecaabe; stroke:none;" d="M158 160L159 161L158 160z"/>
<path style="fill:#c92848; stroke:none;" d="M161 160L162 161L161 160z"/>
<path style="fill:#efb7c5; stroke:none;" d="M162 160L163 161L162 160z"/>
<path style="fill:#f4aebd; stroke:none;" d="M87 161L88 162L87 161z"/>
<path style="fill:#f093a6; stroke:none;" d="M91 161L92 162L91 161z"/>
<path style="fill:#e85876; stroke:none;" d="M113 161L114 162L113 161z"/>
<path style="fill:#df7d95; stroke:none;" d="M157 161L158 162L157 161z"/>
<path style="fill:#de7891; stroke:none;" d="M160 161L161 162L160 161z"/>
<path style="fill:#e85c78; stroke:none;" d="M89 162L90 163L89 162z"/>
<path style="fill:#eb6f8a; stroke:none;" d="M92 162L93 163L92 162z"/>
<path style="fill:#e85674; stroke:none;" d="M114 162L115 163L114 162z"/>
<path style="fill:#d44f69; stroke:none;" d="M156 162L157 163L156 162z"/>
<path style="fill:#c51732; stroke:none;" d="M157.667 162.333C157.222 162.778 158.278 162.722 158.333 162.667C158.778 162.222 157.722 162.278 157.667 162.333z"/>
<path style="fill:#ebafbd; stroke:none;" d="M159 162L160 163L159 162z"/>
<path style="fill:#f5b7c7; stroke:none;" d="M90 163L91 164L90 163z"/>
<path style="fill:#e74f6f; stroke:none;" d="M115 163L116 164L115 163z"/>
<path style="fill:#d03f5a; stroke:none;" d="M155 163L156 164L155 163z"/>
<path style="fill:#bd001a; stroke:none;" d="M156 163L157 164L156 163z"/>
<path style="fill:#d75c76; stroke:none;" d="M157 163L158 164L157 163z"/>
<path style="fill:#e85f7b; stroke:none;" d="M92 164L93 165L92 164z"/>
<path style="fill:#e95476; stroke:none;" d="M95.6667 164.333C95.2222 164.778 96.2778 164.722 96.3333 164.667C96.7778 164.222 95.7222 164.278 95.6667 164.333z"/>
<path style="fill:#e74e6e; stroke:none;" d="M116 164L117 165L116 164z"/>
<path style="fill:#bf0021; stroke:none;" d="M151 164L151 182C147.43 180.62 144.587 177.816 141 176.589C136.264 174.968 129.96 176 125 176C129.156 177.744 133.803 176.056 138 177.603C143.047 179.464 146.09 184.71 151 187C150.528 185.584 150.186 185.186 149 184C154.143 180.666 151.634 170.583 154 165L151 164z"/>
<path style="fill:#d4506d; stroke:none;" d="M152.667 164.333C152.222 164.778 153.278 164.722 153.333 164.667C153.778 164.222 152.722 164.278 152.667 164.333z"/>
<path style="fill:#c00b27; stroke:none;" d="M154.667 164.333C154.222 164.778 155.278 164.722 155.333 164.667C155.778 164.222 154.722 164.278 154.667 164.333z"/>
<path style="fill:#efb7c6; stroke:none;" d="M156 164L157 165L156 164z"/>
<path style="fill:#f7bac7; stroke:none;" d="M93 165L94 166L93 165z"/>
<path style="fill:#e44261; stroke:none;" d="M117 165L118 166L117 165z"/>
<path style="fill:#d70010; stroke:none;" d="M118 165C120.332 165.985 122.457 165.981 125 166C122.668 165.015 120.543 165.019 118 165z"/>
<path style="fill:#b9000e; stroke:none;" d="M125 165C127.052 165.874 128.747 165.953 131 166C128.948 165.126 127.253 165.047 125 165z"/>
<path style="fill:#d65775; stroke:none;" d="M154 165L155 166L154 165z"/>
<path style="fill:#eb6f8b; stroke:none;" d="M95 166L96 167L95 166z"/>
<path style="fill:#efbfca; stroke:none;" d="M118 166C121.959 167.661 126.737 167 131 167C127.041 165.339 122.263 166 118 166z"/>
<path style="fill:#f0c1cc; stroke:none;" d="M153 166L154 167L153 166z"/>
<path style="fill:#f2a5b6; stroke:none;" d="M96 167L96 184C97.8826 179.514 97.8826 171.486 96 167z"/>
<path style="fill:#ebafbd; stroke:none;" d="M152 167C152 171.767 150.214 180.691 154 184C152.687 178.484 154.161 172.15 152 167z"/>
<path style="fill:#bd001b; stroke:none;" d="M168 168C166.652 169.768 165.878 170.983 165 173C167.015 171.356 168.098 170.587 168 168z"/>
<path style="fill:#e43e61; stroke:none;" d="M82 170L83 171L82 170z"/>
<path style="fill:#e95c7c; stroke:none;" d="M83 171L84 172L83 171z"/>
<path style="fill:#ea5a7c; stroke:none;" d="M84 172L85 173L84 172z"/>
<path style="fill:#ce3555; stroke:none;" d="M164 172L165 173L164 172z"/>
<path style="fill:#eb7593; stroke:none;" d="M85 173L86 174L85 173z"/>
<path style="fill:#d44a68; stroke:none;" d="M163 173L164 174L163 173z"/>
<path style="fill:#d9001c; stroke:none;" d="M85 174C86.4798 177.166 88.1684 178.951 91 181C89.5202 177.834 87.8316 176.049 85 174z"/>
<path style="fill:#f295ad; stroke:none;" d="M86 174L87 175L86 174z"/>
<path style="fill:#f8d1d9; stroke:none;" d="M109 174C111.89 175.213 114.874 174.998 118 175C115.11 173.787 112.126 174.002 109 174z"/>
<path style="fill:#f4a7b9; stroke:none;" d="M118 174C121.432 175.44 125.3 175 129 175C125.568 173.56 121.7 174 118 174z"/>
<path style="fill:#f7dae1; stroke:none;" d="M129 174C132.697 175.552 137.017 175 141 175C137.303 173.448 132.983 174 129 174z"/>
<path style="fill:#da6481; stroke:none;" d="M162 174L163 175L162 174z"/>
<path style="fill:#f5b2c0; stroke:none;" d="M87 175L88 176L87 175z"/>
<path style="fill:#f3b0c0; stroke:none;" d="M107 175L108 176L107 175z"/>
<path style="fill:#de0636; stroke:none;" d="M108 175C112.974 177.087 119.638 176 125 176C120.026 173.913 113.362 175 108 175z"/>
<path style="fill:#c50735; stroke:none;" d="M125 175C129.724 176.982 135.91 176 141 176C136.276 174.018 130.09 175 125 175z"/>
<path style="fill:#de758d; stroke:none;" d="M141 175L142 176L141 175z"/>
<path style="fill:#da5f7f; stroke:none;" d="M161 175L162 176L161 175z"/>
<path style="fill:#f5b4c2; stroke:none;" d="M106 176L107 177L106 176z"/>
<path style="fill:#da0020; stroke:none;" d="M102 182L103 183C105.569 181.221 108.029 178.68 111 177.603C115.133 176.103 120.656 177 125 177C117.437 173.826 106.835 175.358 102 182z"/>
<path style="fill:#dd6e87; stroke:none;" d="M142 176L143 177L142 176z"/>
<path style="fill:#e386a1; stroke:none;" d="M160 176L161 177L160 176z"/>
<path style="fill:#bd001b; stroke:none;" d="M161 176C158.87 178.279 157.299 180.181 156 183C158.643 181.08 161.076 179.392 161 176z"/>
<path style="fill:#f2a1b4; stroke:none;" d="M105 177L106 178L105 177z"/>
<path style="fill:#df123f; stroke:none;" d="M109 177C113.724 178.982 119.91 178 125 178C120.276 176.018 114.09 177 109 177z"/>
<path style="fill:#c7123e; stroke:none;" d="M125 177C129.471 178.876 135.183 178 140 178C135.529 176.124 129.817 177 125 177z"/>
<path style="fill:#d65974; stroke:none;" d="M143 177L144 178L143 177z"/>
<path style="fill:#e9a4b7; stroke:none;" d="M159 177L160 178L159 177z"/>
<path style="fill:#ef8ba0; stroke:none;" d="M104 178L105 179L104 178z"/>
<path style="fill:#e64569; stroke:none;" d="M108 178L109 179L108 178z"/>
<path style="fill:#fdf2f3; stroke:none;" d="M109 178C117.367 181.511 130.924 179 140 179C131.633 175.489 118.076 178 109 178z"/>
<path style="fill:#dc6f88; stroke:none;" d="M140 178L141 179L140 178z"/>
<path style="fill:#d14463; stroke:none;" d="M144 178L145 179L144 178z"/>
<path style="fill:#efbfcd; stroke:none;" d="M158 178L159 179L158 178z"/>
<path style="fill:#ef87a0; stroke:none;" d="M103 179L104 180L103 179z"/>
<path style="fill:#e64969; stroke:none;" d="M107 179L108 180L107 179z"/>
<path style="fill:#ffffff; stroke:none;" d="M100 189C106.428 190.068 106.871 184.677 112.09 182.603C115.3 181.328 119.613 182 123 182C132.46 182 138.503 181.243 144 190L149 189C147.305 185.367 144.71 181.886 141 180.028C137.269 178.159 132.049 179 128 179C116.756 179 105.613 176.965 100 189z"/>
<path style="fill:#e2829a; stroke:none;" d="M141 179L142 180L141 179z"/>
<path style="fill:#ce3457; stroke:none;" d="M145 179L146 180L145 179z"/>
<path style="fill:#e43e61; stroke:none;" d="M91 180L92 181L91 180z"/>
<path style="fill:#ec758e; stroke:none;" d="M102 180L103 181L102 180z"/>
<path style="fill:#e64869; stroke:none;" d="M106 180L107 181L106 180z"/>
<path style="fill:#df7993; stroke:none;" d="M142 180L143 181L142 180z"/>
<path style="fill:#e95b7c; stroke:none;" d="M92 181L93 182L92 181z"/>
<path style="fill:#ed738d; stroke:none;" d="M101 181L102 182L101 181z"/>
<path style="fill:#e54263; stroke:none;" d="M105 181L106 182L105 181z"/>
<path style="fill:#df7792; stroke:none;" d="M143 181L144 182L143 181z"/>
<path style="fill:#f7dbe2; stroke:none;" d="M148.667 181.333C148.222 181.778 149.278 181.722 149.333 181.667C149.778 181.222 148.722 181.278 148.667 181.333z"/>
<path style="fill:#ea5a7c; stroke:none;" d="M93 182L94 183L93 182z"/>
<path style="fill:#e54261; stroke:none;" d="M104 182L105 183L104 182z"/>
<path style="fill:#ee85a1; stroke:none;" d="M110 182L111 183L110 182z"/>
<path style="fill:#d34567; stroke:none;" d="M111 182C118.649 185.21 130.712 183 139 183C131.351 179.79 119.288 182 111 182z"/>
<path style="fill:#de708b; stroke:none;" d="M144 182L145 183L144 182z"/>
<path style="fill:#cf3556; stroke:none;" d="M155 182L156 183L155 182z"/>
<path style="fill:#ec718c; stroke:none;" d="M94 183L95 184L94 183z"/>
<path style="fill:#e54262; stroke:none;" d="M103 183L104 184L103 183z"/>
<path style="fill:#f5abbe; stroke:none;" d="M109 183L110 184L109 183z"/>
<path style="fill:#da0020; stroke:none;" d="M109 188C111.044 186.376 111.896 185.357 113 183C110.036 183.968 109.497 184.934 109 188z"/>
<path style="fill:#de0535; stroke:none;" d="M113 183C116.697 184.552 121.017 184 125 184C121.303 182.448 116.983 183 113 183z"/>
<path style="fill:#c40533; stroke:none;" d="M125 183C129.104 184.722 134.53 184.435 139 185C136.029 181.6 129.257 183 125 183z"/>
<path style="fill:#d4476c; stroke:none;" d="M139 183L140 184L139 183z"/>
<path style="fill:#de6f8b; stroke:none;" d="M145 183L146 184L145 183z"/>
<path style="fill:#d9607d; stroke:none;" d="M154 183L155 184L154 183z"/>
<path style="fill:#e54261; stroke:none;" d="M102 184L103 185L102 184z"/>
<path style="fill:#edb8c4; stroke:none;" d="M113 184C119.445 186.704 129.032 185 136 185C129.555 182.296 119.968 184 113 184z"/>
<path style="fill:#bc0015; stroke:none;" d="M139 184L138 185C139.314 186.931 141.977 189.516 141.95 192.002C141.916 195.026 138.264 198.28 137 201C140.939 198.218 144.088 194.838 147 191L139 184z"/>
<path style="fill:#e2839d; stroke:none;" d="M140 184L141 185L140 184z"/>
<path style="fill:#db6784; stroke:none;" d="M146 184L147 185L146 184z"/>
<path style="fill:#e54161; stroke:none;" d="M101 185L102 186L101 185z"/>
<path style="fill:#e3385f; stroke:none;" d="M108 185L109 186L108 185z"/>
<path style="fill:#ffffff; stroke:none;" d="M112.005 186.028C105.259 189.473 106.879 195.889 113.001 198.972C117.723 201.351 131.277 201.351 135.999 198.972C142.121 195.889 143.741 189.473 136.995 186.028C132.08 183.518 116.92 183.518 112.005 186.028z"/>
<path style="fill:#d24362; stroke:none;" d="M137 185L138 186L137 185z"/>
<path style="fill:#da6581; stroke:none;" d="M147 185L148 186L147 185z"/>
<path style="fill:#e54665; stroke:none;" d="M100 186L101 187L100 186z"/>
<path style="fill:#ec718f; stroke:none;" d="M107 186L108 187L107 186z"/>
<path style="fill:#d60008; stroke:none;" d="M108 186L103 192C106.389 191.404 108.742 189.672 108 186z"/>
<path style="fill:#cf3b5c; stroke:none;" d="M138 186L139 187L138 186z"/>
<path style="fill:#d85d79; stroke:none;" d="M148 186L149 187L148 186z"/>
<path style="fill:#e85e7d; stroke:none;" d="M99.3333 187.667C99.2778 187.722 99.2222 188.778 99.6667 188.333C99.7222 188.278 99.7778 187.222 99.3333 187.667z"/>
<path style="fill:#f8c4d2; stroke:none;" d="M106 187L107 188L106 187z"/>
<path style="fill:#cf3c5c; stroke:none;" d="M139 187L140 188L139 187z"/>
<path style="fill:#d75376; stroke:none;" d="M142 187L143 188L142 187z"/>
<path style="fill:#ecb2bf; stroke:none;" d="M149.333 187.667C149.278 187.722 149.222 188.778 149.667 188.333C149.722 188.278 149.778 187.222 149.333 187.667z"/>
<path style="fill:#cf3c5c; stroke:none;" d="M140 188L141 189L140 188z"/>
<path style="fill:#e595aa; stroke:none;" d="M143 188L144 189L143 188z"/>
<path style="fill:#eb6b87; stroke:none;" d="M101 189L102 190L101 189z"/>
<path style="fill:#e74b6d; stroke:none;" d="M105 189L106 190L105 189z"/>
<path style="fill:#cf3c5d; stroke:none;" d="M141 189L142 190L141 189z"/>
<path style="fill:#ebaebc; stroke:none;" d="M147 189L148 190L147 189z"/>
<path style="fill:#ce3354; stroke:none;" d="M148 189L149 190L148 189z"/>
<path style="fill:#ea6785; stroke:none;" d="M103.667 190.333C103.222 190.778 104.278 190.722 104.333 190.667C104.778 190.222 103.722 190.278 103.667 190.333z"/>
<path style="fill:#d03b5c; stroke:none;" d="M142 190L143 191L142 190z"/>
<path style="fill:#e698ab; stroke:none;" d="M145 190L146 191L145 190z"/>
<path style="fill:#d95f7d; stroke:none;" d="M146 190L147 191L146 190z"/>
<path style="fill:#d4506b; stroke:none;" d="M143 191L144 192L143 191z"/>
<path style="fill:#ec6d88; stroke:none;" d="M105 192L106 193L105 192z"/>
<path style="fill:#f2c5d3; stroke:none;" d="M143 192L144 193L143 192z"/>
<path style="fill:#eb6d89; stroke:none;" d="M106 193L107 194L106 193z"/>
<path style="fill:#f1c3cf; stroke:none;" d="M142 193L143 194L142 193z"/>
<path style="fill:#e64669; stroke:none;" d="M107 194L108 195L107 194z"/>
<path style="fill:#f1c3cf; stroke:none;" d="M141 194L142 195L141 194z"/>
<path style="fill:#ea5d7d; stroke:none;" d="M108 195L109 196L108 195z"/>
<path style="fill:#f1c3cf; stroke:none;" d="M140 195L141 196L140 195z"/>
<path style="fill:#eb6784; stroke:none;" d="M109 196L110 197L109 196z"/>
<path style="fill:#f1c3cf; stroke:none;" d="M139 196L140 197L139 196z"/>
<path style="fill:#eb6f8c; stroke:none;" d="M110 197L111 198L110 197z"/>
<path style="fill:#efc0cc; stroke:none;" d="M138 197L139 198L138 197z"/>
<path style="fill:#ee7b96; stroke:none;" d="M111 198L112 199L111 198z"/>
<path style="fill:#eebdc9; stroke:none;" d="M137 198L138 199L137 198z"/>
<path style="fill:#ee7e97; stroke:none;" d="M112 199L113 200L112 199z"/>
<path style="fill:#eeb8c4; stroke:none;" d="M136 199L137 200L136 199z"/>
<path style="fill:#e54569; stroke:none;" d="M113 200L114 201L113 200z"/>
<path style="fill:#e38a9f; stroke:none;" d="M114 200C120.202 202.603 129.298 201 136 201C129.798 198.397 120.702 200 114 200z"/>
<path style="fill:#da001c; stroke:none;" d="M113 201C116.697 202.552 121.017 202 125 202C121.303 200.448 116.983 201 113 201z"/>
<path style="fill:#bd001a; stroke:none;" d="M125 201C128.432 202.44 132.3 202 136 202C132.568 200.56 128.7 201 125 201z"/>
<path style="fill:#800000; stroke:none;" d="M142 226L143 227L142 226z"/>
</svg>
