<?xml version="1.0" encoding="UTF-8"?>
<svg version="1.1" xmlns="http://www.w3.org/2000/svg" width="210" height="210">
<path d="M0 0 C7.9399913 4.21882729 15.5936475 8.83035754 23.22265625 13.5859375 C26.84828585 15.82815085 30.53500007 17.92529172 34.27124023 19.97680664 C38.55909544 22.33961165 42.80386593 24.77843458 47.0546875 27.20703125 C47.93189453 27.70654297 48.80910156 28.20605469 49.71289062 28.72070312 C54.94831861 31.71072279 60.13545861 34.76971039 65.2980957 37.88354492 C69.08404043 40.14618396 72.92766551 42.30279631 76.77734375 44.45507812 C78.40204575 45.37330858 80.01034191 46.32039953 81.6171875 47.26953125 C82.32819107 47.60446594 83.03919464 47.93940063 83.77174377 48.28448486 C86.85620252 51.6022743 86.23226248 55.49630641 86.24584961 59.86230469 C86.26410294 60.84636292 86.28235626 61.83042114 86.30116272 62.84429932 C86.35456358 66.10597173 86.37688866 69.36685539 86.39453125 72.62890625 C86.41499852 74.89471588 86.43563579 77.16052397 86.45643616 79.42633057 C86.49396591 84.18107827 86.51333488 88.93554925 86.52319336 93.69042969 C86.53953909 99.77916462 86.6252272 105.8647961 86.72788143 111.95260239 C86.79493592 116.63505086 86.81252605 121.31675361 86.81659126 125.99964142 C86.82684413 128.24363099 86.85533105 130.48761487 86.90247917 132.73113251 C87.24397734 150.30165326 87.24397734 150.30165326 83.23466492 155.15159607 C80.39276799 156.99091637 77.80442078 158.16163297 74.6171875 159.26953125 C73.19312677 160.054087 71.78116644 160.86198547 70.39453125 161.7109375 C69.11616928 162.42083224 67.83622612 163.12788736 66.5546875 163.83203125 C61.37358322 166.71211211 56.25050308 169.65650622 51.18359375 172.734375 C44.6056777 176.66911017 37.91155513 180.41312085 31.234375 184.17578125 C27.84282474 186.11394457 24.52658801 188.16328764 21.21337891 190.23193359 C18.85744987 191.68921448 16.47923759 193.10463989 14.09765625 194.51953125 C11.38630217 196.14013665 8.98666566 197.7595009 6.48046875 199.70703125 C3.27744762 201.97336289 1.55618039 202.98322696 -2.3828125 203.26953125 C-10.48510831 200.6459307 -17.63628526 195.509439 -24.61181641 190.74804688 C-29.46490072 187.44721602 -34.41291149 184.53450456 -39.58837891 181.765625 C-44.12234476 179.33821431 -48.59366747 176.80067025 -53.0703125 174.26953125 C-54.03984863 173.72135742 -55.00938477 173.17318359 -56.00830078 172.60839844 C-63.61923358 168.29305924 -71.19706436 163.92215052 -78.7578125 159.51953125 C-79.80412842 158.91109375 -80.85044434 158.30265625 -81.9284668 157.67578125 C-82.89051025 157.11375 -83.85255371 156.55171875 -84.84375 155.97265625 C-85.69759277 155.47411133 -86.55143555 154.97556641 -87.43115234 154.46191406 C-89.3828125 153.26953125 -89.3828125 153.26953125 -90.3828125 152.26953125 C-90.54751068 149.1467623 -90.64654126 146.04511109 -90.70263672 142.91967773 C-90.72366455 141.93751785 -90.74469238 140.95535797 -90.76635742 139.94343567 C-90.94947278 130.86468069 -91.05541391 121.7846205 -91.13850212 112.70445156 C-91.1951265 106.60071925 -91.27669042 100.49961559 -91.41845703 94.3972168 C-91.55486346 88.50190135 -91.62733058 82.60897004 -91.65515518 76.71217537 C-91.67662372 74.46604738 -91.72066677 72.22001568 -91.7878685 69.97479057 C-92.27647927 52.86127661 -92.27647927 52.86127661 -89.14496613 48.57536697 C-85.68447776 45.43990446 -81.72720531 43.91518636 -77.3828125 42.26953125 C-75.2604682 41.09341838 -73.15214834 39.89094464 -71.0703125 38.64453125 C-69.90542822 37.98352785 -68.74014218 37.32323124 -67.57421875 36.6640625 C-62.19017923 33.60260242 -56.85305885 30.46053102 -51.5078125 27.33203125 C-44.06600619 22.97958021 -36.60444715 18.67317372 -29.07373047 14.4765625 C-23.31532688 11.25778582 -17.63333522 7.91335926 -11.96313477 4.54199219 C-10.95657837 3.94499512 -10.95657837 3.94499512 -9.9296875 3.3359375 C-9.34026367 2.98474854 -8.75083984 2.63355957 -8.14355469 2.27172852 C-2.69884071 -0.82734953 -2.69884071 -0.82734953 0 0 Z M-14.6328125 35.70703125 C-15.77848213 36.42003648 -16.92663471 37.12906646 -18.07714844 37.83422852 C-20.40944397 39.26820233 -22.72985385 40.71889761 -25.04296875 42.18359375 C-29.82563843 45.17066463 -34.71925187 47.94269843 -39.6328125 50.70703125 C-41.32089774 51.66954723 -43.00841818 52.63305459 -44.6953125 53.59765625 C-47.71432448 55.31962953 -50.73524996 57.03817377 -53.7578125 58.75390625 C-54.7492627 59.31766968 -54.7492627 59.31766968 -55.76074219 59.89282227 C-57.49339524 60.87777723 -59.22711994 61.86084638 -60.9609375 62.84375 C-63.25472177 64.05790017 -63.25472177 64.05790017 -64.3828125 65.26953125 C-64.52988733 67.47572553 -64.60596027 69.68667016 -64.6550293 71.8972168 C-64.67123825 72.58998215 -64.6874472 73.2827475 -64.70414734 73.99650574 C-64.84452552 80.39803379 -64.92249348 86.80095931 -64.98306561 93.20369244 C-65.02403926 97.50695915 -65.08437791 101.80795036 -65.19213867 106.11010742 C-65.29593429 110.26770865 -65.35047342 114.42328087 -65.37052345 118.58210182 C-65.38645162 120.16554298 -65.41967321 121.74891011 -65.47067833 123.33160973 C-65.61725311 128.10958884 -65.62188532 132.61131082 -64.3828125 137.26953125 C-61.42769013 140.39124333 -58.34223371 141.74033898 -54.3828125 143.26953125 C-52.711154 144.1976929 -51.05136479 145.1479064 -49.41015625 146.12890625 C-47.7139917 147.09323991 -46.01736464 148.05676045 -44.3203125 149.01953125 C-38.37801484 152.40186703 -32.44400608 155.79512938 -26.55810547 159.27490234 C-25.16065209 160.0981306 -23.75866209 160.91371055 -22.35205078 161.72119141 C-19.0041087 163.65266574 -15.81528403 165.64356332 -12.7109375 167.94921875 C-9.40329562 170.32231041 -6.33979595 172.13698342 -2.3828125 173.26953125 C2.16986292 172.12549555 5.50070037 169.55645627 9.24707031 166.85888672 C13.76848558 163.82691171 18.61301214 161.33066837 23.39517212 158.73806763 C32.99233189 153.52925942 42.36450826 148.06490565 51.6171875 142.26953125 C52.3188504 142.00962402 53.02051331 141.7497168 53.74343872 141.48193359 C56.34806714 140.35479251 57.792334 139.46419753 59.6171875 137.26953125 C60.86197817 131.94214189 60.74406324 126.64258609 60.6796875 121.20703125 C60.68507975 119.61188817 60.69284662 118.0167515 60.70288086 116.42163086 C60.71466156 113.08220693 60.69758491 109.74449758 60.66015625 106.40527344 C60.61456566 102.13013776 60.64081852 97.85901848 60.68873596 93.58403015 C60.71768417 90.29115679 60.70842789 86.99923171 60.68771362 83.70632935 C60.68238734 82.13070192 60.68889038 80.55498761 60.70755005 78.97946167 C61.13537588 70.58675471 61.13537588 70.58675471 57.92443848 63.2596283 C55.8572966 61.94427725 53.92337806 61.07983226 51.6171875 60.26953125 C50.80701172 59.79201416 49.99683594 59.31449707 49.16210938 58.82250977 C48.47697266 58.43506592 47.79183594 58.04762207 47.0859375 57.6484375 C46.28704102 57.19476807 45.48814453 56.74109863 44.66503906 56.27368164 C43.82424805 55.79793701 42.98345703 55.32219238 42.1171875 54.83203125 C32.99693527 49.64872621 23.92584598 44.38521086 14.87695312 39.07836914 C13.00091126 37.97991406 11.11668754 36.89528478 9.22363281 35.82641602 C6.6171875 34.26953125 6.6171875 34.26953125 4.34667969 32.52319336 C-3.03820299 27.18587674 -7.70382899 31.16007921 -14.6328125 35.70703125 Z " fill="#5A6AE4" transform="translate(107.3828125,3.73046875)"/>
<path d="M0 0 C0.66 0.33 1.32 0.66 2 1 C1.02688873 1.69195465 1.02688873 1.69195465 0.03411865 2.39788818 C-3.010247 6.29234136 -2.57221149 9.81778894 -2.54589844 14.63378906 C-2.55623611 15.60973022 -2.56657379 16.58567139 -2.57722473 17.59118652 C-2.60671629 20.8161665 -2.60815328 24.04052061 -2.609375 27.265625 C-2.62435231 29.50194501 -2.6410785 31.73825393 -2.65948486 33.97454834 C-2.70322072 39.85999044 -2.72317141 45.74528332 -2.73822021 51.63085938 C-2.75776872 57.63680874 -2.79974129 63.64259642 -2.83984375 69.6484375 C-2.91521352 81.43224187 -2.96546411 93.21601017 -3 105 C-3.33 105 -3.66 105 -4 105 C-4.09256454 91.75272382 -4.16369624 78.50552421 -4.20724869 65.25799084 C-4.2281487 59.10701791 -4.25651077 52.95626576 -4.30175781 46.80541992 C-4.34512887 40.8726566 -4.3691189 34.94010601 -4.37950897 29.00719643 C-4.38691603 26.7404883 -4.40137973 24.47379218 -4.42292023 22.2071743 C-4.45183749 19.0391434 -4.45596083 15.87199845 -4.45410156 12.70385742 C-4.46848267 11.76086792 -4.48286377 10.81787842 -4.49768066 9.84631348 C-4.45705348 3.47465388 -4.45705348 3.47465388 -1.97161865 0.89350891 C-0.99566742 0.451222 -0.99566742 0.451222 0 0 Z " fill="#5E4CA0" transform="translate(21,51)"/>
<path d="M0 0 C0.66 0.33 1.32 0.66 2 1 C1.35546875 1.50015625 0.7109375 2.0003125 0.046875 2.515625 C-2.65123945 5.79043567 -2.66534331 8.67878271 -2.75 12.75 C-2.77964844 13.44738281 -2.80929688 14.14476563 -2.83984375 14.86328125 C-2.91018458 16.57490813 -2.95739946 18.28745815 -3 20 C-3.33 20 -3.66 20 -4 20 C-4.10787818 17.22813012 -4.18723327 14.46044463 -4.25 11.6875 C-4.28351562 10.90181641 -4.31703125 10.11613281 -4.3515625 9.30664062 C-4.38855392 7.13339453 -4.38367634 5.14030099 -4 3 C-1.984375 0.95703125 -1.984375 0.95703125 0 0 Z " fill="#5A369E" transform="translate(21,51)"/>
</svg>
