<?xml version="1.0" encoding="UTF-8"?>
<svg version="1.1" xmlns="http://www.w3.org/2000/svg" width="512" height="512">
<path d="M0 0 C105.93 0 211.86 0 321 0 C321.0928125 51.913125 321.0928125 51.913125 321.1875 104.875 C321.21481201 115.79964355 321.24212402 126.72428711 321.27026367 137.97998047 C321.28381348 151.32836914 321.28381348 151.32836914 321.28633118 157.57888794 C321.2891242 161.94099513 321.30035908 166.30299259 321.31672668 170.66506958 C321.33734545 176.23411769 321.34346575 181.80300688 321.33921683 187.37208962 C321.34010496 189.41284012 321.34602924 191.45359633 321.35764539 193.49431396 C321.43198345 207.19349977 321.29721802 219.04481308 312 230 C303.91421986 237.6672615 295.59149675 239.45087743 284.77235413 239.38768005 C283.1055368 239.39575836 283.1055368 239.39575836 281.4050464 239.40399987 C277.69187376 239.41827565 273.97905778 239.41117641 270.26586914 239.40405273 C267.59951148 239.40975647 264.93317919 239.4166204 262.26683044 239.42485046 C255.78244925 239.44201862 249.29816504 239.44288265 242.81376702 239.43763756 C237.541809 239.43359107 232.26987956 239.4350451 226.9979229 239.44038582 C226.24670707 239.44113424 225.49549123 239.44188266 224.72151129 239.44265376 C223.19527113 239.44418529 221.66903099 239.44572364 220.14279085 239.44726873 C205.84044294 239.46098649 191.53814977 239.45556109 177.23580312 239.44408352 C164.16055434 239.43415099 151.08544707 239.44709339 138.01022012 239.47101771 C124.57293121 239.49541862 111.13570819 239.50501421 97.69839758 239.49836498 C90.15900299 239.49487508 82.61971723 239.49708974 75.08033943 239.51461601 C68.66257114 239.52935038 62.24498831 239.52995737 55.82722361 239.5125451 C52.5551128 239.50404286 49.28340064 239.50404134 46.01129532 239.51719666 C42.45876139 239.53038808 38.90712495 239.51887387 35.35462952 239.50120544 C33.81463141 239.51561295 33.81463141 239.51561295 32.24352223 239.53031152 C21.54116238 239.42095243 14.46620128 235.44923264 7 228 C-7.14908024 213.46851219 0 181.985109 0 168 C46.53 168 93.06 168 141 168 C143.64 173.28 146.28 178.56 149 184 C155.00776315 191.81009209 165.18775206 197.53637702 175 199 C181.00501878 199.34998659 187.03345529 199.31291575 193.046875 199.35009766 C195.01574488 199.36670023 196.98455344 199.39404642 198.953125 199.43212891 C201.80239885 199.48688601 204.65027102 199.50876275 207.5 199.5234375 C208.37720703 199.54610687 209.25441406 199.56877625 210.15820312 199.59213257 C214.48663656 199.57716792 216.41033044 199.44099136 219.96875 196.77978516 C221.85015738 194.20506106 223.047751 192.02988319 224 189 C224.76666992 188.9906543 225.53333984 188.98130859 226.32324219 188.97167969 C229.79948103 188.91797227 233.27437474 188.83432424 236.75 188.75 C237.9565625 188.73582031 239.163125 188.72164062 240.40625 188.70703125 C241.56640625 188.67480469 242.7265625 188.64257812 243.921875 188.609375 C244.99018555 188.58842773 246.05849609 188.56748047 247.15917969 188.54589844 C250.66461252 187.87228656 251.84202918 186.79820649 254 184 C255.06435104 180.09737951 255.39739585 177.94120071 253.8125 174.1875 C251.29661762 171.15109024 249.2643855 170.15171697 245.34277344 169.68115234 C244.35825195 169.64973145 243.37373047 169.61831055 242.359375 169.5859375 C241.28945313 169.54726563 240.21953125 169.50859375 239.1171875 169.46875 C238.00601563 169.4378125 236.89484375 169.406875 235.75 169.375 C234.06003906 169.31699219 234.06003906 169.31699219 232.3359375 169.2578125 C229.55755891 169.16363017 226.77880201 169.08072972 224 169 C224 161.74 224 154.48 224 147 C225.67449219 146.96261719 227.34898437 146.92523438 229.07421875 146.88671875 C231.27866805 146.8210543 233.48309414 146.75460713 235.6875 146.6875 C236.79029297 146.66494141 237.89308594 146.64238281 239.02929688 146.61914062 C240.09599609 146.58369141 241.16269531 146.54824219 242.26171875 146.51171875 C243.24100342 146.48553467 244.22028809 146.45935059 245.22924805 146.43237305 C248.4513767 145.92956312 250.37072043 144.90358342 253 143 C255.33223037 139.07761256 255.0417039 136.35621631 254 132 C253.67 131.01 253.34 130.02 253 129 C247.03066103 126.59261227 240.93168019 126.57390738 234.5625 126.375 C233.54478516 126.33632813 232.52707031 126.29765625 231.47851562 126.2578125 C228.98585064 126.16419128 226.4931805 126.07846007 224 126 C223.38125 124.6078125 223.38125 124.6078125 222.75 123.1875 C220.92572322 119.86471016 220.2769989 118.75550054 217 117 C213.86443221 116.54334385 210.75420214 116.55591472 207.58984375 116.56640625 C206.20582115 116.55854347 206.20582115 116.55854347 204.7938385 116.55052185 C202.83953861 116.54410113 200.88520008 116.5454393 198.9309082 116.55395508 C195.97209662 116.56240124 193.01525836 116.5338087 190.05664062 116.50195312 C175.29119086 116.44647153 163.1338056 118.28218951 152.02734375 128.8828125 C146.69687687 134.65465562 143.8917265 140.77068374 141 148 C94.47 148 47.94 148 0 148 C0 99.16 0 50.32 0 0 Z M87.75 31.8125 C79.82608315 42.52109912 76.66233279 58.69528605 72.56591797 71.24902344 C71.61400822 74.15859708 70.64889545 77.06359591 69.68359375 79.96875 C69.07210765 81.83567271 68.46140122 83.70285101 67.8515625 85.5703125 C67.42044662 86.85943039 67.42044662 86.85943039 66.98062134 88.17459106 C65.56329891 92.56791314 64.55167176 96.32192978 65 101 C66.64133965 103.98824051 68.92366836 106.46183418 72 108 C75.77883293 108.5152954 77.67234362 108.17385849 81.0625 106.375 C85.75073877 102.13208206 87.31482541 94.88319803 89 89 C89 88.34 89 87.68 89 87 C100.88 87 112.76 87 125 87 C125.99 90.63 126.98 94.26 128 98 C129.83826551 102.59566378 131.60666356 105.55925754 136 108 C138.91983441 108.34943252 141.24842067 108.02976611 144 107 C147.20265572 104.4149551 147.20265572 104.4149551 149 101 C148.72140599 93.66309206 146.69326802 87.2021729 144.359375 80.28125 C143.99531555 79.1833313 143.6312561 78.0854126 143.25616455 76.95422363 C142.48721145 74.64329883 141.71375205 72.33386911 140.93603516 70.02587891 C139.7550719 66.5150779 138.59342123 62.99830073 137.43359375 59.48046875 C136.68084119 57.22617693 135.92697165 54.97225772 135.171875 52.71875 C134.82896423 51.67787231 134.48605347 50.63699463 134.13275146 49.5645752 C130.21274677 37.63921235 130.21274677 37.63921235 122 28.5625 C121.360625 28.11003906 120.72125 27.65757812 120.0625 27.19140625 C109.17977168 20.90498174 96.63128391 23.06926713 87.75 31.8125 Z M162 28 C160.54871499 30.90257003 160.86466522 33.43872113 160.85473633 36.68115234 C160.85137772 37.36752274 160.8480191 38.05389313 160.84455872 38.76106262 C160.83503952 41.0360392 160.83310504 43.31094223 160.83203125 45.5859375 C160.82881905 47.16533438 160.825455 48.74473095 160.82194519 50.3241272 C160.81595129 53.63796681 160.81410553 56.95178034 160.81469727 60.265625 C160.81479884 64.51160149 160.80115308 68.75741057 160.78392506 73.0033474 C160.7728045 76.26672127 160.77077808 79.5300547 160.77130699 82.79344559 C160.77012671 84.35873618 160.76570223 85.92402781 160.75797462 87.48929977 C160.7481747 89.67967175 160.75105276 91.86968074 160.75708008 94.06005859 C160.75565506 95.30645111 160.75423004 96.55284363 160.75276184 97.83700562 C160.98935139 100.86376905 161.33801443 102.50242676 163 105 C165.95023568 107.51637749 168.20002031 108.26325364 172 108.0625 C175.50924975 107.39786936 177.97355508 106.2028351 180.16796875 103.23046875 C182.07385715 98.12125618 181.33023895 92.35720963 181 87 C181.79921875 87.03480469 182.5984375 87.06960938 183.421875 87.10546875 C195.11224586 87.39361169 205.23970235 86.26924958 214 78 C214.83144531 77.26330078 214.83144531 77.26330078 215.6796875 76.51171875 C221.3467871 70.83052189 223.59767624 62.99836135 224.23046875 55.13671875 C223.87422568 46.01953492 219.86902998 37.28337937 213.25 31 C204.38333117 24.37459765 195.61642462 23.35086536 184.84838867 23.47851562 C182.67320541 23.50014212 180.50126082 23.47853321 178.32617188 23.453125 C176.92968028 23.45576557 175.53319069 23.46088494 174.13671875 23.46875 C172.88592529 23.47326172 171.63513184 23.47777344 170.34643555 23.48242188 C166.43622319 24.08719682 164.78600935 25.24644964 162 28 Z M236 29 C234.74210259 32.40594947 234.86032698 35.8172684 234.83886719 39.41748047 C234.82925964 40.71918182 234.8196521 42.02088318 234.80975342 43.36203003 C234.80490539 44.78041406 234.80062657 46.19880014 234.796875 47.6171875 C234.79111905 49.0768331 234.78536138 50.53647868 234.77960205 51.99612427 C234.76910933 55.05422313 234.76325523 58.11229584 234.75976562 61.17041016 C234.75428159 65.07991467 234.73024854 68.9890708 234.70179367 72.89846611 C234.68312803 75.91314694 234.67795963 78.92774445 234.67642975 81.94247818 C234.67341202 83.38332145 234.66541328 84.82416355 234.65224457 86.2649498 C234.6351022 88.28447268 234.63892092 90.30414015 234.64355469 92.32373047 C234.63990906 93.47082489 234.63626343 94.61791931 234.63250732 95.79977417 C235.17062751 100.48587058 236.66326143 103.84891957 240.25 106.9375 C244.00246955 108.38731778 246.14595711 108.10115511 250 107 C252.58297781 104.81008403 254.48415844 103.03168312 256 100 C256.1071768 97.87205605 256.14889226 95.74071356 256.16113281 93.61010742 C256.16609772 92.95460403 256.17106262 92.29910065 256.17617798 91.62373352 C256.19080544 89.45096798 256.19760315 87.27827548 256.203125 85.10546875 C256.20887676 83.59572853 256.21463449 82.08598834 256.22039795 80.57624817 C256.23091013 77.40784362 256.23675111 74.23946446 256.24023438 71.07104492 C256.24571421 67.01565917 256.26973009 62.96061001 256.29820633 58.9053297 C256.31685386 55.7851718 256.32203946 52.66509455 256.32357025 49.54488564 C256.32659345 48.05018591 256.33461078 46.5554875 256.34775543 45.06084251 C256.36485798 42.96632889 256.3629258 40.87263177 256.35644531 38.77807617 C256.36009094 37.58719894 256.36373657 36.39632172 256.36749268 35.1693573 C255.86662727 30.84975715 254.23184859 28.27584318 251.25 25.1875 C244.80302802 21.78493145 240.51981694 24.26495368 236 29 Z " fill="#4C5EAB" transform="translate(96,241)"/>
<path d="M0 0 C12.70630156 11.77261166 21.52154591 24.95128066 28.8125 40.5625 C29.89144531 40.52769531 30.97039062 40.49289063 32.08203125 40.45703125 C64.17462109 39.74402345 92.08064843 49.87548132 115.5625 71.9375 C137.54309474 95.30226317 145.57103944 122.72119416 145.12109375 154.359375 C144.2117172 183.35377103 129.24902648 207.11182901 109.390625 227.34765625 C106.86072469 229.52107061 104.89876418 230.4256079 101.8125 231.5625 C101.80370064 229.6105069 101.80370064 229.6105069 101.79472351 227.61907959 C101.73736435 215.32000036 101.66453402 203.0210957 101.57678509 190.72219467 C101.53216987 184.40009602 101.49289423 178.0780605 101.46606445 171.75585938 C101.43994328 165.64788082 101.39947858 159.54014637 101.34931374 153.43231964 C101.33270454 151.10892029 101.32115341 148.78547877 101.31488609 146.4620285 C101.25485506 126.24215159 99.8869974 110.25229625 85.29296875 94.8515625 C73.39207171 83.8690024 59.76889831 80.41246813 44.01759338 80.41532898 C42.92865829 80.41165229 41.83972319 80.4079756 40.71779007 80.4041875 C37.06779601 80.39317187 33.41783044 80.38931038 29.76782227 80.38549805 C27.15091359 80.37923173 24.53400581 80.37258478 21.917099 80.36558533 C14.06332649 80.34585948 6.20955276 80.33575919 -1.64423832 80.32685754 C-5.34864754 80.32246787 -9.05305535 80.31710279 -12.75746346 80.31186867 C-25.08220212 80.29485952 -37.40693991 80.28036757 -49.7316885 80.27311993 C-52.92716409 80.27121023 -56.12263967 80.26928987 -59.31811523 80.26733398 C-60.11227233 80.26685024 -60.90642942 80.2663665 -61.72465188 80.2658681 C-74.57610275 80.25757603 -87.42746029 80.23225164 -100.27887046 80.19975331 C-113.49236969 80.16661355 -126.70582161 80.14866489 -139.9193626 80.14547569 C-147.33044511 80.14331687 -154.74139157 80.13466094 -162.1524334 80.10901451 C-168.46685504 80.08721267 -174.78110756 80.0793033 -181.09556257 80.08898129 C-184.31171123 80.09349895 -187.52744204 80.08956714 -190.74355698 80.07221985 C-207.88675232 79.98496898 -223.81910141 79.93483966 -238.1875 90.5625 C-239.33992188 91.40748047 -239.33992188 91.40748047 -240.515625 92.26953125 C-251.37386962 101.0410724 -257.00805508 112.99305231 -259.1875 126.5625 C-259.92692828 134.6797338 -259.79386182 142.85289884 -259.796875 150.99609375 C-259.81188259 153.32879265 -259.82861507 155.66148103 -259.84698486 157.99415588 C-259.89038085 164.08493583 -259.91059561 170.1755725 -259.92572021 176.26647949 C-259.94539197 182.5013059 -259.98735024 188.73597982 -260.02734375 194.97070312 C-260.10234487 207.16792139 -260.15281796 219.36510503 -260.1875 231.5625 C-263.67072767 230.23418105 -266.05718319 229.07515236 -268.7109375 226.4375 C-269.33597168 225.81891113 -269.96100586 225.20032227 -270.60498047 224.56298828 C-271.57395264 223.57274658 -271.57395264 223.57274658 -272.5625 222.5625 C-273.23297363 221.8804248 -273.90344727 221.19834961 -274.59423828 220.49560547 C-279.41486488 215.51487991 -283.69294874 210.57618166 -287.1875 204.5625 C-287.54005859 203.95712402 -287.89261719 203.35174805 -288.25585938 202.72802734 C-298.44092528 185.00652448 -303.59420876 167.89173036 -303.5 147.3125 C-303.49436035 146.02706299 -303.4887207 144.74162598 -303.48291016 143.41723633 C-303.3677887 134.42807422 -302.8691562 126.19662034 -300.1875 117.5625 C-299.89746094 116.62422363 -299.89746094 116.62422363 -299.6015625 115.66699219 C-290.62801176 87.4861654 -271.7263128 65.2104902 -245.44921875 51.58203125 C-226.76492197 42.28724329 -207.7652681 40.13821612 -187.1875 40.5625 C-186.47787109 39.03882812 -186.47787109 39.03882812 -185.75390625 37.484375 C-172.66279253 9.98733419 -149.7802192 -12.72168206 -120.86474609 -23.28613281 C-78.15715226 -37.87824467 -34.03909018 -29.6992369 0 0 Z " fill="#4D60AC" transform="translate(335.1875,59.4375)"/>
<path d="M0 0 C1.10879713 -0.00453111 2.21759427 -0.00906223 3.35999131 -0.01373065 C7.07697093 -0.02639513 10.79380441 -0.02475292 14.51080322 -0.02310181 C17.17523748 -0.0290858 19.83966027 -0.03583445 22.50408936 -0.04345703 C28.99173289 -0.06005475 35.47934008 -0.06556604 41.96700308 -0.06668179 C47.24233276 -0.06763292 52.51765048 -0.07174649 57.79297638 -0.07808304 C72.75868466 -0.09569273 87.72436428 -0.10492243 102.690083 -0.10342209 C103.89974771 -0.10330222 103.89974771 -0.10330222 105.1338501 -0.10317993 C105.9412812 -0.10309817 106.74871231 -0.10301641 107.58061102 -0.10293217 C120.66177298 -0.10211953 133.74281972 -0.12125238 146.82394835 -0.14945666 C160.26456229 -0.17820669 173.70512008 -0.19199577 187.14576554 -0.19026911 C194.68802396 -0.1896059 202.23016161 -0.19506776 209.77239227 -0.21662521 C216.19492874 -0.23486502 222.61728971 -0.23916155 229.03984091 -0.22560637 C232.31409364 -0.21909043 235.58794124 -0.22109645 238.86217499 -0.23631287 C242.41883239 -0.25176907 245.97461125 -0.24245332 249.53125 -0.22705078 C250.5563668 -0.23733791 251.58148361 -0.24762503 252.63766456 -0.25822389 C261.75596217 -0.17119794 269.72611933 2.24863948 276.48834229 8.56430054 C289.78890405 23.3577825 285.01959229 39.64088293 285.01959229 60.26742554 C179.41959229 60.26742554 73.81959229 60.26742554 -34.98040771 60.26742554 C-34.98040771 17.68219826 -34.98040771 17.68219826 -26.68353271 8.79867554 C-18.62117741 1.54995242 -10.5655699 -0.03164649 0 0 Z M11.01959229 35.26742554 C9.44503489 38.41654033 9.6716011 40.78751369 10.01959229 44.26742554 C11.79239789 47.24415137 13.87567243 49.69546561 17.01959229 51.26742554 C21.57865273 51.79705689 21.57865273 51.79705689 25.77740479 50.22055054 C29.3458702 47.28992677 30.86624768 45.59641212 31.39459229 41.01742554 C30.90031933 36.07469596 29.48130928 34.72914253 26.01959229 31.26742554 C19.64436987 28.07981433 15.48245813 30.80455969 11.01959229 35.26742554 Z M56.01959229 34.26742554 C54.28327592 37.74005826 54.41768826 41.47935567 55.01959229 45.26742554 C57.20118374 48.02312 58.89136722 49.703313 62.01959229 51.26742554 C65.92755709 51.71151245 67.76507375 51.40447398 71.26959229 49.51742554 C74.54075031 46.93422026 74.54075031 46.93422026 76.01959229 43.26742554 C75.82702316 37.9717747 74.71005818 35.06972373 71.01959229 31.26742554 C65.30422568 28.40974224 60.64218748 30.52532467 56.01959229 34.26742554 Z M101.01959229 34.26742554 C99.28327592 37.74005826 99.41768826 41.47935567 100.01959229 45.26742554 C102.20118374 48.02312 103.89136722 49.703313 107.01959229 51.26742554 C110.92755709 51.71151245 112.76507375 51.40447398 116.26959229 49.51742554 C119.54075031 46.93422026 119.54075031 46.93422026 121.01959229 43.26742554 C120.82702316 37.9717747 119.71005818 35.06972373 116.01959229 31.26742554 C110.3008712 28.408065 105.24189142 29.91717795 101.01959229 34.26742554 Z " fill="#4A5DAB" transform="translate(130.98040771484375,159.73257446289063)"/>
<path d="M0 0 C1.08385986 0.00499512 2.16771973 0.00999023 3.28442383 0.01513672 C4.64849365 0.03334473 6.01256348 0.05155273 7.41796875 0.0703125 C11.76984375 0.1115625 16.12171875 0.1528125 20.60546875 0.1953125 C20.60546875 14.7153125 20.60546875 29.2353125 20.60546875 44.1953125 C-9.12698739 44.1953125 -9.12698739 44.1953125 -15.8203125 38.859375 C-20.44970662 33.96577228 -22.67837893 28.25796818 -22.95703125 21.5703125 C-22.57548405 14.45144507 -20.22464702 9.59337046 -14.95703125 4.8203125 C-10.29842611 0.95075185 -6.00327226 -0.05690305 0 0 Z " fill="#455AA9" transform="translate(278.39453125,376.8046875)"/>
<path d="M0 0 C3.8053125 -0.12375 3.8053125 -0.12375 7.6875 -0.25 C8.87218872 -0.30462402 8.87218872 -0.30462402 10.08081055 -0.36035156 C13.90260839 -0.42027101 15.63709783 -0.23202728 18.95703125 1.890625 C22.50245608 5.55129308 22.38787114 8.58579238 22.359375 13.515625 C22 16 22 16 19.625 19.0625 C15.42067243 22.16569416 12.44134593 22.12280094 7.375 22.0625 C4.94125 22.041875 2.5075 22.02125 0 22 C0 14.74 0 7.48 0 0 Z " fill="#455DAA" transform="translate(277,285)"/>
<path d="M0 0 C2.33944736 0.28730055 4.6739143 0.61936779 7 1 C8.00777029 3.74737377 9.00641446 6.49749952 10 9.25 C10.28617188 10.02730469 10.57234375 10.80460937 10.8671875 11.60546875 C11.27324219 12.73662109 11.27324219 12.73662109 11.6875 13.890625 C11.93886719 14.58188477 12.19023437 15.27314453 12.44921875 15.98535156 C13 18 13 18 13 22 C6.07 22 -0.86 22 -8 22 C-3.17241379 3.17241379 -3.17241379 3.17241379 0 0 Z " fill="#4B50A4" transform="translate(200,285)"/>
</svg>
