<?xml version="1.0" encoding="UTF-8"?>
<svg version="1.1" xmlns="http://www.w3.org/2000/svg" width="512" height="512">
<path d="M0 0 C168.96 0 337.92 0 512 0 C512.12375 82.2628125 512.12375 82.2628125 512.25 166.1875 C512.28641602 183.52692139 512.32283203 200.86634277 512.36035156 218.73120117 C512.37841797 239.84631348 512.37841797 239.84631348 512.3817749 249.71992493 C512.38551317 256.64059348 512.40021999 263.56113366 512.42230225 270.48176575 C512.44771521 278.45800444 512.45935517 286.43411952 512.4537798 294.41039904 C512.45136398 298.49301475 512.45526615 302.57535396 512.47686052 306.65791929 C512.49625693 310.34726419 512.49733935 314.03613584 512.48360443 317.72550201 C512.48109504 319.69630906 512.49839596 321.6671103 512.51632309 323.63783741 C512.5083596 324.80812929 512.50039612 325.97842117 512.49219131 327.18417645 C512.4937102 328.1938528 512.49522908 329.20352916 512.49679399 330.24380177 C511.86364075 333.75651707 510.43650634 335.44159728 508 338 C504.9723567 339.51382165 501.84098447 339.12984253 498.52099609 339.11352539 C497.75017197 339.11367142 496.97934784 339.11381744 496.18516541 339.1139679 C493.63122771 339.11326989 491.07736249 339.10548275 488.5234375 339.09765625 C486.75509684 339.09579167 484.98675567 339.09436796 483.21841431 339.09336853 C478.55935241 339.0895465 473.90032158 339.07971888 469.24127197 339.06866455 C464.48897726 339.05844369 459.73667753 339.05386946 454.984375 339.04882812 C445.65623633 339.03809634 436.32812075 339.02102367 427 339 C427.34933594 338.52949219 427.69867188 338.05898438 428.05859375 337.57421875 C428.51363281 336.95160156 428.96867187 336.32898438 429.4375 335.6875 C429.88996094 335.07261719 430.34242188 334.45773437 430.80859375 333.82421875 C433.40858771 329.8432444 433.58372338 325.602109 433 321 C431.5841932 316.52713265 429.4063899 313.91001365 425.25 311.75 C423.84566167 311.13758178 422.42808417 310.55479529 421 310 C420.24203125 309.7009375 419.4840625 309.401875 418.703125 309.09375 C416.81196775 308.36947701 414.90712552 307.68111626 413 307 C413.633731 300.84070435 414.90647084 295.0543535 416.4375 289.0625 C426.52962211 247.82020348 419.48198602 205.38529795 398.08154297 168.77636719 C390.58821401 156.46903954 381.19137833 146.13044333 371 136 C370.21230225 135.17689331 370.21230225 135.17689331 369.40869141 134.3371582 C365.27552043 130.06652683 360.94338468 126.50762221 356.0625 123.125 C354.95225464 122.3530127 354.95225464 122.3530127 353.81958008 121.56542969 C328.92818295 104.51065424 302.0364028 95.45719046 272 93 C272 92.34 272 91.68 272 91 C268.85378318 91.13822199 265.70814434 91.28685084 262.5625 91.4375 C261.66466797 91.47681641 260.76683594 91.51613281 259.84179688 91.55664062 C258.98779297 91.59853516 258.13378906 91.64042969 257.25390625 91.68359375 C256.46314697 91.72025146 255.6723877 91.75690918 254.85766602 91.79467773 C252.98598559 91.80563257 252.98598559 91.80563257 252 93 C250.1274089 93.21492239 248.25373695 93.42281068 246.37670898 93.59472656 C208.34200447 97.07977602 168.84324086 115.05333897 143.9375 144.62890625 C143.298125 145.41136719 142.65875 146.19382813 142 147 C141.39285156 147.73065674 141.39285156 147.73065674 140.7734375 148.47607422 C114.0855414 180.71419433 100.03321442 221.71517259 103.20214844 263.67675781 C105.51951962 287.90859002 112.78320836 311.0384767 125.15551758 332.0012207 C128 336.82167437 128 336.82167437 128 339 C112.1795732 339.09345986 96.35922099 339.16398718 80.53858662 339.20724869 C73.19270408 339.2278701 65.84699311 339.25598239 58.5012207 339.30175781 C52.0983003 339.34163879 45.69550416 339.36743589 39.292463 339.37635398 C35.90233647 339.3815667 32.51256542 339.39380894 29.12255287 339.42292023 C25.33710125 339.4518868 21.55239002 339.45595864 17.7668457 339.45410156 C16.64403198 339.46848267 15.52121826 339.48286377 14.36437988 339.49768066 C6.76220019 339.45722994 6.76220019 339.45722994 2.82707214 337.09661865 C-0.0681003 333.77432371 -0.12467607 331.88770714 -0.12304783 327.55331993 C-0.1250387 326.38900066 -0.12702957 325.2246814 -0.12908077 324.02507973 C-0.12616811 322.73558607 -0.12325544 321.44609241 -0.12025452 320.11752319 C-0.12069166 318.74556966 -0.12156805 317.37361621 -0.12284851 316.00166321 C-0.12510073 312.21102042 -0.12106549 308.42040566 -0.11607273 304.62976643 C-0.11172132 300.48703201 -0.11316633 296.34429897 -0.11389065 292.20156288 C-0.11442339 284.15145026 -0.10979553 276.10134875 -0.10338932 268.05123899 C-0.09620382 258.74420053 -0.09539537 249.4371688 -0.09460449 240.13012695 C-0.08934903 215.54508287 -0.07538799 190.96004127 -0.0625 166.375 C-0.041875 111.47125 -0.02125 56.5675 0 0 Z " fill="#EB4F6D" transform="translate(0,90)"/>
<path d="M0 0 C0.84499655 -0.00265183 1.6899931 -0.00530365 2.5605956 -0.00803584 C5.4230689 -0.01576195 8.28549954 -0.01628927 11.1479826 -0.01688576 C13.20854627 -0.02089819 15.26910916 -0.02533604 17.32967108 -0.03016531 C23.01628565 -0.04216092 28.70289172 -0.04778615 34.38951647 -0.05234647 C40.51302089 -0.05829118 46.63651509 -0.06990373 52.76001263 -0.08063698 C66.85978738 -0.1040249 80.95956253 -0.11857135 95.05935028 -0.13086639 C99.93613695 -0.13511956 104.81292323 -0.13968525 109.68970942 -0.14444971 C135.60650342 -0.16970689 161.52329803 -0.19176032 187.44010162 -0.20417786 C193.44621883 -0.2070993 199.45233602 -0.2100668 205.45845318 -0.21308327 C206.57775585 -0.21363963 206.57775585 -0.21363963 207.71967069 -0.21420723 C231.922296 -0.22636722 256.12484867 -0.25731824 280.32743985 -0.29900479 C305.19824173 -0.34176431 330.06900523 -0.36841523 354.93984486 -0.37365257 C358.45045429 -0.37439305 361.96106365 -0.37530374 365.47167301 -0.37631035 C366.16261814 -0.37650096 366.85356326 -0.37669158 367.56544612 -0.37688797 C378.69821204 -0.38040554 389.83088715 -0.40072171 400.96361969 -0.42710699 C412.14763594 -0.45321473 423.33154862 -0.4605794 434.51560072 -0.4500057 C440.57796711 -0.44480131 446.64004397 -0.44782117 452.70236874 -0.47247124 C458.24719831 -0.49482976 463.79152812 -0.49432862 469.33636566 -0.47526737 C471.34715549 -0.47244848 473.35797826 -0.47816958 475.36871479 -0.4930803 C478.09337564 -0.5120571 480.81623058 -0.50048598 483.54084778 -0.48101807 C484.32931374 -0.49386729 485.11777969 -0.50671651 485.93013856 -0.5199551 C490.01877783 -0.45535878 491.73836271 -0.04748319 494.92283171 2.61314142 C495.5948285 3.4460195 496.26682528 4.27889758 496.9591856 5.13701439 C497.2891856 5.46701439 497.6191856 5.79701439 497.9591856 6.13701439 C497.9591856 25.93701439 497.9591856 45.73701439 497.9591856 66.13701439 C328.9991856 66.13701439 160.0391856 66.13701439 -14.0408144 66.13701439 C-14.0408144 7.13701439 -14.0408144 7.13701439 -10.0408144 1.13701439 C-6.87676214 -0.44501174 -3.47447546 -0.00523155 0 0 Z M331.1857481 27.25810814 C327.14712404 33.44466283 327.11810096 39.96611748 327.9591856 47.13701439 C330.3142346 53.47442093 335.09832558 57.74815982 340.75215435 61.24638939 C346.0636379 63.38978452 352.91594266 62.95805085 358.37715435 61.48467064 C363.30573915 59.26347091 367.1896916 55.78822035 369.9591856 51.13701439 C370.67749174 48.69191932 370.85419131 46.70937457 370.9591856 44.13701439 C371.6191856 44.13701439 372.2791856 44.13701439 372.9591856 44.13701439 C372.9591856 44.94138939 372.9591856 45.74576439 372.9591856 46.57451439 C374.78504373 53.07913397 379.59464307 57.63643932 385.2091856 61.19951439 C392.68392636 63.06819958 400.39281615 63.50426162 407.20527935 59.46513939 C411.55658498 56.17016408 415.01296608 52.75680813 415.8341856 47.19951439 C415.8754356 46.18888939 415.9166856 45.17826439 415.9591856 44.13701439 C416.6191856 44.13701439 417.2791856 44.13701439 417.9591856 44.13701439 C417.9591856 44.94138939 417.9591856 45.74576439 417.9591856 46.57451439 C419.78504373 53.07913397 424.59464307 57.63643932 430.2091856 61.19951439 C437.69648684 63.0713397 445.37617645 63.48734477 452.2091856 59.47295189 C457.69496283 55.28514874 461.34797609 50.29206362 462.3654356 43.37529564 C462.61732873 35.51413086 461.24138274 30.09533276 455.9591856 24.13701439 C450.17856137 19.01234752 444.54680501 17.18089388 436.85371685 17.62529564 C430.18352545 18.80450627 425.65417601 21.88830601 421.4591856 27.13701439 C419.44974045 30.06791782 418.18560419 32.51431701 417.9591856 36.13701439 C417.2991856 36.13701439 416.6391856 36.13701439 415.9591856 36.13701439 C415.8973106 35.29138939 415.8354356 34.44576439 415.7716856 33.57451439 C414.32659043 27.46065021 411.16935108 23.5870345 405.8966856 20.19951439 C400.3453541 17.41923023 395.03649878 17.14843811 388.9591856 18.13701439 C382.06963383 20.43353165 377.48042346 24.85451806 373.9591856 31.13701439 C373.02315884 33.93781973 373.02315884 33.93781973 372.9591856 36.13701439 C372.2991856 36.13701439 371.6391856 36.13701439 370.9591856 36.13701439 C370.8973106 35.29138939 370.8354356 34.44576439 370.7716856 33.57451439 C369.32659043 27.46065021 366.16935108 23.5870345 360.8966856 20.19951439 C349.74060223 14.58428576 338.78410257 18.11036855 331.1857481 27.25810814 Z M21.9591856 23.13701439 C20.15772795 28.54138734 20.73182952 34.35669605 20.7091856 40.01201439 C20.6885606 41.29205345 20.6679356 42.57209251 20.6466856 43.89092064 C20.64152935 45.12455345 20.6363731 46.35818626 20.6310606 47.62920189 C20.6217149 48.75697044 20.61236919 49.884739 20.60274029 51.04668236 C21.00324414 54.51899591 21.83020946 56.38381296 23.9591856 59.13701439 C27.58870367 60.34685374 30.91089518 60.28184142 34.68925762 60.27745628 C35.48458578 60.28042741 36.27991393 60.28339853 37.09934294 60.28645968 C39.77317476 60.29515424 42.44696185 60.29665556 45.12080669 60.2981472 C47.03429542 60.30277479 48.94778323 60.30779937 50.86126995 60.31319237 C56.06580714 60.32632295 61.27033143 60.33276246 66.4748826 60.33720303 C69.72479553 60.34013233 72.97470491 60.34423684 76.22461605 60.3487072 C86.38808723 60.36238308 96.55155033 60.37204963 106.71503007 60.37590909 C118.45638598 60.38039198 130.19762559 60.39795025 141.93894613 60.42690969 C151.00907582 60.44850612 160.07917274 60.45861226 169.14932787 60.45995021 C174.56927274 60.46099958 179.9891083 60.46693566 185.40902615 60.48476982 C190.50615767 60.50121554 195.60309731 60.50342305 200.70024586 60.49463081 C202.571945 60.49385859 204.44365432 60.49822741 206.31532764 60.50808907 C208.86883062 60.52075519 211.42164849 60.51496106 213.97514629 60.50450706 C214.71727064 60.51256347 215.459395 60.52061987 216.22400796 60.52892041 C220.62177802 60.48675864 223.50364335 59.92444666 226.9591856 57.13701439 C228.76064325 51.73264144 228.18654168 45.91733273 228.2091856 40.26201439 C228.2298106 38.98197533 228.2504356 37.70193626 228.2716856 36.38310814 C228.27684185 35.14947533 228.2819981 33.91584251 228.2873106 32.64482689 C228.30132915 30.95317406 228.30132915 30.95317406 228.31563091 29.22734642 C227.91512706 25.75503287 227.08816174 23.89021582 224.9591856 21.13701439 C221.32966754 19.92717503 218.00747602 19.99218735 214.22911358 19.99657249 C213.43378542 19.99360137 212.63845727 19.99063025 211.81902826 19.98756909 C209.14519644 19.97887454 206.47140935 19.97737321 203.79756451 19.97588158 C201.88407578 19.97125398 199.97058797 19.9662294 198.05710125 19.96083641 C192.85256406 19.94770583 187.64803977 19.94126631 182.4434886 19.93682575 C179.19357567 19.93389644 175.94366629 19.92979193 172.69375515 19.92532158 C162.53028397 19.9116457 152.36682087 19.90197915 142.20334113 19.89811969 C130.46198522 19.8936368 118.72074561 19.87607853 106.97942507 19.84711909 C97.90929538 19.82552266 88.83919846 19.81541652 79.76904333 19.81407857 C74.34909846 19.8130292 68.9292629 19.80709312 63.50934505 19.78925896 C58.41221353 19.77281324 53.3152739 19.77060573 48.21812534 19.77939796 C46.3464262 19.78017018 44.47471688 19.77580136 42.60304356 19.76593971 C40.04954058 19.75327359 37.49672272 19.75906771 34.94322491 19.76952171 C34.20110056 19.76146531 33.4589762 19.7534089 32.69436324 19.74510837 C28.29659318 19.78727013 25.41472785 20.34958212 21.9591856 23.13701439 Z " fill="#DD3D7D" transform="translate(14.040814399719238,11.862985610961914)"/>
<path d="M0 0 C0.76166473 -0.00067474 1.52332947 -0.00134949 2.30807495 -0.00204468 C13.68085486 0.01397185 24.5549096 0.47968474 35.625 3.25 C36.31190918 3.41628906 36.99881836 3.58257812 37.70654297 3.75390625 C75.24923193 13.0343146 108.88053869 37.88959371 128.90234375 70.953125 C130.89863516 74.33990211 132.77039241 77.78380237 134.625 81.25 C135.07230469 82.04019531 135.51960938 82.83039063 135.98046875 83.64453125 C145.5141651 101.2618148 150.91261578 122.26664553 150.6875 142.25 C150.68298828 143.02472656 150.67847656 143.79945313 150.67382812 144.59765625 C150.66219758 146.48180524 150.64426906 148.36591365 150.625 150.25 C150.295 150.25 149.965 150.25 149.625 150.25 C149.51285156 149.14205078 149.51285156 149.14205078 149.3984375 148.01171875 C147.41792909 132.73073721 139.01351737 122.08431442 127.125 112.6875 C112.93819996 102.51820086 96.38001481 94.77714598 79.3046875 91.0234375 C78.43763184 90.82717773 77.57057617 90.63091797 76.67724609 90.42871094 C75.01861343 90.06886983 73.35175748 89.74445457 71.67822266 89.46191406 C69.36711328 88.96820189 67.63542066 88.49712579 65.625 87.25 C63.92710373 84.4052129 63.31081441 81.46814939 62.625 78.25 C62.20483895 76.7304067 61.77518234 75.21340602 61.3359375 73.69921875 C61.12155029 72.92852051 60.90716309 72.15782227 60.6862793 71.36376953 C54.11765555 48.1410791 42.6437438 20.40221902 20.84375 7.4296875 C20.1115625 7.04039062 19.379375 6.65109375 18.625 6.25 C17.8928125 5.84007812 17.160625 5.43015625 16.40625 5.0078125 C8.01738091 0.95319244 -1.83023941 0.80131111 -10.75390625 3.1328125 C-30.58150898 10.78024037 -42.35808692 29.00059278 -50.84936523 47.52636719 C-53.83244387 54.26345376 -56.36988309 60.89239738 -58.1796875 68.046875 C-58.46763184 69.1827002 -58.75557617 70.31852539 -59.05224609 71.48876953 C-59.59067408 73.70479214 -60.09259613 75.93008275 -60.55322266 78.16357422 C-62.30342021 85.52708142 -62.30342021 85.52708142 -65.26586914 87.52563477 C-67.62994294 88.33618172 -69.91486373 88.81749139 -72.375 89.25 C-73.91994103 89.67511144 -75.46046258 90.11661691 -76.99609375 90.57421875 C-77.77726562 90.79392334 -78.5584375 91.01362793 -79.36328125 91.23999023 C-103.25275749 98.04344255 -128.85280449 109.19182927 -142.9765625 130.6875 C-146.3979986 136.93012026 -147.56630321 143.22520106 -148.375 150.25 C-148.705 150.25 -149.035 150.25 -149.375 150.25 C-150.70229665 111.41428315 -135.22722707 74.78355045 -108.89453125 46.4453125 C-79.87113433 16.10918288 -41.91505646 0.03326458 0 0 Z " fill="#EE3C72" transform="translate(261.375,190.75)"/>
<path d="M0 0 C0.33 0 0.66 0 1 0 C1.07476562 0.73863281 1.14953125 1.47726562 1.2265625 2.23828125 C3.16396923 17.18670374 11.28499982 27.4718864 22.5625 37.0625 C37.00443528 48.05956999 54.74031112 56.15720098 72.3671875 60.359375 C73.19428223 60.55821289 74.02137695 60.75705078 74.87353516 60.96191406 C76.40927154 61.30963987 77.95374611 61.62158246 79.50537109 61.88964844 C81.578125 62.34375 81.578125 62.34375 85 64 C86.65248863 66.82234567 87.24793555 69.83825964 88 73 C88.62174007 75.04367951 89.25950541 77.08252779 89.91015625 79.1171875 C90.25498047 80.2095874 90.59980469 81.3019873 90.95507812 82.42749023 C98.79516751 106.83443518 110.11308781 132.59272037 134 145 C134.61101562 145.34160156 135.22203125 145.68320312 135.8515625 146.03515625 C143.98823092 149.88842433 155.58964353 149.16525028 163.9375 146.4375 C169.34313086 144.12657261 173.64569133 140.90871515 178 137 C178.72832031 136.37609375 179.45664062 135.7521875 180.20703125 135.109375 C198.46303516 118.35605442 206.55425796 92.14178607 213 69 C213.66 69 214.32 69 215 69 C217.43129259 76.45316263 219.85118719 83.90995533 222.26318359 91.36938477 C223.08429366 93.90699236 223.90961797 96.44311734 224.73681641 98.97875977 C225.92516343 102.6229764 227.10410612 106.27012026 228.28125 109.91796875 C228.83903137 111.61822456 228.83903137 111.61822456 229.40808105 113.35282898 C229.74843384 114.41355118 230.08878662 115.47427338 230.43945312 116.56713867 C230.89245789 117.96279305 230.89245789 117.96279305 231.35461426 119.38664246 C232.019105 122.07736179 232.28205399 124.24280426 232 127 C211.56435668 145.38107236 177.05892909 150.44092096 150.8125 150.3125 C150.03964661 150.31067719 149.26679321 150.30885437 148.47052002 150.30697632 C137.05256993 150.26162361 126.11825568 149.80786905 115 147 C114.31454102 146.83371094 113.62908203 146.66742188 112.92285156 146.49609375 C80.75682475 138.54659513 51.07857039 119.38142989 31 93 C30.33484375 92.15050781 29.6696875 91.30101562 28.984375 90.42578125 C11.50313765 67.40423049 -0.36748475 37.67681374 -0.0625 8.5625 C-0.05798828 7.73556641 -0.05347656 6.90863281 -0.04882812 6.05664062 C-0.03715811 4.03772854 -0.01922718 2.01885426 0 0 Z " fill="#F04F69" transform="translate(112,342)"/>
<path d="M0 0 C8.35748402 0.45279871 15.64208647 3.0578291 23.46484375 5.8828125 C24.86590038 6.38105339 26.26723797 6.87850483 27.6688385 7.37521362 C30.60175569 8.41679222 33.53233813 9.4646 36.46118164 10.51757812 C40.15944413 11.8471421 43.86135665 13.1661294 47.56482506 14.48111343 C60.06184763 18.91909121 72.55979731 23.36479712 84.94140625 28.1171875 C86.01393898 28.52446579 86.01393898 28.52446579 87.10813904 28.93997192 C89.90437191 30.03283018 91.85232284 30.85232284 94 33 C94.5146681 36.31719674 94.79755377 38.8067633 92.8671875 41.69482422 C91.31542636 43.37302139 89.70088779 44.9109149 88 46.4375 C87.42765625 46.97826172 86.8553125 47.51902344 86.265625 48.07617188 C84.85912094 49.40062987 83.43155201 50.70265599 82 52 C87.58315089 58.82817408 93.85777251 64.93622961 100.125 71.125 C102.27639827 73.24964117 104.42434346 75.37768927 106.5703125 77.5078125 C107.05581573 77.9850174 107.54131897 78.46222229 108.04153442 78.95388794 C115.90847707 86.76444043 115.90847707 86.76444043 116.25 91.375 C114.95643131 95.12634921 114.38902338 95.80098418 111.46875 98.1796875 C106.79439483 102.12099502 102.53268205 106.391249 98.25 110.75 C96.77843978 112.24715257 95.30456316 113.74203266 93.828125 115.234375 C93.1877832 115.88631836 92.54744141 116.53826172 91.88769531 117.20996094 C89.13837149 119.81705383 86.98618859 121.75097677 83.27734375 122.6875 C77.9841272 121.57712323 75.18053893 117.84516605 71.5625 114 C70.83740234 113.25621094 70.11230469 112.51242187 69.36523438 111.74609375 C65.29262179 107.53809333 61.39995851 103.20052988 57.56958008 98.77246094 C54.79122061 95.63497614 51.74619428 92.78015946 48.72265625 89.8828125 C47 88 47 88 47 86 C46.49210937 86.44730469 45.98421875 86.89460938 45.4609375 87.35546875 C44.02962937 88.61255398 42.59175476 89.8621902 41.1484375 91.10546875 C39.86749835 92.23502418 38.61131897 93.39538243 37.4140625 94.61328125 C35.35933032 96.62828104 33.78769295 97.96992445 30.8515625 98.08203125 C28.625 97.8125 28.625 97.8125 25 97 C21.61134725 88.49275833 18.62519048 79.95599158 16.00390625 71.18359375 C15.64787827 70.00644302 15.29185028 68.8292923 14.92503357 67.61647034 C13.79960295 63.89151209 12.68093429 60.16456413 11.5625 56.4375 C10.81750315 53.96796441 10.0720635 51.49856236 9.32617188 49.02929688 C7.88135183 44.24534602 6.4444849 39.4591057 5.01220703 34.67138672 C3.73683945 30.4178957 2.432681 26.17563673 1.09326172 21.94189453 C0.80563461 21.02118668 0.51800751 20.10047882 0.22166443 19.15187073 C-0.30623728 17.46587881 -0.84295908 15.78261065 -1.39048767 14.10289001 C-2.64638104 10.06030331 -3.45927941 7.05518812 -2 3 C-1.34 2.01 -0.68 1.02 0 0 Z " fill="#F38950" transform="translate(331,378)"/>
<path d="M0 0 C36.6983678 -1.59301597 72.00539082 14.39106355 98.88769531 38.70751953 C112.25862859 51.13593376 122.41310679 64.95139269 131 81 C131.44730469 81.79019531 131.89460937 82.58039063 132.35546875 83.39453125 C141.8891651 101.0118148 147.28761578 122.01664553 147.0625 142 C147.05798828 142.77472656 147.05347656 143.54945313 147.04882812 144.34765625 C147.03719758 146.23180524 147.01926906 148.11591365 147 150 C146.67 150 146.34 150 146 150 C145.88785156 148.89205078 145.88785156 148.89205078 145.7734375 147.76171875 C143.79292909 132.48073721 135.38851737 121.83431442 123.5 112.4375 C109.31319996 102.26820086 92.75501481 94.52714598 75.6796875 90.7734375 C74.81263184 90.57717773 73.94557617 90.38091797 73.05224609 90.17871094 C71.39361343 89.81886983 69.72675748 89.49445457 68.05322266 89.21191406 C65.74211328 88.71820189 64.01042066 88.24712579 62 87 C60.30210373 84.1552129 59.68581441 81.21814939 59 78 C58.57983895 76.4804067 58.15018234 74.96340602 57.7109375 73.44921875 C57.49655029 72.67852051 57.28216309 71.90782227 57.0612793 71.11376953 C50.45127441 47.74478037 39.00080472 20.40657146 17.26171875 7.17578125 C11.7029366 4.28598259 6.17452857 2.10572231 0 1 C0 0.67 0 0.34 0 0 Z " fill="#F16061" transform="translate(265,191)"/>
<path d="M0 0 C60.39 0 120.78 0 183 0 C183 5.28 183 10.56 183 16 C122.61 16 62.22 16 0 16 C0 10.72 0 5.44 0 0 Z " fill="#D72C87" transform="translate(47,44)"/>
<path d="M0 0 C24.26862981 0 24.26862981 0 33.4375 1.375 C34.38947266 1.50132812 35.34144531 1.62765625 36.32226562 1.7578125 C41.0839004 2.42238121 45.48649456 3.26693447 50 5 C50.69615148 9.03712312 51.3507099 13.08009815 52 17.125 C52.19078125 18.2284375 52.3815625 19.331875 52.578125 20.46875 C54.38890946 31.98016547 54 41.89036233 54 54 C36.18 54 18.36 54 0 54 C0 36.18 0 18.36 0 0 Z " fill="#F15B64" transform="translate(268,282)"/>
<path d="M0 0 C0 17.82 0 35.64 0 54 C-17.82 54 -35.64 54 -54 54 C-54 43.53617392 -53.80211896 33.68610938 -52.625 23.375 C-52.49867188 22.16199219 -52.37234375 20.94898438 -52.2421875 19.69921875 C-51.63455208 14.17581278 -50.89937902 9.24753656 -49 4 C-46.02124032 3.51818638 -43.04203251 3.03949143 -40.0625 2.5625 C-39.23169922 2.42779297 -38.40089844 2.29308594 -37.54492188 2.15429688 C-36.71669922 2.02216797 -35.88847656 1.89003906 -35.03515625 1.75390625 C-33.91185913 1.57323608 -33.91185913 1.57323608 -32.76586914 1.38891602 C-21.385731 -0.21127465 -11.97658893 0 0 0 Z " fill="#F04A6C" transform="translate(256,282)"/>
<path d="M0 0 C17.82 0 35.64 0 54 0 C54 16.2996029 53.96836144 33.02651151 50 49 C47.31400313 51.68599687 40.43224125 51.14932364 36.8125 51.5625 C35.16411133 51.77036133 35.16411133 51.77036133 33.48242188 51.98242188 C22.14105158 53.2809544 11.66280796 53 0 53 C0 35.51 0 18.02 0 0 Z " fill="#F1655F" transform="translate(268,348)"/>
<path d="M0 0 C17.82 0 35.64 0 54 0 C54 17.49 54 34.98 54 53 C29.73137019 53 29.73137019 53 20.5625 51.625 C19.61052734 51.49867188 18.65855469 51.37234375 17.67773438 51.2421875 C12.9160996 50.57761879 8.51350544 49.73306553 4 48 C1.59679688 31.76537949 0 16.52986387 0 0 Z " fill="#F05467" transform="translate(202,348)"/>
<path d="M0 0 C-0.77176019 15.3539659 -1.90429615 30.66014606 -3 46 C-25.11 46 -47.22 46 -70 46 C-68.12542986 34.75257917 -60.24258428 26.48446871 -51.12890625 19.9375 C-36.77686852 10.76366315 -17.39961501 0 0 0 Z " fill="#EE4070" transform="translate(194,290)"/>
<path d="M0 0 C-0.57940552 6.33678953 -2.02802284 11.97999431 -4.0625 18 C-4.37268066 18.91845703 -4.68286133 19.83691406 -5.00244141 20.78320312 C-11.25951881 38.76410056 -20.82235175 59.13953177 -38.3125 68.5 C-42 70 -42 70 -46 70 C-46.02312635 61.4119428 -46.04091658 52.82389851 -46.05181217 44.23581791 C-46.05704036 40.248428 -46.06413684 36.26105933 -46.07543945 32.27368164 C-46.08627061 28.42874886 -46.09227732 24.58383655 -46.09487724 20.73888969 C-46.09673108 19.26881017 -46.10035091 17.79873182 -46.10573006 16.32866096 C-46.11294355 14.27645533 -46.11399081 12.22433533 -46.11352539 10.17211914 C-46.115746 9.00185684 -46.11796661 7.83159454 -46.12025452 6.62586975 C-46 4 -46 4 -45 3 C-43.39671734 2.86611064 -41.7879886 2.79644102 -40.1796875 2.75390625 C-38.67414307 2.70641235 -38.67414307 2.70641235 -37.13818359 2.65795898 C-35.52290771 2.61070679 -35.52290771 2.61070679 -33.875 2.5625 C-25.48116537 2.27483565 -17.32246482 1.72747981 -9.0234375 0.40234375 C-5.97815464 -0.00290707 -3.06818709 -0.06910331 0 0 Z " fill="#F26E5C" transform="translate(314,409)"/>
<path d="M0 0 C19.8374081 1.85332186 42.29110074 11.4727882 57 25 C57.70253906 25.61230469 58.40507812 26.22460938 59.12890625 26.85546875 C64.18406557 31.51962127 67.60696561 36.52270018 70 43 C70 43.99 70 44.98 70 46 C47.89 46 25.78 46 3 46 C2.67 39.07 2.34 32.14 2 25 C1.24942147 18.37481896 1.24942147 18.37481896 0.40234375 11.76171875 C-0.02291084 7.78579479 -0.06649516 3.99414255 0 0 Z " fill="#F26E5C" transform="translate(330,290)"/>
<path d="M0 0 C11.24742083 1.87457014 19.51553129 9.75741572 26.0625 18.87109375 C35.23633685 33.22313148 46 52.60038499 46 70 C35.70454447 69.39250418 25.41408682 68.7064736 15.125 68 C13.87041992 67.9170166 12.61583984 67.8340332 11.32324219 67.74853516 C10.14665039 67.66651855 8.97005859 67.58450195 7.7578125 67.5 C6.6970752 67.4278125 5.63633789 67.355625 4.54345703 67.28125 C2 67 2 67 0 66 C0 44.22 0 22.44 0 0 Z " fill="#F04E6A" transform="translate(268,204)"/>
<path d="M0 0 C22.11 0 44.22 0 67 0 C67.495 5.919375 67.99 11.83875 68.5 17.9375 C68.65662109 19.78722412 68.81324219 21.63694824 68.97460938 23.54272461 C69.09794806 25.03757361 69.22101256 26.53244527 69.34375 28.02734375 C69.40852539 28.78019653 69.47330078 29.53304932 69.54003906 30.30871582 C69.96605459 35.55529985 70.05481044 40.73591398 70 46 C47.32496949 43.41111856 19.55644127 30.54985448 5.1484375 12.70703125 C1.90620456 8.12027044 0.97228809 5.83372853 0 0 Z " fill="#EF446E" transform="translate(124,348)"/>
<path d="M0 0 C0 21.78 0 43.56 0 66 C-2.6265715 67.31328575 -4.82324781 67.3002909 -7.7578125 67.5 C-8.9344043 67.5820166 -10.11099609 67.6640332 -11.32324219 67.74853516 C-12.57782227 67.83151855 -13.83240234 67.91450195 -15.125 68 C-17.02233887 68.13027588 -17.02233887 68.13027588 -18.95800781 68.26318359 C-27.96967585 68.87787761 -36.98305178 69.46794405 -46 70 C-45.44736099 63.42206073 -43.78399268 57.74102091 -41.5 51.5625 C-41.14470215 50.59965088 -40.7894043 49.63680176 -40.42333984 48.64477539 C-33.7175576 30.96416533 -23.5500073 9.20382647 -5.39453125 0.79296875 C-3 0 -3 0 0 0 Z " fill="#EF446E" transform="translate(256,204)"/>
<path d="M0 0 C1.8126345 0.14415198 3.62510022 0.29042636 5.4375 0.4375 C6.95150391 0.55931641 6.95150391 0.55931641 8.49609375 0.68359375 C11.05281792 0.91446851 13.58251085 1.19218535 16.12890625 1.50390625 C23.00075386 2.28227556 29.91279544 2.3860535 36.8203125 2.60546875 C38.37878906 2.66154297 38.37878906 2.66154297 39.96875 2.71875 C41.38317383 2.76418945 41.38317383 2.76418945 42.82617188 2.81054688 C45 3 45 3 46 4 C46.09413687 6.05556661 46.11742998 8.11440181 46.11352539 10.17211914 C46.11367142 10.81600082 46.11381744 11.45988251 46.1139679 12.12327576 C46.11326885 14.26060303 46.10547691 16.39784413 46.09765625 18.53515625 C46.09579204 20.01346285 46.09436815 21.49177007 46.09336853 22.97007751 C46.08954359 26.86798802 46.07971352 30.76586149 46.06866455 34.66375732 C46.05844992 38.63846333 46.0538708 42.61317529 46.04882812 46.58789062 C46.03809122 54.391944 46.02101509 62.19596682 46 70 C36.83070628 68.62817269 29.81868909 63.11312749 24 56 C13.21398686 41.16189117 0 18.70562625 0 0 Z " fill="#F16161" transform="translate(210,409)"/>
<path d="M0 0 C0.66 0 1.32 0 2 0 C4.43129259 7.45316263 6.85118719 14.90995533 9.26318359 22.36938477 C10.08429366 24.90699236 10.90961797 27.44311734 11.73681641 29.97875977 C12.92516343 33.6229764 14.10410612 37.27012026 15.28125 40.91796875 C15.83903137 42.61822456 15.83903137 42.61822456 16.40808105 44.35282898 C16.74843384 45.41355118 17.08878662 46.47427338 17.43945312 47.56713867 C17.7414563 48.49757492 18.04345947 49.42801117 18.35461426 50.38664246 C19.019105 53.07736179 19.28205399 55.24280426 19 58 C5.78567434 69.88577586 -15.09691783 75.25399814 -32 79 C-33.04542969 79.24621094 -34.09085937 79.49242187 -35.16796875 79.74609375 C-46.86207282 82.03441371 -59.1397089 81.17263888 -71 81 C-71 80.67 -71 80.34 -71 80 C-69.45892578 79.96132813 -69.45892578 79.96132813 -67.88671875 79.921875 C-54.71594259 79.44687908 -45.03813912 77.01089688 -35 68 C-34.27167969 67.37609375 -33.54335938 66.7521875 -32.79296875 66.109375 C-14.53696484 49.35605442 -6.44574204 23.14178607 0 0 Z " fill="#F37A56" transform="translate(325,411)"/>
<path d="M0 0 C22.11 0 44.22 0 67 0 C65.82382102 7.0570739 63.54479933 9.77714593 59 15 C58.484375 15.61101562 57.96875 16.22203125 57.4375 16.8515625 C51.74642706 23.08328737 43.91636003 28.42676479 35.875 31 C29.93209867 31 24.98183068 28.77926328 19.5 26.625 C17.30448399 25.77760786 15.10661763 24.93627579 12.90625 24.1015625 C11.94009766 23.72338379 10.97394531 23.34520508 9.97851562 22.95556641 C6.3939257 21.7137128 6.3939257 21.7137128 0 21 C0 14.07 0 7.14 0 0 Z " fill="#F27658" transform="translate(333,348)"/>
<path d="M0 0 C0.33 0 0.66 0 1 0 C1.49293026 17.65420602 -0.26380724 33.25730539 -6 50 C-11.26621606 49.40421223 -15.94408019 48.18691204 -20.9375 46.4375 C-21.96327148 46.08655273 -21.96327148 46.08655273 -23.00976562 45.72851562 C-24.67508501 45.15788171 -26.33782493 44.57972902 -28 44 C-26.69441137 40.0832341 -24.23408772 38.83870801 -21 36.5625 C-10.40661146 28.72855004 -2.97230388 18.72865303 -0.546875 5.53515625 C-0.30141568 3.69744105 -0.13953039 1.84877763 0 0 Z " fill="#F38452" transform="translate(411,342)"/>
<path d="M0 0 C2.93423195 1.79646854 4.47205355 2.9441071 6 6 C6.53118252 10.91996928 6.75105553 14.77327597 4.125 19.0625 C0.38214851 22.47509989 -2.60769925 22.32843064 -7.515625 22.29296875 C-10.97198834 21.88537873 -12.68663869 20.53723498 -15 18 C-16.84862688 14.30274625 -16.47587094 10.03538558 -16 6 C-11.95766104 -0.60248696 -7.2842127 -0.85898735 0 0 Z " fill="#F15B64" transform="translate(459,41)"/>
<path d="M0 0 C2.93423195 1.79646854 4.47205355 2.9441071 6 6 C6.53118252 10.91996928 6.75105553 14.77327597 4.125 19.0625 C0.38214851 22.47509989 -2.60769925 22.32843064 -7.515625 22.29296875 C-10.97198834 21.88537873 -12.68663869 20.53723498 -15 18 C-16.84862688 14.30274625 -16.47587094 10.03538558 -16 6 C-11.95766104 -0.60248696 -7.2842127 -0.85898735 0 0 Z " fill="#F04F6A" transform="translate(414,41)"/>
<path d="M0 0 C2.93423195 1.79646854 4.47205355 2.9441071 6 6 C6.53118252 10.91996928 6.75105553 14.77327597 4.125 19.0625 C0.38214851 22.47509989 -2.60769925 22.32843064 -7.515625 22.29296875 C-10.97198834 21.88537873 -12.68663869 20.53723498 -15 18 C-16.84862688 14.30274625 -16.47587094 10.03538558 -16 6 C-11.95766104 -0.60248696 -7.2842127 -0.85898735 0 0 Z " fill="#F0446E" transform="translate(369,41)"/>
</svg>
